<svg xmlns="http://www.w3.org/2000/svg" xmlns:xlink="http://www.w3.org/1999/xlink" width="14" height="14" viewBox="0 0 14 14">
    <defs>
        <path id="prefix__a" d="M13.051 8.474c.283 0 .511.247.511.552v1.6c0 1.86-1.4 3.374-3.122 3.374H3.73C2.01 14 .609 12.486.609 10.625V9.026c0-.305.229-.552.511-.552.283 0 .512.247.512.552v1.6c0 1.25.943 2.269 2.1 2.269h6.709c1.157 0 2.1-1.02 2.1-2.27V9.026c0-.305.228-.552.511-.552zm0-2.027c.283 0 .511.247.511.553 0 .306-.228.553-.51.553H.948C.666 7.553.438 7.306.438 7c0-.306.228-.553.51-.553zM10.44 0c1.722 0 3.123 1.514 3.123 3.375v1.599c0 .305-.229.552-.512.552-.283 0-.511-.247-.511-.552v-1.6c0-1.25-.943-2.269-2.1-2.269H3.73c-1.156 0-2.1 1.02-2.1 2.27v1.599c0 .305-.228.552-.51.552-.284 0-.512-.247-.512-.552v-1.6C.608 1.515 2.008 0 3.731 0z"/>
    </defs>
    <g fill="none" fill-rule="evenodd">
        <mask id="prefix__b" fill="#fff">
            <use xlink:href="#prefix__a"/>
        </mask>
        <use fill="#000" fill-rule="nonzero" xlink:href="#prefix__a"/>
        <path fill="#062536" d="M0 0H14V14H0z" mask="url(#prefix__b)"/>
    </g>
</svg>
