<svg xmlns="http://www.w3.org/2000/svg" xmlns:xlink="http://www.w3.org/1999/xlink" width="18" height="18" viewBox="0 0 18 18">
    <defs>
        <path id="prefix__a" d="M11.861 14.216l.786-4.122 1.16 1.161 2.052-2.052c.9-.899.919-2.336.044-3.211-.43-.43-.996-.644-1.568-.644-.59 0-1.188.23-1.645.686L6.325 12.4c-.73.729-1.707 1.127-2.7 1.126-.304 0-.61-.037-.91-.114-1.283-.327-2.273-1.318-2.6-2.6-.328-1.28.058-2.656 1.013-3.61l1.88-1.88L1.846 4.16l4.122-.785-.785 4.122-1.161-1.162-1.88 1.881c-.9.9-.919 2.338-.044 3.213.43.43.995.644 1.566.644.591 0 1.189-.23 1.646-.688l6.366-6.366c.73-.728 1.705-1.125 2.697-1.125.305 0 .612.038.914.115 1.281.327 2.272 1.317 2.598 2.598.328 1.28-.058 2.656-1.011 3.61l-2.053 2.052 1.162 1.162-4.122.785"/>
    </defs>
    <g fill="none" fill-rule="evenodd">
        <mask id="prefix__b" fill="#fff">
            <use xlink:href="#prefix__a"/>
        </mask>
        <use fill="#111F28" xlink:href="#prefix__a"/>
        <path fill="#062536" d="M0 0H18V18H0z" mask="url(#prefix__b)"/>
    </g>
</svg>
