<svg xmlns="http://www.w3.org/2000/svg" xmlns:xlink="http://www.w3.org/1999/xlink" width="16" height="16" viewBox="0 0 16 16">
    <defs>
        <path id="a5sdkwh71a" d="M10.242 14.968V16H6.113v-1.032h4.13zM8.177 0c3.149 0 5.677 2.53 5.677 5.677 0 1.239-.413 2.426-1.083 3.355l-.053.051c-.102.155-.206.31-.36.465-.723.876-2.117 2.787-2.117 4.386H6.112c0-1.6-1.393-3.509-2.116-4.386-.103-.155-.257-.31-.361-.465l-.051-.051C2.914 8.103 2.5 6.916 2.5 5.677 2.5 2.528 5.03 0 8.177 0z"/>
    </defs>
    <g fill="none" fill-rule="evenodd">
        <mask id="fvmncwi2yb" fill="#fff">
            <use xlink:href="#a5sdkwh71a"/>
        </mask>
        <use fill="#000" fill-rule="nonzero" xlink:href="#a5sdkwh71a"/>
        <path fill="#734BE2" d="M0 0H16V16H0z" mask="url(#fvmncwi2yb)"/>
    </g>
</svg>
