<svg xmlns="http://www.w3.org/2000/svg" xmlns:xlink="http://www.w3.org/1999/xlink" width="16" height="16" viewBox="0 0 16 16">
    <defs>
        <path id="prefix__a" d="M7.262.032C5.234.22 3.355 1.174 2.006 2.701.657 4.227-.06 6.21.004 8.245c.063 2.036.9 3.971 2.34 5.412 1.44 1.44 3.375 2.276 5.41 2.34 2.036.062 4.02-.654 5.546-2.002 1.526-1.35 2.48-3.23 2.668-5.257.212-2.367-.638-4.707-2.318-6.388C11.97.67 9.63-.18 7.262.032zm5.036 6.17l-4.742 4.693c-.296.288-.768.288-1.063 0l-2.795-2.67c-.304-.291-.314-.774-.022-1.079.292-.303.775-.314 1.08-.021L7.01 9.289l4.222-4.17c.3-.284.773-.275 1.064.02.29.293.293.766.006 1.063h-.005z"/>
    </defs>
    <g fill="none" fill-rule="evenodd">
        <mask id="prefix__b" fill="#fff">
            <use xlink:href="#prefix__a"/>
        </mask>
        <use fill="#000" fill-rule="nonzero" xlink:href="#prefix__a"/>
        <path fill="#DADADA" d="M0 0H16V16H0z" mask="url(#prefix__b)"/>
    </g>
</svg>
