<svg xmlns="http://www.w3.org/2000/svg" xmlns:xlink="http://www.w3.org/1999/xlink" width="18" height="18" viewBox="0 0 18 18">
    <defs>
        <path id="prefix__a" d="M9.354 2.636c.169-.654.896-1.086 1.553-.908.323.084.598.292.77.585.172.29.22.633.135.96L8.62 15.582c-.145.56-.65.952-1.23.952-.109 0-.215-.014-.319-.04-.677-.178-1.085-.872-.91-1.549zM4.162 4.475c.419-.42 1.196-.419 1.615-.002.217.218.335.504.335.809 0 .306-.118.593-.334.809l-3.02 3.02 3.019 3.02c.217.215.335.502.335.807 0 .304-.118.592-.334.807-.218.217-.504.335-.808.335-.304 0-.59-.119-.807-.333L.335 9.917C.122 9.706 0 9.412 0 9.11c0-.3.122-.595.334-.807zm8.06 0c.42-.42 1.197-.42 1.615 0l3.828 3.828c.214.212.334.506.335.805 0 .3-.122.595-.335.807l-3.828 3.829c-.217.216-.504.334-.807.334-.304 0-.592-.118-.808-.333-.217-.217-.335-.504-.335-.809 0-.304.119-.592.334-.807l3.02-3.02-3.02-3.02c-.215-.214-.334-.501-.334-.808 0-.304.119-.592.334-.807z"/>
    </defs>
    <g fill="none" fill-rule="evenodd">
        <mask id="prefix__b" fill="#fff">
            <use xlink:href="#prefix__a"/>
        </mask>
        <use fill="#000" fill-rule="nonzero" xlink:href="#prefix__a"/>
        <path fill="#062536" d="M0 0H18V18H0z" mask="url(#prefix__b)"/>
    </g>
</svg>
