<svg xmlns="http://www.w3.org/2000/svg" xmlns:xlink="http://www.w3.org/1999/xlink" width="20" height="20" viewBox="0 0 20 20">
    <defs>
        <path id="prefix__a" d="M10 0c5.523 0 10 4.478 10 10 0 5.523-4.477 10-10 10-5.522 0-10-4.477-10-10C0 4.478 4.478 0 10 0zm0 1.875c-4.488 0-8.125 3.637-8.125 8.125 0 4.488 3.637 8.125 8.125 8.125 4.488 0 8.125-3.637 8.125-8.125 0-4.488-3.637-8.125-8.125-8.125zm.625 2.813v4.687h4.688v1.25h-4.688v4.688h-1.25v-4.688H4.687v-1.25h4.688V4.687h1.25z"/>
    </defs>
    <g fill="none" fill-rule="evenodd">
        <mask id="prefix__b" fill="#fff">
            <use xlink:href="#prefix__a"/>
        </mask>
        <use fill="#000" fill-rule="nonzero" xlink:href="#prefix__a"/>
        <path fill="#FFF" d="M0 0H20V20H0z" mask="url(#prefix__b)"/>
    </g>
</svg>
