<svg xmlns="http://www.w3.org/2000/svg" xmlns:xlink="http://www.w3.org/1999/xlink" width="18" height="18" viewBox="0 0 18 18">
    <defs>
        <path id="bv1c099j9a" d="M9 13.5c.17 0 .334.068.455.188.12.12.188.284.188.455v3.214c0 .355-.288.643-.643.643-.355 0-.643-.288-.643-.643v-3.214c0-.355.288-.643.643-.643zm-4.091-1.318c.252-.24.65-.236.898.011.247.247.252.646.01.898l-2.272 2.273c-.12.123-.284.193-.456.194-.172 0-.337-.067-.459-.188-.121-.121-.189-.287-.188-.459 0-.172.07-.336.194-.456zm7.284.011c.247-.247.646-.252.898-.01l2.273 2.272c.245.252.243.655-.005.903-.25.249-.652.251-.904.006l-2.273-2.273c-.24-.252-.236-.65.011-.898zM9 5.143c2.13 0 3.857 1.727 3.857 3.857S11.13 12.857 9 12.857 5.143 11.13 5.143 9 6.87 5.143 9 5.143zM3.857 8.357c.17 0 .334.068.455.188.12.12.188.285.188.455 0 .17-.068.334-.188.455-.12.12-.284.188-.455.188H.643C.288 9.643 0 9.355 0 9c0-.355.288-.643.643-.643zm13.5 0c.355 0 .643.288.643.643 0 .355-.288.643-.643.643h-3.214c-.355 0-.643-.288-.643-.643 0-.355.288-.643.643-.643zm-2.902-5.721c.252-.245.655-.243.903.006.249.248.251.651.006.903L13.09 5.818c-.12.121-.284.189-.455.189v-.001l-.095-.007c-.19-.029-.356-.14-.455-.303l-.043-.086c-.1-.24-.045-.517.14-.701zm-11.811.008c.248-.248.649-.252.901-.008l2.273 2.273c.24.252.236.65-.011.898-.247.247-.646.252-.898.01L2.636 3.546c-.244-.252-.24-.653.008-.901zM9 0c.355 0 .643.288.643.643v3.214c0 .17-.068.334-.188.455-.12.12-.285.188-.455.188-.17 0-.334-.068-.455-.188-.12-.12-.188-.284-.188-.455V.643C8.357.288 8.645 0 9 0z"/>
    </defs>
    <g fill="none" fill-rule="evenodd">
        <mask id="osunfiz91b" fill="#fff">
            <use xlink:href="#bv1c099j9a"/>
        </mask>
        <use fill="#000" fill-rule="nonzero" xlink:href="#bv1c099j9a"/>
        <path fill="#EDEDED" d="M0 0H18V18H0z" mask="url(#osunfiz91b)"/>
    </g>
</svg>
