<svg xmlns="http://www.w3.org/2000/svg" xmlns:xlink="http://www.w3.org/1999/xlink" width="14" height="14" viewBox="0 0 14 14">
    <defs>
        <path id="r9rons388a" d="M10.254 0l.028.045c.155.267.3.55.434.842 1.641 3.597 2.134 8.906-.435 12.99l-.028.046c-.098.16-2.09.022-2.315.026.272-.005.792-2.893.85-3.216.214-1.173.328-2.365.344-3.557.03-2.21-.153-4.773-1.079-6.812C7.996.235 7.936.114 7.875 0h2.379zm-7.12 3.062L7.437 7l-4.303 3.937-.946-.866L5.543 7 2.188 3.929l.946-.867z"/>
    </defs>
    <g fill="none" fill-rule="evenodd">
        <mask id="ur014behvb" fill="#fff">
            <use xlink:href="#r9rons388a"/>
        </mask>
        <use fill="#000" fill-rule="nonzero" xlink:href="#r9rons388a"/>
        <path fill="#96989E" d="M0 0H14V14H0z" mask="url(#ur014behvb)"/>
    </g>
</svg>
