<?xml version="1.0" encoding="UTF-8"?>
<svg width="0.875rem" height="0.875rem" viewBox="0 0 14 14" version="1.1" xmlns="http://www.w3.org/2000/svg" xmlns:xlink="http://www.w3.org/1999/xlink">
    <title>CA005A98-0E54-4590-94A4-C4332E83CFA3</title>
    <defs>
        <path d="M7,0 C3.13418,0 0,3.13418 0,7 C0,10.86582 3.13418,14 7,14 C10.86582,14 14,10.86582 14,7 C14,3.13418 10.86582,0 7,0 Z M10.36322,5.12148 L5.62618,9.85852 C5.62016434,9.86453566 5.613055,9.86836368 5.6048524,9.8694575 L5.61032122,9.87492618 L3.58200122,10.4179722 L4.12559322,8.39021218 L4.1310619,8.39568086 L4.13051506,8.39513402 C4.13160888,8.38693086 4.1354369,8.37982082 4.14145256,8.37380642 L8.87849256,3.63676642 C8.88888322,3.6263759 8.90419516,3.62309458 8.91841496,3.62746958 L8.91786812,3.62746958 C9.08193412,3.54434458 9.28044012,3.57661038 9.41059812,3.70676698 L10.2948941,4.59106298 L10.2943473,4.590516 C10.4245039,4.7206726 10.4567753,4.919194 10.3736447,5.0827 C10.3774728,5.0969184 10.3736447,5.1116842 10.3632542,5.1215276 L10.36322,5.12148 Z" id="path-1"></path>
    </defs>
    <g id="[as]-⇢-markets" stroke="none" stroke-width="1" fill="none" fill-rule="evenodd">
        <g id="[as]-⇢-connect-wallet-◉-connected" transform="translate(-867.000000, -355.000000)">
            <g id="Modal-Window">
                <g id="coin-open" transform="translate(470.000000, 270.000000)">
                    <g id="content" transform="translate(10.000000, 69.000000)">
                        <g id="metamask" transform="translate(15.000000, 0.000000)">
                            <g id="connected-with" transform="translate(66.000000, 8.000000)">
                                <g id="btn-change" transform="translate(295.000000, 0.000000)">
                                    <g id="Icons/action/edit" transform="translate(11.000000, 8.000000)">
                                        <mask id="mask-2" fill="white">
                                            <use xlink:href="#path-1"></use>
                                        </mask>
                                        <use id="Shape" fill="#000000" fill-rule="nonzero" xlink:href="#path-1"></use>
                                        <rect id="▧-Color" fill="#734BE2" mask="url(#mask-2)" x="0" y="0" width="14" height="14"></rect>
                                    </g>
                                </g>
                            </g>
                        </g>
                    </g>
                </g>
            </g>
        </g>
    </g>
</svg>