<svg xmlns="http://www.w3.org/2000/svg" xmlns:xlink="http://www.w3.org/1999/xlink" width="18" height="18" viewBox="0 0 18 18">
    <defs>
        <path id="prefix__a" d="M18 4.5v3.375c0 .31-.252.563-.562.563-.311 0-.563-.253-.563-.563V5.858l-3.54 3.54c-.106.106-.247.165-.397.165-.151 0-.292-.059-.398-.165l-1.29-1.29-3.54 3.54c-.106.106-.247.165-.397.165-.151 0-.292-.059-.398-.165L5.063 9.795.96 13.898c-.22.22-.575.22-.795 0-.22-.22-.22-.576 0-.796l4.5-4.5c.106-.106.247-.164.398-.164.15 0 .29.058.397.164l1.853 1.853 3.54-3.54c.106-.107.247-.165.397-.165.15 0 .291.058.398.165l1.29 1.29 3.142-3.143h-2.017c-.311 0-.563-.252-.563-.562 0-.31.252-.563.563-.563h3.375c.31 0 .562.253.562.563z"/>
    </defs>
    <g fill="none" fill-rule="evenodd">
        <mask id="prefix__b" fill="#fff">
            <use xlink:href="#prefix__a"/>
        </mask>
        <use fill="#000" fill-rule="nonzero" xlink:href="#prefix__a"/>
        <path fill="#031A6E" d="M0 0H18V18H0z" mask="url(#prefix__b)"/>
    </g>
</svg>
