<svg xmlns="http://www.w3.org/2000/svg" xmlns:xlink="http://www.w3.org/1999/xlink" width="36" height="36" viewBox="0 0 36 36">
    <defs>
        <path id="uepzmjc1sa" d="M18 9c-.003-2.359-.932-4.621-2.586-6.303-1.653-1.682-3.9-2.647-6.259-2.69-.103-.01-.207-.01-.31 0-3.178.054-6.091 1.779-7.665 4.54-1.573 2.76-1.573 6.146 0 8.906 1.574 2.761 4.487 4.486 7.665 4.539.103.01.207.01.31 0 2.358-.043 4.606-1.008 6.26-2.69C17.067 13.622 17.996 11.36 18 9zM8.578.899v.027c-.015.435-.016 1.073-.019 2.012C8.556 4.49 8.555 6.632 8.555 9c0 2.368.002 4.51.004 6.062.003.939.004 1.578.019 2.012v.028C6.48 16.677 4.782 13.14 4.782 9c0-4.14 1.699-7.677 3.796-8.101zM9.423 17.1v-.027c.015-.435.016-1.074.018-2.013.003-1.551.005-3.694.005-6.062 0-2.367-.002-4.51-.005-6.062-.002-.939-.003-1.577-.018-2.012V.898c2.096.425 3.795 3.962 3.795 8.102 0 4.14-1.699 7.677-3.796 8.101zM.856 9c.003-1.693.532-3.342 1.514-4.72.982-1.377 2.368-2.414 3.966-2.968C4.882 2.878 3.927 5.7 3.927 9c0 3.3.956 6.123 2.41 7.688-1.599-.555-2.985-1.592-3.967-2.97C1.388 12.342.86 10.693.856 9zm10.807 7.687c1.455-1.565 2.41-4.389 2.41-7.688 0-3.299-.956-6.122-2.41-7.687 2.147.74 3.886 2.344 4.797 4.424.912 2.08.912 4.446 0 6.526-.911 2.08-2.65 3.685-4.797 4.425z"/>
    </defs>
    <g fill="none" fill-rule="evenodd">
        <circle cx="18" cy="18" r="18" fill="#363D5F"/>
        <g transform="translate(9 9)">
            <mask id="p2jfqlp7qb" fill="#fff">
                <use xlink:href="#uepzmjc1sa"/>
            </mask>
            <use fill="#000" fill-rule="nonzero" xlink:href="#uepzmjc1sa"/>
            <path fill="#DADADA" d="M0 0H18V18H0z" mask="url(#p2jfqlp7qb)"/>
        </g>
    </g>
</svg>
