<svg xmlns="http://www.w3.org/2000/svg" width="132" height="48" viewBox="0 0 132 48">
    <defs>
        <linearGradient id="prefix__a" x1="100%" x2="0%" y1="0%" y2="100%">
            <stop offset="0%" stop-color="#5F6BFB"/>
            <stop offset="100%" stop-color="#724DE4"/>
        </linearGradient>
    </defs>
    <g fill="none" fill-rule="evenodd">
        <path fill="url(#prefix__a)" d="M32.571 0H15.43C6.857 0 0 6.857 0 15.429V32.57C0 41.143 6.857 48 15.429 48H32.57C41.143 48 48 41.143 48 32.571V15.43C48 6.857 41.143 0 32.571 0z"/>
        <path fill="#FFF" d="M11.094 21.529c-1.563 1.562-2.196 3.819-1.658 5.918.536 2.1 2.16 3.724 4.26 4.26 2.099.537 4.355-.096 5.918-1.659l10.434-10.434c1.474-1.474 3.83-1.504 5.265-.07 1.435 1.435 1.404 3.791-.07 5.265l-3.362 3.363-1.904-1.904-1.288 6.758 6.758-1.289-1.904-1.903 3.363-3.363c1.563-1.562 2.196-3.819 1.658-5.918-.536-2.1-2.16-3.724-4.26-4.26-2.099-.537-4.355.096-5.918 1.659L17.952 28.386c-1.474 1.474-3.83 1.504-5.265.07-1.435-1.435-1.404-3.791.07-5.265l3.083-3.083 1.903 1.903 1.286-6.755-6.755 1.286 1.904 1.903-3.084 3.084z"/>
        <g fill="#000" fill-rule="nonzero">
            <path d="M6.45 15.929l.446-1.992h3.691l.445 1.992H17.1L11.69.488H5.793L.362 15.928H6.45zm3.48-5.868H7.574l.827-3.684.212-.857.17-1.07.106 1.028.212.899.827 3.684zm12.834 5.868l-.106-5.804c0-.357-.014-.689-.043-.996-.028-.307-.07-.617-.127-.932l-.297-1.456.36 1.157.977 2.291 3.521 5.74h5.6V.488h-5.494l.128 6.082c0 .5.035 1.013.106 1.542l.445 2.013-.89-2.506c-.128-.342-.298-.685-.51-1.028L22.806.488H17.27v15.44h5.495zm20.747 0V9.31L48.624.488h-6.067l-1.549 3.32-.19.856-.064.814-.149-.814-.085-.621-.063-.236-1.591-3.32h-6.047l5.134 8.824v6.618h5.558zM6.94 34.252c1.877 0 3.432-.53 4.666-1.59 1.233-1.059 1.85-2.366 1.85-3.922 0-.399-.043-.767-.127-1.104-.084-.337-.203-.643-.357-.919-.336-.605-.785-1.06-1.345-1.362-.14-.083-.277-.151-.41-.206-.133-.056-.263-.104-.39-.145-.28-.11-.693-.24-1.24-.392l-1.155-.29c-.42-.123-.722-.226-.904-.309-.154-.11-.231-.24-.231-.392 0-.523.399-.785 1.198-.785.434 0 .939.124 1.513.372.308.138.624.296.946.475.14.082.378.227.715.433l1.24-3.86c-.63-.371-1.107-.612-1.43-.722-.294-.138-.7-.269-1.219-.393-.882-.22-1.702-.33-2.459-.33-1.765 0-3.233.502-4.403 1.507-1.17 1.005-1.755 2.285-1.755 3.84 0 1.816.96 3.048 2.88 3.695l.756.268 1.05.248c.547.124.901.24 1.062.35.161.11.242.255.242.434 0 .262-.098.458-.294.589-.196.13-.463.196-.799.196-.617 0-1.317-.214-2.102-.64l-.84-.475-.947-.722-1.45 4.397c.77.454 1.338.77 1.703.95.364.178.939.35 1.723.515.42.11.806.186 1.156.227.35.042.736.062 1.156.062zm15.596-.35l1.345-6.256c.21-.812.315-1.273.315-1.383.084-.605.126-1.486.126-2.642 0 1.335.077 2.38.231 3.138l.21.887 1.346 6.255h4.876l4.793-14.884H30.46l-1.556 6.503-.21.867c-.084.523-.126 1.225-.126 2.106l-.147-1.734-.063-.826-.084-.454-1.66-6.462h-4.562l-1.66 6.462c-.07.206-.12.413-.147.62l-.021.66-.127 1.734-.189-1.755-.063-.62-.105-.598-1.513-6.503h-5.318l4.75 14.884h4.877zm16.815 0l.441-1.92h3.658l.441 1.92h6.012l-5.36-14.885h-5.844l-5.38 14.884h6.032zm3.447-5.657h-2.333l.82-3.55.21-.826.168-1.033.105.991.21.867.82 3.551zm12.885 5.656V29.65h2.606c1.458 0 2.624-.468 3.5-1.404.876-.936 1.314-2.16 1.314-3.674 0-1.68-.505-3.025-1.514-4.036-1.009-1.012-2.36-1.518-4.056-1.518H50.07v14.884h5.612zm.904-8.071h-.904v-2.643h.799c.364 0 .602.021.714.062l.274.124c.322.18.483.537.483 1.074 0 .922-.455 1.383-1.366 1.383z" transform="translate(58 8)"/>
        </g>
        <circle cx="128" cy="39" r="4" fill="#FF5CB1"/>
    </g>
</svg>
