<svg xmlns="http://www.w3.org/2000/svg" xmlns:xlink="http://www.w3.org/1999/xlink" width="18" height="18" viewBox="0 0 18 18">
    <defs>
        <path id="prefix__a" d="M18 3.843h-.712c-.264 0-.638.391-.638.642v9.08c0 .25.374.592.638.592H18v2.155h-6.45v-2.155h1.35V4.612h-.066l-3.153 11.7h-2.44l-3.112-11.7H4.05v9.545H5.4v2.155H0v-2.155h.692c.284 0 .658-.342.658-.592v-9.08c0-.251-.374-.642-.658-.642H0V1.688h6.752l2.217 8.467h.062l2.237-8.467H18v2.155"/>
    </defs>
    <g fill="none" fill-rule="evenodd">
        <mask id="prefix__b" fill="#fff">
            <use xlink:href="#prefix__a"/>
        </mask>
        <use fill="#1A1918" fill-rule="nonzero" xlink:href="#prefix__a"/>
        <path fill="#062536" d="M0 0H18V18H0z" mask="url(#prefix__b)"/>
    </g>
</svg>
