<svg xmlns="http://www.w3.org/2000/svg" xmlns:xlink="http://www.w3.org/1999/xlink" width="18" height="18" viewBox="0 0 18 18">
    <defs>
        <path id="prefix__a" d="M10.2 0c-1.1 0-2 .9-2 2 0 .76.433 1.431 1.063 1.769L8.168 7.213C8.113 7.209 8.056 7.2 8 7.2c-.842 0-1.592.383-2.106.975L3.338 5.931C3.503 5.66 3.6 5.34 3.6 5c0-.989-.81-1.8-1.8-1.8C.811 3.2 0 4.011 0 5c0 .99.811 1.8 1.8 1.8.358 0 .694-.105.975-.287L5.45 8.85c-.16.352-.25.74-.25 1.15 0 .624.214 1.202.563 1.669l-2.325 2.325C3.084 13.75 2.66 13.6 2.2 13.6c-1.21 0-2.2.99-2.2 2.2C0 17.01.99 18 2.2 18c1.21 0 2.2-.99 2.2-2.2 0-.463-.147-.888-.394-1.244l2.32-2.318c.467.352 1.046.562 1.674.562.57 0 1.1-.168 1.544-.462l1.087 1.225c-.27.341-.43.77-.43 1.237 0 1.1.9 2 2 2s2-.9 2-2-.9-2-2-2c-.345 0-.667.09-.95.244L10.137 11.8c.41-.487.662-1.116.662-1.8 0-.255-.035-.502-.1-.737l4.388-1.35c.29.415.77.687 1.312.687.88 0 1.6-.721 1.6-1.6 0-.879-.72-1.6-1.6-1.6-.879 0-1.6.721-1.6 1.6 0 .055 0 .109.006.163l-4.43 1.362c-.33-.527-.828-.934-1.42-1.15l1.076-3.381c.055.005.112.006.168.006 1.1 0 2-.9 2-2s-.9-2-2-2z"/>
    </defs>
    <g fill="none" fill-rule="evenodd">
        <mask id="prefix__b" fill="#fff">
            <use xlink:href="#prefix__a"/>
        </mask>
        <use fill="#000" fill-rule="nonzero" xlink:href="#prefix__a"/>
        <path fill="#062536" d="M0 0H18V18H0z" mask="url(#prefix__b)"/>
    </g>
</svg>
