<svg xmlns="http://www.w3.org/2000/svg" xmlns:xlink="http://www.w3.org/1999/xlink" width="16" height="16" viewBox="0 0 16 16">
    <defs>
        <path id="prefix__a" d="M7.206 9.331c-.025-.23-.18-.426-.4-.503-.219-.076-.462-.018-.625.147l-4.98 4.981V12c.001-.16-.061-.316-.174-.43-.112-.114-.266-.178-.427-.178-.16 0-.315.064-.427.178-.113.114-.175.27-.173.43v3.4c0 .331.269.6.6.6H4c.162.003.32-.06.434-.173.116-.114.18-.27.178-.433-.001-.16-.067-.313-.182-.425-.115-.111-.27-.172-.43-.169H2.05l4.975-4.975c.133-.128.2-.31.181-.494M16 .538c-.032-.307-.291-.54-.6-.538H3c-.331 0-.6.269-.6.6v8.6c-.002.16.06.316.173.43.112.114.266.179.427.179.16 0 .315-.064.427-.18.113-.113.175-.268.173-.429v-8h11.2v11.2h-8c-.16-.002-.316.06-.43.173-.115.112-.179.266-.179.427 0 .16.064.315.18.427.113.113.268.175.43.173h8.6c.33 0 .6-.269.6-.6V.6.537"/>
    </defs>
    <g fill="none" fill-rule="evenodd">
        <mask id="prefix__b" fill="#fff">
            <use xlink:href="#prefix__a"/>
        </mask>
        <use fill="#010202" xlink:href="#prefix__a"/>
        <path fill="#96989E" d="M0 0H16V16H0z" mask="url(#prefix__b)"/>
    </g>
</svg>
