<svg xmlns="http://www.w3.org/2000/svg" xmlns:xlink="http://www.w3.org/1999/xlink" width="18" height="18" viewBox="0 0 18 18">
    <defs>
        <path id="prefix__a" d="M17.433 5.34c-.001-.657-.403-1.254-1.03-1.53-.627-.275-1.365-.178-1.89.248L10.747 1.98c.085-.465-.038-.944-.34-1.32-.303-.374-.756-.611-1.25-.652-.494-.042-.984.116-1.35.435-.367.318-.576.77-.577 1.242 0 .094.01.188.03.281L3.491 4.053c-.4-.327-.932-.466-1.451-.38-.52.083-.972.384-1.235.82-.264.434-.31.958-.126 1.429.183.47.576.839 1.073 1.006v4.146c-.499.165-.895.534-1.08 1.006-.184.472-.137.998.128 1.434.264.436.72.736 1.24.819.522.084 1.055-.06 1.454-.39l3.768 2.088c-.019.093-.03.187-.03.281 0 .932.794 1.688 1.772 1.688s1.772-.756 1.772-1.688c-.001-.094-.012-.188-.03-.281l3.765-2.07c.4.326.932.466 1.451.382.519-.084.972-.384 1.236-.819.264-.434.311-.957.13-1.428-.183-.471-.575-.84-1.071-1.008V6.922c.702-.24 1.171-.87 1.175-1.581zm-2.362 5.737c-.708.238-1.18.875-1.182 1.59.001.104.01.208.03.311l-3.756 2.062c-.663-.555-1.655-.555-2.318 0l-3.76-2.07c.02-.101.03-.204.03-.307 0-.714-.474-1.35-1.18-1.589V6.927c.706-.238 1.18-.874 1.18-1.589 0-.104-.01-.207-.032-.31l3.762-2.07c.665.549 1.653.549 2.318 0l3.756 2.068c-.02.102-.029.205-.03.31 0 .715.473 1.353 1.182 1.591v4.15z"/>
    </defs>
    <g fill="none" fill-rule="evenodd">
        <mask id="prefix__b" fill="#fff">
            <use xlink:href="#prefix__a"/>
        </mask>
        <use fill="#000" fill-rule="nonzero" xlink:href="#prefix__a"/>
        <path fill="#FFF" d="M0 0H18V18H0z" mask="url(#prefix__b)"/>
    </g>
</svg>
