<svg xmlns="http://www.w3.org/2000/svg" xmlns:xlink="http://www.w3.org/1999/xlink" width="14" height="14" viewBox="0 0 14 14">
    <defs>
        <path id="prefix__a" d="M4.57 2.334c.196-.195.505-.195.7 0 .196.196.196.505 0 .7l-3.583 3.57h11.802c.28 0 .49.225.49.49 0 .28-.224.505-.49.505H1.687l3.584 3.57c.196.195.196.517 0 .7-.196.195-.518.195-.7 0L.147 7.459c-.196-.196-.196-.505 0-.7L4.57 2.334z"/>
    </defs>
    <g fill="none" fill-rule="evenodd">
        <mask id="prefix__b" fill="#fff">
            <use xlink:href="#prefix__a"/>
        </mask>
        <use fill="#000" xlink:href="#prefix__a"/>
        <path fill="#062536" d="M0 0H14V14H0z" mask="url(#prefix__b)"/>
    </g>
</svg>
