<?xml version="1.0" encoding="utf-8"?>
<!-- Generator: Adobe Illustrator 22.0.0, SVG Export Plug-In . SVG Version: 6.00 Build 0)  -->
<svg version="1.1" id="图层_1" xmlns="http://www.w3.org/2000/svg" xmlns:xlink="http://www.w3.org/1999/xlink" x="0px" y="0px"
	 viewBox="0 0 500 500" style="enable-background:new 0 0 500 500;" xml:space="preserve">
<style type="text/css">
	.st0{fill:none;}
	.st1{fill-rule:evenodd;clip-rule:evenodd;fill:#999;}
</style>
<g>
	<path class="st0" d="M-6558.5,1222.2h-972.8v6808.6h972.8h4863.2h972.7v-972.7V2194.8v-972.7h-972.7H-6558.5z M-1695.3,7058.1
		h-4863.2V2194.8h4863.2V7058.1z M-3640.6,6085.5h972.7V4140.1v-972.7h-1945.3H-5586v2918h972.7H-3640.6z M-4613.3,4140.1h972.7
		v972.7h-972.7V4140.1z M-6558.5-7531.8h-972.8v6808.6h972.8h4863.2h972.7v-972.7v-4863.3v-972.7h-972.7H-6558.5z M-1695.3-1695.8
		h-4863.2v-4863.3h4863.2V-1695.8z M-3640.6-2668.5h972.7v-1945.3v-972.7h-1945.3H-5586v2918h972.7H-3640.6z M-4613.3-4613.8h972.7
		v972.7h-972.7V-4613.8z M7058.7-7531.8H2195.3h-972.7v6808.6h972.7h4863.4h972.6v-972.7v-4863.3v-972.7H7058.7z M7058.7-1695.8
		H2195.3v-4863.3h4863.4V-1695.8z M5113.3-2668.5H6086v-1945.3v-972.7H4140.6H3168v2918h972.7H5113.3z M4140.6-4613.8h972.7v972.7
		h-972.7V-4613.8z M7058.7,4140.1H4140.6V2194.8v-972.7H2195.3h-972.7v6808.6h972.7v-5836H3168v2918h972.7h2918.1h972.6v-972.7
		v-2918h-972.6V4140.1z M3168,8030.8h4863.3v-972.7H3168V8030.8z"/>
</g>
<g>
	<g>
		<path class="st1" d="M0,500h218.8V281.3H0V500z M31.3,312.5h156.2v156.3H31.3V312.5z M62.5,437.5h93.8v-93.8H62.5V437.5z
			 M93.8,375H125v31.3H93.8V375z M0,218.8h218.8V0H0V218.8z M31.3,31.3h156.2v156.3H31.3V31.3z M62.5,156.3h93.8V62.5H62.5V156.3z
			 M93.8,93.8H125V125H93.8V93.8z M281.3,0v218.8H500V0H281.3z M468.8,187.5H312.5V31.3h156.3V187.5z M437.5,62.5h-93.8v93.8h93.8
			V62.5z M406.3,125H375V93.8h31.3V125z M468.8,375H375v-93.8h-93.8V500h31.3V312.5h31.3v93.8H500v-125h-31.2V375z M343.8,500H500
			v-31.3H343.8V500z"/>
	</g>
</g>
</svg>
