<svg xmlns="http://www.w3.org/2000/svg" xmlns:xlink="http://www.w3.org/1999/xlink" width="14" height="14" viewBox="0 0 14 14">
    <defs>
        <path id="prefix__a" d="M11.314 9.63c1.153-1.715 1.372-3.893.584-5.804C11.11 1.916 9.42.525 7.394.12 5.367-.285 3.272.35 1.81 1.81.349 3.273-.285 5.368.12 7.395c.405 2.026 1.796 3.716 3.706 4.504 1.91.788 4.089.568 5.804-.584l2.337 2.338c.465.464 1.22.464 1.685 0 .464-.466.464-1.22 0-1.685L11.314 9.63zm-5.126 1.306c-1.26 0-2.467-.5-3.357-1.391-.89-.89-1.391-2.098-1.391-3.357 0-1.26.5-2.467 1.391-3.357.89-.89 2.098-1.391 3.357-1.391 1.26 0 2.467.5 3.357 1.39.89.89 1.391 2.099 1.391 3.358-.002 1.259-.502 2.465-1.392 3.356-.89.89-2.097 1.39-3.356 1.392z"/>
    </defs>
    <g fill="none" fill-rule="evenodd">
        <mask id="prefix__b" fill="#fff">
            <use xlink:href="#prefix__a"/>
        </mask>
        <use fill="#000" fill-rule="nonzero" xlink:href="#prefix__a"/>
        <path fill="#062536" d="M0 0H14V14H0z" mask="url(#prefix__b)"/>
    </g>
</svg>
