<svg xmlns="http://www.w3.org/2000/svg" xmlns:xlink="http://www.w3.org/1999/xlink" width="18" height="18" viewBox="0 0 18 18">
    <defs>
        <path id="prefix__a" d="M17.844 9.391c.018-.02.034-.039.05-.06l.012-.018c.018-.027.033-.055.046-.085.004-.007.006-.015.008-.022.01-.025.017-.049.023-.074l.006-.03c.006-.032.011-.066.011-.101s-.004-.069-.01-.102l-.007-.03c-.006-.024-.014-.049-.023-.073-.003-.007-.004-.015-.008-.022-.013-.03-.028-.059-.046-.085l-.013-.018c-.015-.021-.031-.042-.049-.06l-.02-.02c-.02-.02-.041-.038-.064-.055l-.012-.009c-.024-.016-.049-.03-.075-.042L.81.617C.592.514.335.56.166.73c-.168.169-.214.427-.113.644l3.56 7.625-3.56 7.627c-.1.217-.055.474.113.644.11.11.255.168.403.168.082 0 .163-.018.24-.054l16.863-7.867c.027-.013.05-.027.075-.043l.012-.01c.023-.015.045-.033.065-.053l.02-.02zM1.747 2.311l13.116 6.118H4.603L1.748 2.31zm2.857 7.258h10.26L1.746 15.69l2.857-6.12z"/>
    </defs>
    <g fill="none" fill-rule="evenodd">
        <mask id="prefix__b" fill="#fff">
            <use xlink:href="#prefix__a"/>
        </mask>
        <use fill="#000" fill-rule="nonzero" xlink:href="#prefix__a"/>
        <path fill="#062536" d="M0 0H18V18H0z" mask="url(#prefix__b)"/>
    </g>
</svg>
