<svg xmlns="http://www.w3.org/2000/svg" xmlns:xlink="http://www.w3.org/1999/xlink" width="20" height="20" viewBox="0 0 20 20">
    <defs>
        <path id="prefix__a" d="M19.827 10.435c.02-.022.037-.044.054-.067l.015-.02c.02-.03.037-.062.051-.094.004-.008.006-.017.009-.025.01-.027.019-.054.025-.082l.007-.033c.007-.036.012-.074.012-.113 0-.039-.004-.076-.012-.113-.001-.011-.004-.022-.007-.033-.006-.028-.015-.054-.025-.081-.004-.009-.005-.018-.009-.026-.014-.033-.031-.064-.051-.094l-.015-.02c-.017-.023-.035-.046-.054-.066l-.022-.023c-.022-.021-.047-.041-.072-.06l-.013-.01c-.026-.018-.054-.033-.084-.048L.9.686C.658.57.373.622.185.81c-.188.188-.238.474-.126.715L4.015 10 .059 18.473c-.112.241-.062.527.126.716.121.121.283.186.447.186.09 0 .182-.02.267-.06l18.736-8.741c.03-.014.057-.03.084-.048l.013-.01c.026-.018.05-.037.072-.059l.023-.022zM1.94 2.567l14.574 6.799h-11.4L1.941 2.567zm3.174 8.065h11.4l-14.574 6.8 3.174-6.8z"/>
    </defs>
    <g fill="none" fill-rule="evenodd">
        <mask id="prefix__b" fill="#fff">
            <use xlink:href="#prefix__a"/>
        </mask>
        <use fill="#000" fill-rule="nonzero" xlink:href="#prefix__a"/>
        <path fill="#FFF" d="M0 0H20V20H0z" mask="url(#prefix__b)"/>
    </g>
</svg>
