<svg xmlns="http://www.w3.org/2000/svg" xmlns:xlink="http://www.w3.org/1999/xlink" width="14" height="14" viewBox="0 0 14 14">
    <defs>
        <path id="prefix__a" d="M5.133.438c.28 0 .467.201.467.504s-.187.505-.467.505h-1.4c-.793 0-1.4.656-1.4 1.515v8.076c0 .859.607 1.515 1.4 1.515h1.4c.28 0 .467.202.467.505s-.187.505-.467.505h-1.4c-1.306 0-2.333-1.111-2.333-2.525V7.505H.467C.187 7.505 0 7.303 0 7s.187-.505.467-.505H1.4V2.962C1.4 1.548 2.427.437 3.733.437zm5.134 0c1.306 0 2.333 1.11 2.333 2.524v3.533h.933c.28 0 .467.202.467.505s-.187.505-.467.505H12.6v3.533c0 1.414-1.027 2.524-2.333 2.524h-1.4c-.28 0-.467-.201-.467-.504s.187-.505.467-.505h1.4c.793 0 1.4-.656 1.4-1.515V2.962c0-.859-.607-1.515-1.4-1.515h-1.4c-.28 0-.467-.202-.467-.505s.187-.504.467-.504z"/>
    </defs>
    <g fill="none" fill-rule="evenodd">
        <mask id="prefix__b" fill="#fff">
            <use xlink:href="#prefix__a"/>
        </mask>
        <use fill="#000" fill-rule="nonzero" xlink:href="#prefix__a"/>
        <path fill="#062536" d="M0 0H14V14H0z" mask="url(#prefix__b)"/>
    </g>
</svg>
