<svg xmlns="http://www.w3.org/2000/svg" xmlns:xlink="http://www.w3.org/1999/xlink" width="15" height="14" viewBox="0 0 15 14">
    <defs>
        <path id="prefix__a" d="M11.214 5.7H4.703V3.784c-.002-1.317 1.07-2.389 2.386-2.39 1.317 0 2.389 1.071 2.39 2.387.003.139.059.267.15.356.092.092.217.148.356.148h.384c.28 0 .506-.225.506-.504h-.002C10.872 1.695 9.175-.002 7.09 0 5.003.002 3.307 1.699 3.307 3.784L3.31 5.7h-.262C2.33 5.7 1.748 6.284 1.75 7v5.7c0 .718.583 1.3 1.3 1.3l8.086-.005c.717 0 1.3-.581 1.297-1.299V6.994c0-.69-.54-1.252-1.22-1.294z"/>
    </defs>
    <g fill="none" fill-rule="evenodd">
        <mask id="prefix__b" fill="#fff">
            <use xlink:href="#prefix__a"/>
        </mask>
        <use fill="#000" fill-rule="nonzero" xlink:href="#prefix__a"/>
        <path fill="#062536" d="M0 0H14V14H0z" mask="url(#prefix__b)"/>
    </g>
</svg>
