<svg xmlns="http://www.w3.org/2000/svg" xmlns:xlink="http://www.w3.org/1999/xlink" width="14" height="14" viewBox="0 0 14 14">
    <defs>
        <path id="prefix__a" d="M7 4.667C5.711 4.667 4.667 5.71 4.667 7 4.667 8.289 5.71 9.333 7 9.333V4.667zM7 14c-3.866 0-7-3.134-7-7s3.134-7 7-7 7 3.134 7 7-3.134 7-7 7zm0-.933c3.35 0 6.067-2.716 6.067-6.067C13.067 3.65 10.35.933 7 .933 3.65.933.933 3.65.933 7c0 3.35 2.716 6.067 6.067 6.067zm0-2.8c-1.804 0-3.267-1.463-3.267-3.267 0-1.804 1.463-3.267 3.267-3.267 1.804 0 3.267 1.463 3.267 3.267 0 1.804-1.463 3.267-3.267 3.267z"/>
    </defs>
    <g fill="none" fill-rule="evenodd">
        <mask id="prefix__b" fill="#fff">
            <use xlink:href="#prefix__a"/>
        </mask>
        <use fill="#595959" fill-rule="nonzero" xlink:href="#prefix__a"/>
        <path fill="#062536" d="M0 0H14V14H0z" mask="url(#prefix__b)"/>
    </g>
</svg>
