<svg xmlns="http://www.w3.org/2000/svg" width="120" height="44" viewBox="0 0 120 44">
    <defs>
        <linearGradient id="yxwvk76spa" x1="100%" x2="0%" y1=".628%" y2="99.372%">
            <stop offset="0%" stop-color="#5F6BFB"/>
            <stop offset="100%" stop-color="#724DE4"/>
        </linearGradient>
    </defs>
    <g fill="none" fill-rule="evenodd">
        <path fill="url(#yxwvk76spa)" d="M29.364 0H13.909C6.182 0 0 6.143 0 13.821V29.18C0 36.857 6.182 43 13.91 43h15.454c7.727 0 13.909-6.143 13.909-13.821V13.82C43.273 6.143 37.09 0 29.363 0z"/>
        <path fill="#FFF" d="M10.002 19.286c-1.41 1.4-1.98 3.421-1.496 5.302.484 1.881 1.948 3.336 3.84 3.816 1.893.481 3.927-.086 5.336-1.486l9.407-9.347c1.329-1.32 3.453-1.348 4.746-.063 1.293 1.285 1.266 3.397-.063 4.717l-3.031 3.012-1.716-1.705-1.161 6.053 6.092-1.153-1.716-1.706 3.031-3.012c1.409-1.4 1.98-3.421 1.495-5.302-.483-1.881-1.947-3.336-3.84-3.816-1.893-.481-3.927.086-5.336 1.486l-9.406 9.347c-1.329 1.32-3.454 1.348-4.747.063-1.293-1.285-1.265-3.397.063-4.717l2.78-2.762 1.716 1.705 1.159-6.051-6.09 1.152 1.716 1.705-2.78 2.762z"/>
        <g fill="#FFF">
            <path d="M5.815 14.27l.402-1.785h3.327l.402 1.784h5.47L10.539.437H5.222L.326 14.269h5.489zm3.136-5.257H6.83l.745-3.3.192-.768.153-.959.095.921.192.806.745 3.3zm11.571 5.256l-.096-5.199c0-.32-.012-.617-.038-.892-.025-.275-.064-.553-.115-.834l-.267-1.305.325 1.036.88 2.053 3.174 5.141h5.05V.437H24.48l.115 5.448c0 .448.032.909.095 1.382l.402 1.803-.803-2.244c-.115-.307-.268-.614-.46-.921L20.56.437H15.57v13.832h4.953zm18.704 0V8.341l4.61-7.904h-5.47L36.969 3.41l-.172.768-.057.729-.134-.73-.076-.555-.058-.212L35.038.437h-5.45l4.627 7.904v5.928h5.011zM6.256 30.684c1.693 0 3.095-.474 4.207-1.424 1.111-.949 1.667-2.12 1.667-3.513 0-.358-.038-.688-.114-.99-.075-.302-.183-.576-.322-.823-.303-.542-.707-.949-1.212-1.22-.127-.074-.25-.136-.37-.185-.12-.05-.237-.093-.35-.13-.253-.098-.626-.215-1.118-.35l-1.043-.26c-.379-.11-.65-.203-.814-.277-.14-.099-.209-.216-.209-.352 0-.468.36-.702 1.08-.702.392 0 .847.11 1.365.333.277.123.562.265.852.425.127.074.341.203.644.388l1.118-3.458c-.568-.333-.997-.549-1.288-.647-.265-.123-.632-.24-1.1-.352-.795-.197-1.534-.295-2.216-.295-1.592 0-2.915.45-3.97 1.35-1.055.9-1.582 2.046-1.582 3.44 0 1.627.865 2.73 2.596 3.31l.682.24.947.222c.493.11.812.216.957.314.146.099.218.228.218.389 0 .234-.088.41-.265.527-.177.117-.417.175-.72.175-.556 0-1.188-.19-1.895-.573l-.758-.425-.853-.648-1.307 3.94c.695.406 1.206.69 1.535.85.328.16.846.314 1.554.462.379.099.726.167 1.042.204.316.037.663.055 1.042.055zm14.06-.314l1.213-5.603c.19-.728.284-1.14.284-1.24.076-.542.114-1.331.114-2.367 0 1.196.07 2.133.208 2.811l.19.796 1.213 5.603h4.396l4.32-13.333H27.46l-1.402 5.825-.19.776c-.075.469-.113 1.098-.113 1.887l-.133-1.554-.057-.74-.076-.406-1.497-5.788H19.88l-1.497 5.788c-.063.185-.107.37-.132.555l-.02.591-.113 1.554-.17-1.572-.057-.555-.095-.536-1.364-5.825h-4.795L15.92 30.37h4.396zm15.16 0l.397-1.72h3.298l.398 1.72h5.419l-4.832-13.333h-5.268l-4.85 13.333h5.438zm3.107-5.067H36.48l.739-3.18.19-.74.15-.925.096.887.19.777.738 3.18zM50.2 30.37v-3.81h2.35c1.314 0 2.365-.419 3.155-1.257.79-.838 1.184-1.936 1.184-3.292 0-1.504-.455-2.71-1.364-3.615-.91-.906-2.129-1.36-3.657-1.36H45.14V30.37h5.059zm.815-7.23h-.815v-2.368h.72c.329 0 .543.019.644.056l.247.11c.29.16.436.481.436.962 0 .826-.411 1.24-1.232 1.24z" transform="translate(52.288 7.167)"/>
        </g>
        <ellipse cx="115.394" cy="34.938" fill="#FF5CB1" rx="3.606" ry="3.583"/>
    </g>
</svg>
