<svg xmlns="http://www.w3.org/2000/svg" xmlns:xlink="http://www.w3.org/1999/xlink" width="14" height="14" viewBox="0 0 14 14">
    <defs>
        <path id="prefix__a" d="M14 2.01v2.792c0 .385-.313.698-.698.698-.386 0-.698-.313-.698-.698V3.769L8.24 8.752c-.132.151-.322.238-.523.238-.193.005-.38-.071-.516-.21L5.638 7.203l-4.397 5.039c-.12.148-.294.241-.484.258-.189.016-.377-.046-.52-.172-.143-.126-.228-.304-.236-.495-.009-.19.061-.375.193-.512L5.08 5.738c.127-.146.31-.233.502-.24.193-.006.38.068.517.204l1.62 1.564 3.957-4.558H10.51c-.386 0-.698-.313-.698-.698 0-.385.312-.697.698-.697h2.792c.185 0 .362.073.493.204.131.13.205.308.205.493z"/>
    </defs>
    <g fill="none" fill-rule="evenodd">
        <mask id="prefix__b" fill="#fff">
            <use xlink:href="#prefix__a"/>
        </mask>
        <use fill="#000" fill-rule="nonzero" xlink:href="#prefix__a"/>
        <path fill="#fff" d="M0 0H14V14H0z" mask="url(#prefix__b)"/>
    </g>
</svg>
