<svg xmlns="http://www.w3.org/2000/svg" xmlns:xlink="http://www.w3.org/1999/xlink" width="21" height="20" viewBox="0 0 21 20">
    <defs>
        <path id="prefix__a" d="M20 2.871V6.86c0 .55-.447.997-.997.997-.551 0-.998-.446-.998-.997V5.384l-6.232 7.12h.001c-.19.215-.462.338-.748.338-.276.008-.544-.1-.738-.299L8.055 10.29l-6.282 7.198v.001c-.17.211-.42.344-.691.367-.27.024-.54-.064-.744-.244-.204-.18-.326-.435-.337-.707-.012-.271.088-.536.277-.732l6.98-7.976v-.001c.18-.208.44-.331.716-.34.276-.01.543.095.739.29l2.313 2.233 5.654-6.51h-1.666c-.55 0-.996-.447-.996-.998 0-.55.445-.996.996-.996h3.989c.264 0 .517.105.704.292.187.187.293.44.293.704z"/>
    </defs>
    <g fill="none" fill-rule="evenodd" transform="translate(1)">
        <mask id="prefix__b" fill="#fff">
            <use xlink:href="#prefix__a"/>
        </mask>
        <use fill="#000" fill-rule="nonzero" xlink:href="#prefix__a"/>
        <path fill="#FFF" d="M0 0H20V20H0z" mask="url(#prefix__b)"/>
    </g>
</svg>
