<?xml version="1.0" encoding="UTF-8"?>
<svg width="111px" height="82px" viewBox="0 0 111 82" version="1.1" xmlns="http://www.w3.org/2000/svg" xmlns:xlink="http://www.w3.org/1999/xlink">
    <title>编组 5</title>
    <g id="页面-1" stroke="none" stroke-width="1" fill="none" fill-rule="evenodd">
        <g id="Apple-TV备份-3" transform="translate(-831.000000, -612.000000)">
            <g id="编组-4" transform="translate(659.000000, 560.000000)">
                <g id="编组-5" transform="translate(172.000000, 52.000000)">
                    <path d="M36.9841249,9.16666667 L36.9446667,9.37166667 L37.1507916,9.33333333 L37.1116667,9.53866667 L37.3174582,9.5 L37.2776667,9.70566667 L37.4841249,9.66666667 L37.4446667,9.87166667 L37.6507916,9.83333333 L37.6116667,10.0386667 L37.8174582,10 L37.7776667,10.2056667 L37.9841249,10.1666667 L37.9446667,10.3716667 L38.1507916,10.3333333 L38.1116667,10.5386667 L38.3174582,10.5 L38.2776667,10.7056667 L38.4841249,10.6666667 L38.4446667,10.8716667 L38.6507916,10.8333333 L38.6116667,11.0386667 L38.8174582,11 L38.7776667,11.2056667 L38.9841249,11.1666667 L38.9446667,11.3716667 L39.1507916,11.3333333 L39.1116667,11.5386667 L39.3174582,11.5 L39.2776667,11.7056667 L39.4841249,11.6666667 L39.4446667,11.8716667 L39.6507916,11.8333333 L39.6116667,12.0386667 L39.8174582,12 L39.7776667,12.2056667 L39.9841249,12.1666667 L39.9446667,12.3716667 L40.1507916,12.3333333 L40.1116667,12.5386667 L40.3174582,12.5 L40.2776667,12.7056667 L40.4841249,12.6666667 L40.4446667,12.8716667 L40.6507916,12.8333333 L40.6116667,13.0386667 L40.8174582,13 L40.7776667,13.2056667 L40.9841249,13.1666667 L40.9446667,13.3716667 L41.1507916,13.3333333 L41.1116667,13.5386667 L41.3174582,13.5 L41.2776667,13.7056667 L41.4841249,13.6666667 L41.4446667,13.8716667 L41.6507916,13.8333333 L41.6116667,14.0386667 L41.8174582,14 L37.4998677,36.8082747 L37.3326667,36.6396667 L37.333201,36.6416081 L37.1656667,36.4726667 L37.1665344,36.4749414 L36.8326667,36.1396667 L36.833201,36.1416081 L36.6656667,35.9726667 L36.6665344,35.9749414 L36.3326667,35.6396667 L36.333201,35.6416081 L36.1656667,35.4726667 L36.1665344,35.4749414 L35.8326667,35.1396667 L35.833201,35.1416081 L35.6656667,34.9726667 L35.6665344,34.9749414 L35.3326667,34.6396667 L35.333201,34.6416081 L35.1656667,34.4726667 L35.1665344,34.4749414 L34.8326667,34.1396667 L34.833201,34.1416081 L34.6656667,33.9726667 L34.6665344,33.9749414 L34.3326667,33.6396667 L34.333201,33.6416081 L34.1656667,33.4726667 L34.1665344,33.4749414 L33.8326667,33.1396667 L33.833201,33.1416081 L33.6656667,32.9726667 L33.6665344,32.9749414 L33.3326667,32.6396667 L33.333201,32.6416081 L33.1656667,32.4726667 L33.1665344,32.4749414 L32.8326667,32.1396667 L32.833201,32.1416081 L32.6656667,31.9726667 L32.6665344,31.9749414 L31.1026667,30.4026667 L20.7697083,40.7874527 C16.6807696,44.9150637 15.905554,51.075438 18.4921167,55.8194915 C23.2037905,58.383497 29.2966018,57.597962 33.372023,53.497386 L33.372023,53.497386 L68.3803855,18.2688841 C73.6251897,12.9957635 81.1960907,10.8581215 88.2308204,12.6712637 C91.7866186,13.5846003 94.932218,15.4273527 97.4094601,17.9376949 C97.4690681,17.9964527 97.5281904,18.0557003 97.5869359,18.1153237 C97.6383073,18.1657595 97.6881327,18.215676 97.737691,18.2658595 C97.7947829,18.3222014 97.8522994,18.3797705 97.9094601,18.4376949 C97.9690681,18.4964527 98.0281904,18.5557003 98.0869359,18.6153237 C98.1383073,18.6657595 98.1881327,18.715676 98.237691,18.7658595 C98.2947829,18.8222014 98.3522994,18.8797705 98.4094601,18.9376949 C98.4690681,18.9964527 98.5281904,19.0557003 98.5869359,19.1153237 C98.6383073,19.1657595 98.6881327,19.215676 98.737691,19.2658595 C98.7947829,19.3222014 98.8522994,19.3797705 98.9094601,19.4376949 C98.9690681,19.4964527 99.0281904,19.5557003 99.0869359,19.6153237 C99.1383073,19.6657595 99.1881327,19.715676 99.237691,19.7658595 C99.2927924,19.8202337 99.3483424,19.8758107 99.4035607,19.9317192 C99.4650987,19.9924757 99.5262185,20.053699 99.5869359,20.1153237 C99.6383073,20.1657595 99.6881327,20.215676 99.737691,20.2658595 C99.7947829,20.3222014 99.8522994,20.3797705 99.9094601,20.4376949 C99.9690681,20.4964527 100.02819,20.5557003 100.086936,20.6153237 C100.138307,20.6657595 100.188133,20.715676 100.237691,20.7658595 C100.294783,20.8222014 100.352299,20.8797705 100.40946,20.9376949 C100.469068,20.9964527 100.52819,21.0557003 100.586936,21.1153237 C100.638307,21.1657595 100.688133,21.215676 100.737691,21.2658595 C100.794783,21.3222014 100.852299,21.3797705 100.90946,21.4376949 C100.969068,21.4964527 101.02819,21.5557003 101.086936,21.6153237 C101.138307,21.6657595 101.188133,21.715676 101.237691,21.7658595 C101.294783,21.8222014 101.352299,21.8797705 101.40946,21.9376949 C101.469068,21.9964527 101.52819,22.0557003 101.586936,22.1153237 C101.638307,22.1657595 101.688133,22.215676 101.737691,22.2658595 C101.794783,22.3222014 101.852299,22.3797705 101.90946,22.4376949 C101.969068,22.4964527 102.02819,22.5557003 102.086936,22.6153237 C104.6077,25.1132971 106.456359,28.2914113 107.371464,31.8839913 C109.169452,38.9743104 107.048954,46.5919416 101.792056,51.8691184 L101.792056,51.8691184 L90.5082691,63.2225527 L96.9100747,69.6435911 L74.2336538,74 L74.2716667,73.7936667 L74.0669872,73.8333333 L74.1056667,73.6266667 L73.9003205,73.6666667 L73.9386667,73.4596667 L73.7336538,73.5 L73.7716667,73.2936667 L73.5669872,73.3333333 L73.6056667,73.1266667 L73.4003205,73.1666667 L73.4386667,72.9596667 L73.2336538,73 L73.2716667,72.7936667 L73.0669872,72.8333333 L73.1056667,72.6266667 L72.9003205,72.6666667 L72.9386667,72.4596667 L72.7336538,72.5 L72.7716667,72.2936667 L72.5669872,72.3333333 L72.6056667,72.1266667 L72.4003205,72.1666667 L72.4386667,71.9596667 L72.2336538,72 L72.2716667,71.7936667 L72.0669872,71.8333333 L72.1056667,71.6266667 L71.9003205,71.6666667 L71.9386667,71.4596667 L71.7336538,71.5 L71.7716667,71.2936667 L71.5669872,71.3333333 L71.6056667,71.1266667 L71.4003205,71.1666667 L71.4386667,70.9596667 L71.2336538,71 L71.2716667,70.7936667 L71.0669872,70.8333333 L71.1056667,70.6266667 L70.9003205,70.6666667 L70.9386667,70.4596667 L70.7336538,70.5 L70.7716667,70.2936667 L70.5669872,70.3333333 L70.6056667,70.1266667 L70.4003205,70.1666667 L70.4386667,69.9596667 L70.2336538,70 L70.2716667,69.7936667 L70.0669872,69.8333333 L70.1056667,69.6266667 L69.9003205,69.6666667 L69.9386667,69.4596667 L69.7336538,69.5 L69.7716667,69.2936667 L69.5669872,69.3333333 L69.6056667,69.1266667 L69.4003205,69.1666667 L73.7138797,46.3462232 L74.0466667,46.6796667 L74.047213,46.6795565 L74.2136667,46.8466667 L74.2138797,46.8462232 L74.5466667,47.1796667 L74.547213,47.1795565 L74.7136667,47.3466667 L74.7138797,47.3462232 L75.0466667,47.6796667 L75.047213,47.6795565 L75.2136667,47.8466667 L75.2138797,47.8462232 L75.5466667,48.1796667 L75.547213,48.1795565 L75.7136667,48.3466667 L75.7138797,48.3462232 L76.0466667,48.6796667 L76.047213,48.6795565 L76.2136667,48.8466667 L76.2138797,48.8462232 L76.5466667,49.1796667 L76.547213,49.1795565 L76.7136667,49.3466667 L76.7138797,49.3462232 L77.0466667,49.6796667 L77.047213,49.6795565 L77.2136667,49.8466667 L77.2138797,49.8462232 L77.3805463,50.0128899 L77.5466667,50.1796667 L77.547213,50.1795565 L77.7136667,50.3466667 L77.7138797,50.3462232 L77.8805463,50.5128899 L78.0466667,50.6796667 L78.047213,50.6795565 L78.2136667,50.8466667 L78.2138797,50.8462232 L78.5466667,51.1796667 L78.547213,51.1795565 L80.1176667,52.7556667 L91.3914096,41.4219398 C95.445904,37.3390948 96.2420469,31.2613745 93.7487568,26.5372494 L93.6688677,26.3904768 C88.9572184,23.8275304 82.8622306,24.6163617 78.7810321,28.7160627 L78.7810321,28.7160627 L43.7807324,63.9405084 C38.5399595,69.2176852 30.9690585,71.351271 23.9222347,69.542185 C20.3795718,68.6306606 17.2414059,66.7923797 14.7679476,64.2886436 C14.6995654,64.2210959 14.6316576,64.1529908 14.5642472,64.0843897 C14.5176814,64.0390493 14.4712089,63.9924113 14.4249693,63.9455405 C14.3727833,63.894165 14.320217,63.8415529 14.2679476,63.7886436 C14.1995654,63.7210959 14.1316576,63.6529908 14.0642472,63.5843897 C14.0176814,63.5390493 13.9712089,63.4924113 13.9249693,63.4455405 C13.8727833,63.394165 13.820217,63.3415529 13.7679476,63.2886436 C13.6995654,63.2210959 13.6316576,63.1529908 13.5642472,63.0843897 C13.5176814,63.0390493 13.4712089,62.9924113 13.4249693,62.9455405 C13.3727833,62.894165 13.320217,62.8415529 13.2679476,62.7886436 C13.1995654,62.7210959 13.1316576,62.6529908 13.0642472,62.5843897 C13.0176814,62.5390493 12.9712089,62.4924113 12.9249693,62.4455405 C12.8727833,62.394165 12.820217,62.3415529 12.7679476,62.2886436 C12.6995654,62.2210959 12.6316576,62.1529908 12.5642472,62.0843897 C12.5176814,62.0390493 12.4712089,61.9924113 12.4249693,61.9455405 C12.3727833,61.894165 12.320217,61.8415529 12.2679476,61.7886436 C12.1995654,61.7210959 12.1316576,61.6529908 12.0642472,61.5843897 C12.0176814,61.5390493 11.9712089,61.4924113 11.9249693,61.4455405 C11.8727833,61.394165 11.820217,61.3415529 11.7679476,61.2886436 C11.6995654,61.2210959 11.6316576,61.1529908 11.5642472,61.0843897 C11.5176814,61.0390493 11.4712089,60.9924113 11.4249693,60.9455405 C11.3727833,60.894165 11.320217,60.8415529 11.2679476,60.7886436 C11.1995654,60.7210959 11.1316576,60.6529908 11.0642472,60.5843897 C11.0176814,60.5390493 10.9712089,60.4924113 10.9249693,60.4455405 C10.8727833,60.394165 10.820217,60.3415529 10.7679476,60.2886436 C10.6995654,60.2210959 10.6316576,60.1529908 10.5642472,60.0843897 C10.5176814,60.0390493 10.4712089,59.9924113 10.4249693,59.9455405 C10.3727833,59.894165 10.320217,59.8415529 10.2679476,59.7886436 C10.1995654,59.7210959 10.1316576,59.6529908 10.0642472,59.5843897 C7.55153916,57.0887434 5.70753369,53.9132391 4.79771702,50.3254011 C2.99166608,43.235082 5.12828884,35.6215071 10.3609989,30.3443303 L10.3609989,30.3443303 L20.7095096,19.9319452 L14.3157667,13.5109068 L36.9841249,9.16666667 Z" id="形状结合" fill="#6165F6"></path>
                    <path d="M10.1943323,30.1776636 C4.96162218,35.4548405 2.82499941,43.0684154 4.63105035,50.1587345 C6.42903857,57.2490535 11.8754109,62.7290427 18.9222347,64.542185 C25.9690585,66.351271 33.5399595,64.2176852 38.7807324,58.9405084 L73.7810321,23.7160627 C78.7315467,18.7431044 86.6451137,18.6416982 91.458562,23.4848567 C96.2679789,28.3239589 96.1712262,36.2742023 91.2247429,41.2552731 L79.9409559,52.6005949 L73.547213,46.1795565 L69.2336538,69 L91.9100747,64.6435911 L85.5082691,58.2225527 L96.7920562,46.8691184 C102.048954,41.5919416 104.169452,33.9743104 102.371464,26.8839913 C100.565413,19.7936723 95.1230716,14.3177393 88.0641537,12.5045971 C81.0294241,10.6914548 73.458523,12.8290968 68.2137188,18.1022174 L33.2053563,53.3307193 C28.2629044,58.3036777 20.3533688,58.4010276 15.5399206,53.5619254 C10.7264723,48.7228231 10.8312877,40.7725798 15.7697083,35.7874527 L26.1182189,25.3872363 L32.4998677,31.8082747 L36.8174582,9 L14.1491001,13.3442401 L20.5428429,19.7652785 L10.1943323,30.1776636 Z" id="Fill-3" fill="#FFFFFF"></path>
                    <rect id="矩形备份" stroke="#979797" fill="#D8D8D8" opacity="0" x="0.5" y="0.5" width="110" height="81"></rect>
                </g>
            </g>
        </g>
    </g>
</svg>