<svg xmlns="http://www.w3.org/2000/svg" xmlns:xlink="http://www.w3.org/1999/xlink" width="18" height="18" viewBox="0 0 18 18">
    <defs>
        <path id="prefix__a" d="M16.2 9.45c.99 0 1.8.81 1.8 1.8v4.95c0 .99-.81 1.8-1.8 1.8h-4.95c-.99 0-1.8-.81-1.8-1.8v-4.95c0-.99.81-1.8 1.8-1.8h4.95zm.45 6.75v-4.95c0-.244-.205-.45-.45-.45h-4.95c-.244 0-.45.205-.45.45v4.95c0 .244.206.45.45.45h4.95c.244 0 .45-.206.45-.45zM16.2 0c.99 0 1.8.81 1.8 1.8v4.95c0 .99-.81 1.8-1.8 1.8h-4.95c-.99 0-1.8-.81-1.8-1.8V1.8c0-.99.81-1.8 1.8-1.8h4.95zm.45 6.75V1.8c0-.244-.205-.45-.45-.45h-4.95c-.244 0-.45.205-.45.45v4.95c0 .244.206.45.45.45h4.95c.244 0 .45-.206.45-.45zM1.8 0h4.95c.99 0 1.8.81 1.8 1.8v4.95c0 .99-.81 1.8-1.8 1.8H1.8c-.99 0-1.8-.81-1.8-1.8V1.8C0 .81.81 0 1.8 0zm5.4 6.75V1.8c0-.244-.206-.45-.45-.45H1.8c-.244 0-.45.205-.45.45v4.95c0 .244.205.45.45.45h4.95c.244 0 .45-.206.45-.45zm-.45 2.7c.99 0 1.8.81 1.8 1.8v4.95c0 .99-.81 1.8-1.8 1.8H1.8C.81 18 0 17.19 0 16.2v-4.95c0-.99.81-1.8 1.8-1.8h4.95zm.45 6.75v-4.95c0-.244-.206-.45-.45-.45H1.8c-.244 0-.45.206-.45.45v4.95c0 .244.205.45.45.45h4.95c.244 0 .45-.205.45-.45z"/>
    </defs>
    <g fill="none" fill-rule="evenodd">
        <mask id="prefix__b" fill="#fff">
            <use xlink:href="#prefix__a"/>
        </mask>
        <use fill="#000" fill-rule="nonzero" xlink:href="#prefix__a"/>
        <path fill="#fff" d="M0 0H18V18H0z" mask="url(#prefix__b)"/>
    </g>
</svg>
