<svg xmlns="http://www.w3.org/2000/svg" xmlns:xlink="http://www.w3.org/1999/xlink" width="18" height="18" viewBox="0 0 18 18">
    <defs>
        <path id="prefix__a" d="M13.12 4.88C12.333 2.064 9.746 0 6.685 0 2.999 0 0 2.999 0 6.684c0 3.06 2.066 5.648 4.88 6.437C5.667 15.935 8.254 18 11.315 18 15.001 18 18 15.001 18 11.316c-.006-3.06-2.072-5.64-4.88-6.437zM1.579 6.69c0-2.814 2.292-5.106 5.106-5.106 2.086 0 3.884 1.256 4.673 3.054h-.04c-3.686 0-6.685 2.998-6.685 6.683v.041c-1.799-.794-3.054-2.592-3.054-4.672zm9.731 9.732c-2.086 0-3.884-1.256-4.673-3.054h.04c3.686 0 6.685-2.999 6.685-6.684v-.04c1.798.788 3.053 2.587 3.053 4.673.001 2.82-2.284 5.105-5.105 5.105z"/>
    </defs>
    <g fill="none" fill-rule="evenodd">
        <mask id="prefix__b" fill="#fff">
            <use xlink:href="#prefix__a"/>
        </mask>
        <use fill="#000" fill-rule="nonzero" xlink:href="#prefix__a"/>
        <path fill="#FFF" d="M0 0H18V18H0z" mask="url(#prefix__b)"/>
    </g>
</svg>
