<svg xmlns="http://www.w3.org/2000/svg" xmlns:xlink="http://www.w3.org/1999/xlink" width="20" height="20" viewBox="0 0 20 20">
    <defs>
        <path id="prefix__a" d="M14.579 5.421C13.702 2.295 10.828 0 7.427 0 3.332 0 0 3.332 0 7.427c0 3.4 2.296 6.275 5.421 7.152C6.298 17.705 9.172 20 12.573 20 16.668 20 20 16.668 20 12.573c-.007-3.4-2.303-6.267-5.421-7.152zM1.753 7.434c0-3.126 2.547-5.673 5.674-5.673 2.318 0 4.316 1.396 5.192 3.393h-.045c-4.095 0-7.427 3.332-7.427 7.427v.045c-1.999-.883-3.394-2.88-3.394-5.191zm10.813 10.814c-2.318 0-4.316-1.396-5.193-3.393h.046c4.094 0 7.426-3.332 7.426-7.427v-.045c1.998.876 3.393 2.874 3.393 5.192.001 3.133-2.539 5.673-5.672 5.673z"/>
    </defs>
    <g fill="none" fill-rule="evenodd">
        <mask id="prefix__b" fill="#fff">
            <use xlink:href="#prefix__a"/>
        </mask>
        <use fill="#000" fill-rule="nonzero" xlink:href="#prefix__a"/>
        <path fill="#FFF" d="M0 0H20V20H0z" mask="url(#prefix__b)"/>
    </g>
</svg>
