<?xml version="1.0" encoding="UTF-8"?>
<svg width="111px" height="82px" viewBox="0 0 111 82" version="1.1" xmlns="http://www.w3.org/2000/svg" xmlns:xlink="http://www.w3.org/1999/xlink">
    <title>编组 6</title>
    <g id="页面-1" stroke="none" stroke-width="1" fill="none" fill-rule="evenodd">
        <g id="Apple-TV备份-3" transform="translate(-1303.000000, -612.000000)">
            <g id="编组" transform="translate(1131.000000, 560.000000)">
                <g id="编组-6" transform="translate(172.000000, 52.000000)">
                    <path d="M42.8416668,6.22727273 L42.9582727,6.45427273 L43.0689395,6.45454545 L43.1852727,6.68127273 L43.2962122,6.68181818 L43.4122727,6.90827273 L43.5234849,6.90909091 L43.6402727,7.13627273 L43.7507577,7.13636364 L43.8672727,7.36327273 L43.9780304,7.36363636 L44.0942727,7.59027273 L44.2053031,7.59090909 L44.3222727,7.81727273 L44.4325759,7.81818182 L44.5492727,8.04527273 L44.6598486,8.04545455 L44.7762727,8.27227273 L44.8871213,8.27272727 L45.0032727,8.49927273 L45.114394,8.5 L45.2312727,8.72727273 L45.3416668,8.72727273 L45.4582727,8.95427273 L45.5689395,8.95454545 L45.6852727,9.18127273 L45.7962122,9.18181818 L45.9122727,9.40827273 L46.0234849,9.40909091 L46.1402727,9.63627273 L46.2507577,9.63636364 L46.3672727,9.86327273 L46.4780304,9.86363636 L46.5942727,10.0902727 L46.7053031,10.0909091 L46.8222727,10.3172727 L46.9325759,10.3181818 L47.0492727,10.5452727 L47.1598486,10.5454545 L47.2762727,10.7722727 L47.3871213,10.7727273 L47.5032727,10.9992727 L47.614394,11 L54.6842727,24.7592727 L60.7676599,6.22727273 L73.527549,6.22727273 L73.4522727,6.45427273 L73.7548217,6.45454545 L73.6792727,6.68127273 L73.9820944,6.68181818 L73.9062727,6.90827273 L74.2093672,6.90909091 L74.1342727,7.13627273 L74.4366399,7.13636364 L74.3612727,7.36327273 L74.6639126,7.36363636 L74.5882727,7.59027273 L74.8911854,7.59090909 L74.8152727,7.81727273 L75.1184581,7.81818182 L75.0432727,8.04527273 L75.3457308,8.04545455 L75.2702727,8.27227273 L75.5730035,8.27272727 L75.4972727,8.49927273 L75.8002763,8.5 L75.7252727,8.72727273 L76.027549,8.72727273 L75.9522727,8.95427273 L76.2548217,8.95454545 L76.1792727,9.18127273 L76.4820944,9.18181818 L76.4062727,9.40827273 L76.7093672,9.40909091 L76.6342727,9.63627273 L76.9366399,9.63636364 L76.8612727,9.86327273 L77.1639126,9.86363636 L77.0882727,10.0902727 L77.3911854,10.0909091 L77.3152727,10.3172727 L77.6184581,10.3181818 L77.5432727,10.5452727 L77.8457308,10.5454545 L77.7702727,10.7722727 L78.0730035,10.7727273 L77.9972727,10.9992727 L78.3002763,11 L69.5772727,37.5702727 L78.2272727,37.5730383 L78.2272727,37.8002727 L78.4545455,37.800311 L78.4542727,38.0272727 L78.6818182,38.0275838 L78.6812727,38.2542727 L78.9090909,38.2548565 L78.9082727,38.4812727 L79.1363636,38.4821292 L79.1362727,38.7092727 L79.3636364,38.709402 L79.3632727,38.9362727 L79.5909091,38.9366747 L79.5902727,39.1632727 L79.8181818,39.1639474 L79.8172727,39.3902727 L80.0454545,39.3912201 L80.0452727,39.6182727 L80.2727273,39.6184929 L80.2722727,39.8452727 L80.5,39.8457656 L80.4992727,40.0722727 L80.7272727,40.0730383 L80.7272727,40.3002727 L80.9545455,40.300311 L80.9542727,40.5272727 L81.1818182,40.5275838 L81.1812727,40.7542727 L81.4090909,40.7548565 L81.4082727,40.9812727 L81.6363636,40.9821292 L81.6362727,41.2092727 L81.8636364,41.209402 L81.8632727,41.4362727 L82.0909091,41.4366747 L82.0902727,41.6632727 L82.3181818,41.6639474 L82.3172727,41.8902727 L82.5454545,41.8912201 L82.5452727,42.1182727 L82.7727273,42.1184929 L82.7722727,42.3452727 L83,42.3457656 L83,54.4349415 L64.042396,54.4309642 L63.1124552,57.2740642 L62.4949557,58.9381014 C61.8368511,60.5724077 61.0634575,62.0462441 59.8969268,63.8716945 C54.3305276,72.1048747 46.2740568,76.2959008 37.1536773,75.9837528 L37.1536773,75.9837528 L34.0203076,75.7784589 L34.0202727,75.5652727 L33.7930348,75.5511862 L33.7922727,75.3382727 L33.5657621,75.3239135 L33.5652727,75.1112727 L33.3384894,75.0966407 L33.3382727,74.8842727 L33.1112166,74.869368 L33.1102727,74.6562727 L32.8839439,74.6420953 L32.8832727,74.4292727 L32.6566712,74.4148225 L32.6562727,74.2022727 L32.4293985,74.1875498 L32.4292727,73.9752727 L32.2021257,73.9602771 L32.2012727,73.7472727 L31.974853,73.7330044 L31.9742727,73.5202727 L31.7475803,73.5057316 L31.7472727,73.2932727 L31.5203076,73.2784589 L31.5202727,73.0652727 L31.2930348,73.0511862 L31.2922727,72.8382727 L31.0657621,72.8239135 L31.0652727,72.6112727 L30.8384894,72.5966407 L30.8382727,72.3842727 L30.6112166,72.369368 L30.6102727,72.1562727 L30.3839439,72.1420953 L30.3832727,71.9292727 L30.1566712,71.9148225 L30.1562727,71.7022727 L29.9293985,71.6875498 L29.9292727,71.4752727 L29.7021257,71.4602771 L29.7012727,71.2472727 L29.474853,71.2330044 L29.4742727,71.0202727 L29.2475803,71.0057316 L29.2592876,61.5531257 L29.2592876,58.7903398 L31.9359049,59.0751169 C36.4307619,59.4988568 40.3287303,58.0411803 43.4892567,54.4334946 L34,54.4349472 L33.9992727,54.2072727 L33.7727273,54.2076744 L33.7722727,53.9802727 L33.5454545,53.9804017 L33.5452727,53.7522727 L33.3181818,53.753129 L33.3172727,53.5252727 L33.0909091,53.5258563 L33.0902727,53.2982727 L32.8636364,53.2985835 L32.8632727,53.0712727 L32.6363636,53.0713108 L32.6362727,52.8432727 L32.4090909,52.8440381 L32.4082727,52.6162727 L32.1818182,52.6167653 L32.1812727,52.3892727 L31.9545455,52.3894926 L31.9542727,52.1612727 L31.7272727,52.1622199 L31.7272727,51.9342727 L31.5,51.9349472 L31.4992727,51.7072727 L31.2727273,51.7076744 L31.2722727,51.4802727 L31.0454545,51.4804017 L31.0452727,51.2522727 L30.8181818,51.253129 L30.8172727,51.0252727 L30.5909091,51.0258563 L30.5902727,50.7982727 L30.3636364,50.7985835 L30.3632727,50.5712727 L30.1363636,50.5713108 L30.1362727,50.3432727 L29.9090909,50.3440381 L29.9082727,50.1162727 L29.6818182,50.1167653 L29.6812727,49.8892727 L29.4545455,49.8894926 L29.4542727,49.6612727 L29.2272727,49.6622199 L29.2272727,37.5730139 L45.3263279,37.5705456 L29.2272727,6.22727273 L42.8416668,6.22727273 Z" id="形状结合" fill="#4C8BF4" fill-rule="nonzero"></path>
                    <path d="M42.614394,6 L29,6 L45.0990552,37.3432729 L29,37.3457412 L29,49.4349472 L46.2227744,49.4309642 L45.899033,50.2306911 C45.6400808,50.7853889 45.2686416,51.4524421 44.741157,52.2797878 C41.350311,57.2915135 36.9325881,59.3403178 31.7086322,58.8478442 L29.0320148,58.5630671 L29.0320148,61.325853 L29.0203076,70.7784589 L32.1536773,70.9837528 C41.2740568,71.2959008 49.3305276,67.1048747 54.8969268,58.8716945 C56.0634575,57.0462441 56.8368511,55.5724077 57.4949557,53.9381014 L58.1124552,52.2740642 L59.042396,49.4309642 L78,49.4349415 L78,37.3457656 L63.0106053,37.3432729 L73.3002763,6 L60.5403872,6 L53.5548601,27.2918593 L42.614394,6 Z" id="路径" fill="#FFFFFF" fill-rule="nonzero"></path>
                    <rect id="矩形" stroke="#979797" fill="#D8D8D8" opacity="0" x="0.5" y="0.5" width="110" height="81"></rect>
                </g>
            </g>
        </g>
    </g>
</svg>