<svg xmlns="http://www.w3.org/2000/svg" xmlns:xlink="http://www.w3.org/1999/xlink" width="18" height="18" viewBox="0 0 18 18">
    <defs>
        <path id="prefix__a" d="M5.084 4.632c.486 0 .915.328 1.068.814l.408 1.297c.051.163.195.272.356.272h9.959c.62 0 1.125.534 1.125 1.19 0 .576-.096 1.14-.287 1.677l-1.622 4.58c-.273.77-.979 1.288-1.756 1.288H3.742c-.835 0-1.556-.569-1.796-1.415L.446 9.047C.151 8 0 6.915 0 5.824c0-.657.505-1.192 1.125-1.192zm9.541-2.382c1.034 0 1.875.891 1.875 1.985v1.589c0 .219-.168.397-.375.397h-8.67c-.16 0-.304-.11-.356-.272l-.237-.754c-.255-.811-.97-1.357-1.778-1.357H2.083c-.135 0-.258-.076-.325-.2-.067-.121-.067-.274 0-.396.337-.612.957-.992 1.617-.992z"/>
    </defs>
    <g fill="none" fill-rule="evenodd">
        <mask id="prefix__b" fill="#fff">
            <use xlink:href="#prefix__a"/>
        </mask>
        <use fill="#000" fill-rule="nonzero" xlink:href="#prefix__a"/>
        <path fill="#96989E" d="M0 0H18V18H0z" mask="url(#prefix__b)"/>
    </g>
</svg>
