<svg xmlns="http://www.w3.org/2000/svg" xmlns:xlink="http://www.w3.org/1999/xlink" width="18" height="18" viewBox="0 0 18 18">
    <defs>
        <path id="prefix__a" d="M8.178 3.94c.488 0 .977.052 1.421.132-.911.582-1.622 1.35-2.11 2.225C5.377 6.535 3.955 7.834 3.955 9c0 1.298 1.733 2.756 4.222 2.756 2.488 0 4.222-1.458 4.222-2.756 0-.424-.2-.875-.533-1.272.51-.238 1.177-.398 1.977-.398h.155c.223.53.334 1.087.334 1.67 0 2.836-2.711 5.063-6.155 5.063C4.71 14.063 2 11.835 2 9c0-2.835 2.69-5.062 6.178-5.06zm5.666-.002C17.31 3.938 20 6.163 20 8.997c0 2.836-2.71 5.062-6.178 5.062-.488 0-.977-.053-1.421-.133.888-.582 1.622-1.35 2.11-2.225 2.111-.238 3.533-1.538 3.533-2.703 0-1.166-1.4-2.465-3.488-2.703v-.027H13.31c-.044.027-.111.027-.155.027h-.023c-.578.054-1.133.212-1.622.424C10.333 7.25 9.6 8.152 9.6 9c0 .424.2.875.532 1.272-.51.238-1.176.398-1.977.398H8c-.222-.53-.333-1.087-.333-1.67 0-.663.155-1.325.444-1.908l.111-.212c.4-.715 1.023-1.352 1.778-1.855l.244-.16c1-.582 2.244-.927 3.6-.927z"/>
    </defs>
    <g fill="none" fill-rule="evenodd" transform="translate(-2)">
        <mask id="prefix__b" fill="#fff">
            <use xlink:href="#prefix__a"/>
        </mask>
        <use fill="#000" fill-rule="nonzero" transform="rotate(-30 11 9)" xlink:href="#prefix__a"/>
        <path fill="#96989E" d="M2 0H20V18H2z" mask="url(#prefix__b)"/>
    </g>
</svg>
