<svg xmlns="http://www.w3.org/2000/svg" xmlns:xlink="http://www.w3.org/1999/xlink" width="14" height="14" viewBox="0 0 14 14">
    <defs>
        <path id="prefix__a" d="M9.424 2.366c-.09-.107-.22-.172-.36-.178-.14-.007-.276.046-.375.145-.099.099-.152.235-.146.375.007.14.072.27.18.36L12.3 6.65H.473C.208 6.664 0 6.883 0 7.149c0 .265.208.485.473.499H12.3l-3.584 3.578c-.188.196-.188.505 0 .701.092.093.219.146.35.146.132 0 .258-.053.351-.146l4.433-4.433c.095-.091.149-.218.149-.35 0-.132-.054-.259-.15-.35L9.424 2.366z"/>
    </defs>
    <g fill="none" fill-rule="evenodd">
        <mask id="prefix__b" fill="#fff">
            <use xlink:href="#prefix__a"/>
        </mask>
        <use fill="#000" fill-rule="nonzero" xlink:href="#prefix__a"/>
        <path fill="#062536" d="M0 0H14V14H0z" mask="url(#prefix__b)"/>
    </g>
</svg>
