<svg xmlns="http://www.w3.org/2000/svg" xmlns:xlink="http://www.w3.org/1999/xlink" width="26" height="26" viewBox="0 0 26 26">
    <defs>
        <path id="prefix__a" d="M13 0c7.16 0 13 5.84 13 13s-5.84 13-13 13S0 20.16 0 13 5.84 0 13 0zm0 1.368C6.568 1.368 1.368 6.568 1.368 13c0 6.432 5.2 11.632 11.632 11.632 6.432 0 11.632-5.2 11.632-11.632 0-6.432-5.2-11.632-11.632-11.632zm1.415 21.574c.046.366-.274.685-.638.731h-.046c-.366 0-.684-.273-.684-.638s.274-.684.637-.73c.366-.047.685.274.73.637zm-3.284-.82c.365.092.593.457.547.822-.046.32-.365.547-.684.547-.046.047-.093 0-.137 0-.366-.09-.594-.456-.547-.821.09-.365.456-.594.821-.547zm5.882.092c.137.365-.047.73-.41.866-.091.046-.137.046-.228.046-.273 0-.547-.182-.638-.456-.137-.365.046-.73.41-.866.365-.137.73.046.866.41zm-8.255-.868c.319.182.456.593.274.912-.137.228-.365.365-.593.365-.137.002-.228-.044-.32-.09-.318-.182-.455-.594-.274-.913.182-.319.594-.456.913-.274zm10.584-.592c.228.32.137.73-.182.959-.137.09-.275.137-.41.137-.139-.002-.367-.092-.504-.274-.228-.32-.137-.73.137-.959.319-.228.73-.137.959.137zM6.614 19.84c.275.275.275.684.046.959-.137.137-.318.228-.502.228-.137.002-.319-.045-.456-.182-.275-.274-.275-.684-.046-.958.274-.275.684-.275.958-.047zm14.643-1.047c.274.228.319.684.09.958-.136.182-.318.228-.546.228-.137 0-.321-.046-.412-.137-.319-.228-.365-.684-.09-.959.227-.274.683-.365.958-.09zM5.064 17.88c.182.32.09.73-.228.959-.091.046-.228.09-.365.09-.275 0-.503-.09-.594-.318-.181-.32-.09-.73.228-.959.32-.182.73-.09.959.228zM13 8.125c.257 0 .464.208.464.464v3.947h3.947c.256 0 .464.207.464.464s-.208.464-.464.464h-3.947v3.947c0 .256-.207.464-.464.464s-.464-.208-.464-.464v-3.947H8.589c-.256 0-.464-.207-.464-.464s.208-.464.464-.464h3.947V8.589c0-.256.207-.464.464-.464zm9.488 8.205c.366.137.503.547.366.912-.091.275-.366.41-.638.41-.093 0-.184 0-.275-.044-.365-.137-.502-.547-.365-.913.137-.365.547-.502.912-.365zm-18.475-.777c.09.366-.09.73-.456.866-.047 0-.137.047-.182.047-.319-.045-.592-.227-.684-.547-.091-.366.09-.731.456-.822.365-.09.73.091.866.456zm19.022-1.915c.366.046.638.41.594.775-.047.365-.366.593-.685.593-.046.047-.046 0-.09 0-.366-.046-.638-.41-.594-.775.047-.365.41-.638.775-.593zm-20.07-1.322c.365 0 .684.319.684.684 0 .365-.319.684-.684.684-.365.046-.684-.274-.684-.638 0-.41.319-.73.684-.73zm20.664-.775c.046.365-.228.73-.594.775h-.09c-.366 0-.64-.275-.685-.594-.046-.365.228-.73.594-.775.365-.046.73.228.775.594zM3.512 9.625c.366.091.594.503.456.866-.09.32-.365.503-.637.503-.047 0-.138-.047-.184-.047-.365-.09-.593-.456-.456-.866.09-.365.456-.593.821-.456zm19.342-.912c.137.365 0 .73-.366.912-.09.047-.181.047-.274.047-.273-.002-.547-.14-.638-.412-.137-.365 0-.73.365-.912.366-.137.775 0 .913.365zM4.79 7.161c.319.182.41.638.228.959-.137.228-.365.319-.593.319-.138.046-.229 0-.366-.091-.319-.182-.41-.594-.228-.959.182-.319.638-.41.959-.228zm16.512-.959c.228.275.182.731-.091.96-.137.09-.275.136-.456.136-.182.047-.366-.046-.503-.228-.228-.274-.181-.73.091-.958.275-.229.73-.182.959.09zM6.66 5.2c.274.275.228.73-.047.959-.137.137-.319.182-.456.182-.181 0-.365-.045-.502-.228-.275-.275-.228-.685.046-.96.274-.273.73-.227.959.047zM19.16 4.196c.319.228.365.638.182.959-.138.181-.366.274-.547.274-.14.045-.275-.002-.412-.093-.319-.228-.365-.637-.182-.958.228-.32.638-.365.959-.182zM8.94 3.786c.182.32.046.73-.274.913-.091.046-.228.09-.32.09-.227 0-.455-.137-.593-.365-.181-.319-.046-.73.275-.912.319-.182.73-.046.912.274zm7.617-.866c.366.138.547.503.41.866-.09.275-.365.456-.638.456-.046 0-.137-.046-.228-.046-.365-.137-.547-.502-.41-.866.138-.365.503-.547.866-.41zm-4.926.136c.09.365-.182.73-.547.821h-.138c-.318 0-.593-.228-.684-.547-.09-.365.137-.73.547-.821.366-.091.73.182.822.547zm2.099-.775c.365 0 .684.365.638.73-.047.364-.32.638-.731.638-.365-.046-.684-.365-.638-.73 0-.366.365-.638.73-.638z"/>
    </defs>
    <g fill="none" fill-rule="evenodd">
        <mask id="prefix__b" fill="#fff">
            <use xlink:href="#prefix__a"/>
        </mask>
        <use fill="#000" fill-rule="nonzero" xlink:href="#prefix__a"/>
        <path fill="#031A6E" d="M0 0H26V26H0z" mask="url(#prefix__b)"/>
    </g>
</svg>
