<svg xmlns="http://www.w3.org/2000/svg" xmlns:xlink="http://www.w3.org/1999/xlink" width="16" height="16" viewBox="0 0 16 16">
    <defs>
        <path id="prefix__a" d="M.538 0C.23.032-.002.291 0 .6V13c0 .331.269.6.6.6h8.6c.161.002.316-.06.43-.173.115-.112.179-.266.179-.427 0-.16-.064-.315-.18-.427-.113-.113-.268-.175-.429-.173h-8V1.2h11.2v8c-.002.16.06.316.173.43.112.115.266.179.427.179.161 0 .315-.064.427-.18.113-.113.175-.268.173-.429V.6c0-.331-.269-.6-.6-.6H.538zM9.33 8.794c-.23.025-.426.18-.503.4-.076.219-.018.462.147.625l4.981 4.981H12c-.16-.002-.316.06-.43.173-.114.112-.178.266-.178.427 0 .16.064.315.178.427.114.113.27.175.43.173h3.4c.331 0 .6-.269.6-.6V12c.003-.163-.06-.32-.173-.434-.114-.116-.27-.18-.433-.179-.16.002-.313.068-.425.183-.111.115-.172.27-.169.43v1.95L9.825 8.975c-.128-.133-.31-.2-.494-.181z"/>
    </defs>
    <g fill="none" fill-rule="evenodd">
        <mask id="prefix__b" fill="#fff">
            <use xlink:href="#prefix__a"/>
        </mask>
        <use fill="#000" fill-rule="nonzero" transform="matrix(-1 0 0 1 16 0)" xlink:href="#prefix__a"/>
        <path fill="#96989E" d="M0 0H16V16H0z" mask="url(#prefix__b)"/>
    </g>
</svg>
