<svg xmlns="http://www.w3.org/2000/svg" width="26" height="16" viewBox="0 0 26 16">
    <defs>
        <linearGradient id="prefix__a" x1="100%" x2="0%" y1="8.43%" y2="100%">
            <stop offset="0%" stop-color="#5F6CFC"/>
            <stop offset="100%" stop-color="#734BE2"/>
        </linearGradient>
    </defs>
    <path fill="url(#prefix__a)" fill-rule="evenodd" d="M7.643 24.002c0 1.92.997 3.694 2.616 4.653 1.62.96 3.613.96 5.232 0 1.62-.96 2.616-2.734 2.616-4.653V11.186c0-1.81 1.429-3.276 3.19-3.276 1.762 0 3.19 1.466 3.19 3.276v4.13H22.15l3.359 4.94 3.358-4.94H26.53v-4.13c0-1.92-.997-3.694-2.617-4.653-1.619-.96-3.613-.96-5.232 0-1.619.959-2.616 2.733-2.616 4.653v12.816c0 1.81-1.428 3.276-3.19 3.276s-3.19-1.466-3.19-3.276v-3.787h2.338l-3.36-4.938-3.358 4.938h2.338v3.787z" transform="rotate(45 27.157 7.765)"/>
</svg>
