<svg xmlns="http://www.w3.org/2000/svg" xmlns:xlink="http://www.w3.org/1999/xlink" width="21" height="20" viewBox="0 0 21 20">
    <defs>
        <path id="prefix__a" d="M18.6 6.959c-.772 0-1.4.625-1.4 1.398v2.22l-5.306-5.308c-.547-.546-1.432-.546-1.98 0L6.707 8.478 2.389 4.159c-.547-.545-1.433-.545-1.98 0-.545.547-.545 1.433 0 1.98l5.308 5.306c.547.547 1.433.547 1.98 0l3.207-3.207 4.318 4.317h-2.22c-.772 0-1.398.627-1.398 1.4 0 .772.626 1.4 1.399 1.4H18.6c.372 0 .727-.149.99-.411.262-.263.41-.618.41-.99V8.358c0-.773-.627-1.398-1.4-1.398z"/>
    </defs>
    <g fill="none" fill-rule="evenodd" transform="translate(1)">
        <mask id="prefix__b" fill="#fff">
            <use xlink:href="#prefix__a"/>
        </mask>
        <use fill="#000" fill-rule="nonzero" xlink:href="#prefix__a"/>
        <path fill="#FFF" d="M0 0H20V20H0z" mask="url(#prefix__b)"/>
    </g>
</svg>
