<svg xmlns="http://www.w3.org/2000/svg" xmlns:xlink="http://www.w3.org/1999/xlink" width="18" height="18" viewBox="0 0 18 18">
    <defs>
        <path id="prefix__a" d="M14.4 1.688l-3.6 3.9h2.7v6.824c0 1.078-.806 1.95-1.8 1.95s-1.8-.872-1.8-1.95V5.587c0-2.15-1.616-3.9-3.6-3.9s-3.6 1.75-3.6 3.9v6.825H0l3.6 3.9 3.6-3.9H4.5V5.587c0-1.077.806-1.95 1.8-1.95.995 0 1.8.873 1.8 1.95v6.825c0 2.15 1.616 3.9 3.6 3.9 1.985 0 3.6-1.75 3.6-3.9V5.587H18l-3.6-3.9z"/>
    </defs>
    <g fill="none" fill-rule="evenodd">
        <mask id="prefix__b" fill="#fff">
            <use xlink:href="#prefix__a"/>
        </mask>
        <use fill="#000" fill-rule="nonzero" xlink:href="#prefix__a"/>
        <path fill="#96989E" d="M0 0H18V18H0z" mask="url(#prefix__b)"/>
    </g>
</svg>
