<svg xmlns="http://www.w3.org/2000/svg" xmlns:xlink="http://www.w3.org/1999/xlink" width="20" height="20" viewBox="0 0 20 20">
    <defs>
        <path id="prefix__a" d="M16 1.875l-4 4.333h3v7.584c0 1.197-.895 2.166-2 2.166s-2-.97-2-2.166V6.208c0-2.388-1.795-4.333-4-4.333S3 3.82 3 6.208v7.584H0l4 4.333 4-4.333H5V6.208c0-1.197.895-2.166 2-2.166s2 .97 2 2.166v7.584c0 2.388 1.795 4.333 4 4.333s4-1.945 4-4.333V6.208h3l-4-4.333z"/>
    </defs>
    <g fill="none" fill-rule="evenodd">
        <mask id="prefix__b" fill="#fff">
            <use xlink:href="#prefix__a"/>
        </mask>
        <use fill="#000" fill-rule="nonzero" xlink:href="#prefix__a"/>
        <path fill="#FFF" d="M0 0H20V20H0z" mask="url(#prefix__b)"/>
    </g>
</svg>
