<svg xmlns="http://www.w3.org/2000/svg" xmlns:xlink="http://www.w3.org/1999/xlink" width="18" height="18" viewBox="0 0 18 18">
    <defs>
        <path id="prefix__a" d="M17.898 3.488c-.12-.13-.31-.163-.468-.083-.098.05-.282.116-.5.181.275-.366.497-.776.594-1.145.043-.159-.02-.326-.154-.42-.134-.095-.314-.095-.448 0-.212.147-1.236.592-1.883.736-1.463-1.282-3.165-1.415-4.934-.382-1.439.84-1.752 2.548-1.69 3.589-3.293-.317-5.34-2.056-6.492-3.495-.08-.101-.21-.155-.332-.147-.129.01-.244.08-.31.191-.545.92-.696 1.936-.435 2.94.142.548.391 1.031.68 1.422-.139-.068-.273-.153-.399-.255-.115-.095-.277-.113-.414-.05-.136.065-.223.203-.223.354 0 1.724 1.078 2.874 2.085 3.475-.163-.02-.332-.055-.504-.108-.147-.044-.306 0-.408.116-.102.115-.126.28-.063.42.566 1.251 1.638 2.112 2.965 2.424-1.159.68-2.709 1.014-4.129.85-.183-.026-.359.09-.417.268-.058.177.018.37.18.462 2.154 1.209 4.101 1.64 5.784 1.64 2.448 0 4.338-.913 5.489-1.678 3.101-2.058 5.034-5.754 4.765-9.06.497-.367 1.24-1.045 1.701-1.774.096-.147.079-.34-.04-.47z"/>
    </defs>
    <g fill="none" fill-rule="evenodd">
        <mask id="prefix__b" fill="#fff">
            <use xlink:href="#prefix__a"/>
        </mask>
        <use fill="#000" fill-rule="nonzero" xlink:href="#prefix__a"/>
        <path fill="#062536" d="M0 0H18V18H0z" mask="url(#prefix__b)"/>
    </g>
</svg>
