<svg xmlns="http://www.w3.org/2000/svg" xmlns:xlink="http://www.w3.org/1999/xlink" width="14" height="14" viewBox="0 0 14 14">
    <defs>
        <path id="prefix__a" d="M11.516 3.184h-.331V1.487C11.185.66 10.523 0 9.695 0c-.166 0-.331.03-.497.09L.331 3.214C.135 3.29 0 3.47 0 3.68v9.824c0 .27.226.496.497.496h11.02C12.886 14 14 12.889 14 11.521V5.663c0-1.367-1.114-2.479-2.484-2.479zM9.53 1.006c.256-.09.542.046.632.3.016.06.03.106.03.166v1.712H3.387L9.53 1.006zm1.987 12.002H.994V4.175h10.522c.828 0 1.49.661 1.49 1.487V6.73h-1.43c-.963 0-1.731.781-1.731 1.728v.27c0 .961.783 1.728 1.731 1.728h1.43v1.066c0 .827-.662 1.487-1.49 1.487zm1.49-5.287v1.757h-1.43c-.406 0-.737-.33-.737-.736v-.27c0-.406.33-.736.737-.736l1.43-.015z"/>
    </defs>
    <g fill="none" fill-rule="evenodd">
        <mask id="prefix__b" fill="#fff">
            <use xlink:href="#prefix__a"/>
        </mask>
        <use fill="#000" fill-rule="nonzero" xlink:href="#prefix__a"/>
        <path fill="#031A6E" d="M0 0H14V14H0z" mask="url(#prefix__b)"/>
    </g>
</svg>
