<svg xmlns="http://www.w3.org/2000/svg" xmlns:xlink="http://www.w3.org/1999/xlink" width="14" height="14" viewBox="0 0 14 14">
    <defs>
        <path id="hymof84z4a" d="M6.39 0c-.061.114-.121.235-.178.364-.926 2.039-1.11 4.602-1.08 6.812.016 1.192.13 2.384.344 3.557.059.323.579 3.211.851 3.216-.225-.004-2.217.133-2.315-.026l-.028-.045C1.414 9.793 1.908 4.484 3.55.888c.134-.294.28-.576.434-.843L4.011 0zm1.556 3.063L12.25 7l-4.304 3.938L7 10.07 10.357 7 7 3.929l.946-.866z"/>
    </defs>
    <g fill="none" fill-rule="evenodd">
        <mask id="g2xciuh09b" fill="#fff">
            <use xlink:href="#hymof84z4a"/>
        </mask>
        <use fill="#000" fill-rule="nonzero" xlink:href="#hymof84z4a"/>
        <path fill="#fff" d="M0 0H14V14H0z" mask="url(#g2xciuh09b)"/>
    </g>
</svg>
