<?xml version="1.0" encoding="UTF-8"?>
<svg width="381px" height="309px" viewBox="0 0 381 309" version="1.1" xmlns="http://www.w3.org/2000/svg" xmlns:xlink="http://www.w3.org/1999/xlink">
    <!-- Generator: Sketch 61.2 (89653) - https://sketch.com -->
    <title>Group</title>
    <desc>Created with Sketch.</desc>
    <defs>
        <linearGradient x1="0.25781251%" y1="49.7500002%" x2="101.257813%" y2="49.7500002%" id="linearGradient-1">
            <stop stop-color="#3023AE" offset="0%"></stop>
            <stop stop-color="#53A0FD" offset="47.5247532%"></stop>
            <stop stop-color="#B4EC51" offset="100%"></stop>
        </linearGradient>
    </defs>
    <g id="Page-1" stroke="none" stroke-width="1" fill="none" fill-rule="evenodd">
        <g id="Artboard-Copy-93" transform="translate(-529.000000, -255.000000)" fill-rule="nonzero">
            <g id="Group" transform="translate(529.000000, 256.000000)">
                <path d="M191,-0.5 L301,193.5 L130.67,193.5 L142.98,171.88 L143.307,171.88 L166.974094,131.148511 L180.712635,150.743929 L168.431,171.88 L263.767444,171.880268 L214.109638,84.3021106 C211.107907,79.001585 207.970916,73.4695989 204.698664,67.7061524 L191,43.5459957 L190.98,43.579 L190.821557,43.3007478 C187.172967,36.8926739 183.053393,29.6635507 178.462835,21.6133782 L191,-0.5 Z M165.915,43.742 L166.484,44.742 L166.531194,44.6581891 L226.910397,150.703095 L201.910474,150.701423 L166.001,87.634 L162.589,93.651 L162.538414,93.6236758 L105.671,193.5 L81,193.5 L165.915,43.742 Z" id="Combined-Shape" fill="url(#linearGradient-1)"></path>
                <path d="M13.5944056,308 L16.9174825,298.444444 L36.9314685,298.444444 L40.2545455,308 L54,308 L34.4391608,256 L19.5608392,256 L0,308 L13.5944056,308 Z M34,289 L20,289 L27.039548,270 L34,289 Z M83.7977707,308 L83.7977707,276.079208 L105.202229,308 L118,308 L118,256 L105.202229,256 L105.202229,288.214993 L83.7977707,256 L71,256 L71,308 L83.7977707,308 Z M168.125378,308 L168.125378,290.7157 L187,256 L172.054381,256 L161.577039,277.182461 L151.099698,256 L136,256 L154.874622,290.7157 L154.874622,308 L168.125378,308 Z M217.785047,308 L217.785047,289.759547 L225.71028,289.759547 C229.847352,289.759547 233.361371,289.036304 236.252336,287.589816 C239.143302,286.143329 241.323988,284.157473 242.794393,281.632249 C244.264798,279.107025 245,276.226308 245,272.990099 C245,267.792551 243.35514,263.66148 240.065421,260.596888 C236.775701,257.532296 231.990654,256 225.71028,256 L225.71028,256 L205,256 L205,308 L217.785047,308 Z M224.410526,280 L218,280 L218,266 L224.410526,266 C229.470175,266 232,268.358696 232,273.076087 C232,277.692029 229.470175,280 224.410526,280 L224.410526,280 Z M274.594406,308 L277.917483,298.444444 L297.931469,298.444444 L301.254545,308 L315,308 L295.439161,256 L280.560839,256 L261,308 L274.594406,308 Z M295,289 L281,289 L288.039548,270 L295,289 Z M353.731132,308 C359.298218,308 364.138627,306.896747 368.252358,304.69024 C372.36609,302.483734 375.51913,299.406884 377.711478,295.459689 C379.903826,291.512494 381,286.989156 381,281.889675 C381,276.790193 379.903826,272.279114 377.711478,268.356436 C375.51913,264.433758 372.378407,261.393682 368.289308,259.236209 C364.20021,257.078736 359.347484,256 353.731132,256 L353.731132,256 L334,256 L334,308 L353.731132,308 Z M351.380137,296 L345,296 L345,267 L351.380137,267 C356.631279,267 360.714041,268.268152 363.628425,270.804455 C366.542808,273.340759 368,276.905941 368,281.5 C368,286.094059 366.542808,289.659241 363.628425,292.195545 C360.714041,294.731848 356.631279,296 351.380137,296 L351.380137,296 Z" id="ANYPAD" fill="#FFFFFF"></path>
            </g>
        </g>
    </g>
</svg>