<?xml version="1.0" encoding="UTF-8" standalone="no"?><!DOCTYPE svg PUBLIC "-//W3C//DTD SVG 1.1//EN" "http://www.w3.org/Graphics/SVG/1.1/DTD/svg11.dtd"><svg width="100%" height="100%" viewBox="0 0 280 317" version="1.1" xmlns="http://www.w3.org/2000/svg" xmlns:xlink="http://www.w3.org/1999/xlink" xml:space="preserve" xmlns:serif="http://www.serif.com/" style="fill-rule:evenodd;clip-rule:evenodd;stroke-linejoin:round;stroke-miterlimit:2;"><g><path d="M160.823,0.008c0,-0 80.762,-2.061 88.251,61.793c5.657,48.234 -33.536,54.302 16.214,124.325c41.846,58.898 -11.521,129.047 -106.194,130.425c-14.874,-20.048 -22.187,-38.877 -16.004,-57.622c0,-0 59.601,-3.241 53.613,-34.216c-6.69,-34.605 -35.103,-43.323 -28.826,-79.922c5.845,-34.08 4.358,-50.006 -3.016,-58.086c-24.141,-26.45 -63.451,3.438 -63.451,3.438c-0,0 -37.006,-61.741 33.371,-88.521c5.09,-1.937 19.829,-1.178 26.042,-1.614Z" style="fill:url(#_Linear1);"/><clipPath id="_clip2"><path d="M160.823,0.008c0,-0 80.762,-2.061 88.251,61.793c5.657,48.234 -33.536,54.302 16.214,124.325c41.846,58.898 -11.521,129.047 -106.194,130.425c-14.874,-20.048 -22.187,-38.877 -16.004,-57.622c0,-0 59.601,-3.241 53.613,-34.216c-6.69,-34.605 -35.103,-43.323 -28.826,-79.922c5.845,-34.08 4.358,-50.006 -3.016,-58.086c-24.141,-26.45 -63.451,3.438 -63.451,3.438c-0,0 -37.006,-61.741 33.371,-88.521c5.09,-1.937 19.829,-1.178 26.042,-1.614Z"/></clipPath><g clip-path="url(#_clip2)"><path d="M143.387,287.867c-0,0 114.383,-24.246 75.877,-88.068c-14.11,-23.387 -27.118,-51.888 -22.654,-73.726c14.866,-72.72 -30.646,-77.37 -45.335,-77.713c-31.299,-0.73 -58.859,15.586 -58.859,15.586l21.554,-36.649c-0,0 42.712,-3.849 66.95,6.828c17.544,7.728 32.727,13.522 32.274,51.984c-0.276,23.369 -11.898,57.259 16.31,96.945c27.063,38.076 42.542,89.669 -80.635,117.602c0,0 -4.634,-1.123 -5.544,-3.173c-1.084,-2.442 0.062,-9.616 0.062,-9.616Z" style="fill:url(#_Linear3);"/><path d="M38.806,68.715c-0,-0 20.089,22.308 46.301,16.335c26.213,-5.974 26.325,-25.122 71.561,-19.458c-0,0 -18.26,-10.352 -38.77,-2.35c-13.344,5.206 -24.707,11.784 -41.234,7.572c-16.527,-4.213 -34.824,-26.785 -34.824,-26.785l-3.034,24.686Z" style="fill:url(#_Linear4);"/><path d="M240.897,32.145c-7.484,-12.038 -12.399,-23.928 -17.004,-18.232c-4.604,5.695 -1.682,15.783 6.341,27.417c9.877,14.319 9.517,19.28 8.699,32.557c-0.818,13.278 4.276,26.07 10.517,23.01c6.241,-3.061 12.481,-30.922 -8.553,-64.752Z" style="fill:#670ee1;"/><path d="M141.256,75.801c-0,0 42.634,-6.443 38.116,46.379c-4.518,52.821 13.068,57.049 20.38,71.881c7.312,14.831 20.723,68.696 -56.662,64.868c0,-0 11.21,-136.665 -1.834,-183.128Z" style="fill:#670ee1;"/></g><path d="M205.198,36.948c-0,0 11.962,4.321 14.319,22.136c2.356,17.814 6.082,20.712 9.853,24.99c-0,-0 -4.262,-8.137 -4.442,-16.744c-0.18,-8.608 -3.713,-27.712 -19.73,-30.382Z" style="fill:#e663ff;"/><path d="M210.828,232.785c4.344,-8.712 -1.57,-16.253 2.17,-16.12c6.141,0.219 7.611,9.424 4.61,16.245c-3.002,6.82 -5.295,13.893 -8.72,12.386c-3.425,-1.508 -1.386,-5.842 1.94,-12.511Z" style="fill:#e663ff;"/><path d="M191.001,302.731c-1.811,0.645 -3.612,0.24 -4.02,-0.905c-0.408,-1.145 0.73,-2.599 2.541,-3.244c1.811,-0.646 3.612,-0.24 4.02,0.905c0.408,1.144 -0.73,2.598 -2.541,3.244Z" style="fill:#e663ff;"/><path d="M204.827,300.932c-3.01,2.026 -6.494,2.125 -7.774,0.222c-1.281,-1.903 0.123,-5.093 3.133,-7.119c3.01,-2.026 6.494,-2.125 7.774,-0.222c1.281,1.903 -0.123,5.093 -3.133,7.119Z" style="fill:#e663ff;"/><path d="M221.179,283.17c-4.431,4.61 -10.395,6.077 -13.309,3.275c-2.915,-2.802 -1.683,-8.819 2.748,-13.428c4.432,-4.61 10.396,-6.077 13.31,-3.275c2.915,2.802 1.683,8.819 -2.749,13.428Z" style="fill:#f768ff;"/><path d="M238.249,157.151c0,-0 -2.321,10.33 3.072,22.295c5.84,12.957 19.925,29.55 19.116,62.344c-0.319,12.95 -11.792,32.977 -27.025,43.349c-0,0 30.877,-15.507 34.572,-33.307c4.374,-21.07 -5.214,-48.058 -14.805,-61.781c-13.045,-18.667 -14.93,-32.9 -14.93,-32.9Z" style="fill:#e663ff;"/><path d="M185.919,93.394c-0.669,-3.617 0.263,-6.826 2.079,-7.162c1.817,-0.336 3.834,2.328 4.503,5.945c0.668,3.617 -0.263,6.826 -2.08,7.162c-1.816,0.335 -3.833,-2.329 -4.502,-5.945Z" style="fill:#df6aff;"/><path d="M184.817,79.64c-0.698,-1.791 -0.345,-3.604 0.787,-4.045c1.133,-0.441 2.619,0.655 3.317,2.446c0.698,1.791 0.345,3.604 -0.788,4.045c-1.132,0.441 -2.618,-0.655 -3.316,-2.446Z" style="fill:#df6aff;"/><path d="M180.269,73.603c-0.983,-0.684 -1.431,-1.745 -0.998,-2.367c0.433,-0.622 1.582,-0.571 2.566,0.113c0.984,0.685 1.431,1.745 0.998,2.367c-0.432,0.622 -1.582,0.571 -2.566,-0.113Z" style="fill:#df6aff;"/><path d="M226.581,112.088c-0.371,-2.36 0.29,-4.428 1.475,-4.614c1.185,-0.186 2.449,1.579 2.82,3.939c0.371,2.36 -0.29,4.428 -1.475,4.614c-1.185,0.186 -2.449,-1.579 -2.82,-3.939Z" style="fill:#df6aff;"/><path d="M189.387,15.552c1.638,-1.74 3.677,-2.485 4.55,-1.662c0.874,0.822 0.254,2.902 -1.383,4.642c-1.638,1.74 -3.677,2.485 -4.55,1.663c-0.874,-0.822 -0.254,-2.903 1.383,-4.643Z" style="fill:#df6aff;"/><path d="M217.206,119.673c0.344,-3.108 1.891,-5.49 3.452,-5.317c1.56,0.173 2.547,2.837 2.202,5.944c-0.345,3.108 -1.891,5.49 -3.452,5.317c-1.56,-0.173 -2.547,-2.837 -2.202,-5.944Z" style="fill:#df6aff;"/><path d="M177.648,12.794c2.667,-1.632 5.497,-1.871 6.317,-0.531c0.819,1.339 -0.68,3.751 -3.347,5.383c-2.666,1.633 -5.497,1.871 -6.316,0.532c-0.82,-1.339 0.679,-3.752 3.346,-5.384Z" style="fill:#b52df4;"/><path d="M227.88,133.346c0.593,-4.199 0.19,-7.694 2.794,-7.327c2.603,0.368 4.06,3.999 3.467,8.198c-0.593,4.199 -3.013,7.387 -5.616,7.019c-2.604,-0.368 -1.238,-3.691 -0.645,-7.89Z" style="fill:#bb3cff;"/><path d="M123.386,316.545l-113.035,-0c-0,-0 -13.54,-27.328 -9.648,-53.228c3.892,-25.901 31.361,-49.937 26.627,-89.795c-4.734,-39.857 -31.675,-62.336 -24.965,-104.474c3.944,-24.772 20.756,-44.279 33.944,-56.149c9.196,-8.292 21.138,-12.882 33.52,-12.882c30.324,-0.009 91.061,-0.009 91.061,-0.009c-0,-0 -13.488,1.688 -24.338,10.692c-16.018,13.291 -37.728,33.388 -35.654,72.617c2.458,46.481 31.301,51.019 29.321,108.863c-0.917,26.776 -20.614,45.177 -21.158,74.846c-0.488,26.644 14.325,49.519 14.325,49.519Z" style="fill:#ff5601;"/><clipPath id="_clip5"><path d="M123.386,316.545l-113.035,-0c-0,-0 -13.54,-27.328 -9.648,-53.228c3.892,-25.901 31.361,-49.937 26.627,-89.795c-4.734,-39.857 -31.675,-62.336 -24.965,-104.474c3.944,-24.772 20.756,-44.279 33.944,-56.149c9.196,-8.292 21.138,-12.882 33.52,-12.882c30.324,-0.009 91.061,-0.009 91.061,-0.009c-0,-0 -13.488,1.688 -24.338,10.692c-16.018,13.291 -37.728,33.388 -35.654,72.617c2.458,46.481 31.301,51.019 29.321,108.863c-0.917,26.776 -20.614,45.177 -21.158,74.846c-0.488,26.644 14.325,49.519 14.325,49.519Z"/></clipPath><g clip-path="url(#_clip5)"><path d="M-39.399,282.078c-2.583,-21.512 10.995,-35.123 34.605,-63.714c23.61,-28.591 17.745,-56.916 11.108,-79.58c-6.636,-22.665 24.04,-1.096 31.19,30.308c7.15,31.404 -18.091,60.528 -21.059,89.793c-3.526,34.77 8.87,57.66 8.87,57.66c0,-0 -55.141,45.229 -64.714,-34.467Z" style="fill:#e14001;"/><path d="M127.402,127.583c8.549,3.691 19.841,18.024 17.352,49.314c-2.281,28.684 -17.745,41.77 -24.882,26.791c-6.125,-12.855 1.498,-28.474 -4.78,-44.005c-5.955,-14.731 -9.896,-18.7 -6.29,-27.051c4.881,-11.303 14.12,-6.983 18.6,-5.049Z" style="fill:#e14001;"/></g><path d="M76.501,62.291c-18.031,37.09 -10.848,60.164 -5.837,80.752c8.305,34.124 17.254,56.979 -1.505,97.323c-18.758,40.344 -12.251,58.171 -0.19,76.152l-32.232,0.027c0,-0 -20.258,-30.63 -9.171,-60.474c11.087,-29.845 32.721,-59.602 34.895,-87.651c2.175,-28.05 -41.012,-62.564 -8.943,-106.893c32.648,-45.131 31.641,-50.587 26.927,-61.519l8.416,-0c-0,-0 -3.128,19.485 3.194,23.418c3.976,2.473 18.914,-13.288 21.209,-23.418l15.557,-0c0,-0 -34.563,25.757 -52.32,62.283Z" style="fill:#ffbd25;"/><clipPath id="_clip6"><path d="M76.501,62.291c-18.031,37.09 -10.848,60.164 -5.837,80.752c8.305,34.124 17.254,56.979 -1.505,97.323c-18.758,40.344 -12.251,58.171 -0.19,76.152l-32.232,0.027c0,-0 -20.258,-30.63 -9.171,-60.474c11.087,-29.845 32.721,-59.602 34.895,-87.651c2.175,-28.05 -41.012,-62.564 -8.943,-106.893c32.648,-45.131 31.641,-50.587 26.927,-61.519l8.416,-0c-0,-0 -3.128,19.485 3.194,23.418c3.976,2.473 18.914,-13.288 21.209,-23.418l15.557,-0c0,-0 -34.563,25.757 -52.32,62.283Z"/></clipPath><g clip-path="url(#_clip6)"><path d="M4.172,278.38c0,0 10.576,-28.904 34.73,-57.037c24.154,-28.132 19.924,-62.566 13.723,-85.354c-6.2,-22.787 6.195,-59.784 19.897,-69.819c6.379,-4.672 2.611,4.045 -2.149,25.82c-9.835,44.998 1.984,46.361 8.531,77.897c4.132,19.906 6.021,32.289 1.32,50.833c-2.747,10.833 -10.172,23.091 -14.294,41.973c-11.18,51.202 9.716,55.402 9.716,55.402c0,-0 -73.397,49.086 -71.474,-39.715Z" style="fill:#ffa725;"/></g><path d="M18.914,298.201c-2.427,-5.915 -1.362,-11.964 2.378,-13.499c3.741,-1.534 8.748,2.022 11.176,7.937c2.427,5.915 1.362,11.964 -2.378,13.499c-3.74,1.535 -8.748,-2.021 -11.176,-7.937Zm-9.646,-22.131c-0.638,-3.572 0.678,-6.799 2.936,-7.202c2.258,-0.404 4.61,2.169 5.247,5.74c0.638,3.572 -0.677,6.799 -2.936,7.203c-2.258,0.403 -4.609,-2.169 -5.247,-5.741Zm3.937,-13.375c0.14,-1.918 1.239,-3.402 2.451,-3.313c1.212,0.089 2.082,1.717 1.942,3.634c-0.141,1.918 -1.239,3.402 -2.451,3.313c-1.213,-0.089 -2.083,-1.717 -1.942,-3.634Z" style="fill:#ffa725;"/><path d="M79.109,90.657c-0,0 -7.104,25.938 2.292,47.939c7.748,18.141 14.718,28.048 13.562,60.831c-0.609,17.264 -5.576,20.659 -7.098,32.561c-0,0 10.588,-19.249 14.284,-37.048c4.373,-21.07 -5.273,-44.931 -13.154,-59.703c-11.914,-22.332 -9.886,-44.58 -9.886,-44.58Z" style="fill:#ffa725;"/><clipPath id="_clip7"><path d="M79.109,90.657c-0,0 -7.104,25.938 2.292,47.939c7.748,18.141 14.718,28.048 13.562,60.831c-0.609,17.264 -5.576,20.659 -7.098,32.561c-0,0 10.588,-19.249 14.284,-37.048c4.373,-21.07 -5.273,-44.931 -13.154,-59.703c-11.914,-22.332 -9.886,-44.58 -9.886,-44.58Z"/></clipPath><g clip-path="url(#_clip7)"><path d="M84.852,81.52c-7.081,6.046 -13.646,23.071 -2.046,52.237c10.634,26.738 29.268,34.684 31.673,18.267c2.064,-14.089 -9.823,-26.767 -8.402,-43.459c1.349,-15.831 3.945,-20.786 -1.963,-27.703c-7.995,-9.362 -15.551,-2.511 -19.262,0.658Z" style="fill:#ffbd25;"/></g><path d="M87.411,316.545c-0,-0 -19.69,-22.661 -10.563,-47.949c9.127,-25.288 25.496,-32.857 34.212,-64.056c-0,0 -1.962,24.533 -8.566,34.171c-7.61,11.106 -14.711,23.085 -12.547,40.002c2.164,16.918 22.336,37.832 22.336,37.832l-24.872,-0Z" style="fill:#ffa725;"/><path d="M54.209,219.599c-0,0 4.166,10.977 -8.13,33.811c-12.296,22.835 -6.689,44.85 -0.449,54.603c-0,0 -4.896,-13.218 -2.318,-25.877c2.577,-12.659 22.636,-43.398 10.897,-62.537Zm12.286,-42.106c-0,0 2.196,9.427 -3.067,26.837c-5.264,17.409 -2.358,20.098 -0.957,25.027c0,0 0.717,-10.984 6.751,-24.582c6.034,-13.598 -1.453,-25.999 -2.727,-27.282Z" style="fill:#ff5601;"/><path d="M88.349,101.141c0.268,-3.669 1.981,-6.538 3.823,-6.403c1.842,0.134 3.12,3.222 2.852,6.89c-0.267,3.668 -1.98,6.538 -3.822,6.403c-1.843,-0.134 -3.121,-3.222 -2.853,-6.89Zm-4.094,-18.762c-0.697,-1.791 -0.345,-3.603 0.788,-4.044c1.133,-0.442 2.619,0.654 3.316,2.446c0.698,1.791 0.345,3.603 -0.787,4.044c-1.133,0.442 -2.619,-0.654 -3.317,-2.446Zm-20.823,-75.491c-0,0 6.047,13.7 -8.849,31.324c-14.897,17.623 -14.486,23.256 -15.345,30.14c0,-0 4.103,-10.685 12.113,-18.407c8.011,-7.723 23.134,-27.454 12.081,-43.057Zm-16.288,18.173c3.318,-5.176 5.28,-13.316 7.879,-11.65c2.599,1.666 1.845,9.072 -1.472,14.248c-3.318,5.176 -6.091,10.649 -8.69,8.983c-2.599,-1.666 -1.035,-6.405 2.283,-11.581Z" style="fill:#ffa725;"/><path d="M37.092,153.586c0.345,-3.107 1.892,-5.49 3.452,-5.316c1.561,0.173 2.548,2.836 2.203,5.944c-0.345,3.107 -1.892,5.489 -3.452,5.316c-1.561,-0.173 -2.547,-2.836 -2.203,-5.944Zm9.376,-7.584c-0.371,-2.361 0.29,-4.428 1.475,-4.615c1.185,-0.186 2.449,1.579 2.82,3.939c0.371,2.361 -0.29,4.428 -1.475,4.615c-1.186,0.186 -2.449,-1.579 -2.82,-3.939Zm-26.331,-32.666c4.455,13.456 6.448,26.167 12.259,21.709c5.811,-4.459 5.334,-14.951 0.259,-28.14c-6.247,-16.235 -4.735,-20.974 -0.829,-33.69c3.906,-12.716 1.951,-26.346 -4.833,-24.832c-6.785,1.513 -19.378,27.136 -6.856,64.953Z" style="fill:#e14001;"/><path d="M47.766,167.26c0.594,-4.199 0.191,-7.695 2.794,-7.327c2.604,0.368 4.061,3.998 3.468,8.197c-0.593,4.2 -3.013,7.387 -5.617,7.019c-2.603,-0.367 -1.238,-3.69 -0.645,-7.889Z" style="fill:#ffa725;"/></g><defs><linearGradient id="_Linear1" x1="0" y1="0" x2="1" y2="0" gradientUnits="userSpaceOnUse" gradientTransform="matrix(-126.824,-262.467,262.467,-126.824,241.635,289.764)"><stop offset="0" style="stop-color:#e03fff;stop-opacity:1"/><stop offset="1" style="stop-color:#4400d8;stop-opacity:1"/></linearGradient><linearGradient id="_Linear3" x1="0" y1="0" x2="1" y2="0" gradientUnits="userSpaceOnUse" gradientTransform="matrix(-99.3707,-75.0481,75.0481,-99.3707,211.698,105.138)"><stop offset="0" style="stop-color:#f768ff;stop-opacity:1"/><stop offset="1" style="stop-color:#7e40ff;stop-opacity:1"/></linearGradient><linearGradient id="_Linear4" x1="0" y1="0" x2="1" y2="0" gradientUnits="userSpaceOnUse" gradientTransform="matrix(-61.1519,7.99742,-7.99742,-61.1519,161.602,61.9931)"><stop offset="0" style="stop-color:#f768ff;stop-opacity:1"/><stop offset="1" style="stop-color:#8442ff;stop-opacity:1"/></linearGradient></defs></svg>