<svg width="502" height="502" xmlns="http://www.w3.org/2000/svg" xmlns:xlink="http://www.w3.org/1999/xlink" overflow="hidden"><defs><clipPath id="clip0"><rect x="87" y="109" width="502" height="502"/></clipPath><clipPath id="clip1"><rect x="154" y="180" width="331" height="331"/></clipPath><clipPath id="clip2"><rect x="154" y="180" width="331" height="331"/></clipPath><clipPath id="clip3"><rect x="154" y="180" width="331" height="331"/></clipPath></defs><g clip-path="url(#clip0)" transform="translate(-87 -109)"><path d="M88 359.5C88 221.153 200.153 109 338.5 109 476.847 109 589 221.153 589 359.5 589 497.847 476.847 610 338.5 610 200.153 610 88 497.847 88 359.5Z" fill="#FAF4E6" fill-rule="evenodd"/><g clip-path="url(#clip1)"><g clip-path="url(#clip2)"><g clip-path="url(#clip3)"><path d="M426.222 423.902C426.004 423.794 403.447 411.844 381.747 383.751 368.244 366.27 357.848 346.198 350.844 324.09 340.977 291.928 347.929 245.543 342.062 220.094 335.747 192.702 316.774 187.416 310.387 187.138 293.263 186.392 276.325 201.453 272.733 232.246 257.692 361.171 314.463 440.904 396.048 484.852 412.154 493.039 433.355 486.506 441.605 469.467 449.936 452.636 443.05 432.236 426.222 423.902Z" fill="#FFECB3"/><path d="M426.222 423.902C426.004 423.794 403.446 411.844 381.747 383.751 368.244 366.27 357.848 346.198 350.844 324.09 340.977 291.928 347.929 245.543 342.062 220.094 335.747 192.702 316.775 187.416 310.387 187.138 306.44 186.966 302.504 187.645 298.737 189.152 306.922 192.49 317.637 200.811 322.083 220.094 327.95 245.543 320.999 291.928 330.865 324.09 337.868 346.198 348.265 366.27 361.768 383.751 383.468 411.844 406.025 423.794 406.243 423.902 423.071 432.236 429.958 452.636 421.625 469.467 417.371 478.254 409.669 484.237 401 486.858 416.254 491.625 434.178 484.807 441.605 469.467 449.936 452.636 443.05 432.236 426.222 423.902Z" fill="#FFE082"/><path d="M326.782 358.739C326.782 358.739 288.554 309.383 236.921 307.268 185.289 305.152 186.744 385.545 169.766 394.347 152.787 403.15 154.02 411.69 154.02 411.69 154.02 411.69 154.87 419.48 168.737 414.444 182.603 409.408 185.06 405.623 190.363 399.077 195.667 392.53 207.353 325.03 236.628 326.905 265.904 328.779 272.801 391.02 305.625 428.086 338.448 465.153 375.745 493.88 415.539 491.193 451.03 488.796 463.672 499.189 471.953 503.533 473.476 504.332 475.356 503.741 476.143 502.211L484.656 485.66C485.479 484.06 484.773 482.099 483.115 481.401 476.082 478.438 458.943 469.968 451.091 455.089 441.077 436.115 450.102 440.73 418.73 414.441 387.357 388.152 370.474 348.425 371.287 333.222 372.101 318.019 369.286 283.835 397.75 284.435 426.215 285.035 431.245 333.715 445.797 349.844 458.7 364.145 466.392 351.281 466.392 351.281 466.392 351.281 469.006 342.609 456.169 332.832 447.197 325.999 437.856 264.955 398.508 265.933 359.159 266.911 324.989 298.493 326.782 358.739Z" fill="#FFD54F"/><path d="M483.115 481.4C476.082 478.437 458.943 469.968 451.091 455.089 441.077 436.115 450.102 440.73 418.73 414.44 387.357 388.151 370.474 348.424 371.287 333.221 372.101 318.019 369.286 283.834 397.75 284.434 426.215 285.034 431.245 333.715 445.798 349.844 458.7 364.144 466.393 351.281 466.393 351.281 466.393 351.281 469.007 342.608 456.169 332.831 447.197 325.998 437.856 264.955 398.508 265.933 365.519 266.753 336.174 289.09 328.606 331.79 327.471 347.975 326.782 358.74 326.782 358.74 326.782 358.74 334.667 420.014 388.135 444.741 441.604 469.467 424.363 477.658 452.607 494.409 452.612 494.412 452.616 494.414 452.62 494.416 462.048 497.306 467.604 501.252 471.953 503.533 473.476 504.332 475.356 503.741 476.143 502.211L484.656 485.66C485.478 484.06 484.773 482.098 483.115 481.4Z" fill="#FFCA28"/><path d="M483.115 481.4C476.082 478.437 458.942 469.968 451.09 455.089 441.076 436.115 450.101 440.73 418.729 414.44 387.356 388.151 370.473 348.424 371.286 333.221 371.974 320.358 370.067 293.905 386.709 286.433 366.873 293.105 351.306 307.963 351.306 333.221 351.306 357.898 367.377 388.151 398.749 414.44 430.121 440.73 420.099 436.674 431.11 455.089 445.398 478.982 468.356 477.694 470.186 502.562 470.799 502.909 471.386 503.236 471.953 503.532 473.476 504.332 475.356 503.741 476.143 502.21L484.656 485.659C485.478 484.06 484.773 482.098 483.115 481.4Z" fill="#FFB300"/></g></g></g></g></svg>