<?xml version="1.0" encoding="utf-8"?>
<!-- Generator: Adobe Illustrator 24.3.0, SVG Export Plug-In . SVG Version: 6.00 Build 0)  -->
<svg version="1.1" id="图层_1" xmlns="http://www.w3.org/2000/svg" xmlns:xlink="http://www.w3.org/1999/xlink" x="0px" y="0px"
	 viewBox="0 0 100 100" style="enable-background:new 0 0 100 100;" xml:space="preserve">
<style type="text/css">
	.st0{fill:#0660FF;}
</style>
<path class="st0" d="M2.56,18.32C0.44,9.56,6.51,0.56,15.55,0.32c12.59-0.34,25.28-0.67,37.79,0.51
	c24.12,2.28,43.5,23.04,44.55,46.41c1.1,24.69-16.01,46.59-40.52,51.37c-4.89,0.95-10.13,1.35-15.03,0.69
	c-10.39-1.39-17.3-9.78-17.38-20.26c-0.11-14.42-0.03-28.85-0.05-43.27c0-0.75-0.08-1.5-0.14-2.46c-2.63,0-5.19-0.23-7.68,0.07
	c-2.24,0.27-3.48,1.95-3.48,4.24c-0.02,15.57,0.1,30.77,0.1,46.71c0.07,5.04,3.02,8.94,6.81,12.13c1.14,0.96,2.34,1.84,3.64,2.85
	c-10.01,3.14-21.77-4.9-21.93-15.12C1.98,68.43,2.05,52.67,2.19,36.91C2.26,29.14,8.62,22.52,17,22.22
	c10.77-0.39,21.64-0.62,32.36,0.32c15.85,1.39,26.53,14.29,25.7,29.63c-0.77,14.1-13.44,25.76-28.72,25.76
	c-3.65,0-6.45,0.01-9.62,0.01c-0.87,6.12,3.44,10.79,9.76,10.94c17.16,0.42,33.6-11.69,38.54-28.38
	c4.83-16.31-2.07-33.86-16.97-43.14c-6.65-4.15-13.93-6.18-21.74-6.23c-9.46-0.07-18.92-0.01-28.38-0.02
	c-5.87-0.01-10.88,1.8-14.46,6.7c-0.16,0.22-0.41,0.37-0.63,0.53C2.77,18.37,2.65,18.33,2.56,18.32z M36.5,66.79
	c3.84,0,7.37,0.15,10.88-0.03c8.31-0.43,15.23-6.66,16.17-14.36c1.01-8.3-3.64-15.97-11.92-18.16c-4.77-1.26-9.92-1.11-15.12-1.62
	C36.5,44.42,36.5,55.44,36.5,66.79z"/>
</svg>
