<svg id="Layer_1" data-name="Layer 1" xmlns="http://www.w3.org/2000/svg" xmlns:xlink="http://www.w3.org/1999/xlink" viewBox="0 0 102.47 102.47"><defs><style>.cls-1{fill:#92b4e3;}.cls-2{fill:#e3f5ff;opacity:0.5;}.cls-3{fill:url(#linear-gradient);}.cls-4{fill:#fff;}</style><linearGradient id="linear-gradient" x1="58.97" y1="64" x2="115.23" y2="64" gradientTransform="translate(0 0)" gradientUnits="userSpaceOnUse"><stop offset="0" stop-color="#7ba4dd"/><stop offset="1" stop-color="#628dd6"/></linearGradient></defs><circle class="cls-1" cx="51.23" cy="51.2" r="50.19"/><path class="cls-2" d="M114.15,72.15a50.79,50.79,0,0,1-100.3,0H79.5V67.42H90.66v4.73Z" transform="translate(-12.77 -12.77)"/><path class="cls-1" d="M64,12.77A51.23,51.23,0,1,0,115.23,64,51.22,51.22,0,0,0,64,12.77Zm0,100.4A49.17,49.17,0,1,1,113.17,64,49.16,49.16,0,0,1,64,113.17Z" transform="translate(-12.77 -12.77)"/><path class="cls-3" d="M64,12.77c-1.7,0-3.38.08-5,.24a51.24,51.24,0,0,1,0,102c1.66.16,3.33.24,5,.24A51.23,51.23,0,0,0,64,12.77Z" transform="translate(-12.77 -12.77)"/><path class="cls-4" d="M92.4,64H39.66V41.31H81v6.13H58.53v8.24c.14,0,.28,0,.43,0H92.4Z" transform="translate(-12.77 -12.77)"/><path class="cls-4" d="M39.62,94.06v-27H58.46c0,.13,0,.28,0,.43q0,13.19,0,26.38s0,.1,0,.15Z" transform="translate(-12.77 -12.77)"/></svg>
