<?xml version="1.0" encoding="utf-8"?>
<!-- Generator: Adobe Illustrator 24.3.0, SVG Export Plug-In . SVG Version: 6.00 Build 0)  -->
<svg version="1.1" id="Lager_1" xmlns="http://www.w3.org/2000/svg" xmlns:xlink="http://www.w3.org/1999/xlink" x="0px" y="0px"
	 viewBox="0 0 80 80" style="enable-background:new 0 0 80 80;" xml:space="preserve">
<style type="text/css">
	.st0{fill:#D0D0D0;}
	.st1{fill:#030304;}
	.st2{fill:#43A1DA;}
	.st3{fill:#040506;}
	.st4{fill:#060B0F;}
	.st5{fill:#06131C;}
	.st6{fill:#096AA1;}
	.st7{fill:#0D80C4;}
	.st8{fill:#07527C;}
	.st9{fill:#0A1D2B;}
	.st10{fill:#023C5A;}
	.st11{fill:#0B3047;}
	.st12{fill:#0D2537;}
	.st13{fill:#CACACB;}
	.st14{fill:#CFCECE;}
	.st15{fill:#2E1B11;}
</style>
<g>
	<path class="st0" d="M72.02,12.55c-0.04,0-0.08,0-0.12-0.01c-0.07-0.07-0.14-0.17-0.22-0.2c-2.03-0.66-4.03-1.43-6.09-1.94
		c-2.32-0.58-4.63-1.23-7.03-1.39c-0.2-0.01-0.43-0.17-0.56,0.01c-0.13,0.18,0.05,0.41,0.17,0.56c1,1.31,1.8,2.73,2.45,4.25
		c0.14,0.33,0.34,0.54,0.75,0.65c0.95,0.25,1.95,0.37,2.86,0.78c-0.08,0.11-0.32,0.24-0.12,0.35c0.26,0.13,0.6,0.19,0.75-0.23
		c0.61,0.17,1.21,0.38,1.83,0.5c0.56,0.1,0.63,0.41,0.63,0.92c0.01,6.43,0.03,12.86,0.06,19.29c0,0.86-0.1,1.72,0.11,2.57
		c-0.02,3.65,0.07,7.32-0.83,10.9c-0.1,0.42-0.2,0.84-0.31,1.25c-0.24,0.74-0.48,1.49-0.73,2.23c-0.05,0.03-0.07,0.08-0.06,0.14
		c-0.03,0.1-0.07,0.2-0.1,0.3c-0.59,1.22-1.17,2.45-1.76,3.67c-0.22,0.38-0.43,0.75-0.65,1.13c-0.94,1.53-2.06,2.92-3.19,4.3
		c-0.23,0.16-0.42,0.36-0.56,0.61c-0.24,0.24-0.49,0.48-0.73,0.72c-0.21,0.2-0.42,0.39-0.63,0.59c-1.03,0.78-1.98,1.69-3.12,2.33
		c-0.05-0.06-0.1-0.13-0.15-0.19c0.12-0.13,0.25-0.26,0.37-0.38c0.32-0.16,0.58-0.38,0.81-0.66c0.24-0.12,0.44-0.3,0.6-0.52
		c0.23-0.14,0.44-0.31,0.59-0.55c0.32-0.2,0.58-0.48,0.79-0.8c0.3-0.21,0.55-0.48,0.74-0.8c0.18-0.21,0.37-0.43,0.56-0.64
		c0.92-1.04,1.72-2.17,2.38-3.41c0.76-1.08,1.26-2.3,1.8-3.5c0.12-0.27,0.11-0.47-0.16-0.65c-0.65-0.45-1.3-0.9-2.01-1.25
		c-0.16-0.08-0.32-0.25-0.42,0.04c-0.34,0.94-1.03,1.65-1.5,2.51c-0.31-0.05-0.31-0.19-0.21-0.49c0.49-1.47,0.12-2.78-0.81-3.93
		c-1.29-1.59-2.98-2.56-4.84-3.27c-0.22-0.23-0.62-0.16-0.79-0.48c0.16-1.53,0.34-3.06,0.46-4.59c0.05-0.75,0.16-1.44,0.67-2.01
		c0.29-0.25,0.5-0.56,0.67-0.9c0.42-0.9,0.98-1.76,1.01-2.81c0.29-1.09,0.61-2.18,0.87-3.29c0.1-0.41,0.26-0.71,0.64-0.87
		c0.71-0.27,1.38-0.62,2-1.08c0.07-0.04,0.13-0.08,0.2-0.12l-0.01,0.01c0.05,0,0.09-0.02,0.12-0.07c0.18-0.05,0.34-0.14,0.46-0.3
		c0.31-0.14,0.58-0.34,0.79-0.62c0.7-0.52,1.23-1.18,1.5-2.03c0.31-0.6,0.4-1.26,0.27-1.89c-0.38-1.87-0.84-3.72-1.01-5.63
		c-0.05-1.74-0.57-3.38-1.11-4.99c-0.98-2.94-2.45-5.6-4.51-7.91c-0.72-0.95-1.58-1.75-2.51-2.48c-0.55-0.56-1.17-1.02-1.85-1.41
		c-0.48-0.38-0.98-0.71-1.54-0.95c-0.3-0.21-0.6-0.42-0.96-0.48c-0.71-0.41-1.46-0.74-2.26-0.93c-1.14-0.43-2.3-0.75-3.52-0.82
		c-0.11-0.08-0.21-0.08-0.31,0.02c-0.15,0-0.31,0.01-0.46,0.01c-1.37-0.48-2.75-0.23-4.13-0.1c-1.85,0.16-3.64,0.62-5.31,1.41
		c-8.02,3.76-12.22,10.36-13.41,19.14c-0.17,1.26-0.23,2.51-0.63,3.75c-0.76,2.4-0.13,4.1,1.84,5.64c0.98,0.76,2.06,1.36,3.18,1.86
		c0.36,0.16,0.56,0.38,0.65,0.78c0.2,0.89,0.41,1.78,0.65,2.66c0.33,1.23,0.37,2.6,1.28,3.56c1.17,1.23,1.36,2.73,1.44,4.3
		c0.04,0.86,0.09,1.73,0.24,2.57c0.1,0.57-0.09,0.76-0.58,0.96c-1.55,0.62-3.02,1.41-4.26,2.58c-1.46,1.37-2.13,2.98-1.49,4.99
		c-0.04,0.04-0.09,0.09-0.13,0.13c-0.29-0.36-0.56-0.75-0.89-1.07c-0.44-0.43-0.33-1.45-1.03-1.41c-0.56,0.03-1.1,0.6-1.65,0.94
		c-0.11,0.07-0.21,0.16-0.32,0.21c-0.44,0.21-0.45,0.51-0.26,0.93c1.82,4.22,4.47,7.78,8.02,10.63c0.18,0.14,0.48,0.21,0.46,0.54
		c-0.05,0.02-0.11,0.06-0.13,0.05c-0.2-0.11-0.4-0.23-0.59-0.36c-7.78-5.81-11.77-13.72-11.93-23.5
		c-0.14-8.76,0.07-17.52,0.11-26.29c0-0.47,0.17-0.63,0.57-0.74c1.67-0.48,3.34-0.96,5.05-1.29c0.57-0.11,0.93-0.35,1.17-0.93
		c0.6-1.45,1.42-2.77,2.3-4.06c0.17-0.24,0.44-0.43,0.45-0.81c-4.54,0.73-8.98,1.78-13.31,3.32c-0.7,0.25-0.97,0.52-0.97,1.34
		c-0.01,8.29-0.09,16.58-0.13,24.87c-0.02,3.32-0.16,6.64,0.44,9.94c1.95,10.72,7.46,18.9,16.86,24.11
		c4.58,2.54,9.54,4.25,14.3,6.41c0.3,0.14,0.54,0.02,0.8-0.09c3.99-1.74,7.99-3.45,11.97-5.23c3.49-1.56,6.64-3.66,9.34-6.44
		c0.31-0.21,0.56-0.48,0.77-0.79c0.92-0.89,1.76-1.86,2.47-2.94c0.53-0.51,0.81-1.19,1.24-1.77c0.34-0.36,0.58-0.79,0.78-1.24
		c0.13-0.23,0.27-0.45,0.4-0.68c0.35-0.46,0.56-1,0.79-1.53c0.34-0.49,0.57-1.03,0.76-1.59c0.45-0.9,0.82-1.84,1.06-2.82
		c0.39-0.84,0.61-1.74,0.78-2.65c0.21-0.44,0.24-0.92,0.32-1.39c0.14-0.63,0.32-1.26,0.4-1.89c0.55-4.01,0.33-8.03,0.29-12.06
		c0.02-0.71,0.03-1.41,0.05-2.12c0-6.78,0.01-13.57,0.01-20.35C72.22,12.96,72.25,12.71,72.02,12.55z"/>
	<path class="st1" d="M58.57,63.9c0.24-0.24,0.49-0.48,0.73-0.72c0.26,0.91,1.06,1.61,0.93,2.69c-0.04,0.36,0.29,0.59,0.6,0.82
		c0.41,0.31,0.89,0.04,1.26,0.32c-2.7,2.78-5.84,4.89-9.34,6.44c-3.98,1.77-7.98,3.48-11.97,5.23c-0.26,0.11-0.49,0.23-0.8,0.09
		c-4.76-2.16-9.72-3.88-14.3-6.41c-9.4-5.21-14.9-13.39-16.86-24.11c-0.6-3.29-0.46-6.62-0.44-9.94c0.04-8.29,0.12-16.58,0.13-24.87
		c0-0.82,0.27-1.09,0.97-1.34c4.33-1.54,8.77-2.59,13.31-3.32c-0.01,0.38-0.28,0.57-0.45,0.81c-0.88,1.29-1.7,2.62-2.3,4.06
		c-0.24,0.58-0.59,0.82-1.17,0.93c-1.71,0.33-3.38,0.81-5.05,1.29c-0.4,0.11-0.56,0.27-0.57,0.74c-0.04,8.76-0.25,17.53-0.11,26.29
		c0.16,9.78,4.15,17.69,11.93,23.5c0.18,0.14,0.39,0.25,0.59,0.36c0.02,0.01,0.08-0.03,0.13-0.05c0.02-0.33-0.28-0.39-0.46-0.54
		c-3.55-2.85-6.2-6.41-8.02-10.63c-0.19-0.43-0.18-0.72,0.26-0.93c0.11-0.05,0.21-0.15,0.32-0.21c0.55-0.33,1.09-0.91,1.65-0.94
		c0.69-0.04,0.59,0.98,1.03,1.41c0.33,0.32,0.6,0.71,0.89,1.07c0.08,0.06,0.09,0.28,0.23,0.16c0.1-0.08-0.01-0.21-0.1-0.29
		c-0.64-2.02,0.03-3.63,1.49-4.99c1.24-1.17,2.71-1.96,4.26-2.58c0.48-0.19,0.68-0.38,0.58-0.96c-0.15-0.85-0.2-1.71-0.24-2.57
		c-0.08-1.58-0.27-3.08-1.44-4.3c-0.91-0.96-0.95-2.33-1.28-3.56c-0.23-0.88-0.45-1.77-0.65-2.66c-0.09-0.4-0.29-0.62-0.65-0.78
		c-1.12-0.51-2.2-1.1-3.18-1.86c-1.97-1.53-2.6-3.24-1.84-5.64c0.4-1.24,0.45-2.49,0.63-3.75c1.19-8.78,5.39-15.38,13.41-19.14
		c1.68-0.79,3.47-1.24,5.31-1.41c-0.23,0.59-0.04,0.94,0.46,1.34c0.39,0.31,1.05,0.15,1.22,0.77C33.7,4.13,28.91,6.8,25.28,11.65
		c3.65-3.14,7.74-5.27,12.54-5.81c0.08,0.53,0.14,1.03,0.86,1.06c1.08,0.04,1.08,0.07,0.77,1.17C39.15,9.1,39.43,9.6,40.46,9.9
		c0.29,0.09,0.57,0.27,0.56,0.57c-0.02,0.61,0.29,1.14,0.36,1.72c-0.48,0.33-0.98,0.66-1.3,1.16c-0.3,0.46-0.69,0.67-1.22,0.8
		c-0.84,0.2-1.63,0.55-2.2,1.27c-0.05,0.07-0.21,0.11-0.09,0.22c0.08,0.07,0.19,0.03,0.23-0.09c0.72-0.3,1.44-0.62,2.3-0.59
		c-0.58,1.36-1.05,2.69-1.32,4.1c-0.06,0.3-0.25,0.6,0.17,0.77c-0.07,0.06-0.14,0.11-0.21,0.17c0.03,0.03,0.07,0.1,0.1,0.1
		c0.19-0.02,0.13-0.16,0.11-0.28c0.38-0.99,0.74-1.99,1.15-2.96c0.1-0.23,0.03-0.69,0.52-0.61c0.02,0.1,0.05,0.2,0.07,0.3
		c0.03,0.19,0.09,0.35,0.32,0.35c0.14,0,0.25-0.07,0.25-0.22c0-0.21-0.15-0.31-0.33-0.36c-0.1-0.03-0.19-0.06-0.29-0.08
		c-0.37-0.33,0.07-0.49,0.15-0.73c0.19-0.02,0.4-0.03,0.18-0.3c0.05-0.29,0.23-0.36,0.49-0.36c0.73,0.01,1.45-0.02,2.15,0.24
		c0.04,0.28-0.25,0.6,0.11,0.85c0.14,0.09,0.18,0.25,0.05,0.4c-0.14,0.16-0.31,0.11-0.49,0.05c-0.71-0.28-0.95-0.07-0.88,0.75
		c-0.82,0.6-0.92,1.21-0.3,1.95c0,0.14-0.06,0.33,0.1,0.4c0.17,0.07,0.16-0.12,0.2-0.23c0.15,0.02,0.3,0.04,0.44,0.06
		c0.06,0.24,0.08,0.58,0.39,0.55c0.34-0.04,0.19-0.4,0.23-0.62c0.01-0.07,0-0.15,0.01-0.23c0.1-0.16,0.21-0.33,0.31-0.49
		c0.09,0.04,0.19,0.08,0.27,0.13c1.04,0.62,1.04,0.81,0.12,1.52c-0.46,0.36-0.3,0.95-0.18,1.39c0.11,0.41,0.47,0.02,0.7-0.04
		c0.82-0.22,1.22-0.06,1.54,0.64c-0.2,0.03-0.4,0.07-0.6,0.08c-2.99,0.19-5.98,0.08-8.97-0.01c-1.51-0.05-3.01-0.1-4.52-0.1
		c-1.9-0.01-3.77,0.22-5.6,0.79c-1.8,0.56-3.41,1.45-4.71,2.9c0.17,0.11,0.28,0.08,0.4,0c2.71-1.82,5.76-2.38,8.91-2.37
		c5.03,0.02,10.06,0.33,15.09,0.27c-0.1,0.29-0.13,0.66-0.32,0.87c-0.64,0.68-0.5,1.53-0.59,2.34c-0.03,0.23-0.01,0.52,0.22,0.62
		c0.55,0.23,0.62,0.73,0.69,1.21c0.15,1.07,0.75,1.61,1.78,1.69c0.39,0.03,0.53,0.26,0.52,0.63c0,0.26,0,0.52,0,0.78
		c-1.37-0.09-2.75-0.17-4.12-0.28c-0.44-0.04-0.59,0.12-0.61,0.55c-0.03,0.45,0.04,0.92-0.19,1.45c-0.41-0.99-0.58-1.94-0.98-2.82
		c-0.27-0.59-0.62-1.04-1.29-1.04c-0.7-0.01-1.11,0.44-1.34,1.09c-0.19,0.54-0.37,1.08-0.58,1.61c-0.14,0.36-0.14,0.79-0.49,1.18
		c-0.05-0.61-0.09-1.09-0.12-1.58c-0.02-0.31-0.14-0.44-0.48-0.43c-2.76,0.11-5.5,0.38-8.18,1.12c-0.53,0.15-0.64,0.35-0.4,0.87
		c0.58,1.27,1.37,2.38,2.26,3.43c0.28,0.33,0.42,0.66,0.48,1.1c0.43,2.9,0.62,5.86,2.57,8.31c0.84,1.06,1.78,1.68,3.07,1.79
		c1.89,0.16,3.78,0.06,5.67,0.06c1.65,0,3.06-0.54,3.95-2.07c0.17,0.34,0.35,0.14,0.54,0.02c0.42-0.26,0.11-0.58,0.1-0.88
		c0.39-0.65,0.65-1.35,0.85-2.08c0.43-1.53,0.66-3.1,0.91-4.67c0.15,0.04,0.29,0.09,0.36,0.25c0.34,0.78,0.1,1.83,1.03,2.35
		c0.09,0.05,0.08,0.34,0.08,0.52c0,0.32,0.09,0.61,0.18,0.91c0.44,1.46,0.89,2.92,1.06,4.45c0.05,0.44,0.19,0.83,0.74,0.82
		c0.17,0.32,0.57,0.25,0.79,0.48c-0.04,0.31,0.2,0.45,0.36,0.64c0.14,0.18,0.32,0.41,0.16,0.64c-0.56,0.81-0.3,1.67-0.02,2.42
		c0.3,0.81,0.46,1.58,0.41,2.43c-0.02,0.36,0.02,0.71,0.45,0.78c0.81,0.13,0.88,0.77,0.92,1.4c0.03,0.41,0.06,0.82,0.38,1.07
		c0.69,0.53,1.01,1.19,0.87,2.08c-0.05,0.29,0.05,0.64,0.44,0.58c0.92-0.16,0.83,0.45,0.73,1c-0.07,0.38-0.07,0.61,0.37,0.64
		c0.26,0.02,0.41,0.32,0.69,0.29c-0.19,0.21-0.37,0.43-0.55,0.64c-0.15,0.02-0.32,0.08-0.45,0.04c-0.25-0.07-0.45-0.09-0.56,0.2
		c-0.11,0.28,0.05,0.44,0.27,0.56c-0.21,0.32-0.47,0.59-0.79,0.8c-0.14-0.14-0.25-0.4-0.47-0.32c-0.22,0.08-0.14,0.36-0.15,0.56
		c0,0.1,0.02,0.21,0.03,0.31c-0.16,0.22-0.35,0.4-0.6,0.52c-0.5-0.31-0.7-0.15-0.81,0.66c-0.12,0.13-0.25,0.26-0.37,0.38
		c-0.15,0.11-0.29,0.23-0.44,0.34c-0.09,0.04-0.17,0.07-0.26,0.11c0.1,0.2,0.24,0.07,0.36,0.05c0.16-0.1,0.32-0.21,0.48-0.31
		c1.14-0.64,2.09-1.54,3.12-2.33C58.51,64.7,58.74,64.52,58.57,63.9z M61.33,67.33c0.01-0.02,0.02-0.03,0.02-0.05
		C61.35,67.3,61.34,67.31,61.33,67.33c-0.01,0.01-0.02,0.03-0.03,0.04C61.31,67.36,61.32,67.34,61.33,67.33z M47.28,48.36
		c-0.62,0.12-0.09,0.55-0.2,0.81c-0.94,2.01-1.88,4.01-2.82,6.02c-0.11-1.26-0.08-2.47,0.01-3.68c0.04-0.51-0.07-0.61-0.58-0.52
		c-2.06,0.34-4.13,0.31-6.19,0.1c-1.22-0.13-1.2-0.18-1.13,1.05c0.06,1.01,0.1,2.03,0.14,3.04c-1.88-3.23-2.89-6.92-5.82-9.42
		c-0.14,0.2-0.05,0.41-0.03,0.6c0.21,2.34,0.48,4.68,0.63,7.03c0.06,0.96,0.5,1.51,1.23,1.99c2.34,1.53,4.88,2.6,7.45,3.64
		c0.26,0.1,0.5,0.07,0.74-0.03c2.84-1.16,5.69-2.32,8.18-4.2c0.1,0,0.21,0.03,0.3,0.01c0.2-0.04,0.51,0.28,0.57-0.09
		c0.06-0.34-0.27-0.37-0.54-0.38c0.23-2.51,0.46-5.02,0.67-7.54c0.03-0.35,0.25-0.74-0.07-1.08c-0.05-0.25-0.13-0.52-0.43-0.31
		c-0.32,0.23-0.18,0.48,0.11,0.66c-0.17,0.2-0.35,0.39-0.52,0.59c-0.85-0.07-1,0.1-0.84,0.97c-0.16,0.27-0.29,0.59-0.7,0.49
		c-0.03-0.02-0.06-0.04-0.09-0.07c0.02,0.03,0.04,0.06,0.07,0.09c0.03,0.06,0.08,0.12,0.07,0.17
		C47.47,48.38,47.37,48.37,47.28,48.36z M48.6,45.13c0.36-0.35,0.35-0.72,0.22-1.11c-0.03-0.09-0.16-0.2-0.24-0.11
		c-0.27,0.31-0.11,0.69-0.11,1.04C48.47,44.98,48.52,45.02,48.6,45.13z M26.27,67.02c-0.06-0.11-0.08-0.19-0.13-0.23
		c-0.1-0.09-0.28-0.25-0.34-0.04C25.77,66.9,25.96,67.04,26.27,67.02z M25.19,11.66c-0.07,0.05-0.13,0.09-0.18,0.13
		c0.05,0.04,0.1,0.1,0.14,0.1c0.05-0.01,0.09-0.08,0.12-0.13C25.28,11.75,25.22,11.7,25.19,11.66z M26.51,67.14
		c-0.05-0.05-0.09-0.11-0.15-0.16c-0.01-0.01-0.07,0.06-0.11,0.09c0.06,0.07,0.11,0.14,0.17,0.2C26.45,67.24,26.48,67.2,26.51,67.14
		z"/>
	<path class="st2" d="M64.22,15.26c-0.91-0.41-1.9-0.53-2.86-0.78c-0.41-0.11-0.61-0.32-0.75-0.65c-0.65-1.52-1.45-2.95-2.45-4.25
		C58.04,9.42,57.87,9.2,58,9.02c0.13-0.18,0.36-0.03,0.56-0.01c2.4,0.16,4.72,0.81,7.03,1.39c2.06,0.52,4.07,1.28,6.09,1.94
		c0.09,0.03,0.15,0.13,0.22,0.2c0.01,0.42,0.02,0.83,0.02,1.25c0,6.76,0.01,13.51,0.01,20.27c0,0.55,0.04,1.09,0.24,1.61
		c0.04,4.02,0.26,8.05-0.29,12.06c-0.09,0.64-0.27,1.26-0.4,1.89c-0.2-0.36-0.14-0.76-0.18-1.15c-0.04-0.44-0.08-1.2-0.35-1.19
		c-0.66,0.01-0.48-0.46-0.65-0.74c-0.32-0.55-0.29-1.19-0.47-1.77c-0.14-0.48-0.7-0.72-0.63-1.2c0.15-1.12-0.27-2.11-0.7-3.05
		c-0.2-0.43,0.1-1.37-0.88-1.26c-0.03-0.2,0.04-0.41-0.12-0.58c-0.21-0.85-0.11-1.72-0.11-2.57c-0.04-6.43-0.06-12.86-0.06-19.29
		c0-0.51-0.07-0.82-0.63-0.92c-0.62-0.11-1.22-0.33-1.83-0.5C64.65,15.34,64.43,15.3,64.22,15.26z"/>
	<path class="st3" d="M59.12,62.29c-0.28,0.03-0.44-0.27-0.69-0.29c-0.45-0.03-0.44-0.26-0.37-0.64c0.1-0.55,0.19-1.16-0.73-1
		c-0.38,0.07-0.48-0.28-0.44-0.58c0.14-0.89-0.18-1.54-0.87-2.08c-0.32-0.25-0.35-0.66-0.38-1.07c-0.04-0.63-0.11-1.27-0.92-1.4
		c-0.43-0.07-0.47-0.42-0.45-0.78c0.05-0.84-0.12-1.62-0.41-2.43c-0.28-0.75-0.54-1.61,0.02-2.42c0.16-0.23-0.02-0.46-0.16-0.64
		c-0.16-0.2-0.4-0.33-0.36-0.64c1.86,0.71,3.55,1.69,4.84,3.27c0.94,1.16,1.3,2.47,0.81,3.93c-0.1,0.29-0.1,0.43,0.21,0.49
		c0.63,0.33,1.4,0.74,1.41,1.43c0.02,0.78,0.3,1.13,0.88,1.42C60.85,60.12,60.04,61.25,59.12,62.29z"/>
	<path class="st4" d="M55.37,37.55c-0.04,1.05-0.59,1.9-1.01,2.81c-0.44-0.18-0.62,0.19-0.85,0.44c-0.56-0.61-0.97-1.3-1.09-2.14
		c-0.08-0.56-0.14-1.12-0.29-1.66c-0.2-0.78-0.97-0.87-1.54-1.2c0.19-0.64,0.8-0.99,1.02-1.65c0.4-1.23,0.45-1.21-0.71-1.66
		c-0.02-0.1-0.01-0.27-0.06-0.29c-0.84-0.32-0.87-1.19-1.25-1.83c-0.58-0.99-0.57-2.28-1.5-3.11c-0.12-0.1-0.1-0.39-0.1-0.59
		c-0.01-0.67-0.15-1.37-0.36-1.94c-0.17-0.46-0.31-0.78-0.1-1.21c1.13-0.13,2.25-0.16,3.38-0.03c-0.15,0.86,0.02,1.69,0.25,2.51
		c0.16,0.56,0.63,0.95,0.67,1.56c0.1,1.3,0.63,2.45,1.22,3.58c0.19,0.37,0.57,0.79,0.51,1.11c-0.19,0.92,0.4,1.53,0.66,2.26
		c0.14,0.4,0.35,0.8,0.33,1.19C54.5,36.5,54.71,37.12,55.37,37.55z"/>
	<path class="st5" d="M55.37,37.55c-0.66-0.44-0.87-1.05-0.83-1.84c0.02-0.39-0.19-0.8-0.33-1.19c-0.25-0.73-0.84-1.35-0.66-2.26
		c0.07-0.32-0.32-0.74-0.51-1.11c-0.59-1.13-1.13-2.28-1.22-3.58c-0.05-0.61-0.52-1-0.67-1.56c-0.23-0.83-0.39-1.65-0.25-2.51
		c0.88-0.11,1.72,0.28,2.6,0.22c-0.25,0.17-0.64,0.33-0.02,0.54c0.17,0.06,0.36,0.18,0.33,0.38c-0.04,0.26-0.28,0.14-0.44,0.17
		c-0.22,0.04-0.5-0.09-0.68,0.17c0.33,0.35,0.96-0.14,1.12,0.5c0.56,2.22,1.75,4.22,2.21,6.48c0.05,0.24,0.09,0.55,0.36,0.65
		c0.38,0.15,0.41,0.5,0.5,0.81c-0.38,0.16-0.55,0.46-0.64,0.87C55.98,35.37,55.66,36.46,55.37,37.55z"/>
	<path class="st6" d="M53.05,6.28c0.92,0.74,1.79,1.53,2.51,2.48c-0.64,0.23-0.12,0.49,0.02,0.64c0.5,0.55,0.8,1.09,0.14,1.81
		c0.59-0.17,1.04-0.48,0.99,0.52c-0.06,1.25,0.97,2.27,0.95,3.55c0.92,0.3,0,1.66,1.03,1.9c0.32,1.18,0.72,2.34,0.98,3.54
		c0.18,0.85,0.63,1.63,1.05,2.39c0.06,0.11,0.17,0.21,0.32,0.14c0.14-0.06,0.13-0.21,0.13-0.34c0.01-0.42,0-0.84,0.01-1.25
		c0.17,1.91,0.63,3.76,1.01,5.63c0.13,0.63,0.05,1.3-0.27,1.89c-0.6-0.25-0.62-0.96-1.06-1.38c-0.53-0.5-0.29-1.27-0.27-1.94
		c0.01-0.42-0.14-0.56-0.48-0.3c-0.29,0.22-0.53,0.32-0.78-0.02c0-0.04,0-0.07,0-0.11c0.05-0.29,0.43-0.25,0.52-0.57
		c-0.34-0.15-1.36-0.04-0.34-0.8c0.27-0.2,0.08-0.45-0.23-0.56c-0.26-0.1-0.48-0.27-0.22-0.57c0.48-0.56,0.24-1.14,0.13-1.74
		c-0.13-0.67-0.56-1.19-0.79-1.81c-0.4-1.05-0.82-2.1-1.12-3.18c-0.35-1.26-0.77-2.5-1.21-3.73c-0.04-0.03-0.08-0.07-0.12-0.1
		c0,0,0.02,0.02,0.02,0.02c-0.11-0.11-0.22-0.22-0.32-0.33l0.02,0c-0.13-0.58-0.7-0.86-0.92-1.38c-0.05-0.65,0.1-1.26-0.53-1.86
		c-0.52-0.5-0.4-1.56-1.2-2.03C52.85,6.7,53.05,6.46,53.05,6.28z"/>
	<path class="st3" d="M50.59,35.8c0.57,0.33,1.34,0.41,1.54,1.2c0.14,0.54,0.21,1.11,0.29,1.66c0.12,0.85,0.53,1.53,1.09,2.14
		c-0.11,0.22-0.18,0.43,0.18,0.46c-0.5,0.57-0.61,1.26-0.67,2.01c-0.11,1.53-0.3,3.06-0.46,4.59c-0.54,0.01-0.69-0.38-0.74-0.82
		c-0.17-1.53-0.62-2.99-1.06-4.45c-0.09-0.3-0.18-0.59-0.18-0.91c0-0.18,0.01-0.47-0.08-0.52c-0.94-0.52-0.7-1.57-1.03-2.35
		c-0.07-0.17-0.21-0.21-0.36-0.25c0.03-0.2,0.06-0.4,0.1-0.59c0.42-0.11,0.16-0.37,0.11-0.58C49.74,36.86,50.17,36.33,50.59,35.8z"
		/>
	<path class="st4" d="M59.86,62.58c1.13-1.38,2.25-2.77,3.19-4.3c0.17,0.4,0.18,0.84,0.56,1.18c0.37,0.32-0.08,0.87,0.06,1.27
		c0.37,0.97,1.04,1.75,1.65,2.56c-0.71,1.08-1.55,2.05-2.47,2.94c-0.2,0.02-0.4,0.06-0.61,0.06c-0.49,0.01-1.22-0.08-1.27-0.47
		c-0.11-0.88-0.71-1.65-0.56-2.55C60.53,62.71,60.33,62.57,59.86,62.58z"/>
	<path class="st7" d="M61.18,21.66c0,0.42,0,0.84-0.01,1.25c0,0.13,0.01,0.27-0.13,0.34c-0.15,0.06-0.26-0.04-0.32-0.14
		c-0.42-0.76-0.87-1.53-1.05-2.39c-0.26-1.2-0.65-2.36-0.98-3.54c-1.04-0.24-0.11-1.59-1.03-1.9c0.02-1.28-1.01-2.3-0.95-3.55
		c0.05-1-0.4-0.69-0.99-0.52c0.67-0.72,0.36-1.26-0.14-1.81c-0.14-0.15-0.66-0.42-0.02-0.64c2.05,2.31,3.53,4.97,4.51,7.91
		C60.61,18.29,61.13,19.93,61.18,21.66z"/>
	<path class="st8" d="M67.49,38.66c0.16,0.17,0.09,0.39,0.12,0.58c0.01,1.61,0.02,3.22,0.02,4.84c-0.12,1.44-0.03,2.91,0.64,4.15
		c0.73,1.35,1.14,2.78,1.56,4.23c0.11,0.38,0.03,0.96,0.54,1.19c-0.24,0.99-0.61,1.92-1.06,2.82c-0.17-1.34-0.83-2.52-1.27-3.77
		c-0.28-0.8-0.7-1.54-0.73-2.41c-0.01-0.43-0.25-0.66-0.65-0.74C67.56,45.98,67.48,42.31,67.49,38.66z"/>
	<path class="st6" d="M70.37,53.66c-0.5-0.24-0.42-0.81-0.54-1.19c-0.42-1.45-0.83-2.87-1.56-4.23c-0.67-1.25-0.75-2.71-0.64-4.15
		c0.25,0.06,0.41-0.75,0.72-0.1c0.25,0.52,0.59,1.09,0.71,1.55c0.34,1.32,1.24,2.52,1.03,3.98c-0.02,0.13,0.05,0.32,0.17,0.31
		c0.86-0.04,0.67,0.73,0.89,1.18C70.98,51.92,70.76,52.81,70.37,53.66z"/>
	<path class="st7" d="M71.15,51.01c-0.22-0.45-0.03-1.22-0.89-1.18c-0.12,0.01-0.19-0.18-0.17-0.31c0.21-1.47-0.69-2.66-1.03-3.98
		c-0.12-0.47-0.46-1.03-0.71-1.55c-0.31-0.65-0.46,0.16-0.72,0.1c-0.01-1.61-0.02-3.22-0.02-4.84c0.98-0.1,0.68,0.83,0.87,1.27
		c0.43,0.94,0.85,1.93,0.7,3.05c-0.06,0.48,0.49,0.72,0.63,1.2c0.17,0.59,0.15,1.23,0.47,1.77c0.17,0.28-0.01,0.76,0.65,0.74
		c0.27-0.01,0.31,0.76,0.35,1.19c0.04,0.39-0.02,0.79,0.18,1.15C71.39,50.08,71.36,50.57,71.15,51.01z"/>
	<path class="st4" d="M61.5,58.89c-0.58-0.29-0.86-0.64-0.88-1.42c-0.02-0.69-0.78-1.1-1.41-1.43c0.46-0.86,1.16-1.57,1.5-2.51
		c0.1-0.29,0.27-0.12,0.42-0.04c0.71,0.35,1.36,0.8,2.01,1.25c0.27,0.19,0.29,0.38,0.16,0.65C62.76,56.58,62.26,57.8,61.5,58.89z"/>
	<path class="st9" d="M56.88,33.4c-0.09-0.32-0.12-0.67-0.5-0.81c-0.27-0.11-0.31-0.41-0.36-0.65c-0.46-2.26-1.65-4.26-2.21-6.48
		c-0.16-0.64-0.79-0.15-1.12-0.5c0.18-0.26,0.45-0.13,0.68-0.17c0.16-0.03,0.4,0.09,0.44-0.17c0.03-0.2-0.16-0.32-0.33-0.38
		c-0.63-0.21-0.23-0.37,0.02-0.54c0.53,0.01,1.04,0.1,1.53,0.3c0.08,0.14,0.33,0.23,0.16,0.45c-0.22,0.28-0.12,0.6-0.16,0.9
		c-0.09,0.67,0.48,1.08,0.6,1.66c0.26,1.31,0.8,2.53,1.21,3.79c0.18,0.55,0.47,1.12,0.86,1.54c0.27,0.29,0.77-0.13,1.17-0.03
		C58.26,32.78,57.59,33.13,56.88,33.4z"/>
	<path class="st10" d="M60.42,31.22c-0.21,0.28-0.47,0.48-0.79,0.62c-0.19-0.27-0.51-0.52-0.56-0.81c-0.19-1.11-0.69-2.09-1.11-3.11
		c-0.18-0.44-0.51-1-0.37-1.35c0.19-0.5-0.01-0.64-0.23-0.96c-0.12-0.18-0.7-0.45-0.16-0.82c0.56,0,0.98,0.32,1.41,0.62
		c-0.25,0.19-0.05,0.28,0.07,0.41c0.19,0.21,0.46,0.41,0.52,0.66c0.14,0.55,0.21,1.12,0.57,1.59c0.12,0.15,0.17,0.39,0.16,0.59
		c-0.01,0.79,0.98,1.43,0.33,2.31C60.24,30.99,60.37,31.13,60.42,31.22z"/>
	<path class="st9" d="M67.36,60.28c-0.2,0.45-0.45,0.88-0.78,1.24c-0.35-0.08-0.57,0.27-0.89,0.34c0.04-0.67-0.06-1.91-0.26-2.25
		c-0.42-0.73-0.66-1.51-0.6-2.45c-0.77,0.55-0.77,0.55-1.12,0c0.59-1.22,1.17-2.45,1.76-3.67c0,0.07,0.01,0.13,0.01,0.2
		c0.21,0.46-0.15,0.88-0.08,1.37c0.2,1.44,0.87,2.7,1.29,4.06C66.82,59.52,66.87,60.04,67.36,60.28z"/>
	<path class="st5" d="M63.71,57.15c0.35,0.55,0.35,0.55,1.12,0c-0.06,0.94,0.18,1.72,0.6,2.45c0.2,0.35,0.29,1.58,0.26,2.25
		c0.32-0.07,0.54-0.42,0.89-0.34c-0.43,0.58-0.71,1.26-1.24,1.77c-0.62-0.81-1.29-1.59-1.65-2.56c-0.15-0.39,0.3-0.94-0.06-1.27
		c-0.39-0.34-0.39-0.78-0.56-1.18C63.27,57.9,63.49,57.53,63.71,57.15z"/>
	<path class="st5" d="M42.92,1.7c1.22,0.07,2.38,0.38,3.52,0.82C46.4,2.68,46.3,2.77,46.13,2.8c-0.17,0.04-0.48-0.1-0.47,0.22
		c0.01,0.19,0.22,0.33,0.43,0.4c0.19,0.06,0.45,0.07,0.41,0.36c-0.05,0.31-0.33,0.26-0.55,0.29c-0.28,0.03-0.64-0.1-0.74,0.34
		c-1.02-0.19-2.04-0.38-3.05-0.56c-0.2-0.43-0.74-0.66-0.53-1.35c0.11-0.36,0.59-0.36,0.52-0.77c0.15,0,0.31-0.01,0.46-0.01
		C42.72,1.85,42.82,1.83,42.92,1.7z"/>
	<path class="st11" d="M57.2,24.78c-0.54,0.38,0.04,0.64,0.16,0.82c0.22,0.32,0.42,0.46,0.23,0.96c-0.13,0.35,0.19,0.91,0.37,1.35
		c0.42,1.02,0.92,2,1.11,3.11c0.05,0.29,0.37,0.54,0.56,0.81c-0.12,0.16-0.27,0.25-0.46,0.3c-0.08-0.05-0.11-0.01-0.12,0.07
		c0,0,0.01-0.01,0.01-0.01c-1.33-0.1-1.07-1.48-1.47-2.21c-0.39-0.7-0.61-1.67-0.86-2.53c-0.33-1.12-0.89-2.15-1.09-3.3
		C56.2,24.28,56.77,24.35,57.2,24.78z"/>
	<path class="st11" d="M65.48,53.67c0-0.07-0.01-0.13-0.01-0.2c0.03-0.1,0.07-0.2,0.1-0.3c0.07-0.02,0.12-0.05,0.06-0.14
		c0.24-0.74,0.48-1.49,0.73-2.23c0.18,0.56,0.51,1.03,0.69,1.61c0.38,1.3,0.56,2.68,1.38,3.82c0.2,0.27,0.15,0.59-0.04,0.88
		c-0.23,0.36-0.22,0.69,0.16,0.94c-0.23,0.53-0.43,1.07-0.79,1.53c-0.16-0.44-0.31-0.85,0.05-1.31c0.22-0.29,0.2-0.7-0.01-1.07
		c-0.32,0.23-0.03,0.64-0.3,0.84c-0.17-0.1-0.19-0.24-0.17-0.36c0.15-1.06-0.48-1.94-0.69-2.92C66.52,54.28,66.13,53.75,65.48,53.67
		z"/>
	<path class="st12" d="M55.65,24.16c0.2,1.16,0.76,2.19,1.09,3.3c0.25,0.86,0.47,1.83,0.86,2.53c0.4,0.73,0.14,2.11,1.47,2.21
		c-0.07,0.04-0.13,0.08-0.2,0.12c-0.4-0.1-0.9,0.32-1.17,0.03c-0.39-0.42-0.68-0.99-0.86-1.54c-0.41-1.26-0.96-2.47-1.21-3.79
		c-0.11-0.58-0.69-1-0.6-1.66c0.04-0.3-0.06-0.63,0.16-0.9c0.17-0.22-0.08-0.31-0.16-0.45C55.25,23.99,55.47,24.02,55.65,24.16z"/>
	<path class="st4" d="M42.15,1.73c0.07,0.41-0.41,0.41-0.52,0.77c-0.21,0.69,0.34,0.91,0.53,1.35c-0.82-0.04-1.64-0.07-2.47-0.11
		c-0.17-0.62-0.83-0.46-1.22-0.77c-0.5-0.4-0.69-0.76-0.46-1.34C39.4,1.5,40.78,1.24,42.15,1.73z"/>
	<path class="st12" d="M65.48,53.67c0.66,0.07,1.04,0.6,1.16,1.11c0.21,0.98,0.84,1.86,0.69,2.92c-0.02,0.12,0.01,0.26,0.17,0.36
		c0.27-0.2-0.02-0.6,0.3-0.84c0.21,0.37,0.23,0.78,0.01,1.07c-0.36,0.46-0.21,0.87-0.05,1.31c-0.13,0.23-0.27,0.45-0.4,0.68
		c-0.49-0.23-0.54-0.76-0.67-1.18c-0.42-1.35-1.09-2.62-1.29-4.06C65.33,54.55,65.69,54.14,65.48,53.67z"/>
	<path class="st10" d="M68.55,58.07c-0.39-0.25-0.39-0.58-0.16-0.94c0.19-0.29,0.23-0.6,0.04-0.88c-0.82-1.14-1-2.52-1.38-3.82
		c-0.17-0.58-0.5-1.06-0.69-1.61c0.1-0.42,0.2-0.84,0.31-1.25c0.4,0.08,0.64,0.31,0.65,0.74c0.03,0.87,0.44,1.61,0.73,2.41
		c0.44,1.25,1.1,2.42,1.27,3.77C69.12,57.04,68.88,57.58,68.55,58.07z"/>
	<path class="st8" d="M53.05,6.28C53.05,6.46,52.85,6.7,53,6.79c0.8,0.47,0.68,1.53,1.2,2.03c0.63,0.6,0.48,1.21,0.53,1.86
		c-1.12-1.16-2.27-2.29-3.52-3.3c0.07-0.04,0.13-0.07,0.2-0.11c0.19-0.1,0.49-0.03,0.52-0.35c0.03-0.33-0.25-0.33-0.46-0.4
		c-0.36-0.12-0.5-0.31-0.22-0.67c0.14-0.18,0.11-0.41-0.13-0.51c-0.73-0.29,0.05-0.31,0.08-0.47C51.88,5.26,52.5,5.72,53.05,6.28z"
		/>
	<path class="st8" d="M60.42,31.22c-0.06-0.09-0.18-0.23-0.16-0.25c0.65-0.89-0.34-1.53-0.33-2.31c0-0.2-0.05-0.44-0.16-0.59
		c-0.36-0.48-0.43-1.04-0.57-1.59c-0.06-0.25-0.33-0.45-0.52-0.66c-0.12-0.13-0.33-0.22-0.07-0.41c0.26-0.05,0.41,0.5,0.72,0.15
		c0.25,0.34,0.49,0.24,0.78,0.02c0.34-0.26,0.49-0.12,0.48,0.3c-0.02,0.66-0.26,1.43,0.27,1.94c0.44,0.42,0.46,1.13,1.06,1.38
		C61.65,30.04,61.13,30.7,60.42,31.22z"/>
	<path class="st12" d="M45.21,4.41c0.1-0.45,0.46-0.31,0.74-0.34c0.22-0.02,0.5,0.02,0.55-0.29c0.04-0.28-0.22-0.3-0.41-0.36
		c-0.21-0.06-0.42-0.2-0.43-0.4c-0.02-0.32,0.29-0.18,0.47-0.22c0.17-0.04,0.27-0.12,0.32-0.29c0.8,0.19,1.55,0.52,2.26,0.93
		c-0.38-0.08-0.4,0.34-0.62,0.47c-0.57,0.35-0.53,0.61,0.09,0.86c0.41,0.17,0.65,0.47,0.26,0.91C47.36,5.26,46.28,4.83,45.21,4.41z"
		/>
	<path class="st10" d="M51.21,4.88c-0.02,0.16-0.8,0.18-0.08,0.47c0.24,0.1,0.27,0.32,0.13,0.51c-0.28,0.36-0.15,0.55,0.22,0.67
		c0.21,0.07,0.49,0.07,0.46,0.4c-0.03,0.32-0.33,0.25-0.52,0.35c-0.07,0.04-0.13,0.07-0.2,0.11c-0.64-0.41-1.28-0.83-1.91-1.24
		c0.16-0.54,1.33-0.94,0.21-1.68c-0.21-0.14,0.07-0.36,0.15-0.53C50.23,4.17,50.73,4.5,51.21,4.88z"/>
	<path class="st3" d="M59.86,62.58c0.47-0.01,0.66,0.13,0.57,0.69c-0.15,0.89,0.45,1.66,0.56,2.55c0.05,0.39,0.77,0.48,1.27,0.47
		c0.2,0,0.4-0.04,0.61-0.06c-0.21,0.31-0.47,0.57-0.77,0.79c-0.37-0.28-0.86-0.01-1.26-0.32c-0.31-0.23-0.64-0.46-0.6-0.82
		c0.12-1.07-0.67-1.78-0.93-2.69C59.44,62.94,59.64,62.74,59.86,62.58z"/>
	<path class="st7" d="M72.17,35.66c-0.2-0.52-0.24-1.05-0.24-1.61c0-6.76,0-13.51-0.01-20.27c0-0.42-0.01-0.83-0.02-1.25
		c0.04,0.01,0.08,0.01,0.12,0.01c0.03,5.15,0.05,10.29,0.09,15.44c0.02,1.85-0.07,3.71,0.09,5.56
		C72.2,34.25,72.18,34.96,72.17,35.66z"/>
	<path class="st11" d="M49.67,3.93c-0.08,0.17-0.36,0.39-0.15,0.53c1.12,0.74-0.05,1.14-0.21,1.68c-0.29-0.15-0.58-0.3-0.87-0.45
		c0.39-0.44,0.16-0.74-0.26-0.91c-0.62-0.25-0.66-0.51-0.09-0.86c0.22-0.14,0.24-0.55,0.62-0.47C49.07,3.51,49.37,3.72,49.67,3.93z"
		/>
	<path class="st13" d="M72.21,33.54c-0.16-1.85-0.08-3.7-0.09-5.56c-0.05-5.15-0.07-10.29-0.09-15.44c0.23,0.16,0.2,0.41,0.2,0.64
		C72.22,19.97,72.21,26.76,72.21,33.54z"/>
	<path class="st3" d="M57.83,63.73c-0.22-0.12-0.38-0.28-0.27-0.56c0.11-0.29,0.31-0.27,0.56-0.2c0.14,0.04,0.3-0.02,0.45-0.04
		C58.38,63.25,58.13,63.52,57.83,63.73z"/>
	<path class="st5" d="M53.68,41.26c-0.35-0.04-0.29-0.24-0.18-0.46c0.23-0.25,0.41-0.62,0.85-0.44
		C54.18,40.7,53.98,41.02,53.68,41.26z"/>
	<path class="st3" d="M55.05,66.25c0.11-0.81,0.31-0.97,0.81-0.66C55.63,65.87,55.36,66.09,55.05,66.25z"/>
	<path class="st3" d="M56.45,65.08c-0.01-0.1-0.03-0.21-0.03-0.31c0-0.2-0.07-0.48,0.15-0.56c0.21-0.08,0.33,0.18,0.47,0.32
		C56.9,64.76,56.69,64.94,56.45,65.08z"/>
	<path class="st14" d="M64.22,15.26c0.21,0.04,0.42,0.08,0.64,0.12c-0.15,0.42-0.49,0.36-0.75,0.23
		C63.9,15.5,64.15,15.37,64.22,15.26z"/>
	<path class="st4" d="M58.57,63.9c0.16,0.61-0.06,0.8-0.63,0.59C58.15,64.3,58.36,64.1,58.57,63.9z"/>
	<path class="st4" d="M42.92,1.7c-0.1,0.13-0.2,0.15-0.31,0.02C42.71,1.62,42.81,1.62,42.92,1.7z"/>
	<path class="st12" d="M59.06,32.21c0.01-0.08,0.04-0.12,0.12-0.07C59.15,32.19,59.11,32.21,59.06,32.21z"/>
	<path class="st12" d="M65.63,53.04c0.06,0.08,0.01,0.12-0.06,0.14C65.56,53.12,65.58,53.08,65.63,53.04z"/>
	<path class="st14" d="M49.2,37.97c-0.03,0.2-0.06,0.4-0.1,0.59c-0.24,1.57-0.47,3.14-0.91,4.67c-0.21,0.73-0.46,1.43-0.85,2.08
		c-0.27,0.24-0.47,0.54-0.63,0.86c-0.9,1.53-2.3,2.07-3.95,2.07c-1.89,0-3.78,0.1-5.67-0.06c-1.29-0.11-2.22-0.73-3.07-1.79
		c-1.95-2.45-2.14-5.41-2.57-8.31c-0.07-0.44-0.21-0.77-0.48-1.1c-0.88-1.05-1.68-2.16-2.26-3.43c-0.23-0.51-0.13-0.72,0.4-0.87
		c2.68-0.74,5.42-1.01,8.18-1.12c0.34-0.01,0.46,0.11,0.48,0.43c0.03,0.49,0.08,0.98,0.12,1.58c0.35-0.38,0.34-0.82,0.49-1.18
		c0.21-0.53,0.39-1.08,0.58-1.61c0.23-0.64,0.64-1.09,1.34-1.09c0.67,0.01,1.02,0.45,1.29,1.04c0.4,0.87,0.58,1.83,0.98,2.82
		c0.23-0.53,0.16-1,0.19-1.45c0.03-0.44,0.17-0.59,0.61-0.55c1.37,0.12,2.75,0.19,4.12,0.28c1.13,0.21,2.25,0.42,3.38,0.64
		c1.17,0.45,1.11,0.43,0.71,1.66c-0.21,0.66-0.82,1.01-1.02,1.65c-0.42,0.53-0.85,1.06-1.27,1.59
		C49.14,37.56,49.18,37.77,49.2,37.97z M44.4,42.73c-2.77,0.61-5.47,0.6-8.27-0.01c0.27,0.67,0.53,1.26,0.73,1.86
		C37,45,37.2,45.07,37.6,44.97c1.3-0.3,2.6-0.5,3.95-0.3c0.67,0.1,1.48,0.66,2,0.16c0.47-0.45,0.58-1.31,0.84-1.98
		C44.41,42.83,44.4,42.8,44.4,42.73z M40.32,41.59c1.4,0,2.81,0,4.21-0.01c0.16,0,0.39,0.1,0.46-0.14c0.06-0.2-0.1-0.35-0.25-0.44
		c-1.17-0.73-2.37-1.37-3.81-0.93c-0.44,0.13-0.83,0.13-1.27,0c-1.43-0.44-2.64,0.19-3.81,0.92c-0.15,0.1-0.32,0.25-0.27,0.44
		c0.07,0.28,0.34,0.15,0.52,0.15C37.51,41.59,38.92,41.59,40.32,41.59z M37.9,35.04c-0.64,0.39-1.05,1.52-0.78,2.15
		c0.1,0.25,0.3,0.28,0.54,0.34c1.77,0.41,3.52,0.39,5.29,0c0.25-0.06,0.43-0.13,0.53-0.36c0.25-0.63-0.18-1.78-0.81-2.13
		c-0.11,1.06-0.86,1.6-2.27,1.65C38.99,36.74,38.07,36.14,37.9,35.04z"/>
	<path class="st14" d="M48.89,54.76c-2.49,1.88-5.34,3.04-8.18,4.2c-0.25,0.1-0.49,0.13-0.74,0.03c-2.57-1.03-5.11-2.11-7.45-3.64
		c-0.73-0.48-1.17-1.03-1.23-1.99c-0.15-2.35-0.42-4.68-0.63-7.03c-0.02-0.19-0.11-0.4,0.03-0.6c2.93,2.5,3.94,6.19,5.82,9.42
		c-0.05-1.01-0.08-2.03-0.14-3.04c-0.07-1.24-0.08-1.18,1.13-1.05c2.06,0.22,4.13,0.24,6.19-0.1c0.5-0.08,0.61,0.02,0.58,0.52
		c-0.09,1.21-0.12,2.42-0.01,3.68c0.94-2.01,1.88-4.01,2.82-6.02c0.37-0.19,0.16-0.53,0.2-0.81c0.09,0.02,0.19,0.03,0.22-0.08
		c0.01-0.05-0.05-0.11-0.07-0.17l0.02-0.02c0.41,0.1,0.54-0.22,0.7-0.49c0.28-0.32,0.56-0.65,0.84-0.97
		c0.17-0.2,0.35-0.39,0.52-0.59c0.11-0.12,0.21-0.24,0.32-0.35c0.32,0.34,0.1,0.73,0.07,1.08c-0.21,2.51-0.45,5.02-0.67,7.54
		C49.11,54.45,49,54.61,48.89,54.76z"/>
	<path class="st3" d="M41.4,17.12c-0.07-0.82,0.17-1.03,0.88-0.75c0.18,0.07,0.34,0.11,0.49-0.05c0.13-0.14,0.09-0.31-0.05-0.4
		c-0.37-0.25-0.07-0.57-0.11-0.85c0.56-0.01,1,0.38,1.54,0.44c0.02,0.03,0.04,0.06,0.07,0.09c0.01-0.02,0.01-0.04,0.02-0.06
		c-0.03,0-0.07-0.01-0.1-0.01c-0.18-0.79-0.73-1.2-1.44-1.41c-0.53-0.16-1.08-0.27-1.7-0.43c0.59-0.66,1.25-0.99,2.05-1.06
		c0.12-0.01,0.26,0.01,0.29-0.17c0.05-0.3-0.19-0.1-0.29-0.17c-0.53-0.41-1.1-0.25-1.67-0.11c-0.08-0.58-0.38-1.11-0.36-1.72
		c0.01-0.3-0.27-0.48-0.56-0.57c-1.03-0.31-1.3-0.8-1.01-1.84c0.31-1.1,0.31-1.13-0.77-1.17c-0.72-0.03-0.78-0.53-0.86-1.06
		c1.21-0.2,2.43-0.26,3.63-0.14c0.7,0.07,1.47-0.11,2.11,0.39c-0.06,0.06-0.12,0.11-0.18,0.17c-0.26,0-0.51,0-0.77,0
		c-0.5,0.02-0.52,0.33-0.38,0.7c0.41,1.15,1.26,2.15,1.18,3.48c-0.01,0.09,0.07,0.19,0.13,0.28c0.5,0.74,0.87,1.52,0.77,2.46
		c-0.04,0.38,0.13,0.74,0.44,0.95c0.62,0.41,0.58,0.92,0.29,1.49c-0.14,0.27-0.24,0.63-0.08,0.82c0.95,1.08,0.57,2.82,1.8,3.75
		c0.05,0.04,0.11,0.16,0.09,0.2c-0.36,0.8,0.2,1.22,0.66,1.68c-0.77,0.03-1.53,0.05-2.3,0.08c-0.32-0.71-0.73-0.86-1.54-0.64
		c-0.23,0.06-0.58,0.45-0.7,0.04c-0.12-0.43-0.28-1.03,0.18-1.39c0.92-0.72,0.93-0.91-0.12-1.52c-0.09-0.05-0.18-0.09-0.27-0.13
		C42.74,17.43,42.44,17.12,41.4,17.12z"/>
	<path class="st13" d="M45.22,22.16c0.77-0.03,1.53-0.05,2.3-0.08c0.46,0,0.92,0,1.38,0.01c1.08,0.06,2.15,0.11,3.23,0.17
		c0.25,0.04,0.51,0.08,0.76,0.12c0.22,0.04,0.45,0.07,0.67,0.11c0.23,0.05,0.46,0.11,0.7,0.16c0.76,0.27,1.53,0.54,2.29,0.81
		c0.31,0.16,0.63,0.31,0.94,0.47c0.69,0.41,1.27,0.96,1.86,1.51c0,0.04,0,0.07,0,0.11c-0.32,0.35-0.46-0.2-0.72-0.15
		c-0.43-0.3-0.85-0.63-1.41-0.62c-0.43-0.43-1-0.49-1.55-0.62c-0.19-0.14-0.4-0.17-0.62-0.15c-0.49-0.2-1-0.29-1.53-0.3
		c-0.88,0.06-1.72-0.33-2.6-0.22c-1.13-0.14-2.25-0.1-3.38,0.03c-0.78-0.13-1.54,0.13-2.3,0.2c-5.03,0.06-10.06-0.26-15.09-0.27
		c-3.16-0.01-6.21,0.55-8.91,2.37c-0.12,0.08-0.23,0.11-0.4,0c1.3-1.45,2.91-2.34,4.71-2.9c1.82-0.57,3.7-0.8,5.6-0.79
		c1.51,0.01,3.01,0.06,4.52,0.1c2.99,0.09,5.98,0.2,8.97,0.01C44.82,22.23,45.02,22.18,45.22,22.16z"/>
	<path class="st13" d="M43.56,6.09c-0.64-0.49-1.4-0.31-2.11-0.39c-1.21-0.13-2.43-0.06-3.63,0.14c-4.8,0.54-8.89,2.68-12.54,5.81
		c3.64-4.85,8.42-7.53,14.42-7.92c0.82,0.04,1.64,0.07,2.47,0.11c1.02,0.19,2.04,0.38,3.05,0.56c1.07,0.43,2.14,0.85,3.21,1.28
		c0.29,0.15,0.58,0.3,0.87,0.45c0.64,0.41,1.28,0.83,1.91,1.24c1.25,1.02,2.4,2.14,3.52,3.3c0.22,0.52,0.79,0.8,0.92,1.38
		c-0.98-0.64-1.71-1.61-2.76-2.16c-0.55-0.49-1.16-0.88-1.81-1.22c-0.35-0.21-0.67-0.47-1.07-0.56c-0.49-0.34-1.01-0.59-1.58-0.76
		C48,7.13,47.55,6.93,47.06,6.86c-0.88-0.4-1.82-0.58-2.76-0.75c-0.16-0.09-0.31-0.02-0.46,0.02C43.75,6.12,43.65,6.1,43.56,6.09z"
		/>
	<path class="st3" d="M45.22,23.71c0.77-0.07,1.52-0.33,2.3-0.2c-0.21,0.43-0.07,0.75,0.1,1.21c0.21,0.57,0.35,1.27,0.36,1.94
		c0,0.2-0.01,0.49,0.1,0.59c0.93,0.83,0.92,2.11,1.5,3.11c0.38,0.64,0.41,1.51,1.25,1.83c0.05,0.02,0.04,0.19,0.06,0.29
		c-1.13-0.21-2.25-0.42-3.38-0.64c0-0.26,0-0.52,0-0.78c0-0.36-0.13-0.6-0.52-0.63c-1.03-0.07-1.63-0.62-1.78-1.69
		c-0.07-0.48-0.14-0.98-0.69-1.21c-0.24-0.1-0.25-0.39-0.22-0.62c0.09-0.8-0.05-1.66,0.59-2.34C45.09,24.38,45.11,24.01,45.22,23.71
		z M49.58,31.58c-0.01-0.04-0.02-0.08-0.04-0.11c0-0.01-0.06,0-0.06,0.01c-0.01,0.04-0.01,0.08-0.01,0.11
		C49.51,31.59,49.54,31.58,49.58,31.58z"/>
	<path class="st13" d="M44.14,15.52c-0.54-0.06-0.98-0.46-1.54-0.44c-0.7-0.26-1.43-0.23-2.15-0.24c-0.25,0-0.44,0.08-0.49,0.36
		c-0.06,0.1-0.12,0.2-0.18,0.3c-0.08,0.24-0.52,0.4-0.15,0.73l-0.02,0.01c-0.48-0.09-0.42,0.38-0.52,0.61
		c-0.42,0.97-0.77,1.97-1.15,2.96c0,0,0,0.01,0,0.01c-0.42-0.17-0.23-0.47-0.17-0.77c0.27-1.41,0.74-2.74,1.32-4.1
		c-0.86-0.03-1.58,0.29-2.3,0.59c-0.05-0.04-0.09-0.08-0.14-0.13c0.57-0.72,1.36-1.07,2.2-1.27c0.52-0.12,0.92-0.33,1.22-0.8
		c0.32-0.5,0.82-0.83,1.3-1.16c0.57-0.14,1.15-0.31,1.67,0.11c0.09,0.07,0.34-0.13,0.29,0.17c-0.03,0.18-0.17,0.16-0.29,0.17
		c-0.8,0.07-1.46,0.4-2.05,1.06c0.61,0.15,1.16,0.26,1.7,0.43c0.7,0.22,1.26,0.62,1.44,1.41L44.14,15.52z"/>
	<path class="st13" d="M41.4,17.12c1.04,0,1.35,0.31,1.37,1.39c-0.1,0.16-0.21,0.33-0.31,0.49c-0.21,0.1-0.41,0.2-0.62,0.3
		c-0.15-0.02-0.3-0.04-0.44-0.06c-0.1-0.06-0.2-0.11-0.3-0.17C40.48,18.33,40.57,17.72,41.4,17.12z"/>
	<path class="st3" d="M48.6,45.13c-0.08-0.1-0.13-0.14-0.13-0.18c0-0.35-0.16-0.73,0.11-1.04c0.08-0.09,0.21,0.02,0.24,0.11
		C48.95,44.4,48.96,44.78,48.6,45.13z"/>
	<path class="st3" d="M48.99,46.62c-0.28,0.32-0.56,0.65-0.84,0.97C47.99,46.73,48.14,46.55,48.99,46.62z"/>
	<path class="st3" d="M46.72,46.18c0.17-0.32,0.37-0.62,0.63-0.86c0.02,0.3,0.32,0.63-0.1,0.88C47.07,46.32,46.89,46.51,46.72,46.18
		z"/>
	<path class="st3" d="M41.84,19.3c0.21-0.1,0.41-0.2,0.62-0.3c0,0.08,0.01,0.15-0.01,0.23c-0.04,0.23,0.12,0.59-0.23,0.62
		C41.92,19.88,41.9,19.54,41.84,19.3z"/>
	<path class="st3" d="M49.83,45.68c-0.11,0.12-0.21,0.24-0.32,0.35c-0.29-0.18-0.43-0.43-0.11-0.66
		C49.7,45.16,49.78,45.43,49.83,45.68z"/>
	<path class="st3" d="M48.89,54.76c0.11-0.16,0.22-0.31,0.34-0.47c0.26,0.01,0.59,0.04,0.54,0.38c-0.06,0.37-0.37,0.05-0.57,0.09
		C49.09,54.79,48.99,54.77,48.89,54.76z"/>
	<path class="st3" d="M39.64,16.23c0.1,0.03,0.19,0.06,0.29,0.08c0.18,0.05,0.33,0.15,0.33,0.36c0,0.15-0.11,0.22-0.25,0.22
		c-0.22,0-0.29-0.16-0.32-0.35c-0.02-0.1-0.04-0.2-0.07-0.3C39.62,16.25,39.64,16.23,39.64,16.23z"/>
	<path class="st3" d="M47.28,48.36c-0.04,0.28,0.17,0.62-0.2,0.81C47.19,48.91,46.66,48.48,47.28,48.36z"/>
	<path class="st3" d="M41.1,19.07c0.1,0.06,0.2,0.11,0.3,0.17c-0.04,0.1-0.04,0.3-0.2,0.23C41.03,19.4,41.1,19.21,41.1,19.07z"/>
	<path class="st0" d="M54.82,66.82c-0.16,0.1-0.32,0.21-0.48,0.31c-0.03-0.05-0.07-0.11-0.1-0.16c0.15-0.11,0.29-0.23,0.44-0.34
		C54.72,66.7,54.77,66.76,54.82,66.82z"/>
	<path class="st0" d="M26.27,67.02c-0.31,0.02-0.51-0.13-0.46-0.27c0.06-0.21,0.23-0.05,0.34,0.04
		C26.2,66.83,26.21,66.91,26.27,67.02z"/>
	<path class="st4" d="M37.95,19.83c0,0,0-0.01,0-0.01c0.01,0.12,0.08,0.26-0.11,0.28c-0.03,0-0.06-0.06-0.1-0.1
		C37.81,19.94,37.88,19.88,37.95,19.83z"/>
	<path class="st3" d="M39.79,15.5c0.06-0.1,0.12-0.2,0.18-0.3C40.19,15.47,39.98,15.48,39.79,15.5z"/>
	<path class="st0" d="M21.63,55.82c0.09,0.08,0.2,0.21,0.1,0.29c-0.14,0.12-0.15-0.1-0.23-0.16C21.54,55.91,21.58,55.87,21.63,55.82
		z"/>
	<path class="st13" d="M25.19,11.66c0.03,0.04,0.08,0.09,0.08,0.1c-0.03,0.05-0.07,0.12-0.12,0.13c-0.04,0.01-0.09-0.06-0.14-0.1
		C25.07,11.76,25.12,11.71,25.19,11.66z"/>
	<path class="st13" d="M36.8,15.55c-0.04,0.12-0.15,0.17-0.23,0.09c-0.11-0.11,0.04-0.15,0.09-0.22
		C36.71,15.46,36.75,15.51,36.8,15.55z"/>
	<path class="st0" d="M26.51,67.14c-0.04,0.06-0.06,0.09-0.08,0.13c-0.06-0.07-0.11-0.14-0.17-0.2c0.04-0.03,0.1-0.09,0.11-0.09
		C26.42,67.03,26.47,67.09,26.51,67.14z"/>
	<path class="st0" d="M54.34,67.14c-0.13,0.01-0.27,0.14-0.36-0.05c0.09-0.04,0.17-0.07,0.26-0.11
		C54.27,67.03,54.31,67.08,54.34,67.14z"/>
	<path class="st3" d="M47.43,48.1c-0.02-0.03-0.04-0.06-0.07-0.09c0.03,0.02,0.06,0.04,0.09,0.07C47.45,48.08,47.43,48.1,47.43,48.1
		z"/>
	<path class="st3" d="M61.33,67.33c0.01-0.02,0.02-0.03,0.03-0.05C61.35,67.3,61.34,67.31,61.33,67.33L61.33,67.33z"/>
	<path class="st3" d="M61.33,67.33c-0.01,0.01-0.02,0.03-0.03,0.04C61.31,67.36,61.32,67.34,61.33,67.33
		C61.33,67.33,61.33,67.33,61.33,67.33z"/>
	<path class="st8" d="M52.9,9.9c1.05,0.55,1.78,1.52,2.76,2.16c0,0-0.02,0-0.02,0c0.14,0.07,0.12,0.31,0.32,0.33
		c0,0-0.02-0.02-0.02-0.02c0.04,0.03,0.08,0.07,0.12,0.1c0.44,1.23,0.86,2.46,1.21,3.73c0.3,1.08,0.72,2.13,1.12,3.18
		c0.23,0.61,0.66,1.14,0.79,1.81c0.12,0.6,0.35,1.18-0.13,1.74c-0.26,0.3-0.04,0.48,0.22,0.57c0.31,0.11,0.5,0.36,0.23,0.56
		c-1.01,0.76,0,0.65,0.34,0.8c-0.09,0.32-0.47,0.28-0.52,0.57c-0.58-0.55-1.17-1.1-1.86-1.51c0.03-0.41,0.34-0.37,0.62-0.42
		c0.31-0.06,0.41-0.39,0.16-0.49c-0.6-0.26-0.46-0.74-0.46-1.18c0-0.37-0.09-0.68-0.3-1.01c-0.78-1.22-1.11-2.63-1.59-3.98
		c-0.35-0.99-0.46-2.05-1.03-2.98c-0.23-0.37-0.63-0.85-0.28-1.43c0.1-0.17-0.14-0.31-0.27-0.42C53.69,11.43,53.23,10.71,52.9,9.9z"
		/>
	<path class="st13" d="M55.97,12.39c-0.2-0.02-0.18-0.26-0.32-0.33C55.75,12.17,55.86,12.28,55.97,12.39z"/>
	<path class="st13" d="M56.07,12.48c-0.04-0.03-0.08-0.07-0.12-0.1C55.99,12.41,56.03,12.44,56.07,12.48z"/>
	<path class="st1" d="M49.2,37.97c-0.02-0.21-0.06-0.42,0.11-0.58C49.37,37.6,49.63,37.86,49.2,37.97z"/>
	<path class="st15" d="M44.4,42.73c0,0.08,0.01,0.1,0,0.12c-0.27,0.68-0.37,1.53-0.84,1.98c-0.52,0.5-1.33-0.05-2-0.16
		c-1.35-0.21-2.65,0-3.95,0.3C37.2,45.07,37,45,36.86,44.58c-0.2-0.61-0.47-1.19-0.73-1.86C38.93,43.33,41.63,43.34,44.4,42.73z"/>
	<path class="st15" d="M40.32,41.59c-1.4,0-2.81,0.01-4.21-0.01c-0.18,0-0.45,0.13-0.52-0.15c-0.05-0.19,0.12-0.34,0.27-0.44
		c1.17-0.73,2.38-1.36,3.81-0.92c0.44,0.13,0.83,0.13,1.27,0c1.44-0.44,2.64,0.2,3.81,0.93c0.15,0.09,0.31,0.25,0.25,0.44
		c-0.07,0.24-0.3,0.14-0.46,0.14C43.13,41.59,41.72,41.59,40.32,41.59z"/>
	<path class="st15" d="M37.9,35.04c0.17,1.09,1.09,1.7,2.5,1.65c1.4-0.05,2.15-0.6,2.27-1.65c0.63,0.35,1.07,1.5,0.81,2.13
		c-0.1,0.24-0.28,0.31-0.53,0.36c-1.77,0.39-3.52,0.41-5.29,0c-0.24-0.06-0.44-0.09-0.54-0.34C36.85,36.56,37.26,35.43,37.9,35.04z"
		/>
	<path class="st5" d="M44.3,6.1c0.94,0.17,1.88,0.35,2.76,0.75c0.28,1.4,0.8,2.73,1.23,4.08c0.58,1.83,1.38,3.57,1.96,5.41
		c0.56,1.79,1.45,3.48,1.61,5.39c0.01,0.15,0.15,0.19,0.28,0.23c0,0.1-0.01,0.2-0.01,0.3c-1.08-0.06-2.15-0.11-3.23-0.17
		c0.19-0.71,0.46-1.43-0.27-2.02c-0.03-0.02-0.01-0.1-0.03-0.15c-0.52-1.58-0.94-3.19-1.57-4.72c-0.6-1.44-1.2-2.89-1.75-4.34
		c-0.55-1.44-0.66-3.06-1.83-4.22c-0.07-0.07-0.05-0.25-0.07-0.38c0.06-0.06,0.12-0.11,0.18-0.17c0.09,0.01,0.19,0.02,0.28,0.04
		C44,6.28,44.15,6.28,44.3,6.1z"/>
	<path class="st4" d="M43.38,6.26c0.02,0.13-0.01,0.3,0.07,0.38c1.17,1.16,1.27,2.78,1.83,4.22c0.56,1.45,1.16,2.9,1.75,4.34
		c0.63,1.53,1.06,3.14,1.57,4.72c0.02,0.05,0,0.13,0.03,0.15c0.73,0.59,0.46,1.31,0.27,2.02c-0.46,0-0.92,0-1.38-0.01
		c-0.46-0.46-1.02-0.88-0.66-1.68c0.02-0.05-0.04-0.16-0.09-0.2c-1.23-0.93-0.85-2.67-1.8-3.75c-0.16-0.19-0.06-0.55,0.08-0.82
		c0.28-0.57,0.33-1.08-0.29-1.49c-0.32-0.21-0.48-0.57-0.44-0.95c0.1-0.94-0.27-1.72-0.77-2.46c-0.06-0.08-0.14-0.19-0.13-0.28
		c0.08-1.33-0.77-2.33-1.18-3.48c-0.14-0.38-0.12-0.69,0.38-0.7C42.86,6.26,43.12,6.26,43.38,6.26z"/>
	<path class="st13" d="M44.13,15.54c0.03,0,0.07,0.01,0.1,0.01c-0.01,0.02-0.01,0.04-0.02,0.06c-0.02-0.03-0.04-0.06-0.07-0.09
		C44.14,15.52,44.13,15.54,44.13,15.54z"/>
	<path class="st11" d="M50.02,8.13c0.41,0.09,0.73,0.35,1.07,0.56c0.11,0.54-0.04,1.24,0.83,1.29c0.08,0,0.14,0.26,0.23,0.38
		c0.59,0.79,0.31,1.87,0.89,2.68c0.25,0.34,0.42,0.74,0.51,1.2c0.17,0.83,0.34,1.7,0.74,2.43c0.91,1.67,1.35,3.51,1.91,5.3
		c0.14,0.47,0.76,0.88,0.35,1.49c-0.76-0.27-1.53-0.54-2.29-0.81c-0.23-0.58,0.06-1.21-0.13-1.77c-0.53-1.61-1.04-3.22-1.7-4.77
		c-0.8-1.87-1.34-3.82-2.01-5.72c-0.2-0.56,0.05-1.28-0.74-1.69C49.18,8.44,49.56,8.12,50.02,8.13z"/>
	<path class="st10" d="M56.54,23.46c0.41-0.61-0.21-1.02-0.35-1.49c-0.55-1.79-0.99-3.63-1.91-5.3c-0.4-0.73-0.57-1.6-0.74-2.43
		c-0.09-0.45-0.26-0.85-0.51-1.2c-0.58-0.81-0.29-1.89-0.89-2.68c-0.09-0.12-0.15-0.37-0.23-0.38c-0.87-0.05-0.72-0.76-0.83-1.29
		c0.65,0.34,1.26,0.72,1.81,1.22c0.33,0.8,0.79,1.52,1.43,2.11c0.13,0.12,0.37,0.25,0.27,0.42c-0.35,0.58,0.05,1.06,0.28,1.43
		c0.57,0.92,0.68,1.99,1.03,2.98c0.48,1.35,0.82,2.76,1.59,3.98c0.21,0.33,0.29,0.64,0.3,1.01c0,0.44-0.14,0.92,0.46,1.18
		c0.24,0.1,0.14,0.43-0.16,0.49c-0.27,0.06-0.58,0.02-0.62,0.42C57.17,23.77,56.86,23.61,56.54,23.46z"/>
	<path class="st9" d="M52.13,21.96c-0.13-0.03-0.27-0.08-0.28-0.23c-0.16-1.92-1.05-3.6-1.61-5.39c-0.57-1.84-1.37-3.58-1.96-5.41
		c-0.43-1.35-0.95-2.68-1.23-4.08c0.49,0.08,0.94,0.27,1.38,0.51c-0.31,0.53,0.06,0.82,0.38,1.12c0.19,0.18,0.51,0.44,0.35,0.62
		c-0.48,0.54-0.09,0.9,0.1,1.38c0.76,1.92,1.64,3.81,2.19,5.82c0.26,0.95,0.57,1.88,1.01,2.77c0.25,0.5,0.52,1.08,0.51,1.62
		c-0.01,0.64,0,1.1,0.65,1.37c0.22,0.09,0.12,0.3-0.05,0.43c-0.22-0.04-0.45-0.07-0.67-0.11C52.8,21.93,52.46,21.97,52.13,21.96z"/>
	<path class="st12" d="M53.56,22.49c0.18-0.13,0.27-0.33,0.05-0.43c-0.65-0.27-0.66-0.73-0.65-1.37c0.01-0.54-0.26-1.11-0.51-1.62
		c-0.44-0.89-0.75-1.82-1.01-2.77c-0.55-2.01-1.42-3.89-2.19-5.82c-0.19-0.48-0.57-0.83-0.1-1.38c0.16-0.18-0.16-0.44-0.35-0.62
		c-0.32-0.3-0.69-0.59-0.38-1.12c0.57,0.17,1.1,0.42,1.58,0.76c-0.46-0.01-0.84,0.31-0.35,0.56c0.8,0.41,0.55,1.13,0.74,1.69
		c0.67,1.91,1.21,3.86,2.01,5.72c0.66,1.55,1.18,3.17,1.7,4.77c0.18,0.56-0.1,1.19,0.13,1.77C54.02,22.59,53.79,22.54,53.56,22.49z"
		/>
	<path class="st12" d="M52.13,21.96c0.32,0.01,0.67-0.03,0.76,0.42c-0.25-0.04-0.51-0.08-0.76-0.12
		C52.13,22.16,52.13,22.06,52.13,21.96z"/>
	<path class="st4" d="M44.3,6.1c-0.14,0.17-0.3,0.18-0.46,0.02C43.99,6.09,44.14,6.01,44.3,6.1z"/>
	<path class="st4" d="M49.58,31.58c-0.04,0.01-0.08,0.01-0.11,0.01c0-0.04,0-0.08,0.01-0.11c0-0.01,0.05-0.02,0.06-0.01
		C49.56,31.5,49.57,31.54,49.58,31.58z"/>
</g>
</svg>
