<svg width="256" height="256" viewBox="0 0 256 256" fill="none" xmlns="http://www.w3.org/2000/svg">
<path d="M196.829 238.085C206.243 238.085 214.244 234.63 220.833 227.721C227.422 220.81 230.717 212.42 230.717 202.549V125.552H131.101V149.835H207.842V202.549C207.842 205.708 206.76 208.422 204.595 210.692C202.43 212.963 199.841 214.098 196.829 214.098H61.2767C58.2645 214.098 55.6758 212.963 53.5107 210.692C51.3457 208.422 50.2631 205.708 50.2631 202.549V60.4007C50.2631 57.2418 51.3457 54.5272 53.5107 52.2568C55.6758 49.9864 58.2645 48.8512 61.2767 48.8512H196.829C199.841 48.8512 202.43 49.9864 204.595 52.2568C206.76 54.5272 207.842 57.2418 207.842 60.4007V68.989H230.717V60.4007C230.717 50.5293 227.422 42.1387 220.833 35.2287C214.244 28.3187 206.243 24.8638 196.829 24.8638H61.2767C51.8634 24.8638 43.862 28.3187 37.2727 35.2287C30.6833 42.1387 27.3887 50.5293 27.3887 60.4007V202.549C27.3887 212.42 30.6833 220.81 37.2727 227.721C43.862 234.63 51.8634 238.085 61.2767 238.085H196.829Z" fill="white"/>
<path fill-rule="evenodd" clip-rule="evenodd" d="M99.1152 58.7784C104.641 31.7515 87.1744 5.8077 60.1008 0.831354C33.0273 -4.14494 6.59995 13.7306 1.07363 40.7576C-4.45277 67.7842 13.0146 93.7281 40.088 98.7044C67.1616 103.681 93.589 85.8057 99.1152 58.7784Z" fill="url(#paint0_radial)"/>
<path fill-rule="evenodd" clip-rule="evenodd" d="M255.243 227.476C259.112 208.558 246.886 190.395 227.935 186.908C208.984 183.421 190.484 195.931 186.614 214.849C182.744 233.767 194.971 251.93 213.922 255.417C232.874 258.904 251.374 246.394 255.243 227.476Z" fill="url(#paint1_radial)"/>
<path fill-rule="evenodd" clip-rule="evenodd" d="M176.459 143.11C180.329 124.192 168.103 106.029 149.151 102.542C130.201 99.055 111.7 111.565 107.831 130.483C103.961 149.401 116.188 167.564 135.139 171.051C154.09 174.538 172.59 162.028 176.459 143.11Z" fill="url(#paint2_radial)"/>
<defs>
<radialGradient id="paint0_radial" cx="0" cy="0" r="1" gradientUnits="userSpaceOnUse" gradientTransform="translate(72.0384 72.0985) rotate(-131.504) scale(83.0674 76.3948)">
<stop stop-color="white"/>
<stop offset="0.501768" stop-color="#3C4149"/>
<stop offset="0.761481" stop-color="#454A52"/>
<stop offset="0.882295" stop-color="#CBD0DA"/>
</radialGradient>
<radialGradient id="paint1_radial" cx="0" cy="0" r="1" gradientUnits="userSpaceOnUse" gradientTransform="translate(208.395 207.721) rotate(42.7974) scale(49.4451 45.4233)">
<stop stop-color="white"/>
<stop offset="0.501768" stop-color="#3C4149"/>
<stop offset="0.761481" stop-color="#454A52"/>
<stop offset="1" stop-color="#CBD0DA"/>
</radialGradient>
<radialGradient id="paint2_radial" cx="0" cy="0" r="1" gradientUnits="userSpaceOnUse" gradientTransform="translate(129.612 123.355) rotate(42.7974) scale(49.4451 45.4233)">
<stop stop-color="white"/>
<stop offset="0.501768" stop-color="#3C4149"/>
<stop offset="0.761481" stop-color="#454A52"/>
<stop offset="1" stop-color="#CBD0DA"/>
</radialGradient>
</defs>
</svg>
