<?xml version="1.0" encoding="UTF-8"?>
<svg width="106px" height="106px" viewBox="0 0 106 106" version="1.1" xmlns="http://www.w3.org/2000/svg" xmlns:xlink="http://www.w3.org/1999/xlink">
    <title>编组 7</title>
    <g id="h5" stroke="none" stroke-width="1" fill="none" fill-rule="evenodd">
        <g id="Apple-TV备份-4" transform="translate(-1405.000000, -331.000000)">
            <g id="编组-7" transform="translate(1405.000000, 331.000000)">
                <path d="M44.9148886,15.1499717 L44.9145156,15.2996735 L45.0648603,15.2999434 L45.0642173,15.4493752 L45.214832,15.4499151 L45.2139191,15.599077 L45.3648037,15.5998868 L45.3645507,15.7497085 L45.5147754,15.7498585 L45.5142524,15.8994103 L45.6647471,15.8998302 L45.6639542,16.0491121 L45.8147188,16.0498019 L45.8145857,16.1997436 L45.9646905,16.1997736 L45.9642875,16.3494454 L46.1146623,16.3497453 L46.1139892,16.4991471 L46.264634,16.499717 L46.2646208,16.6488489 L46.4146057,16.6496887 L46.4143226,16.7994805 L46.5645774,16.7996604 L46.5640243,16.9491822 L46.7145491,16.9496321 L46.7137261,17.098884 L46.8645208,17.0996038 L46.8643577,17.2495156 L47.0144925,17.2495756 L47.0140594,17.3992173 L47.1644642,17.3995473 L47.1637612,17.5489191 L47.3144359,17.549519 L47.3143928,17.6986208 L47.4644076,17.6994907 L47.4640945,17.8492524 L47.6143793,17.8494624 L47.6137963,17.9989542 L47.764351,17.9994341 L47.763498,18.1486559 L47.9143227,18.1494058 L47.9141296,18.2992875 L48.0642944,18.2993775 L48.0638314,18.4489892 L48.2142661,18.4493492 L48.2135331,18.598691 L48.3642378,18.5993209 L48.3641647,18.7483928 L48.5142095,18.7492926 L48.5138664,18.8990243 L48.6641812,18.8992643 L48.6635682,19.0487261 L48.8141529,19.049236 L48.8132699,19.1984278 L48.9641246,19.1992077 L48.9639015,19.3490594 L49.1140963,19.3491794 L49.1136033,19.4987612 L49.264068,19.4991511 L49.263305,19.6484629 L49.4140397,19.6491228 L49.4139366,44.9071471 L50.7324278,44.9043577 C52.7862946,44.9043577 54.8115707,44.9216392 56.8013584,44.9552285 L56.801238,15.1499717 L80.6201518,15.1499717 L80.6197787,15.2996735 L80.7701235,15.2999434 L80.7694805,15.4493752 L80.9200952,15.4499151 L80.9191822,15.599077 L81.0700669,15.5998868 L81.0698138,15.7497085 L81.2200386,15.7498585 L81.2195156,15.8994103 L81.3700103,15.8998302 L81.3692173,16.0491121 L81.519982,16.0498019 L81.5198489,16.1997436 L81.6699537,16.1997736 L81.6695507,16.3494454 L81.8199254,16.3497453 L81.8192524,16.4991471 L81.9698971,16.499717 L81.969884,16.6488489 L82.1198688,16.6496887 L82.1195857,16.7994805 L82.2698405,16.7996604 L82.2692875,16.9491822 L82.4198122,16.9496321 L82.4189892,17.098884 L82.5697839,17.0996038 L82.5696208,17.2495156 L82.7197556,17.2495756 L82.7193226,17.3992173 L82.8697273,17.3995473 L82.8690243,17.5489191 L83.019699,17.549519 L83.0196559,17.6986208 L83.1696707,17.6994907 L83.1693577,17.8492524 L83.3196424,17.8494624 L83.3190594,17.9989542 L83.4696141,17.9994341 L83.4687612,18.1486559 L83.6195859,18.1494058 L83.6193928,18.2992875 L83.7695576,18.2993775 L83.7690945,18.4489892 L83.9195293,18.4493492 L83.9187963,18.598691 L84.069501,18.5993209 L84.0694278,18.7483928 L84.2194727,18.7492926 L84.2191296,18.8990243 L84.3694444,18.8992643 L84.3688314,19.0487261 L84.5194161,19.049236 L84.5185331,19.1984278 L84.6693878,19.1992077 L84.6691647,19.3490594 L84.8193595,19.3491794 L84.8188664,19.4987612 L84.9693312,19.4991511 L84.9685682,19.6484629 L85.1193029,19.6491228 L85.1191998,46.8086384 L85.3689843,46.8411675 L86.9704032,47.0632672 L88.1251634,47.2362788 L89.2390555,47.4146411 L89.9584219,47.5364481 L91.001843,47.7233956 L91.6732463,47.8507873 L92.6432492,48.0459039 L93.2647247,48.1786029 L93.865679,48.3133473 L94.4457977,48.4500925 L95.0047665,48.5887943 L95.5422709,48.7294082 L96.0579966,48.8718899 L96.5516294,49.016195 L97.0228548,49.1622791 L97.5798972,49.3473183 L98.100823,49.5349813 L98.2989431,49.6107616 L98.6773954,49.763518 L99.1167032,49.9566479 L99.5179297,50.1521241 C100.127177,50.4657273 100.588767,50.7879529 100.89149,51.1172184 C100.946346,51.1677692 100.997106,51.2187912 101.044026,51.2699833 C101.098048,51.319481 101.147878,51.3696359 101.193998,51.419955 C101.245049,51.4666779 101.292306,51.5140396 101.336254,51.5615482 C101.394124,51.6154372 101.447887,51.6694351 101.497348,51.7236232 C101.550266,51.7717164 101.59886,51.8207149 101.643913,51.8698701 L101.717705,51.9403721 L101.78617,52.0114633 C101.844371,52.0656605 101.898418,52.1199688 101.948113,52.1744696 C102.000756,52.2222116 102.049041,52.270921 102.093828,52.3197852 C102.14785,52.3692829 102.19768,52.4194378 102.2438,52.4697569 C102.296171,52.5177131 102.344574,52.5663161 102.389494,52.6150735 C102.4462,52.6675281 102.49869,52.7203387 102.547064,52.7733312 C102.600068,52.8215183 102.648662,52.8705168 102.693715,52.9196721 L102.767507,52.990174 L102.835971,53.0612652 C102.894173,53.1154624 102.94822,53.1697708 102.997915,53.2242715 C103.050558,53.2720135 103.098843,53.3207229 103.14363,53.3695872 C103.195012,53.4166183 103.242555,53.4642904 103.286747,53.5121111 C103.340613,53.5622156 103.390499,53.6120679 103.436719,53.6620828 C103.489988,53.7116143 103.539729,53.7612882 103.58583,53.8111237 C103.642616,53.8640517 103.694646,53.9162084 103.742663,53.9685429 L103.817202,54.0398595 L103.885773,54.1110671 C103.943975,54.1652644 103.998022,54.2195727 104.047717,54.2740734 C104.10036,54.3218154 104.148645,54.3705248 104.193432,54.4193891 C104.244483,54.466112 104.29174,54.5134737 104.335688,54.5609823 C104.38957,54.6111728 104.439909,54.6614461 104.486521,54.7118848 C104.542779,54.7641901 104.595093,54.8166573 104.643347,54.8693042 L104.721296,54.943982 L104.721296,54.943982 L104.931684,55.1574906 C104.991466,55.2127463 105.046762,55.2682105 105.097519,55.3238754 C105.149833,55.371309 105.197834,55.419708 105.24238,55.4682599 C105.619329,55.8196005 105.814035,56.1788709 105.814035,56.5445614 C105.814035,57.200033 105.188489,57.8348782 104.017081,58.4378476 L103.699166,58.5944135 L103.53102,58.6721403 L103.176546,58.8264537 L102.798094,58.9792101 L102.291787,59.1678982 L101.749118,59.3539973 L101.289214,59.5009542 L100.557148,59.7180818 L100.041422,59.8605635 L99.5039176,60.0011774 L98.9449488,60.1398792 L98.3648301,60.2766244 L97.7638759,60.4113688 L97.1424003,60.5440678 L96.1723974,60.7391844 L95.5009941,60.8665761 L94.457573,61.0535236 L93.7382066,61.1753306 L92.6243145,61.3536929 L91.4695543,61.5267045 L90.2749871,61.6942154 L89.4570179,61.8027596 L88.6221424,61.908748 L87.7706753,62.0121365 L86.0192229,62.2109358 L85.1198665,62.3062578 L85.1193029,91.0596491 L61.3003891,91.0596491 L61.299884,90.9092875 L61.1504174,90.9096774 L61.1501822,90.7595857 L61.0004457,90.7597057 L60.9995507,90.6089542 L60.850474,90.609734 L60.8498489,90.4592524 L60.7005023,90.4597623 L60.7001471,90.3095507 L60.5505306,90.3097906 L60.5504454,90.1589191 L60.4005589,90.1598189 L60.3998138,90.0092173 L60.2505872,90.0098472 L60.2501121,89.8595156 L60.1006155,89.8598755 L60.1004103,89.7098138 L59.9506438,89.7099038 L59.9497787,89.5591822 L59.8006721,89.5599321 L59.800077,89.4094805 L59.6507004,89.4099604 L59.6503752,89.2597787 L59.5007287,89.2599887 L59.5006735,89.1091471 L59.350757,89.110017 L59.3500419,88.9594454 L59.2007853,88.9600453 L59.2003401,88.8097436 L59.0508136,88.8100736 L59.0506384,88.6600419 L58.9008419,88.6601019 L58.9000068,88.5094103 L58.7508702,88.5101302 L58.750305,88.3597085 L58.6008985,88.3601585 L58.6006033,88.2100068 L58.4509268,88.2101868 L58.4509015,88.0593752 L58.3009551,88.0602151 L58.3002699,87.9096735 L58.1509834,87.9102434 L58.1505682,87.7599717 L58.0010116,87.7602716 L58.0008664,87.6102699 L57.8510399,87.6102999 L57.8502349,87.4596384 L57.7010682,87.4603282 L57.7005331,87.3099366 L57.5510965,87.3103565 L57.5508314,87.1602349 L57.4011248,87.1603848 L57.4001998,87.0096033 L57.2511531,87.0104131 L57.250498,86.8599015 L57.1011814,86.8604414 L57.1007963,86.7101998 L56.9512097,86.7104697 L56.9510945,86.5595682 L56.801238,86.560498 L56.8019653,63.682238 L56.0182185,63.684768 L56.0182185,63.684768 L55.2315789,63.685614 C53.2642111,63.685614 51.3230763,63.6697575 49.4142371,63.6389002 L49.4140397,91.0596491 L25.595126,91.0596491 L25.5946208,90.9092875 L25.4451543,90.9096774 L25.4449191,90.7595857 L25.2951826,90.7597057 L25.2942875,90.6089542 L25.1452109,90.609734 L25.1445857,90.4592524 L24.9952392,90.4597623 L24.994884,90.3095507 L24.8452674,90.3097906 L24.8451822,90.1589191 L24.6952957,90.1598189 L24.6945507,90.0092173 L24.545324,90.0098472 L24.5448489,89.8595156 L24.3953523,89.8598755 L24.3951471,89.7098138 L24.2453806,89.7099038 L24.2445156,89.5591822 L24.0954089,89.5599321 L24.0948138,89.4094805 L23.9454372,89.4099604 L23.9451121,89.2597787 L23.7954655,89.2599887 L23.7954103,89.1091471 L23.6454938,89.110017 L23.6447787,88.9594454 L23.4955221,88.9600453 L23.495077,88.8097436 L23.3455504,88.8100736 L23.3453752,88.6600419 L23.1955787,88.6601019 L23.1947436,88.5094103 L23.045607,88.5101302 L23.0450419,88.3597085 L22.8956353,88.3601585 L22.8953401,88.2100068 L22.7456636,88.2101868 L22.7456384,88.0593752 L22.5956919,88.0602151 L22.5950068,87.9096735 L22.4457202,87.9102434 L22.445305,87.7599717 L22.2957485,87.7602716 L22.2956033,87.6102699 L22.1457768,87.6102999 L22.1449717,87.4596384 L21.9958051,87.4603282 L21.9952699,87.3099366 L21.8458334,87.3103565 L21.8455682,87.1602349 L21.6958617,87.1603848 L21.6949366,87.0096033 L21.54589,87.0104131 L21.5452349,86.8599015 L21.3959183,86.8604414 L21.3955331,86.7101998 L21.2459466,86.7104697 L21.2458314,86.5595682 L21.0959749,86.560498 L21.0933401,61.8122875 L20.437807,61.7278528 L19.2415417,61.5623924 L18.0844379,61.3914591 L16.9675397,61.2152 L15.8918912,61.0337627 L14.8585362,60.8472945 L13.8685189,60.6559429 L13.2330994,60.5257348 L12.6177145,60.3934655 L12.0226733,60.2591786 L11.4482854,60.1229178 L10.89486,59.9847267 L10.3627065,59.8446491 L9.60503765,59.6310908 L9.12741716,59.4864878 L8.67215123,59.3401511 L8.45299789,59.2663462 L8.0318438,59.1174907 L7.63381761,58.9670107 L7.25922866,58.8149499 C7.07784505,58.7385315 6.90536641,58.6615367 6.74196673,58.5839899 L6.42732423,58.4281679 C5.82776841,58.1178311 5.37275926,57.7990759 5.07314212,57.4734335 C5.01955139,57.4240062 4.96959981,57.3739133 4.92334942,57.3236563 C4.86899471,57.2734715 4.81889248,57.2231938 4.77251881,57.1727508 L4.74284625,57.1453084 L4.62322701,57.0235184 L4.62322701,57.0235184 C4.56797607,56.9725452 4.51659456,56.9208956 4.46914831,56.8690719 C4.41619053,56.8206308 4.3681026,56.7722766 4.32346261,56.7237695 C4.2691079,56.6735847 4.21900566,56.623307 4.172632,56.572864 C4.11907242,56.5235302 4.06937235,56.4736621 4.02334019,56.4236316 C3.96974946,56.3742043 3.91979789,56.3241114 3.8735475,56.2738544 C3.81919279,56.2236696 3.76909055,56.1733919 3.72271689,56.1229489 C3.66915731,56.0736151 3.61945724,56.023747 3.57342508,55.9737164 C3.51983435,55.9242892 3.46988278,55.8741963 3.42363239,55.8239393 C3.36960961,55.7740637 3.31979392,55.7240972 3.27366068,55.6739676 C3.21930598,55.6237828 3.16920374,55.573505 3.12283008,55.5230621 C3.06927049,55.4737282 3.01957043,55.4238602 2.97353827,55.3738296 C2.91994754,55.3244024 2.86999596,55.2743094 2.82374557,55.2240525 C2.76939087,55.1738677 2.71928863,55.1235899 2.67291497,55.073147 C2.61935538,55.0238131 2.56965532,54.9739451 2.52362316,54.9239145 C2.47003243,54.8744873 2.42008085,54.8243943 2.37383046,54.7741374 C2.31980768,54.7242618 2.26999199,54.6742953 2.22385876,54.6241656 L2.1485812,54.5519468 L1.92373634,54.3240277 C1.87014562,54.2746004 1.82019404,54.2245075 1.77394365,54.1742505 C1.71958894,54.1240658 1.6694867,54.073788 1.62311304,54.023345 C1.56955346,53.9740112 1.51985339,53.9241432 1.47382123,53.8741126 C1.42023051,53.8246853 1.37027893,53.7745924 1.32402854,53.7243354 C1.27133346,53.6756966 1.22266677,53.6269752 1.17750096,53.5780985 C1.12253872,53.527003 1.07128,53.4756863 1.02390612,53.4241975 C0.968655189,53.3732243 0.917273675,53.3215747 0.869827431,53.269751 C0.816539182,53.2210007 0.768164725,53.1723351 0.723282821,53.1235148 C0.345501968,52.7718911 0.149971703,52.4118744 0.149971703,52.0454103 C0.149971703,51.3934452 0.768842438,50.7618864 1.92817313,50.1618038 L2.24281563,50.0059818 L2.58166871,49.8516315 L3.03880994,49.6608297 L3.5326927,49.472481 L3.95384679,49.3236255 L4.39781944,49.1764383 L5.10588655,48.9588809 L5.60555225,48.8160553 L6.12695383,48.6750507 L6.66978196,48.5359109 L7.23372729,48.3986795 L7.81848048,48.2634002 L8.73394834,48.0642369 L9.36936784,47.9340288 L10.0245125,47.8059257 L11.0435376,47.6178133 L11.7466419,47.4951636 L12.4683886,47.3747717 L13.2084686,47.2566812 L14.3522865,47.0839562 L15.136846,46.9718104 L16.3459331,46.8082072 L17.5927899,46.6502735 L18.4444953,46.548207 L19.3122137,46.4487694 L21.0944527,46.2579559 L21.0959749,15.1499717 L44.9148886,15.1499717 Z" id="路径" fill="#4FBAFE"></path>
                <path d="M44.7649169,15 L44.7651143,44.8010998 C46.6739535,44.7702425 48.6150883,44.754386 50.5824561,44.754386 C52.6363229,44.754386 54.661599,44.7716675 56.6513867,44.8052568 L56.6512663,15 L80.4701801,15 L80.4707437,46.1337422 L81.3701001,46.2290642 L81.3701001,46.2290642 L83.1215525,46.4278635 L83.1215525,46.4278635 L83.9730196,46.531252 L83.9730196,46.531252 L85.2190126,46.6911958 L85.2190126,46.6911958 L86.8204315,46.9132955 L86.8204315,46.9132955 L87.9751917,47.0863071 L87.9751917,47.0863071 L89.0890838,47.2646694 L89.0890838,47.2646694 L89.8084502,47.3864764 L89.8084502,47.3864764 L90.8518713,47.5734239 L90.8518713,47.5734239 L91.5232746,47.7008156 L91.5232746,47.7008156 L92.4932775,47.8959322 L92.4932775,47.8959322 L93.114753,48.0286312 L93.114753,48.0286312 L93.7157073,48.1633756 L93.7157073,48.1633756 L94.295826,48.3001208 L94.295826,48.3001208 L94.8547947,48.4388226 L94.8547947,48.4388226 L95.3922992,48.5794365 L95.3922992,48.5794365 L95.9080249,48.7219182 L95.9080249,48.7219182 L96.4016577,48.8662233 L96.4016577,48.8662233 L96.8728831,49.0123074 L96.8728831,49.0123074 L97.3213867,49.1601261 C97.3942264,49.1849047 97.4661062,49.2097536 97.5370196,49.2346721 L97.9508513,49.3850096 C98.017873,49.4102023 98.0839152,49.4354628 98.1489714,49.4607899 L98.5274237,49.6135463 L98.5274237,49.6135463 L98.8818968,49.7678597 C98.9389599,49.7937059 98.9950108,49.8196151 99.050043,49.8455865 L99.3679579,50.0021524 C100.539367,50.6051218 101.164912,51.239967 101.164912,51.8954386 C101.164912,52.5509102 100.539367,53.1857554 99.3679579,53.7887248 L99.050043,53.9452907 C98.9950108,53.9712621 98.9389599,53.9971713 98.8818968,54.0230175 L98.5274237,54.1773309 L98.5274237,54.1773309 L98.1489714,54.3300873 L98.1489714,54.3300873 L97.7468542,54.4812421 C97.6778801,54.5062986 97.6079331,54.5312866 97.5370196,54.5562051 L97.0999947,54.7048745 L97.0999947,54.7048745 L96.6400909,54.8518314 L96.6400909,54.8518314 L96.1576226,54.9970316 C96.0753483,55.0210827 95.9921469,55.0450588 95.9080249,55.068959 L95.3922992,55.2114407 L95.3922992,55.2114407 L94.8547947,55.3520546 L94.8547947,55.3520546 L94.295826,55.4907564 L94.295826,55.4907564 L93.7157073,55.6275016 L93.7157073,55.6275016 L93.114753,55.762246 L93.114753,55.762246 L92.4932775,55.894945 L92.4932775,55.894945 L91.5232746,56.0900616 L91.5232746,56.0900616 L90.8518713,56.2174533 L90.8518713,56.2174533 L89.8084502,56.4044008 L89.8084502,56.4044008 L89.0890838,56.5262078 L89.0890838,56.5262078 L87.9751917,56.7045701 L87.9751917,56.7045701 L86.8204315,56.8775817 L86.8204315,56.8775817 L85.6258643,57.0450926 L85.6258643,57.0450926 L84.807895,57.1536368 L84.807895,57.1536368 L83.9730196,57.2596252 L83.9730196,57.2596252 L83.1215525,57.3630137 L83.1215525,57.3630137 L81.3701001,57.561813 L81.3701001,57.561813 L80.4707437,57.657135 L80.4707437,57.657135 L80.4701801,86.4105263 L56.6512663,86.4105263 L56.6513867,58.9856204 C54.661599,59.0192097 52.6363229,59.0364912 50.5824561,59.0364912 C48.6150883,59.0364912 46.6739535,59.0206347 44.7651143,58.9897774 L44.7649169,86.4105263 L20.9460032,86.4105263 L20.944481,57.682893 L20.0456643,57.5888444 L20.0456643,57.5888444 L19.162242,57.4920795 L19.162242,57.4920795 L18.2945236,57.3926419 L18.2945236,57.3926419 L17.0230671,57.2385699 L17.0230671,57.2385699 L15.7886842,57.07873 L15.7886842,57.07873 L14.5924189,56.9132696 L14.5924189,56.9132696 L13.4353151,56.7423363 L13.4353151,56.7423363 L12.3184169,56.5660772 L12.3184169,56.5660772 L11.2427684,56.3846399 L11.2427684,56.3846399 L10.2094134,56.1981717 L10.2094134,56.1981717 L9.21939613,56.0068201 L9.21939613,56.0068201 L8.58397663,55.876612 L8.58397663,55.876612 L7.96859165,55.7443427 L7.96859165,55.7443427 L7.37355053,55.6100558 L7.37355053,55.6100558 L6.7991626,55.473795 L6.7991626,55.473795 L6.24573721,55.3356039 L6.24573721,55.3356039 L5.71358369,55.1955263 L5.71358369,55.1955263 L5.20301138,55.0536057 C5.11973161,55.0298012 5.03736395,55.0059216 4.95591484,54.981968 L4.47829435,54.837365 L4.47829435,54.837365 L4.02302842,54.6910283 C3.94903083,54.6664967 3.87597757,54.6418948 3.80387508,54.6172234 L3.38272099,54.4683679 L3.38272099,54.4683679 L2.9846948,54.3178879 L2.9846948,54.3178879 L2.61010585,54.1658271 C2.42872224,54.0894087 2.2562436,54.0124138 2.09284393,53.9348671 L1.77820143,53.7790451 C0.618870735,53.1789625 -2.91322522e-13,52.5474037 -2.91322522e-13,51.8954386 C-2.91322522e-13,51.2434735 0.618870735,50.6119147 1.77820143,50.0118321 L2.09284393,49.8560101 C2.20177704,49.8043123 2.31474526,49.7528597 2.43169701,49.7016598 L2.79445134,49.5488248 C2.85688498,49.523481 2.92030161,49.4982022 2.9846948,49.4729893 L3.38272099,49.3225093 L3.38272099,49.3225093 L3.80387508,49.1736538 L3.80387508,49.1736538 L4.24784773,49.0264666 L4.24784773,49.0264666 L4.71432961,48.8809912 C4.79393517,48.8568904 4.87446573,48.8328628 4.95591484,48.8089092 L5.45558055,48.6660836 L5.45558055,48.6660836 L5.97698213,48.525079 L5.97698213,48.525079 L6.51981026,48.3859392 L6.51981026,48.3859392 L7.08375558,48.2487078 L7.08375558,48.2487078 L7.66850878,48.1134285 L7.66850878,48.1134285 L8.58397663,47.9142652 L8.58397663,47.9142652 L9.21939613,47.7840571 L9.21939613,47.7840571 L9.87454082,47.655954 L9.87454082,47.655954 L10.8935659,47.4678416 L10.8935659,47.4678416 L11.5966702,47.3451919 L11.5966702,47.3451919 L12.3184169,47.2248 L12.3184169,47.2248 L13.0584969,47.1067095 L13.0584969,47.1067095 L14.2023148,46.9339845 L14.2023148,46.9339845 L14.9868743,46.8218387 L14.9868743,46.8218387 L16.1959614,46.6582355 L16.1959614,46.6582355 L17.4428182,46.5003018 L17.4428182,46.5003018 L18.2945236,46.3982353 L18.2945236,46.3982353 L19.162242,46.2987977 L19.162242,46.2987977 L20.4931677,46.1546662 C20.6429726,46.1389912 20.7934125,46.1234302 20.944481,46.1079842 L20.9460032,15 L44.7649169,15 Z M51.9574777,45.7091982 L49.8935957,45.707196 C48.15608,45.7105765 46.4444244,45.7267228 44.7648581,45.7548871 L44.7647199,55.6556369 C46.6658618,55.6875176 48.6081187,55.704 50.5824561,55.704 C52.6436696,55.704 54.6699171,55.6860351 56.6509184,55.651339 L56.6509184,45.7591873 C55.1121325,45.7322363 53.5460462,45.7153806 51.9574777,45.7091982 Z M8.92631579,50.7052632 C8.92631579,51.1856903 9.49110876,51.6502876 10.5453643,52.0900156 L10.8762495,52.2211789 C10.9338193,52.2429121 10.9925938,52.2645809 11.0525638,52.2861841 L11.4266532,52.4150074 C11.4913671,52.4363438 11.5572576,52.4576124 11.6243153,52.478812 L12.0405919,52.6051734 L12.0405919,52.6051734 L12.4844283,52.7298256 L12.4844283,52.7298256 L12.9553725,52.8527145 L12.9553725,52.8527145 L13.4529727,52.9737858 C13.5381022,52.9938099 13.6243236,53.013756 13.7116274,53.0336229 L14.2483639,53.1518662 L14.2483639,53.1518662 L14.8106262,53.2681562 L14.8106262,53.2681562 L15.3979625,53.3824388 L15.3979625,53.3824388 L16.3249918,53.5499802 L16.3249918,53.5499802 L17.305895,53.7126998 L17.305895,53.7126998 L17.9890071,53.8184103 L17.9890071,53.8184103 L19.0563104,53.9726868 L19.0563104,53.9726868 L20.1734197,54.1216533 L20.1734197,54.1216533 L20.945076,54.217924 L20.945076,54.217924 L20.945284,47.1925771 L20.1736149,47.288848 L20.1736149,47.288848 L19.056487,47.437815 L19.056487,47.437815 L18.3393114,47.5400877 L18.3393114,47.5400877 L17.3060422,47.6978031 L17.3060422,47.6978031 L16.6461849,47.8057386 L16.6461849,47.8057386 L15.701012,47.9716939 L15.701012,47.9716939 L15.1012979,48.0849532 L15.1012979,48.0849532 L14.5264322,48.200247 L14.5264322,48.200247 L13.7117129,48.3768839 L13.7117129,48.3768839 L13.2009455,48.4970269 L13.2009455,48.4970269 L12.7166083,48.6190146 C12.6381131,48.6394967 12.5607379,48.6600533 12.4844923,48.6806834 L12.0406481,48.8053365 L12.0406481,48.8053365 L11.6243641,48.9316989 L11.6243641,48.9316989 L11.2360924,49.0597161 C11.1737399,49.0811872 11.1125734,49.102725 11.0526024,49.1243284 L10.7071966,49.2547263 C9.54901166,49.7138094 8.92631579,50.20081 8.92631579,50.7052632 Z M80.4700252,47.2232576 L80.4700252,54.1872687 L81.6162881,54.0398122 L81.6162881,54.0398122 L82.3529178,53.9384627 L82.3529178,53.9384627 L83.0669736,53.8347415 L83.0669736,53.8347415 L83.7579947,53.7287039 L83.7579947,53.7287039 L84.4255204,53.6204052 L84.4255204,53.6204052 L85.0690901,53.5099006 L85.0690901,53.5099006 L85.6882431,53.3972455 L85.6882431,53.3972455 L86.5701834,53.2243516 L86.5701834,53.2243516 L87.1262789,53.106562 L87.1262789,53.106562 L87.6563453,52.9868154 C87.742495,52.9666976 87.827541,52.9465005 87.9114736,52.9262254 L88.4016324,52.8036469 C88.4810732,52.783064 88.5593816,52.7624053 88.6365477,52.7416721 L89.0857624,52.616386 C89.1583217,52.5953588 89.2297196,52.5742592 89.2999466,52.5530885 L89.7071806,52.4252193 C89.7726855,52.4037684 89.8370002,52.3822487 89.9001153,52.3606613 L90.264332,52.2303333 C91.5464425,51.7495517 92.2385965,51.2371071 92.2385965,50.7052632 C92.2385965,50.1734192 91.5464425,49.6609746 90.264332,49.180193 L89.9001153,49.049865 L89.9001153,49.049865 L89.5071052,48.9211624 C89.3713541,48.8785385 89.2308809,48.8361948 89.0857624,48.7941403 L88.6365477,48.6688543 L88.6365477,48.6688543 L88.1599218,48.5453594 C88.0782255,48.5249292 87.9954062,48.504576 87.9114736,48.4843009 L87.3945945,48.3635965 L87.3945945,48.3635965 L86.851456,48.2448215 L86.851456,48.2448215 L86.2825186,48.1280311 L86.2825186,48.1280311 L85.6882431,48.0132808 L85.6882431,48.0132808 L85.0690901,47.9006257 L85.0690901,47.9006257 L84.4255204,47.7901212 L84.4255204,47.7901212 L83.7579947,47.6818224 L83.7579947,47.6818224 L83.0669736,47.5757848 L83.0669736,47.5757848 L82.3529178,47.4720636 L82.3529178,47.4720636 L81.6162881,47.3707141 L81.6162881,47.3707141 L80.8575452,47.2717915 C80.7292708,47.2555098 80.6000943,47.2393314 80.4700252,47.2232576 Z" id="形状" fill="#2483FE"></path>
            </g>
        </g>
    </g>
</svg>