<?xml version="1.0" encoding="UTF-8"?>
<svg width="40px" height="40px" viewBox="0 0 40 40" version="1.1" xmlns="http://www.w3.org/2000/svg" xmlns:xlink="http://www.w3.org/1999/xlink">
    <title>编组</title>
    <g id="h5" stroke="none" stroke-width="1" fill="none" fill-rule="evenodd">
        <g id="编组">
            <rect id="矩形" fill="#2483FE" x="0" y="0" width="40" height="40" rx="15"></rect>
            <path d="M37,20.4 C37,21.7254834 29.3888407,22.8 20,22.8 C10.6111593,22.8 3,21.7254834 3,20.4 C3,19.0945997 10.3822653,18.0326187 19.5744791,18.0007372 L20,18 C29.3888407,18 37,19.0745166 37,20.4 Z M20.3918668,18.3206454 L19.6081332,18.3206454 C12.0573391,18.3455475 6,19.0878877 6,20 C6,20.9278384 12.2680135,21.68 20,21.68 C27.7319865,21.68 34,20.9278384 34,20 C34,19.0721616 27.7319865,18.32 20,18.32 Z" id="形状结合" fill="#FEFFFE"></path>
            <path d="M18.0448129,8 L18.0448129,32 L10.0396355,32 L10.0396355,8 L18.0448129,8 Z M30.0448129,8 L30.0448129,32 L22.0396355,32 L22.0396355,8 L30.0448129,8 Z" id="形状" fill="#FEFFFE"></path>
        </g>
    </g>
</svg>