<?xml version="1.0" encoding="UTF-8"?>
<svg width="106px" height="77px" viewBox="0 0 106 77" version="1.1" xmlns="http://www.w3.org/2000/svg" xmlns:xlink="http://www.w3.org/1999/xlink">
    <title>hccIcon.a57f7d5b</title>
    <g id="h5" stroke="none" stroke-width="1" fill="none" fill-rule="evenodd">
        <g id="画板" transform="translate(-390.000000, -171.000000)" fill-rule="nonzero">
            <g id="hccIcon.a57f7d5b" transform="translate(390.000000, 171.000000)">
                <path d="M44.9148886,1 L44.9145156,1.1497018 L45.0648603,1.1499717 L45.0642173,1.2994035 L45.214832,1.2999434 L45.2139191,1.4491053 L45.3648037,1.4499151 L45.3645507,1.5997368 L45.5147754,1.5998868 L45.5142524,1.7494386 L45.6647471,1.7498585 L45.6639542,1.8991404 L45.8147188,1.8998302 L45.8145857,2.0497719 L45.9646905,2.0498019 L45.9642875,2.1994737 L46.1146623,2.1997736 L46.1139892,2.3491754 L46.264634,2.3497453 L46.2646208,2.4988772 L46.4146057,2.499717 L46.4143226,2.6495088 L46.5645774,2.6496887 L46.5640243,2.7992105 L46.7145491,2.7996604 L46.7137261,2.9489123 L46.8645208,2.9496321 L46.8643577,3.0995439 L47.0144925,3.0996039 L47.0140594,3.2492456 L47.1644642,3.2495756 L47.1637612,3.3989474 L47.3144359,3.3995473 L47.3143928,3.5486491 L47.4644076,3.549519 L47.4640945,3.6992807 L47.6143793,3.6994907 L47.6137963,3.8489825 L47.764351,3.8494624 L47.763498,3.9986842 L47.9143227,3.9994341 L47.9141296,4.1493158 L48.0642944,4.1494058 L48.0638314,4.2990175 L48.2142661,4.2993775 L48.2135331,4.4487193 L48.3642378,4.4493492 L48.3641647,4.5984211 L48.5142095,4.5993209 L48.5138664,4.7490526 L48.6641812,4.7492926 L48.6635682,4.8987544 L48.8141529,4.8992643 L48.8132699,5.0484561 L48.9641246,5.049236 L48.9639015,5.1990877 L49.1140963,5.1992077 L49.1136033,5.3487895 L49.264068,5.3491794 L49.263305,5.4984912 L49.4140397,5.4991511 L49.4139366,30.7571754 L50.7324278,30.754386 C52.7862946,30.754386 54.8115707,30.7716675 56.8013584,30.8052568 L56.801238,1 L80.6201518,1 L80.6197787,1.1497018 L80.7701235,1.1499717 L80.7694805,1.2994035 L80.9200952,1.2999434 L80.9191822,1.4491053 L81.0700669,1.4499151 L81.0698138,1.5997368 L81.2200386,1.5998868 L81.2195156,1.7494386 L81.3700103,1.7498585 L81.3692173,1.8991404 L81.519982,1.8998302 L81.5198489,2.0497719 L81.6699537,2.0498019 L81.6695507,2.1994737 L81.8199254,2.1997736 L81.8192524,2.3491754 L81.9698971,2.3497453 L81.969884,2.4988772 L82.1198688,2.499717 L82.1195857,2.6495088 L82.2698405,2.6496887 L82.2692875,2.7992105 L82.4198122,2.7996604 L82.4189892,2.9489123 L82.5697839,2.9496321 L82.5696208,3.0995439 L82.7197556,3.0996039 L82.7193226,3.2492456 L82.8697273,3.2495756 L82.8690243,3.3989474 L83.019699,3.3995473 L83.0196559,3.5486491 L83.1696707,3.549519 L83.1693577,3.6992807 L83.3196424,3.6994907 L83.3190594,3.8489825 L83.4696141,3.8494624 L83.4687612,3.9986842 L83.6195859,3.9994341 L83.6193928,4.1493158 L83.7695576,4.1494058 L83.7690945,4.2990175 L83.9195293,4.2993775 L83.9187963,4.4487193 L84.069501,4.4493492 L84.0694278,4.5984211 L84.2194727,4.5993209 L84.2191296,4.7490526 L84.3694444,4.7492926 L84.3688314,4.8987544 L84.5194161,4.8992643 L84.5185331,5.0484561 L84.6693878,5.049236 L84.6691647,5.1990877 L84.8193595,5.1992077 L84.8188664,5.3487895 L84.9693312,5.3491794 L84.9685682,5.4984912 L85.1193029,5.4991511 L85.1191998,32.6586667 L85.3689843,32.6911958 L86.9704032,32.9132955 L88.1251634,33.0863071 L89.2390555,33.2646694 L89.9584219,33.3864764 L91.001843,33.5734239 L91.6732463,33.7008156 L92.6432492,33.8959322 L93.2647247,34.0286312 L93.865679,34.1633756 L94.4457977,34.3001208 L95.0047665,34.4388226 L95.5422709,34.5794365 L96.0579966,34.7219182 L96.5516294,34.8662233 L97.0228548,35.0123074 L97.5798972,35.1973466 L98.100823,35.3850096 L98.2989431,35.4607899 L98.6773954,35.6135463 L99.1167032,35.8066762 L99.5179297,36.0021524 C100.127177,36.3157556 100.588767,36.6379812 100.89149,36.9672467 C100.946346,37.0177975 100.997106,37.0688195 101.044026,37.1200116 C101.098048,37.1695093 101.147878,37.2196642 101.193998,37.2699833 C101.245049,37.3167062 101.292306,37.3640679 101.336254,37.4115765 C101.394124,37.4654655 101.447887,37.5194634 101.497348,37.5736515 C101.550266,37.6217447 101.59886,37.6707432 101.643913,37.7198984 L101.717705,37.7904004 L101.78617,37.8614916 C101.844371,37.9156888 101.898418,37.9699971 101.948113,38.0244979 C102.000756,38.0722399 102.049041,38.1209493 102.093828,38.1698135 C102.14785,38.2193112 102.19768,38.2694661 102.2438,38.3197852 C102.296171,38.3677414 102.344574,38.4163444 102.389494,38.4651018 C102.4462,38.5175564 102.49869,38.570367 102.547064,38.6233595 C102.600068,38.6715466 102.648662,38.7205451 102.693715,38.7697004 L102.767507,38.8402023 L102.835971,38.9112935 C102.894173,38.9654907 102.94822,39.0197991 102.997915,39.0742998 C103.050558,39.1220418 103.098843,39.1707512 103.14363,39.2196155 C103.195012,39.2666466 103.242555,39.3143187 103.286747,39.3621394 C103.340613,39.4122439 103.390499,39.4620962 103.436719,39.5121111 C103.489988,39.5616426 103.539729,39.6113165 103.58583,39.661152 C103.642616,39.71408 103.694646,39.7662367 103.742663,39.8185712 L103.817202,39.8898878 L103.885773,39.9610954 C103.943975,40.0152927 103.998022,40.069601 104.047717,40.1241017 C104.10036,40.1718437 104.148645,40.2205531 104.193432,40.2694174 C104.244483,40.3161403 104.29174,40.363502 104.335688,40.4110106 C104.38957,40.4612011 104.439909,40.5114744 104.486521,40.5619131 C104.542779,40.6142184 104.595093,40.6666856 104.643347,40.7193325 L104.721296,40.7940103 L104.721296,40.7940103 L104.931684,41.0075189 C104.991466,41.0627746 105.046762,41.1182388 105.097519,41.1739037 C105.149833,41.2213373 105.197834,41.2697363 105.24238,41.3182882 C105.619329,41.6696288 105.814035,42.0288992 105.814035,42.3945897 C105.814035,43.0500613 105.188489,43.6849065 104.017081,44.2878759 L103.699166,44.4444418 L103.53102,44.5221686 L103.176546,44.676482 L102.798094,44.8292384 L102.291787,45.0179265 L101.749118,45.2040256 L101.289214,45.3509825 L100.557148,45.5681101 L100.041422,45.7105918 L99.5039176,45.8512057 L98.9449488,45.9899075 L98.3648301,46.1266527 L97.7638759,46.2613971 L97.1424003,46.3940961 L96.1723974,46.5892127 L95.5009941,46.7166044 L94.457573,46.9035519 L93.7382066,47.0253589 L92.6243145,47.2037212 L91.4695543,47.3767328 L90.2749871,47.5442437 L89.4570179,47.6527879 L88.6221424,47.7587763 L87.7706753,47.8621648 L86.0192229,48.0609641 L85.1198665,48.1562861 L85.1193029,76.9096774 L61.3003891,76.9096774 L61.299884,76.7593158 L61.1504174,76.7597057 L61.1501822,76.609614 L61.0004457,76.609734 L60.9995507,76.4589825 L60.850474,76.4597623 L60.8498489,76.3092807 L60.7005023,76.3097906 L60.7001471,76.159579 L60.5505306,76.1598189 L60.5504454,76.0089474 L60.4005589,76.0098472 L60.3998138,75.8592456 L60.2505872,75.8598755 L60.2501121,75.7095439 L60.1006155,75.7099038 L60.1004103,75.5598421 L59.9506438,75.5599321 L59.9497787,75.4092105 L59.8006721,75.4099604 L59.800077,75.2595088 L59.6507004,75.2599887 L59.6503752,75.109807 L59.5007287,75.110017 L59.5006735,74.9591754 L59.350757,74.9600453 L59.3500419,74.8094737 L59.2007853,74.8100736 L59.2003401,74.6597719 L59.0508136,74.6601019 L59.0506384,74.5100702 L58.9008419,74.5101302 L58.9000068,74.3594386 L58.7508702,74.3601585 L58.750305,74.2097368 L58.6008985,74.2101868 L58.6006033,74.0600351 L58.4509268,74.0602151 L58.4509015,73.9094035 L58.3009551,73.9102434 L58.3002699,73.7597018 L58.1509834,73.7602717 L58.1505682,73.61 L58.0010116,73.6102999 L58.0008664,73.4602982 L57.8510399,73.4603282 L57.8502349,73.3096667 L57.7010682,73.3103565 L57.7005331,73.1599649 L57.5510965,73.1603848 L57.5508314,73.0102632 L57.4011248,73.0104131 L57.4001998,72.8596316 L57.2511531,72.8604414 L57.250498,72.7099298 L57.1011814,72.7104697 L57.1007963,72.5602281 L56.9512097,72.560498 L56.9510945,72.4095965 L56.801238,72.4105263 L56.8019653,49.5322663 L56.0182185,49.5347963 L56.0182185,49.5347963 L55.2315789,49.5356423 C53.2642111,49.5356423 51.3230763,49.5197858 49.4142371,49.4889285 L49.4140397,76.9096774 L25.595126,76.9096774 L25.5946208,76.7593158 L25.4451543,76.7597057 L25.4449191,76.609614 L25.2951826,76.609734 L25.2942875,76.4589825 L25.1452109,76.4597623 L25.1445857,76.3092807 L24.9952392,76.3097906 L24.994884,76.159579 L24.8452674,76.1598189 L24.8451822,76.0089474 L24.6952957,76.0098472 L24.6945507,75.8592456 L24.545324,75.8598755 L24.5448489,75.7095439 L24.3953523,75.7099038 L24.3951471,75.5598421 L24.2453806,75.5599321 L24.2445156,75.4092105 L24.0954089,75.4099604 L24.0948138,75.2595088 L23.9454372,75.2599887 L23.9451121,75.109807 L23.7954655,75.110017 L23.7954103,74.9591754 L23.6454938,74.9600453 L23.6447787,74.8094737 L23.4955221,74.8100736 L23.495077,74.6597719 L23.3455504,74.6601019 L23.3453752,74.5100702 L23.1955787,74.5101302 L23.1947436,74.3594386 L23.045607,74.3601585 L23.0450419,74.2097368 L22.8956353,74.2101868 L22.8953401,74.0600351 L22.7456636,74.0602151 L22.7456384,73.9094035 L22.5956919,73.9102434 L22.5950068,73.7597018 L22.4457202,73.7602717 L22.445305,73.61 L22.2957485,73.6102999 L22.2956033,73.4602982 L22.1457768,73.4603282 L22.1449717,73.3096667 L21.9958051,73.3103565 L21.9952699,73.1599649 L21.8458334,73.1603848 L21.8455682,73.0102632 L21.6958617,73.0104131 L21.6949366,72.8596316 L21.54589,72.8604414 L21.5452349,72.7099298 L21.3959183,72.7104697 L21.3955331,72.5602281 L21.2459466,72.560498 L21.2458314,72.4095965 L21.0959749,72.4105263 L21.0933401,47.6623158 L20.437807,47.5778811 L19.2415417,47.4124207 L18.0844379,47.2414874 L16.9675397,47.0652283 L15.8918912,46.883791 L14.8585362,46.6973228 L13.8685189,46.5059712 L13.2330994,46.3757631 L12.6177145,46.2434938 L12.0226733,46.1092069 L11.4482854,45.9729461 L10.89486,45.834755 L10.3627065,45.6946774 L9.60503765,45.4811191 L9.12741716,45.3365161 L8.67215123,45.1901794 L8.45299789,45.1163745 L8.0318438,44.967519 L7.63381761,44.817039 L7.25922866,44.6649782 C7.07784505,44.5885598 6.90536641,44.511565 6.74196673,44.4340182 L6.42732423,44.2781962 C5.82776841,43.9678594 5.37275926,43.6491042 5.07314212,43.3234618 C5.01955139,43.2740345 4.96959981,43.2239416 4.92334942,43.1736846 C4.86899471,43.1234998 4.81889248,43.0732221 4.77251881,43.0227791 L4.74284625,42.9953367 L4.62322701,42.8735467 L4.62322701,42.8735467 C4.56797607,42.8225735 4.51659456,42.7709239 4.46914831,42.7191002 C4.41619053,42.6706591 4.3681026,42.6223049 4.32346261,42.5737978 C4.2691079,42.523613 4.21900566,42.4733353 4.172632,42.4228923 C4.11907242,42.3735585 4.06937235,42.3236904 4.02334019,42.2736599 C3.96974946,42.2242326 3.91979789,42.1741397 3.8735475,42.1238827 C3.81919279,42.0736979 3.76909055,42.0234202 3.72271689,41.9729772 C3.66915731,41.9236434 3.61945724,41.8737753 3.57342508,41.8237447 C3.51983435,41.7743175 3.46988278,41.7242246 3.42363239,41.6739676 C3.36960961,41.624092 3.31979392,41.5741255 3.27366068,41.5239959 C3.21930598,41.4738111 3.16920374,41.4235333 3.12283008,41.3730904 C3.06927049,41.3237565 3.01957043,41.2738885 2.97353827,41.2238579 C2.91994754,41.1744307 2.86999596,41.1243377 2.82374557,41.0740808 C2.76939087,41.023896 2.71928863,40.9736182 2.67291497,40.9231753 C2.61935538,40.8738414 2.56965532,40.8239734 2.52362316,40.7739428 C2.47003243,40.7245156 2.42008085,40.6744226 2.37383046,40.6241657 C2.31980768,40.5742901 2.26999199,40.5243236 2.22385876,40.4741939 L2.1485812,40.4019751 L1.92373634,40.174056 C1.87014562,40.1246287 1.82019404,40.0745358 1.77394365,40.0242788 C1.71958894,39.9740941 1.6694867,39.9238163 1.62311304,39.8733733 C1.56955346,39.8240395 1.51985339,39.7741715 1.47382123,39.7241409 C1.42023051,39.6747136 1.37027893,39.6246207 1.32402854,39.5743637 C1.27133346,39.5257249 1.22266677,39.4770035 1.17750096,39.4281268 C1.12253872,39.3770313 1.07128,39.3257146 1.02390612,39.2742258 C0.968655189,39.2232526 0.917273675,39.171603 0.869827431,39.1197793 C0.816539182,39.071029 0.768164725,39.0223634 0.723282821,38.9735431 C0.345501968,38.6219194 0.149971703,38.2619027 0.149971703,37.8954386 C0.149971703,37.2434735 0.768842438,36.6119147 1.92817313,36.0118321 L2.24281563,35.8560101 L2.58166871,35.7016598 L3.03880994,35.510858 L3.5326927,35.3225093 L3.95384679,35.1736538 L4.39781944,35.0264666 L5.10588655,34.8089092 L5.60555225,34.6660836 L6.12695383,34.525079 L6.66978196,34.3859392 L7.23372729,34.2487078 L7.81848048,34.1134285 L8.73394834,33.9142652 L9.36936784,33.7840571 L10.0245125,33.655954 L11.0435376,33.4678416 L11.7466419,33.3451919 L12.4683886,33.2248 L13.2084686,33.1067095 L14.3522865,32.9339845 L15.136846,32.8218387 L16.3459331,32.6582355 L17.5927899,32.5003018 L18.4444953,32.3982353 L19.3122137,32.2987977 L21.0944527,32.1079842 L21.0959749,1 L44.9148886,1 Z" id="路径" fill="#4FBAFE"></path>
                <path d="M44.7649169,6.39488462e-14 L44.7651143,29.8010998 C46.6739535,29.7702425 48.6150883,29.754386 50.5824561,29.754386 C52.6363229,29.754386 54.661599,29.7716675 56.6513867,29.8052568 L56.6512663,6.39488462e-14 L80.4701801,6.39488462e-14 L80.4707437,31.1337422 L81.3701001,31.2290642 L81.3701001,31.2290642 L83.1215525,31.4278635 L83.1215525,31.4278635 L83.9730196,31.531252 L83.9730196,31.531252 L85.2190126,31.6911958 L85.2190126,31.6911958 L86.8204315,31.9132955 L86.8204315,31.9132955 L87.9751917,32.0863071 L87.9751917,32.0863071 L89.0890838,32.2646694 L89.0890838,32.2646694 L89.8084502,32.3864764 L89.8084502,32.3864764 L90.8518713,32.5734239 L90.8518713,32.5734239 L91.5232746,32.7008156 L91.5232746,32.7008156 L92.4932775,32.8959322 L92.4932775,32.8959322 L93.114753,33.0286312 L93.114753,33.0286312 L93.7157073,33.1633756 L93.7157073,33.1633756 L94.295826,33.3001208 L94.295826,33.3001208 L94.8547947,33.4388226 L94.8547947,33.4388226 L95.3922992,33.5794365 L95.3922992,33.5794365 L95.9080249,33.7219182 L95.9080249,33.7219182 L96.4016577,33.8662233 L96.4016577,33.8662233 L96.8728831,34.0123074 L96.8728831,34.0123074 L97.3213867,34.1601261 C97.3942264,34.1849047 97.4661062,34.2097536 97.5370196,34.2346721 L97.9508513,34.3850096 C98.017873,34.4102023 98.0839152,34.4354628 98.1489714,34.4607899 L98.5274237,34.6135463 L98.5274237,34.6135463 L98.8818968,34.7678597 C98.9389599,34.7937059 98.9950108,34.8196151 99.050043,34.8455865 L99.3679579,35.0021524 C100.539367,35.6051218 101.164912,36.239967 101.164912,36.8954386 C101.164912,37.5509102 100.539367,38.1857554 99.3679579,38.7887248 L99.050043,38.9452907 C98.9950108,38.9712621 98.9389599,38.9971713 98.8818968,39.0230175 L98.5274237,39.1773309 L98.5274237,39.1773309 L98.1489714,39.3300873 L98.1489714,39.3300873 L97.7468542,39.4812421 C97.6778801,39.5062986 97.6079331,39.5312866 97.5370196,39.5562051 L97.0999947,39.7048745 L97.0999947,39.7048745 L96.6400909,39.8518314 L96.6400909,39.8518314 L96.1576226,39.9970316 C96.0753483,40.0210827 95.9921469,40.0450588 95.9080249,40.068959 L95.3922992,40.2114407 L95.3922992,40.2114407 L94.8547947,40.3520546 L94.8547947,40.3520546 L94.295826,40.4907564 L94.295826,40.4907564 L93.7157073,40.6275016 L93.7157073,40.6275016 L93.114753,40.762246 L93.114753,40.762246 L92.4932775,40.894945 L92.4932775,40.894945 L91.5232746,41.0900616 L91.5232746,41.0900616 L90.8518713,41.2174533 L90.8518713,41.2174533 L89.8084502,41.4044008 L89.8084502,41.4044008 L89.0890838,41.5262078 L89.0890838,41.5262078 L87.9751917,41.7045701 L87.9751917,41.7045701 L86.8204315,41.8775817 L86.8204315,41.8775817 L85.6258643,42.0450926 L85.6258643,42.0450926 L84.807895,42.1536368 L84.807895,42.1536368 L83.9730196,42.2596252 L83.9730196,42.2596252 L83.1215525,42.3630137 L83.1215525,42.3630137 L81.3701001,42.561813 L81.3701001,42.561813 L80.4707437,42.657135 L80.4707437,42.657135 L80.4701801,71.4105263 L56.6512663,71.4105263 L56.6513867,43.9856204 C54.661599,44.0192097 52.6363229,44.0364912 50.5824561,44.0364912 C48.6150883,44.0364912 46.6739535,44.0206347 44.7651143,43.9897774 L44.7649169,71.4105263 L20.9460032,71.4105263 L20.944481,42.682893 L20.0456643,42.5888444 L20.0456643,42.5888444 L19.162242,42.4920795 L19.162242,42.4920795 L18.2945236,42.3926419 L18.2945236,42.3926419 L17.0230671,42.2385699 L17.0230671,42.2385699 L15.7886842,42.07873 L15.7886842,42.07873 L14.5924189,41.9132696 L14.5924189,41.9132696 L13.4353151,41.7423363 L13.4353151,41.7423363 L12.3184169,41.5660772 L12.3184169,41.5660772 L11.2427684,41.3846399 L11.2427684,41.3846399 L10.2094134,41.1981717 L10.2094134,41.1981717 L9.21939613,41.0068201 L9.21939613,41.0068201 L8.58397663,40.876612 L8.58397663,40.876612 L7.96859165,40.7443427 L7.96859165,40.7443427 L7.37355053,40.6100558 L7.37355053,40.6100558 L6.7991626,40.473795 L6.7991626,40.473795 L6.24573721,40.3356039 L6.24573721,40.3356039 L5.71358369,40.1955263 L5.71358369,40.1955263 L5.20301138,40.0536057 C5.11973161,40.0298012 5.03736395,40.0059216 4.95591484,39.981968 L4.47829435,39.837365 L4.47829435,39.837365 L4.02302842,39.6910283 C3.94903083,39.6664967 3.87597757,39.6418948 3.80387508,39.6172234 L3.38272099,39.4683679 L3.38272099,39.4683679 L2.9846948,39.3178879 L2.9846948,39.3178879 L2.61010585,39.1658271 C2.42872224,39.0894087 2.2562436,39.0124138 2.09284393,38.9348671 L1.77820143,38.7790451 C0.618870735,38.1789625 -2.84217094e-13,37.5474037 -2.84217094e-13,36.8954386 C-2.84217094e-13,36.2434735 0.618870735,35.6119147 1.77820143,35.0118321 L2.09284393,34.8560101 C2.20177704,34.8043123 2.31474526,34.7528597 2.43169701,34.7016598 L2.79445134,34.5488248 C2.85688498,34.523481 2.92030161,34.4982022 2.9846948,34.4729893 L3.38272099,34.3225093 L3.38272099,34.3225093 L3.80387508,34.1736538 L3.80387508,34.1736538 L4.24784773,34.0264666 L4.24784773,34.0264666 L4.71432961,33.8809912 C4.79393517,33.8568904 4.87446573,33.8328628 4.95591484,33.8089092 L5.45558055,33.6660836 L5.45558055,33.6660836 L5.97698213,33.525079 L5.97698213,33.525079 L6.51981026,33.3859392 L6.51981026,33.3859392 L7.08375558,33.2487078 L7.08375558,33.2487078 L7.66850878,33.1134285 L7.66850878,33.1134285 L8.58397663,32.9142652 L8.58397663,32.9142652 L9.21939613,32.7840571 L9.21939613,32.7840571 L9.87454082,32.655954 L9.87454082,32.655954 L10.8935659,32.4678416 L10.8935659,32.4678416 L11.5966702,32.3451919 L11.5966702,32.3451919 L12.3184169,32.2248 L12.3184169,32.2248 L13.0584969,32.1067095 L13.0584969,32.1067095 L14.2023148,31.9339845 L14.2023148,31.9339845 L14.9868743,31.8218387 L14.9868743,31.8218387 L16.1959614,31.6582355 L16.1959614,31.6582355 L17.4428182,31.5003018 L17.4428182,31.5003018 L18.2945236,31.3982353 L18.2945236,31.3982353 L19.162242,31.2987977 L19.162242,31.2987977 L20.4931677,31.1546662 C20.6429726,31.1389912 20.7934125,31.1234302 20.944481,31.1079842 L20.9460032,6.39488462e-14 L44.7649169,6.39488462e-14 Z M51.9574777,30.7091982 L49.8935957,30.707196 C48.15608,30.7105765 46.4444244,30.7267228 44.7648581,30.7548871 L44.7647199,40.6556369 C46.6658618,40.6875176 48.6081187,40.704 50.5824561,40.704 C52.6436696,40.704 54.6699171,40.6860351 56.6509184,40.651339 L56.6509184,30.7591873 C55.1121325,30.7322363 53.5460462,30.7153806 51.9574777,30.7091982 Z M8.92631579,35.7052632 C8.92631579,36.1856903 9.49110876,36.6502876 10.5453643,37.0900156 L10.8762495,37.2211789 C10.9338193,37.2429121 10.9925938,37.2645809 11.0525638,37.2861841 L11.4266532,37.4150074 C11.4913671,37.4363438 11.5572576,37.4576124 11.6243153,37.478812 L12.0405919,37.6051734 L12.0405919,37.6051734 L12.4844283,37.7298256 L12.4844283,37.7298256 L12.9553725,37.8527145 L12.9553725,37.8527145 L13.4529727,37.9737858 C13.5381022,37.9938099 13.6243236,38.013756 13.7116274,38.0336229 L14.2483639,38.1518662 L14.2483639,38.1518662 L14.8106262,38.2681562 L14.8106262,38.2681562 L15.3979625,38.3824388 L15.3979625,38.3824388 L16.3249918,38.5499802 L16.3249918,38.5499802 L17.305895,38.7126998 L17.305895,38.7126998 L17.9890071,38.8184103 L17.9890071,38.8184103 L19.0563104,38.9726868 L19.0563104,38.9726868 L20.1734197,39.1216533 L20.1734197,39.1216533 L20.945076,39.217924 L20.945076,39.217924 L20.945284,32.1925771 L20.1736149,32.288848 L20.1736149,32.288848 L19.056487,32.437815 L19.056487,32.437815 L18.3393114,32.5400877 L18.3393114,32.5400877 L17.3060422,32.6978031 L17.3060422,32.6978031 L16.6461849,32.8057386 L16.6461849,32.8057386 L15.701012,32.9716939 L15.701012,32.9716939 L15.1012979,33.0849532 L15.1012979,33.0849532 L14.5264322,33.200247 L14.5264322,33.200247 L13.7117129,33.3768839 L13.7117129,33.3768839 L13.2009455,33.4970269 L13.2009455,33.4970269 L12.7166083,33.6190146 C12.6381131,33.6394967 12.5607379,33.6600533 12.4844923,33.6806834 L12.0406481,33.8053365 L12.0406481,33.8053365 L11.6243641,33.9316989 L11.6243641,33.9316989 L11.2360924,34.0597161 C11.1737399,34.0811872 11.1125734,34.102725 11.0526024,34.1243284 L10.7071966,34.2547263 C9.54901166,34.7138094 8.92631579,35.20081 8.92631579,35.7052632 Z M80.4700252,32.2232576 L80.4700252,39.1872687 L81.6162881,39.0398122 L81.6162881,39.0398122 L82.3529178,38.9384627 L82.3529178,38.9384627 L83.0669736,38.8347415 L83.0669736,38.8347415 L83.7579947,38.7287039 L83.7579947,38.7287039 L84.4255204,38.6204052 L84.4255204,38.6204052 L85.0690901,38.5099006 L85.0690901,38.5099006 L85.6882431,38.3972455 L85.6882431,38.3972455 L86.5701834,38.2243516 L86.5701834,38.2243516 L87.1262789,38.106562 L87.1262789,38.106562 L87.6563453,37.9868154 C87.742495,37.9666976 87.827541,37.9465005 87.9114736,37.9262254 L88.4016324,37.8036469 C88.4810732,37.783064 88.5593816,37.7624053 88.6365477,37.7416721 L89.0857624,37.616386 C89.1583217,37.5953588 89.2297196,37.5742592 89.2999466,37.5530885 L89.7071806,37.4252193 C89.7726855,37.4037684 89.8370002,37.3822487 89.9001153,37.3606613 L90.264332,37.2303333 C91.5464425,36.7495517 92.2385965,36.2371071 92.2385965,35.7052632 C92.2385965,35.1734192 91.5464425,34.6609746 90.264332,34.180193 L89.9001153,34.049865 L89.9001153,34.049865 L89.5071052,33.9211624 C89.3713541,33.8785385 89.2308809,33.8361948 89.0857624,33.7941403 L88.6365477,33.6688543 L88.6365477,33.6688543 L88.1599218,33.5453594 C88.0782255,33.5249292 87.9954062,33.504576 87.9114736,33.4843009 L87.3945945,33.3635965 L87.3945945,33.3635965 L86.851456,33.2448215 L86.851456,33.2448215 L86.2825186,33.1280311 L86.2825186,33.1280311 L85.6882431,33.0132808 L85.6882431,33.0132808 L85.0690901,32.9006257 L85.0690901,32.9006257 L84.4255204,32.7901212 L84.4255204,32.7901212 L83.7579947,32.6818224 L83.7579947,32.6818224 L83.0669736,32.5757848 L83.0669736,32.5757848 L82.3529178,32.4720636 L82.3529178,32.4720636 L81.6162881,32.3707141 L81.6162881,32.3707141 L80.8575452,32.2717915 C80.7292708,32.2555098 80.6000943,32.2393314 80.4700252,32.2232576 Z" id="形状" fill="#FEFFFF"></path>
            </g>
        </g>
    </g>
</svg>