<svg id="Capa_1" enable-background="new 0 0 512 512" height="512" viewBox="0 0 512 512" width="512" xmlns="http://www.w3.org/2000/svg"><g id="XMLID_980_"><g id="XMLID_1366_"><g id="XMLID_1531_"><path d="m365.702 119.177s-34.328-7.552-24.051-44.826c0 0 .032.018.108.059 4.779 2.535 10.652 4.04 17.461 3.204 22.621-2.777 36.947 21.966 35.231 19.255z" fill="#a7bdcd"/></g><g id="XMLID_1529_"><path d="m419.945 96.869c-1.716 2.711 12.61-22.032 35.231-19.255 6.809.836 12.682-.669 17.461-3.204.075-.041.108-.059.108-.059 10.276 37.273-24.052 44.826-24.052 44.826z" fill="#a7bdcd"/></g><g id="XMLID_1526_"><g id="XMLID_1715_"><path id="XMLID_5_" d="m493.355 147.685c-21.715-11.479-42.062-25.377-60.651-41.431-7.088-6.122-16.141-9.49-25.507-9.49-14.297 0-27.45 7.818-34.281 20.378-7.398 13.602-21.643 22.07-37.127 22.07h-243.657c-45.397 0-82.185 36.83-82.132 82.228l.036 28.051c.036 28.536 14.708 55.058 38.863 70.252l11.05 37.667v72.501c0 4.326 3.507 7.832 7.832 7.832h36.333.004 41.422c6.205 0 10.168-6.618 7.239-12.088l-7.361-13.746v-73.11h106.877c2.134 7.025 6.052 13.456 11.478 18.61v72.501c0 4.326 3.507 7.832 7.833 7.832h29.945 44.165c6.205 0 10.168-6.618 7.238-12.088l-7.361-13.746v-75.822c34.539-8.837 60.074-40.164 60.074-77.457v-38.604c0-12.651 10.256-22.907 22.907-22.907h55.667c9.808 0 17.76-7.952 17.76-17.76v-17.326c-.001-6.015-3.328-11.537-8.646-14.347z" fill="#fff"/></g></g><g id="XMLID_984_"><path id="XMLID_834_" d="m352.953 425.655-7.361-13.746v-77.029h-21.218c-4.726 8.175-11.372 15.254-19.559 20.529v61.5l5.365 8.08c3.499 5.27-.036 12.231-6.18 12.707v.046h41.715c6.205 0 10.168-6.617 7.238-12.087z" fill="#e2e9ee"/></g><g id="XMLID_983_"><path id="XMLID_819_" d="m152.778 425.655-7.361-13.746v-56.5-16.61l-22.592-.119c-4.703 6.934-11.113 12.736-18.834 16.73v56.5l7.361 13.746c2.929 5.47-1.034 12.087-7.239 12.087h41.426c6.205-.001 10.168-6.618 7.239-12.088z" fill="#e2e9ee"/></g><g id="XMLID_1481_"><path id="XMLID_4_" d="m19.283 237.409c-2.85 0-5.645.236-8.367.688l-.894.421.014 10.972c.036 28.536 14.708 55.058 38.863 70.252l2.236 7.623c.204-.19.334-.311.334-.311 11.246-9.281 18.414-23.326 18.414-39.045 0-27.946-22.654-50.6-50.6-50.6z" fill="#a7bdcd"/></g><g id="XMLID_1812_"><path id="XMLID_6_" d="m92.132 139.212c-7.94 0-15.608 1.149-22.87 3.251v41.278c0 8.837 7.163 16 16 16 7.538 0 14.305 4.622 17.048 11.644 4.795 12.276 16.627 20.356 29.807 20.356h54.145c8.837 0 16-7.163 16-16 0-8.836 7.163-16 16-16 11.046 0 20-8.954 20-20v-40.53h-146.13z" fill="#a7bdcd"/></g><g id="XMLID_1371_"><path d="m371.875 186.746h-40.256c-8.697 0-15.747 7.05-15.747 15.747 0 8.697-7.05 15.747-15.747 15.747h-.743c-9.967 0-18.046 8.08-18.046 18.046 0 9.967 8.08 18.046 18.046 18.046h72.493c18.664 0 33.794-15.13 33.794-33.794-.001-18.662-15.131-33.792-33.794-33.792z" fill="#a7bdcd"/></g></g><g id="XMLID_162_"><path id="XMLID_826_" d="m498.027 138.844c-10.306-5.448-20.31-11.48-29.957-18.04 3.899-2.902 7.785-6.755 10.855-11.847 6.253-10.371 7.417-22.908 3.459-37.264-.825-2.991-2.872-5.497-5.745-6.668-2.871-1.172-6.008-1.012-8.688.551-3.588 1.902-7.478 2.616-11.557 2.112-11.563-1.418-23.088 2.365-33.321 10.947-2.862 2.399-6.02 5.622-8.521 8.695-2.423-.368-4.879-.567-7.355-.567-2.487 0-4.945.194-7.359.56-2.5-3.071-5.656-6.291-8.516-8.688-10.232-8.583-21.755-12.368-33.321-10.947-4.06.503-7.936-.204-11.51-2.088l-.053-.028c-2.681-1.462-5.883-1.616-8.693-.427-2.811 1.192-4.924 3.604-5.735 6.549-3.957 14.354-2.793 26.892 3.46 37.263 4.683 7.766 11.263 12.665 16.895 15.673-4.92 2.946-10.624 4.583-16.575 4.583h-137.028c-5.522 0-10 4.478-10 10s4.478 10 10 10h29.5v30.529c0 5.514-4.486 10-10 10-14.337 0-26 11.663-26 26 0 3.309-2.691 6-6 6h-54.145c-9.128 0-17.172-5.493-20.492-13.995-4.273-10.938-14.621-18.005-26.363-18.005-3.309 0-6-2.691-6-6v-33.371c4.207-.753 8.506-1.158 12.87-1.158h16.63c5.522 0 10-4.478 10-10s-4.478-10-10-10h-16.63c-24.63 0-47.779 9.597-65.185 27.022-17.406 17.426-26.975 40.587-26.947 65.217l.036 160.146c0 5.522 4.478 10 10 10 5.523 0 10-4.478 10-10v-74.472c5.7 7.193 12.509 13.594 20.299 18.949l9.613 32.77v71.064c0 9.833 8 17.832 17.833 17.832h77.759c6.462 0 12.303-3.31 15.623-8.854s3.481-12.256.431-17.953l-6.176-11.534v-60.602h90.06c2.142 4.565 4.923 8.834 8.295 12.639v68.473c0 9.833 7.999 17.832 17.832 17.832h74.11c6.463 0 12.304-3.31 15.624-8.855s3.48-12.256.43-17.952l-6.176-11.534v-65.928c34.957-12.345 60.074-45.713 60.074-84.842v-38.605c0-7.116 5.79-12.906 12.906-12.906h55.667c15.307 0 27.76-12.453 27.76-27.76v-17.326c0-9.749-5.353-18.635-13.973-23.19zm-44.07-51.304c3.598.44 7.189.395 10.7-.128 0 4.247-.928 7.956-2.781 11.087-2.966 5.01-7.865 7.928-11.326 9.466-3.836-3.013-7.619-6.092-11.309-9.278-1.481-1.279-3.036-2.453-4.644-3.537 4.604-4.225 11.423-8.583 19.36-7.61zm-93.518 0c7.938-.972 14.752 3.379 19.353 7.6-5.33 3.594-9.964 8.246-13.579 13.76-3.105-1.088-9.872-4.063-13.615-10.271-1.904-3.159-2.858-6.91-2.859-11.215 3.509.522 7.1.568 10.7.126zm-340.403 161.938-.003-2.049c22.041.403 39.849 18.445 39.849 40.581 0 8.129-2.418 15.921-6.82 22.514-20.671-13.545-32.994-36.257-33.026-61.046zm116.567 167.152 5.95 11.112h-20.299c-.235-2.336-.928-4.645-2.086-6.808l-6.177-11.534v-48.26c5.264-3.436 9.892-7.609 13.787-12.342h7.64v63.11c0 1.649.407 3.27 1.185 4.722zm200.174 0 5.95 11.112h-21.267c-.287-2.908-1.27-5.755-2.949-8.284l-3.696-5.566v-53.29c4.64-3.533 8.766-7.585 12.33-12.04 2.85-.045 5.667-.222 8.447-.526v63.875c.001 1.646.408 3.267 1.185 4.719zm58.89-196.051c-.021 13.101-10.686 23.754-23.792 23.754h-72.494c-4.437 0-8.046-3.609-8.046-8.046 0-4.436 3.609-8.046 8.046-8.046h.743c14.197 0 25.747-11.551 25.747-25.748 0-3.169 2.578-5.747 5.748-5.747h40.256c13.106 0 23.771 10.653 23.792 23.755zm96.333-41.22c0 4.278-3.481 7.76-7.76 7.76h-55.667c-8.079 0-15.483 2.932-21.217 7.781-7.964-10.991-20.901-18.154-35.481-18.154h-40.256c-14.197 0-25.748 11.55-25.748 25.747 0 3.17-2.578 5.748-5.747 5.748h-.743c-15.465 0-28.046 12.581-28.046 28.046s12.581 28.046 28.046 28.046h72.494c8.77 0 16.935-2.608 23.792-7.066v1.363c0 34.113-24.552 62.583-56.91 68.712 2.434-7.185 3.726-14.822 3.726-22.665v-10.411c0-5.522-4.477-10-10-10-5.522 0-10 4.478-10 10v10.411c0 17.192-8.629 33.015-23.083 42.326-2.857 1.841-4.584 5.007-4.584 8.406v61.5c0 1.968.581 3.893 1.669 5.531l3.521 5.302h-26.232v-70.333c0-2.741-1.125-5.362-3.113-7.25-6.496-6.171-10.222-14.849-10.222-23.809v-28.252c0-5.522-4.477-10-10-10-5.522 0-10 4.478-10 10v28.252c0 .818.02 1.634.058 2.448h-101.787c1.928-5.986 2.949-12.331 2.949-18.849v-18.352c0-5.522-4.478-10-10-10s-10 4.478-10 10v18.352c0 15.459-8.53 29.475-22.261 36.577-3.321 1.717-5.406 5.143-5.406 8.882v56.5c0 1.647.407 3.269 1.185 4.721l5.951 11.112h-31.18v-70.333c0-.953-.136-1.9-.404-2.815l-7.067-24.091c11.125-11.292 17.406-26.457 17.406-42.494 0-33.172-26.794-60.19-59.875-60.581l-.008-6c-.023-19.282 7.47-37.415 21.097-51.059 5.412-5.419 11.543-9.853 18.165-13.251v26.624c0 14.337 11.663 26 26 26 3.444 0 6.48 2.073 7.734 5.281 6.339 16.231 21.695 26.719 39.121 26.719h54.145c14.337 0 26-11.663 26-26 0-3.309 2.692-6 6.001-6 16.542 0 29.999-13.458 29.999-30v-30.529h87.528c19.164 0 36.756-10.458 45.91-27.292 5.086-9.35 14.855-15.157 25.497-15.157 6.964 0 13.7 2.507 18.971 7.059 19.133 16.523 40.166 30.892 62.513 42.703 2.048 1.082 3.319 3.192 3.319 5.508z"/><path id="XMLID_833_" d="m424 136.936c-2.63 0-5.21 1.07-7.07 2.93s-2.93 4.441-2.93 7.08c0 2.63 1.069 5.21 2.93 7.07 1.86 1.86 4.44 2.92 7.07 2.92s5.21-1.059 7.069-2.92c1.86-1.87 2.931-4.44 2.931-7.07 0-2.64-1.07-5.21-2.931-7.08-1.859-1.859-4.439-2.93-7.069-2.93z"/><path id="XMLID_835_" d="m153.76 149.217c2.63 0 5.21-1.07 7.07-2.93 1.859-1.86 2.93-4.44 2.93-7.07 0-2.641-1.07-5.22-2.93-7.08s-4.441-2.92-7.07-2.92c-2.63 0-5.21 1.06-7.07 2.92-1.859 1.87-2.93 4.439-2.93 7.08 0 2.63 1.07 5.21 2.93 7.07 1.86 1.859 4.44 2.93 7.07 2.93z"/></g></g></svg>