<svg id="Layer_1" data-name="Layer 1" xmlns="http://www.w3.org/2000/svg" xmlns:xlink="http://www.w3.org/1999/xlink" viewBox="0 0 104.35 104.35"><defs><style>.cls-1{fill:url(#Degradado_sin_nombre_2);}.cls-2{fill:url(#Degradado_sin_nombre_5);}.cls-3{fill:url(#Degradado_sin_nombre_4);}.cls-4{fill:url(#Degradado_sin_nombre_3);}.cls-5{fill:#025546;}</style><linearGradient id="Degradado_sin_nombre_2" x1="862.8" y1="-109.44" x2="946.14" y2="-163.26" gradientTransform="translate(-860.65 -29.48) rotate(12.19)" gradientUnits="userSpaceOnUse"><stop offset="0" stop-color="#f5ea14"/><stop offset="0.88" stop-color="#ee3f6b"/></linearGradient><linearGradient id="Degradado_sin_nombre_5" x1="870.14" y1="-121.06" x2="966.93" y2="-121.06" gradientTransform="translate(-860.65 -29.48) rotate(12.19)" gradientUnits="userSpaceOnUse"><stop offset="0" stop-color="#f5ea14"/><stop offset="1" stop-color="#ef5179"/></linearGradient><linearGradient id="Degradado_sin_nombre_4" x1="882.96" y1="-66.32" x2="934.26" y2="-117.63" gradientTransform="translate(-860.65 -29.48) rotate(12.19)" gradientUnits="userSpaceOnUse"><stop offset="0" stop-color="#ee3c68"/><stop offset="1" stop-color="#8e2788"/></linearGradient><linearGradient id="Degradado_sin_nombre_3" x1="879.7" y1="-79.97" x2="941" y2="-141.27" gradientTransform="translate(-860.65 -29.48) rotate(12.19)" gradientUnits="userSpaceOnUse"><stop offset="0" stop-color="#ef5a80"/><stop offset="1" stop-color="#9d2f91"/></linearGradient></defs><path class="cls-1" d="M19,49.72c8.9,5.15,18.69,5,28.67.72,6.3-2.66,12-6.41,17.72-10.18s12-7.21,18.83-7.39a21.55,21.55,0,0,1,13.89,4.68,47.51,47.51,0,0,0-89.67-2.1C10.53,44.9,19,49.72,19,49.72Z"/><path class="cls-2" d="M17.81,53.1c8.86,5.65,18.86,5.89,29.25,2,6.54-2.44,12.55-6,18.54-9.6s12.57-6.81,19.55-6.7A22,22,0,0,1,99.86,44.9a48,48,0,0,0-1.75-7.35,21.55,21.55,0,0,0-13.89-4.68c-6.84.18-13.13,3.62-18.83,7.39S54,47.78,47.67,50.44c-10,4.23-19.77,4.43-28.67-.72,0,0-8.47-4.82-10.56-14.27-.29.77-.56,1.54-.81,2.33C9.23,47.69,17.81,53.1,17.81,53.1Z"/><path class="cls-3" d="M82.19,66.84c-5.44.08-10.67,2.06-15.61,4.35s-9.73,5-14.94,6.55A39,39,0,0,1,5.86,58.88a47.52,47.52,0,0,0,90,13.65C92.63,68.62,87.29,66.77,82.19,66.84Z"/><path class="cls-4" d="M99.86,44.9a22,22,0,0,0-14.71-6.08c-7-.11-13.56,3.11-19.55,6.7s-12,7.16-18.54,9.6c-10.39,3.87-20.39,3.63-29.25-2,0,0-8.58-5.41-10.18-15.32-.45,1.42-.84,2.87-1.16,4.36a47.38,47.38,0,0,0-.61,16.74A39,39,0,0,0,51.64,77.74c5.21-1.6,10-4.25,14.94-6.55s10.17-4.27,15.61-4.35c5.1-.07,10.44,1.78,13.64,5.69a47.36,47.36,0,0,0,4-27.63Z"/><path class="cls-5" d="M68.76,25.18c-.46,0-1,0-1.14.59s.17.87.52,1.2a6.29,6.29,0,0,0,10.21-3c.15-.62.34-1.3-.43-1.57s-1,.41-1.19,1a4.28,4.28,0,0,1-2.85,3.08A4.33,4.33,0,0,1,68.76,25.18Z"/><path class="cls-5" d="M31.56,35.66c-.46,0-.95,0-1.14.59s.16.87.51,1.2a6.3,6.3,0,0,0,10.22-3c.15-.61.34-1.3-.44-1.56s-1,.41-1.19,1A4.28,4.28,0,0,1,36.67,37,4.3,4.3,0,0,1,31.56,35.66Z"/></svg>