<svg xmlns="http://www.w3.org/2000/svg" xmlns:xlink="http://www.w3.org/1999/xlink" viewBox="0 0 90 90">
  <defs>
    <linearGradient id="a" x1="119.61" y1="114.47" x2="-21.89" y2="-17.28" gradientUnits="userSpaceOnUse">
      <stop offset="0" stop-color="#e9bd8a"/>
      <stop offset="0.47" stop-color="#b3caad"/>
      <stop offset="1" stop-color="#4c9f87"/>
    </linearGradient>
  </defs>
  <title>NalisRoundIcon</title>
  <g style="isolation: isolate">
    <g>
      <circle cx="45" cy="45" r="45" style="mix-blend-mode: darken;fill: url(#a)"/>
      <g>
        <path d="M88.92,35.22c0-.19-.09-.39-.13-.58C33,49.78,36.56,76.39,36.56,76.39c17.89-22,28.35-26.55,28.35-26.55C43,67.73,33.85,84.7,32.15,88.13c.84.25,1.69.47,2.56.67,2.38-4.91,4.55-8.92,4.55-8.92s9.12,2.24,21.15-14.18A214.08,214.08,0,0,1,88.92,35.22Z" style="fill: #fff"/>
        <path d="M32,88.09c6-23-9.64-58.73-9.64-58.73C34.57,50,34.88,64.69,34.88,64.69,45.73,45.53,25.7,23,14.13,12.28a44.27,44.27,0,0,0-3.34,3.51,150.74,150.74,0,0,1,8.45,35c.67,7.53,7,14.73,11.25,16.31a109.65,109.65,0,0,1-.72,20.3C30.51,87.62,31.25,87.86,32,88.09Z" style="fill: #fff"/>
      </g>
    </g>
  </g>
</svg>
