<?xml version="1.0" standalone="no"?>
<!DOCTYPE svg PUBLIC "-//W3C//DTD SVG 20010904//EN"
 "http://www.w3.org/TR/2001/REC-SVG-20010904/DTD/svg10.dtd">
<svg version="1.0" xmlns="http://www.w3.org/2000/svg"
 width="4268.000000pt" height="4268.000000pt" viewBox="0 0 4268.000000 4268.000000"
 preserveAspectRatio="xMidYMid meet">

<g transform="translate(0.000000,4268.000000) scale(0.100000,-0.100000)"
fill="#000000" stroke="none">
<path d="M12915 28043 c-642 -38 -1229 -150 -1798 -342 -1552 -527 -2855
-1598 -3675 -3021 -809 -1406 -1078 -3070 -756 -4680 207 -1035 667 -2018
1337 -2858 933 -1171 2263 -2010 3717 -2345 975 -226 2009 -231 2977 -16 73
16 137 29 142 29 6 0 6 -12 0 -32 -22 -76 -90 -436 -113 -598 -110 -768 -88
-1566 65 -2315 171 -840 515 -1661 997 -2382 579 -866 1350 -1583 2262 -2105
1685 -964 3756 -1143 5590 -482 1444 520 2683 1533 3472 2839 533 882 837
1806 945 2865 22 222 25 956 5 1175 -28 296 -80 632 -138 892 -14 62 -27 128
-29 148 -7 55 -79 309 -141 499 -523 1596 -1648 2957 -3124 3778 -356 198
-751 372 -1142 501 -282 94 -430 132 -836 213 -886 176 -1875 162 -2766 -42
-60 -14 -110 -23 -112 -21 -2 2 1 19 6 38 46 157 123 630 157 959 25 249 25
938 0 1195 -68 691 -216 1310 -458 1913 -85 213 -273 600 -392 810 -810 1422
-2115 2504 -3663 3035 -542 186 -1173 309 -1774 347 -147 9 -625 11 -755 3z"/>
<path d="M27735 27814 c-1723 -479 -3165 -1597 -4050 -3139 -241 -419 -452
-903 -588 -1351 -55 -178 -108 -376 -103 -381 6 -6 192 43 374 98 433 132 945
352 1342 580 909 520 1692 1250 2267 2114 391 586 672 1194 867 1875 62 216
71 250 59 249 -4 0 -80 -21 -168 -45z"/>
</g>
</svg>
