<svg id="图层_1" data-name="图层 1" xmlns="http://www.w3.org/2000/svg" viewBox="0 0 673.42 673.42"><defs><style>.cls-1{fill:#fff;}.cls-2{fill:#2aa4b9;}.cls-3{fill:#9fd6df;}</style></defs><title>未标题-1</title><circle class="cls-1" cx="336.71" cy="336.71" r="336.71"/><polygon class="cls-2" points="289.82 136.53 102.31 311.92 292.75 248.31 336.67 194.1 289.82 136.53"/><polygon class="cls-2" points="383.56 136.53 571.07 311.92 380.64 248.31 336.71 194.1 383.56 136.53"/><polygon class="cls-2" points="336.67 536.89 102.31 311.92 257.13 349.29 336.67 536.89"/><polygon class="cls-2" points="416.33 349.24 336.67 536.89 571.11 311.92 416.33 349.24"/><polygon class="cls-2" points="336.62 368.45 257.13 349.29 241.23 311.92 336.62 368.45"/><polygon class="cls-2" points="336.62 368.45 416.33 349.29 432.24 311.92 336.62 368.45"/><polygon class="cls-3" points="336.62 266.29 241.23 311.92 336.73 368.45 432.24 311.92 336.62 266.29"/><polygon class="cls-3" points="336.67 194.1 294.43 246.24 336.73 266.29 378.93 246.24 336.67 194.1"/></svg>