<?xml version="1.0" encoding="UTF-8"?>
<svg width="106px" height="107px" viewBox="0 0 106 107" version="1.1" xmlns="http://www.w3.org/2000/svg" xmlns:xlink="http://www.w3.org/1999/xlink">
    <title>编组 14备份</title>
    <g id="Stable" stroke="none" stroke-width="1" fill="none" fill-rule="evenodd">
        <g id="形状结合备份-2" transform="translate(0.000000, 1.000000)">
            <g id="编组-8" transform="translate(31.000000, 15.000000)">
                <path d="M27.0794667,4.57967836 L27.0788889,16.6988889 L27.0788889,16.6988889 L40.4073714,16.6991186 C43.0205295,16.6991637 45.1388889,18.8175595 45.1388889,21.4307177 C45.1388889,24.0438626 43.0205163,26.1622352 40.4073714,26.1622352 L13.1652047,26.1622352 L13.1652047,26.1622352 C11.2031404,26.1622352 9.6125731,27.7510146 9.6125731,29.7108733 C9.6125731,31.6075108 11.1021783,33.1566234 12.9765281,33.2545926 L13.1652047,33.2595115 L32.1125731,33.2595115 C39.3068087,33.2595115 45.1388889,39.085036 45.1388889,46.2711846 C45.1388889,53.354674 39.4722493,59.1161365 32.4200505,59.2793041 L32.1125731,59.2828578 L27.0788889,59.2818889 L27.0794704,71.6980994 C27.0795852,74.1505649 25.0915623,76.138774 22.6390969,76.1388889 C22.6390275,76.1388889 22.6389582,76.1388889 22.6388889,76.1388889 C20.1862996,76.1388889 18.1980746,74.1506887 18.198044,71.6980994 L18.1978889,59.2818889 L18.1978889,59.2818889 L4.87040639,59.2826039 C2.25740162,59.2827441 0.139029084,57.1645989 0.138888896,54.5515941 C0.138888891,54.5515095 0.138888889,54.5514249 0.138888889,54.5513403 C0.138888889,51.9381953 2.25726143,49.8198227 4.8704064,49.8198227 L32.1125731,49.8198227 L32.1125731,49.8198227 L32.3012496,49.8149038 C34.1755995,49.7169347 35.6652047,48.1678221 35.6652047,46.2711846 C35.6652047,44.3745471 34.1755995,42.8254345 32.3012496,42.7274654 L32.1125731,42.7225465 L13.1652047,42.7225465 C5.97096912,42.7225465 0.138888889,36.897022 0.138888889,29.7108733 C0.138888889,22.5247247 5.97096912,16.6992002 13.1652047,16.6992002 L18.1978889,16.6988889 L18.198043,4.57967836 C18.1980741,2.12708893 20.1862995,0.138888889 22.6388889,0.138888889 C25.0913523,0.138888889 27.0794667,2.12700328 27.0794667,4.57946666 C27.0794667,4.57953723 27.0794667,4.57960779 27.0794667,4.57967836 Z" id="路径" fill="#84C9AB"></path>
                <path d="M27.2183555,4.71856725 L27.2177778,16.8377778 L27.2177778,16.8377778 L40.5462603,16.8380075 C43.1594184,16.8380525 45.2777778,18.9564484 45.2777778,21.5696066 C45.2777778,24.1827515 43.1594052,26.3011241 40.5462603,26.3011241 L13.3040936,26.3011241 L13.3040936,26.3011241 C11.3420293,26.3011241 9.75146199,27.8899035 9.75146199,29.8497622 C9.75146199,31.7463997 11.2410672,33.2955123 13.115417,33.3934815 L13.3040936,33.3984003 L32.251462,33.3984003 C39.4456975,33.3984003 45.2777778,39.2239248 45.2777778,46.4100735 C45.2777778,53.4935629 39.6111382,59.2550254 32.5589394,59.418193 L32.251462,59.4217466 L27.2177778,59.4207778 L27.2183593,71.8369883 C27.2184741,74.2894537 25.2304512,76.2776629 22.7779857,76.2777778 C22.7779164,76.2777778 22.7778471,76.2777778 22.7777778,76.2777778 C20.3251885,76.2777778 18.3369635,74.2895776 18.3369328,71.8369883 L18.3367778,59.4207778 L18.3367778,59.4207778 L5.00929528,59.4214928 C2.39629051,59.421633 0.277917973,57.3034877 0.277777785,54.690483 C0.27777778,54.6903984 0.277777778,54.6903138 0.277777778,54.6902291 C0.277777778,52.0770842 2.39615032,49.9587116 5.00929529,49.9587116 L32.251462,49.9587116 L32.251462,49.9587116 L32.4401385,49.9537927 C34.3144884,49.8558236 35.8040936,48.306711 35.8040936,46.4100735 C35.8040936,44.513436 34.3144884,42.9643234 32.4401385,42.8663543 L32.251462,42.8614354 L13.3040936,42.8614354 C6.10985801,42.8614354 0.277777778,37.0359109 0.277777778,29.8497622 C0.277777778,22.6636136 6.10985801,16.8380891 13.3040936,16.8380891 L18.3367778,16.8377778 L18.3369318,4.71856725 C18.336963,2.26597782 20.3251883,0.277777778 22.7777778,0.277777778 C25.2302412,0.277777778 27.2183555,2.26589217 27.2183555,4.71835555 C27.2183555,4.71842611 27.2183555,4.71849668 27.2183555,4.71856725 Z" id="路径" fill="#84C9AB"></path>
                <path d="M27.3572444,4.85745614 L27.3566667,16.9766667 L27.3566667,16.9766667 L40.6851492,16.9768964 C43.2983073,16.9769414 45.4166667,19.0953373 45.4166667,21.7084955 C45.4166667,24.3216404 43.2982941,26.440013 40.6851492,26.440013 L13.4429825,26.440013 L13.4429825,26.440013 C11.4809182,26.440013 9.89035088,28.0287924 9.89035088,29.9886511 C9.89035088,31.8852886 11.3799561,33.4344012 13.2543059,33.5323703 L13.4429825,33.5372892 L32.3903509,33.5372892 C39.5845864,33.5372892 45.4166667,39.3628137 45.4166667,46.5489624 C45.4166667,53.6324518 39.7500271,59.3939143 32.6978283,59.5570819 L32.3903509,59.5606355 L27.3566667,59.5596667 L27.3572482,71.9758772 C27.357363,74.4283426 25.3693401,76.4165518 22.9168746,76.4166667 C22.9168053,76.4166667 22.916736,76.4166667 22.9166667,76.4166667 C20.4640774,76.4166667 18.4758524,74.4284665 18.4758217,71.9758772 L18.4756667,59.5596667 L18.4756667,59.5596667 L5.14818417,59.5603817 C2.5351794,59.5605219 0.416806862,57.4423766 0.416666673,54.8293719 C0.416666669,54.8292873 0.416666667,54.8292026 0.416666667,54.829118 C0.416666667,52.2159731 2.53503921,50.0976005 5.14818418,50.0976005 L32.3903509,50.0976005 L32.3903509,50.0976005 L32.5790274,50.0926816 C34.4533773,49.9947125 35.9429825,48.4455999 35.9429825,46.5489624 C35.9429825,44.6523249 34.4533773,43.1032123 32.5790274,43.0052431 L32.3903509,43.0003243 L13.4429825,43.0003243 C6.2487469,43.0003243 0.416666667,37.1747998 0.416666667,29.9886511 C0.416666667,22.8025025 6.2487469,16.976978 13.4429825,16.976978 L18.4756667,16.9766667 L18.4758207,4.85745614 C18.4758519,2.4048667 20.4640772,0.416666667 22.9166667,0.416666667 C25.36913,0.416666667 27.3572444,2.40478105 27.3572444,4.85724444 C27.3572444,4.857315 27.3572444,4.85738557 27.3572444,4.85745614 Z" id="路径" fill="#84C9AB"></path>
                <path d="M27.4961333,4.99634502 L27.4955556,17.1155556 L27.4955556,17.1155556 L40.824038,17.1157853 C43.4371962,17.1158303 45.5555556,19.2342262 45.5555556,21.8473843 C45.5555556,24.4605293 43.437183,26.5789019 40.824038,26.5789019 L13.5818713,26.5789019 L13.5818713,26.5789019 C11.6198071,26.5789019 10.0292398,28.1676813 10.0292398,30.12754 C10.0292398,32.0241775 11.518845,33.5732901 13.3931948,33.6712592 L13.5818713,33.6761781 L32.5292398,33.6761781 C39.7234753,33.6761781 45.5555556,39.5017026 45.5555556,46.6878513 C45.5555556,53.7713407 39.888916,59.5328032 32.8367171,59.6959708 L32.5292398,59.6995244 L27.4955556,59.6985556 L27.4961371,72.1147661 C27.4962519,74.5672315 25.508229,76.5554407 23.0557635,76.5555556 C23.0556942,76.5555556 23.0556249,76.5555556 23.0555556,76.5555556 C20.6029663,76.5555556 18.6147413,74.5673554 18.6147106,72.1147661 L18.6145556,59.6985556 L18.6145556,59.6985556 L5.28707306,59.6992706 C2.67406829,59.6994108 0.555695751,57.5812655 0.555555562,54.9682608 C0.555555558,54.9681761 0.555555556,54.9680915 0.555555556,54.9680069 C0.555555556,52.354862 2.6739281,50.2364894 5.28707307,50.2364894 L32.5292398,50.2364894 L32.5292398,50.2364894 L32.7179163,50.2315705 C34.5922661,50.1336014 36.0818713,48.5844887 36.0818713,46.6878513 C36.0818713,44.7912138 34.5922661,43.2421012 32.7179163,43.144132 L32.5292398,43.1392131 L13.5818713,43.1392131 C6.38763579,43.1392131 0.555555556,37.3136886 0.555555556,30.12754 C0.555555556,22.9413913 6.38763579,17.1158668 13.5818713,17.1158668 L18.6145556,17.1155556 L18.6147096,4.99634503 C18.6147408,2.54375559 20.6029661,0.555555556 23.0555556,0.555555556 C25.5080189,0.555555556 27.4961333,2.54366994 27.4961333,4.99613333 C27.4961333,4.99620389 27.4961333,4.99627446 27.4961333,4.99634502 Z" id="路径" fill="#84C9AB"></path>
                <path d="M27.6350222,5.13523391 L27.6344444,17.2544444 L27.6344444,17.2544444 L40.9629269,17.2546742 C43.5760851,17.2547192 45.6944444,19.3731151 45.6944444,21.9862732 C45.6944444,24.5994182 43.5760719,26.7177907 40.9629269,26.7177907 L13.7207602,26.7177907 L13.7207602,26.7177907 C11.758696,26.7177907 10.1681287,28.3065702 10.1681287,30.2664289 C10.1681287,32.1630664 11.6577339,33.712179 13.5320837,33.8101481 L13.7207602,33.815067 L32.6681287,33.815067 C39.8623642,33.815067 45.6944444,39.6405915 45.6944444,46.8267402 C45.6944444,53.9102295 40.0278049,59.6716921 32.975606,59.8348597 L32.6681287,59.8384133 L27.6344444,59.8374444 L27.6350259,72.253655 C27.6351408,74.7061204 25.6471179,76.6943296 23.1946524,76.6944444 C23.1945831,76.6944444 23.1945138,76.6944444 23.1944444,76.6944444 C20.7418552,76.6944444 18.7536301,74.7062442 18.7535995,72.253655 L18.7534444,59.8374444 L18.7534444,59.8374444 L5.42596195,59.8381595 C2.81295718,59.8382997 0.69458464,57.7201544 0.694444451,55.1071496 C0.694444447,55.107065 0.694444444,55.1069804 0.694444444,55.1068958 C0.694444444,52.4937508 2.81281699,50.3753783 5.42596195,50.3753783 L32.6681287,50.3753783 L32.6681287,50.3753783 L32.8568052,50.3704594 C34.731155,50.2724903 36.2207602,48.7233776 36.2207602,46.8267402 C36.2207602,44.9301027 34.731155,43.3809901 32.8568052,43.2830209 L32.6681287,43.278102 L13.7207602,43.278102 C6.52652468,43.278102 0.694444444,37.4525775 0.694444444,30.2664289 C0.694444444,23.0802802 6.52652468,17.2547557 13.7207602,17.2547557 L18.7534444,17.2544444 L18.7535985,5.13523392 C18.7536297,2.68264448 20.741855,0.694444444 23.1944444,0.694444444 C25.6469078,0.694444444 27.6350222,2.68255883 27.6350222,5.13502222 C27.6350222,5.13509278 27.6350222,5.13516335 27.6350222,5.13523391 Z" id="路径" fill="#84C9AB"></path>
                <path d="M27.7739111,5.2741228 L27.7733333,17.3933333 L27.7733333,17.3933333 L41.1018158,17.3935631 C43.714974,17.3936081 45.8333333,19.512004 45.8333333,22.1251621 C45.8333333,24.7383071 43.7149608,26.8566796 41.1018158,26.8566796 L13.8596491,26.8566796 L13.8596491,26.8566796 C11.8975849,26.8566796 10.3070175,28.445459 10.3070175,30.4053178 C10.3070175,32.3019552 11.7966227,33.8510679 13.6709726,33.949037 L13.8596491,33.9539559 L32.8070175,33.9539559 C40.0012531,33.9539559 45.8333333,39.7794804 45.8333333,46.9656291 C45.8333333,54.0491184 40.1666937,59.810581 33.1144949,59.9737486 L32.8070175,59.9773022 L27.7733333,59.9763333 L27.7739148,72.3925439 C27.7740297,74.8450093 25.7860067,76.8332185 23.3335413,76.8333333 C23.333472,76.8333333 23.3334027,76.8333333 23.3333333,76.8333333 C20.8807441,76.8333333 18.892519,74.8451331 18.8924884,72.3925439 L18.8923333,59.9763333 L18.8923333,59.9763333 L5.56485084,59.9770484 C2.95184607,59.9771885 0.833473529,57.8590433 0.83333334,55.2460385 C0.833333336,55.2459539 0.833333333,55.2458693 0.833333333,55.2457847 C0.833333333,52.6326397 2.95170588,50.5142672 5.56485084,50.5142672 L32.8070175,50.5142672 L32.8070175,50.5142672 L32.9956941,50.5093483 C34.8700439,50.4113791 36.3596491,48.8622665 36.3596491,46.9656291 C36.3596491,45.0689916 34.8700439,43.519879 32.9956941,43.4219098 L32.8070175,43.4169909 L13.8596491,43.4169909 C6.66541357,43.4169909 0.833333333,37.5914664 0.833333333,30.4053178 C0.833333333,23.2191691 6.66541357,17.3936446 13.8596491,17.3936446 L18.8923333,17.3933333 L18.8924874,5.27412281 C18.8925186,2.82153337 20.8807439,0.833333333 23.3333333,0.833333333 C25.7857967,0.833333333 27.7739111,2.82144772 27.7739111,5.2739111 C27.7739111,5.27398167 27.7739111,5.27405224 27.7739111,5.2741228 Z" id="路径" fill="#84C9AB"></path>
                <path d="M27.9128,5.41301169 L27.9122222,17.5322222 L27.9122222,17.5322222 L41.2407047,17.532452 C43.8538629,17.532497 45.9722222,19.6508929 45.9722222,22.264051 C45.9722222,24.877196 43.8538497,26.9955685 41.2407047,26.9955685 L13.998538,26.9955685 L13.998538,26.9955685 C12.0364738,26.9955685 10.4459064,28.5843479 10.4459064,30.5442067 C10.4459064,32.4408441 11.9355116,33.9899568 13.8098615,34.0879259 L13.998538,34.0928448 L32.9459064,34.0928448 C40.140142,34.0928448 45.9722222,39.9183693 45.9722222,47.1045179 C45.9722222,54.1880073 40.3055826,59.9494699 33.2533838,60.1126375 L32.9459064,60.1161911 L27.9122222,60.1152222 L27.9128037,72.5314328 C27.9129186,74.9838982 25.9248956,76.9721074 23.4724302,76.9722222 C23.4723609,76.9722222 23.4722915,76.9722222 23.4722222,76.9722222 C21.0196329,76.9722222 19.0314079,74.984022 19.0313773,72.5314327 L19.0312222,60.1152222 L19.0312222,60.1152222 L5.70373973,60.1159372 C3.09073496,60.1160774 0.972362418,57.9979322 0.972222229,55.3849274 C0.972222224,55.3848428 0.972222222,55.3847582 0.972222222,55.3846736 C0.972222222,52.7715286 3.09059477,50.6531561 5.70373973,50.6531561 L32.9459064,50.6531561 L32.9459064,50.6531561 L33.134583,50.6482372 C35.0089328,50.550268 36.498538,49.0011554 36.498538,47.1045179 C36.498538,45.2078805 35.0089328,43.6587678 33.134583,43.5607987 L32.9459064,43.5558798 L13.998538,43.5558798 C6.80430246,43.5558798 0.972222222,37.7303553 0.972222222,30.5442067 C0.972222222,23.358058 6.80430246,17.5325335 13.998538,17.5325335 L19.0312222,17.5322222 L19.0313763,5.4130117 C19.0314075,2.96042226 21.0196328,0.972222222 23.4722222,0.972222222 C25.9246856,0.972222222 27.9128,2.96033661 27.9128,5.41279999 C27.9128,5.41287056 27.9128,5.41294112 27.9128,5.41301169 Z" id="路径" fill="#84C9AB"></path>
                <path d="M28.0516889,5.55190058 L28.0511111,17.6711111 L28.0511111,17.6711111 L41.3795936,17.6713408 C43.9927518,17.6713859 46.1111111,19.7897817 46.1111111,22.4029399 C46.1111111,25.0160849 43.9927386,27.1344574 41.3795936,27.1344574 L14.1374269,27.1344574 L14.1374269,27.1344574 C12.1753627,27.1344574 10.5847953,28.7232368 10.5847953,30.6830955 C10.5847953,32.579733 12.0744005,34.1288456 13.9487504,34.2268148 L14.1374269,34.2317337 L33.0847953,34.2317337 C40.2790309,34.2317337 46.1111111,40.0572582 46.1111111,47.2434068 C46.1111111,54.3268962 40.4444715,60.0883587 33.3922727,60.2515264 L33.0847953,60.25508 L28.0511111,60.2541111 L28.0516926,72.6703216 C28.0518075,75.1227871 26.0637845,77.1109962 23.6113191,77.1111111 C23.6112498,77.1111111 23.6111804,77.1111111 23.6111111,77.1111111 C21.1585218,77.1111111 19.1702968,75.1229109 19.1702662,72.6703216 L19.1701111,60.2541111 L19.1701111,60.2541111 L5.84262861,60.2548261 C3.22962385,60.2549663 1.11125131,58.1368211 1.11111112,55.5238163 C1.11111111,55.5237317 1.11111111,55.5236471 1.11111111,55.5235625 C1.11111111,52.9104175 3.22948366,50.792045 5.84262862,50.792045 L33.0847953,50.792045 L33.0847953,50.792045 L33.2734719,50.7871261 C35.1478217,50.6891569 36.6374269,49.1400443 36.6374269,47.2434068 C36.6374269,45.3467694 35.1478217,43.7976567 33.2734719,43.6996876 L33.0847953,43.6947687 L14.1374269,43.6947687 C6.94319134,43.6947687 1.11111111,37.8692442 1.11111111,30.6830955 C1.11111111,23.4969469 6.94319134,17.6714224 14.1374269,17.6714224 L19.1701111,17.6711111 L19.1702652,5.55190058 C19.1702964,3.09931115 21.1585217,1.11111111 23.6111111,1.11111111 C26.0635745,1.11111111 28.0516889,3.0992255 28.0516889,5.55168888 C28.0516889,5.55175945 28.0516889,5.55183001 28.0516889,5.55190058 Z" id="路径" fill="#84C9AB"></path>
                <path d="M28.1905778,5.69078947 L28.19,17.81 L28.19,17.81 L41.5184825,17.8102297 C44.1316406,17.8102748 46.25,19.9286706 46.25,22.5418288 C46.25,25.1549738 44.1316275,27.2733463 41.5184825,27.2733463 L14.2763158,27.2733463 L14.2763158,27.2733463 C12.3142515,27.2733463 10.7236842,28.8621257 10.7236842,30.8219844 C10.7236842,32.7186219 12.2132894,34.2677345 14.0876392,34.3657037 L14.2763158,34.3706226 L33.2236842,34.3706226 C40.4179198,34.3706226 46.25,40.1961471 46.25,47.3822957 C46.25,54.4657851 40.5833604,60.2272476 33.5311616,60.3904152 L33.2236842,60.3939689 L28.19,60.393 L28.1905815,72.8092105 C28.1906964,75.261676 26.2026734,77.2498851 23.750208,77.25 C23.7501386,77.25 23.7500693,77.25 23.75,77.25 C21.2974107,77.25 19.3091857,75.2617998 19.3091551,72.8092105 L19.309,60.393 L19.309,60.393 L5.9815175,60.393715 C3.36851273,60.3938552 1.2501402,58.27571 1.25000001,55.6627052 C1.25,55.6626206 1.25,55.662536 1.25,55.6624514 C1.25,53.0493064 3.36837255,50.9309339 5.98151751,50.9309339 L33.2236842,50.9309339 L33.2236842,50.9309339 L33.4123608,50.926015 C35.2867106,50.8280458 36.7763158,49.2789332 36.7763158,47.3822957 C36.7763158,45.4856582 35.2867106,43.9365456 33.4123608,43.8385765 L33.2236842,43.8336576 L14.2763158,43.8336576 C7.08208023,43.8336576 1.25,38.0081331 1.25,30.8219844 C1.25,23.6358358 7.08208023,17.8103113 14.2763158,17.8103113 L19.309,17.81 L19.3091541,5.69078947 C19.3091853,3.23820004 21.2974106,1.25 23.75,1.25 C26.2024634,1.25 28.1905778,3.23811439 28.1905778,5.69057777 C28.1905778,5.69064834 28.1905778,5.6907189 28.1905778,5.69078947 Z" id="路径" fill="#84C9AB"></path>
                <path d="M28.3294667,5.82967836 L28.3288889,17.9488889 L28.3288889,17.9488889 L41.6573714,17.9491186 C44.2705295,17.9491637 46.3888889,20.0675595 46.3888889,22.6807177 C46.3888889,25.2938626 44.2705163,27.4122352 41.6573714,27.4122352 L14.4152047,27.4122352 L14.4152047,27.4122352 C12.4531404,27.4122352 10.8625731,29.0010146 10.8625731,30.9608733 C10.8625731,32.8575108 12.3521783,34.4066234 14.2265281,34.5045926 L14.4152047,34.5095115 L33.3625731,34.5095115 C40.5568087,34.5095115 46.3888889,40.335036 46.3888889,47.5211846 C46.3888889,54.604674 40.7222493,60.3661365 33.6700505,60.5293041 L33.3625731,60.5328578 L28.3288889,60.5318889 L28.3294704,72.9480994 C28.3295852,75.4005649 26.3415623,77.388774 23.8890969,77.3888889 C23.8890275,77.3888889 23.8889582,77.3888889 23.8888889,77.3888889 C21.4362996,77.3888889 19.4480746,75.4006887 19.448044,72.9480994 L19.4478889,60.5318889 L19.4478889,60.5318889 L6.12040639,60.5326039 C3.50740162,60.5327441 1.38902908,58.4145989 1.3888889,55.8015941 C1.38888889,55.8015095 1.38888889,55.8014249 1.38888889,55.8013403 C1.38888889,53.1881953 3.50726143,51.0698227 6.1204064,51.0698227 L33.3625731,51.0698227 L33.3625731,51.0698227 L33.5512496,51.0649038 C35.4255995,50.9669347 36.9152047,49.4178221 36.9152047,47.5211846 C36.9152047,45.6245471 35.4255995,44.0754345 33.5512496,43.9774654 L33.3625731,43.9725465 L14.4152047,43.9725465 C7.22096912,43.9725465 1.38888889,38.147022 1.38888889,30.9608733 C1.38888889,23.7747247 7.22096912,17.9492002 14.4152047,17.9492002 L19.4478889,17.9488889 L19.448043,5.82967836 C19.4480741,3.37708893 21.4362995,1.38888889 23.8888889,1.38888889 C26.3413523,1.38888889 28.3294667,3.37700328 28.3294667,5.82946666 C28.3294667,5.82953723 28.3294667,5.82960779 28.3294667,5.82967836 Z" id="路径" fill="#84C9AB"></path>
                <path d="M28.4683555,5.96856725 L28.4677778,18.0877778 L28.4677778,18.0877778 L41.7962603,18.0880075 C44.4094184,18.0880525 46.5277778,20.2064484 46.5277778,22.8196066 C46.5277778,25.4327515 44.4094052,27.5511241 41.7962603,27.5511241 L14.5540936,27.5511241 L14.5540936,27.5511241 C12.5920293,27.5511241 11.001462,29.1399035 11.001462,31.0997622 C11.001462,32.9963997 12.4910672,34.5455123 14.365417,34.6434815 L14.5540936,34.6484003 L33.501462,34.6484003 C40.6956975,34.6484003 46.5277778,40.4739248 46.5277778,47.6600735 C46.5277778,54.7435629 40.8611382,60.5050254 33.8089394,60.668193 L33.501462,60.6717466 L28.4677778,60.6707778 L28.4683593,73.0869883 C28.4684741,75.5394537 26.4804512,77.5276629 24.0279857,77.5277778 C24.0279164,77.5277778 24.0278471,77.5277778 24.0277778,77.5277778 C21.5751885,77.5277778 19.5869635,75.5395776 19.5869328,73.0869883 L19.5867778,60.6707778 L19.5867778,60.6707778 L6.25929528,60.6714928 C3.64629051,60.671633 1.52791797,58.5534877 1.52777778,55.940483 C1.52777778,55.9403984 1.52777778,55.9403138 1.52777778,55.9402291 C1.52777778,53.3270842 3.64615032,51.2087116 6.25929529,51.2087116 L33.501462,51.2087116 L33.501462,51.2087116 L33.6901385,51.2037927 C35.5644884,51.1058236 37.0540936,49.556711 37.0540936,47.6600735 C37.0540936,45.763436 35.5644884,44.2143234 33.6901385,44.1163543 L33.501462,44.1114354 L14.5540936,44.1114354 C7.35985801,44.1114354 1.52777778,38.2859109 1.52777778,31.0997622 C1.52777778,23.9136136 7.35985801,18.0880891 14.5540936,18.0880891 L19.5867778,18.0877778 L19.5869318,5.96856725 C19.586963,3.51597782 21.5751883,1.52777778 24.0277778,1.52777778 C26.4802412,1.52777778 28.4683555,3.51589217 28.4683555,5.96835555 C28.4683555,5.96842611 28.4683555,5.96849668 28.4683555,5.96856725 Z" id="路径" fill="#84C9AB"></path>
                <path d="M28.6072444,6.10745614 L28.6066667,18.2266667 L28.6066667,18.2266667 L41.9351492,18.2268964 C44.5483073,18.2269414 46.6666667,20.3453373 46.6666667,22.9584955 C46.6666667,25.5716404 44.5482941,27.690013 41.9351492,27.690013 L14.6929825,27.690013 L14.6929825,27.690013 C12.7309182,27.690013 11.1403509,29.2787924 11.1403509,31.2386511 C11.1403509,33.1352886 12.6299561,34.6844012 14.5043059,34.7823703 L14.6929825,34.7872892 L33.6403509,34.7872892 C40.8345864,34.7872892 46.6666667,40.6128137 46.6666667,47.7989624 C46.6666667,54.8824518 41.0000271,60.6439143 33.9478283,60.8070819 L33.6403509,60.8106355 L28.6066667,60.8096667 L28.6072482,73.2258772 C28.607363,75.6783426 26.6193401,77.6665518 24.1668746,77.6666667 C24.1668053,77.6666667 24.166736,77.6666667 24.1666667,77.6666667 C21.7140774,77.6666667 19.7258524,75.6784665 19.7258217,73.2258772 L19.7256667,60.8096667 L19.7256667,60.8096667 L6.39818417,60.8103817 C3.7851794,60.8105219 1.66680686,58.6923766 1.66666667,56.0793719 C1.66666667,56.0792873 1.66666667,56.0792026 1.66666667,56.079118 C1.66666667,53.4659731 3.78503921,51.3476005 6.39818418,51.3476005 L33.6403509,51.3476005 L33.6403509,51.3476005 L33.8290274,51.3426816 C35.7033773,51.2447125 37.1929825,49.6955999 37.1929825,47.7989624 C37.1929825,45.9023249 35.7033773,44.3532123 33.8290274,44.2552431 L33.6403509,44.2503243 L14.6929825,44.2503243 C7.4987469,44.2503243 1.66666667,38.4247998 1.66666667,31.2386511 C1.66666667,24.0525025 7.4987469,18.226978 14.6929825,18.226978 L19.7256667,18.2266667 L19.7258207,6.10745614 C19.7258519,3.6548667 21.7140772,1.66666667 24.1666667,1.66666667 C26.61913,1.66666667 28.6072444,3.65478105 28.6072444,6.10724444 C28.6072444,6.107315 28.6072444,6.10738557 28.6072444,6.10745614 Z" id="路径" fill="#84C9AB"></path>
                <path d="M28.7461333,6.24634502 L28.7455556,18.3655556 L28.7455556,18.3655556 L42.074038,18.3657853 C44.6871962,18.3658303 46.8055556,20.4842262 46.8055556,23.0973843 C46.8055556,25.7105293 44.687183,27.8289019 42.074038,27.8289019 L14.8318713,27.8289019 L14.8318713,27.8289019 C12.8698071,27.8289019 11.2792398,29.4176813 11.2792398,31.37754 C11.2792398,33.2741775 12.768845,34.8232901 14.6431948,34.9212592 L14.8318713,34.9261781 L33.7792398,34.9261781 C40.9734753,34.9261781 46.8055556,40.7517026 46.8055556,47.9378513 C46.8055556,55.0213407 41.138916,60.7828032 34.0867171,60.9459708 L33.7792398,60.9495244 L28.7455556,60.9485556 L28.7461371,73.3647661 C28.7462519,75.8172315 26.758229,77.8054407 24.3057635,77.8055556 C24.3056942,77.8055556 24.3056249,77.8055556 24.3055556,77.8055556 C21.8529663,77.8055556 19.8647413,75.8173554 19.8647106,73.3647661 L19.8645556,60.9485556 L19.8645556,60.9485556 L6.53707306,60.9492706 C3.92406829,60.9494108 1.80569575,58.8312655 1.80555556,56.2182608 C1.80555556,56.2181761 1.80555556,56.2180915 1.80555556,56.2180069 C1.80555556,53.604862 3.9239281,51.4864894 6.53707307,51.4864894 L33.7792398,51.4864894 L33.7792398,51.4864894 L33.9679163,51.4815705 C35.8422661,51.3836014 37.3318713,49.8344887 37.3318713,47.9378513 C37.3318713,46.0412138 35.8422661,44.4921012 33.9679163,44.394132 L33.7792398,44.3892131 L14.8318713,44.3892131 C7.63763579,44.3892131 1.80555556,38.5636886 1.80555556,31.37754 C1.80555556,24.1913913 7.63763579,18.3658668 14.8318713,18.3658668 L19.8645556,18.3655556 L19.8647096,6.24634503 C19.8647408,3.79375559 21.8529661,1.80555556 24.3055556,1.80555556 C26.7580189,1.80555556 28.7461333,3.79366994 28.7461333,6.24613333 C28.7461333,6.24620389 28.7461333,6.24627446 28.7461333,6.24634502 Z" id="路径" fill="#84C9AB"></path>
                <path d="M28.8850222,6.38523391 L28.8844444,18.5044444 L28.8844444,18.5044444 L42.2129269,18.5046742 C44.8260851,18.5047192 46.9444444,20.6231151 46.9444444,23.2362732 C46.9444444,25.8494182 44.8260719,27.9677907 42.2129269,27.9677907 L14.9707602,27.9677907 L14.9707602,27.9677907 C13.008696,27.9677907 11.4181287,29.5565702 11.4181287,31.5164289 C11.4181287,33.4130664 12.9077339,34.962179 14.7820837,35.0601481 L14.9707602,35.065067 L33.9181287,35.065067 C41.1123642,35.065067 46.9444444,40.8905915 46.9444444,48.0767402 C46.9444444,55.1602295 41.2778049,60.9216921 34.225606,61.0848597 L33.9181287,61.0884133 L28.8844444,61.0874444 L28.8850259,73.503655 C28.8851408,75.9561204 26.8971179,77.9443296 24.4446524,77.9444444 C24.4445831,77.9444444 24.4445138,77.9444444 24.4444444,77.9444444 C21.9918552,77.9444444 20.0036301,75.9562442 20.0035995,73.503655 L20.0034444,61.0874444 L20.0034444,61.0874444 L6.67596195,61.0881595 C4.06295718,61.0882997 1.94458464,58.9701544 1.94444445,56.3571496 C1.94444445,56.357065 1.94444444,56.3569804 1.94444444,56.3568958 C1.94444444,53.7437508 4.06281699,51.6253783 6.67596195,51.6253783 L33.9181287,51.6253783 L33.9181287,51.6253783 L34.1068052,51.6204594 C35.981155,51.5224903 37.4707602,49.9733776 37.4707602,48.0767402 C37.4707602,46.1801027 35.981155,44.6309901 34.1068052,44.5330209 L33.9181287,44.528102 L14.9707602,44.528102 C7.77652468,44.528102 1.94444444,38.7025775 1.94444444,31.5164289 C1.94444444,24.3302802 7.77652468,18.5047557 14.9707602,18.5047557 L20.0034444,18.5044444 L20.0035985,6.38523392 C20.0036297,3.93264448 21.991855,1.94444444 24.4444444,1.94444444 C26.8969078,1.94444444 28.8850222,3.93255883 28.8850222,6.38502222 C28.8850222,6.38509278 28.8850222,6.38516335 28.8850222,6.38523391 Z" id="路径" fill="#84C9AB"></path>
                <path d="M29.0239111,6.5241228 L29.0233333,18.6433333 L29.0233333,18.6433333 L42.3518158,18.6435631 C44.964974,18.6436081 47.0833333,20.762004 47.0833333,23.3751621 C47.0833333,25.9883071 44.9649608,28.1066796 42.3518158,28.1066796 L15.1096491,28.1066796 L15.1096491,28.1066796 C13.1475849,28.1066796 11.5570175,29.695459 11.5570175,31.6553178 C11.5570175,33.5519552 13.0466227,35.1010679 14.9209726,35.199037 L15.1096491,35.2039559 L34.0570175,35.2039559 C41.2512531,35.2039559 47.0833333,41.0294804 47.0833333,48.2156291 C47.0833333,55.2991184 41.4166937,61.060581 34.3644949,61.2237486 L34.0570175,61.2273022 L29.0233333,61.2263333 L29.0239148,73.6425439 C29.0240297,76.0950093 27.0360067,78.0832185 24.5835413,78.0833333 C24.583472,78.0833333 24.5834027,78.0833333 24.5833333,78.0833333 C22.1307441,78.0833333 20.142519,76.0951331 20.1424884,73.6425439 L20.1423333,61.2263333 L20.1423333,61.2263333 L6.81485084,61.2270484 C4.20184607,61.2271885 2.08347353,59.1090433 2.08333334,56.4960385 C2.08333334,56.4959539 2.08333333,56.4958693 2.08333333,56.4957847 C2.08333333,53.8826397 4.20170588,51.7642672 6.81485084,51.7642672 L34.0570175,51.7642672 L34.0570175,51.7642672 L34.2456941,51.7593483 C36.1200439,51.6613791 37.6096491,50.1122665 37.6096491,48.2156291 C37.6096491,46.3189916 36.1200439,44.769879 34.2456941,44.6719098 L34.0570175,44.6669909 L15.1096491,44.6669909 C7.91541357,44.6669909 2.08333333,38.8414664 2.08333333,31.6553178 C2.08333333,24.4691691 7.91541357,18.6436446 15.1096491,18.6436446 L20.1423333,18.6433333 L20.1424874,6.52412281 C20.1425186,4.07153337 22.1307439,2.08333333 24.5833333,2.08333333 C27.0357967,2.08333333 29.0239111,4.07144772 29.0239111,6.5239111 C29.0239111,6.52398167 29.0239111,6.52405224 29.0239111,6.5241228 Z" id="路径" fill="#84C9AB"></path>
                <path d="M29.1628,6.66301169 L29.1622222,18.7822222 L29.1622222,18.7822222 L42.4907047,18.782452 C45.1038629,18.782497 47.2222222,20.9008929 47.2222222,23.514051 C47.2222222,26.127196 45.1038497,28.2455685 42.4907047,28.2455685 L15.248538,28.2455685 L15.248538,28.2455685 C13.2864738,28.2455685 11.6959064,29.8343479 11.6959064,31.7942067 C11.6959064,33.6908441 13.1855116,35.2399568 15.0598615,35.3379259 L15.248538,35.3428448 L34.1959064,35.3428448 C41.390142,35.3428448 47.2222222,41.1683693 47.2222222,48.3545179 C47.2222222,55.4380073 41.5555826,61.1994699 34.5033838,61.3626375 L34.1959064,61.3661911 L29.1622222,61.3652222 L29.1628037,73.7814328 C29.1629186,76.2338982 27.1748956,78.2221074 24.7224302,78.2222222 C24.7223609,78.2222222 24.7222915,78.2222222 24.7222222,78.2222222 C22.2696329,78.2222222 20.2814079,76.234022 20.2813773,73.7814327 L20.2812222,61.3652222 L20.2812222,61.3652222 L6.95373973,61.3659372 C4.34073496,61.3660774 2.22236242,59.2479322 2.22222223,56.6349274 C2.22222222,56.6348428 2.22222222,56.6347582 2.22222222,56.6346736 C2.22222222,54.0215286 4.34059477,51.9031561 6.95373973,51.9031561 L34.1959064,51.9031561 L34.1959064,51.9031561 L34.384583,51.8982372 C36.2589328,51.800268 37.748538,50.2511554 37.748538,48.3545179 C37.748538,46.4578805 36.2589328,44.9087678 34.384583,44.8107987 L34.1959064,44.8058798 L15.248538,44.8058798 C8.05430246,44.8058798 2.22222222,38.9803553 2.22222222,31.7942067 C2.22222222,24.608058 8.05430246,18.7825335 15.248538,18.7825335 L20.2812222,18.7822222 L20.2813763,6.6630117 C20.2814075,4.21042226 22.2696328,2.22222222 24.7222222,2.22222222 C27.1746856,2.22222222 29.1628,4.21033661 29.1628,6.66279999 C29.1628,6.66287056 29.1628,6.66294112 29.1628,6.66301169 Z" id="路径" fill="#84C9AB"></path>
                <path d="M29.3016889,6.80190058 L29.3011111,18.9211111 L29.3011111,18.9211111 L42.6295936,18.9213408 C45.2427518,18.9213859 47.3611111,21.0397817 47.3611111,23.6529399 C47.3611111,26.2660849 45.2427386,28.3844574 42.6295936,28.3844574 L15.3874269,28.3844574 L15.3874269,28.3844574 C13.4253627,28.3844574 11.8347953,29.9732368 11.8347953,31.9330955 C11.8347953,33.829733 13.3244005,35.3788456 15.1987504,35.4768148 L15.3874269,35.4817337 L34.3347953,35.4817337 C41.5290309,35.4817337 47.3611111,41.3072582 47.3611111,48.4934068 C47.3611111,55.5768962 41.6944715,61.3383587 34.6422727,61.5015264 L34.3347953,61.50508 L29.3011111,61.5041111 L29.3016926,73.9203216 C29.3018075,76.3727871 27.3137845,78.3609962 24.8613191,78.3611111 C24.8612498,78.3611111 24.8611804,78.3611111 24.8611111,78.3611111 C22.4085218,78.3611111 20.4202968,76.3729109 20.4202662,73.9203216 L20.4201111,61.5041111 L20.4201111,61.5041111 L7.09262861,61.5048261 C4.47962385,61.5049663 2.36125131,59.3868211 2.36111112,56.7738163 C2.36111111,56.7737317 2.36111111,56.7736471 2.36111111,56.7735625 C2.36111111,54.1604175 4.47948366,52.042045 7.09262862,52.042045 L34.3347953,52.042045 L34.3347953,52.042045 L34.5234719,52.0371261 C36.3978217,51.9391569 37.8874269,50.3900443 37.8874269,48.4934068 C37.8874269,46.5967694 36.3978217,45.0476567 34.5234719,44.9496876 L34.3347953,44.9447687 L15.3874269,44.9447687 C8.19319134,44.9447687 2.36111111,39.1192442 2.36111111,31.9330955 C2.36111111,24.7469469 8.19319134,18.9214224 15.3874269,18.9214224 L20.4201111,18.9211111 L20.4202652,6.80190058 C20.4202964,4.34931115 22.4085217,2.36111111 24.8611111,2.36111111 C27.3135745,2.36111111 29.3016889,4.3492255 29.3016889,6.80168888 C29.3016889,6.80175945 29.3016889,6.80183001 29.3016889,6.80190058 Z" id="路径" fill="#84C9AB"></path>
                <path d="M29.4405778,6.94078947 L29.44,19.06 L29.44,19.06 L42.7684825,19.0602297 C45.3816406,19.0602748 47.5,21.1786706 47.5,23.7918288 C47.5,26.4049738 45.3816275,28.5233463 42.7684825,28.5233463 L15.5263158,28.5233463 L15.5263158,28.5233463 C13.5642515,28.5233463 11.9736842,30.1121257 11.9736842,32.0719844 C11.9736842,33.9686219 13.4632894,35.5177345 15.3376392,35.6157037 L15.5263158,35.6206226 L34.4736842,35.6206226 C41.6679198,35.6206226 47.5,41.4461471 47.5,48.6322957 C47.5,55.7157851 41.8333604,61.4772476 34.7811616,61.6404152 L34.4736842,61.6439689 L29.44,61.643 L29.4405815,74.0592105 C29.4406964,76.511676 27.4526734,78.4998851 25.000208,78.5 C25.0001386,78.5 25.0000693,78.5 25,78.5 C22.5474107,78.5 20.5591857,76.5117998 20.5591551,74.0592105 L20.559,61.643 L20.559,61.643 L7.2315175,61.643715 C4.61851273,61.6438552 2.5001402,59.52571 2.50000001,56.9127052 C2.5,56.9126206 2.5,56.912536 2.5,56.9124514 C2.5,54.2993064 4.61837255,52.1809339 7.23151751,52.1809339 L34.4736842,52.1809339 L34.4736842,52.1809339 L34.6623608,52.176015 C36.5367106,52.0780458 38.0263158,50.5289332 38.0263158,48.6322957 C38.0263158,46.7356582 36.5367106,45.1865456 34.6623608,45.0885765 L34.4736842,45.0836576 L15.5263158,45.0836576 C8.33208023,45.0836576 2.5,39.2581331 2.5,32.0719844 C2.5,24.8858358 8.33208023,19.0603113 15.5263158,19.0603113 L20.559,19.06 L20.5591541,6.94078947 C20.5591853,4.48820004 22.5474106,2.5 25,2.5 C27.4524634,2.5 29.4405778,4.48811439 29.4405778,6.94057777 C29.4405778,6.94064834 29.4405778,6.9407189 29.4405778,6.94078947 Z" id="路径" fill="#84C9AB"></path>
                <path d="M29.5794667,7.07967836 L29.5788889,19.1988889 L29.5788889,19.1988889 L42.9073714,19.1991186 C45.5205295,19.1991637 47.6388889,21.3175595 47.6388889,23.9307177 C47.6388889,26.5438626 45.5205163,28.6622352 42.9073714,28.6622352 L15.6652047,28.6622352 L15.6652047,28.6622352 C13.7031404,28.6622352 12.1125731,30.2510146 12.1125731,32.2108733 C12.1125731,34.1075108 13.6021783,35.6566234 15.4765281,35.7545926 L15.6652047,35.7595115 L34.6125731,35.7595115 C41.8068087,35.7595115 47.6388889,41.585036 47.6388889,48.7711846 C47.6388889,55.854674 41.9722493,61.6161365 34.9200505,61.7793041 L34.6125731,61.7828578 L29.5788889,61.7818889 L29.5794704,74.1980994 C29.5795852,76.6505649 27.5915623,78.638774 25.1390969,78.6388889 C25.1390275,78.6388889 25.1389582,78.6388889 25.1388889,78.6388889 C22.6862996,78.6388889 20.6980746,76.6506887 20.698044,74.1980994 L20.6978889,61.7818889 L20.6978889,61.7818889 L7.37040639,61.7826039 C4.75740162,61.7827441 2.63902908,59.6645989 2.6388889,57.0515941 C2.63888889,57.0515095 2.63888889,57.0514249 2.63888889,57.0513403 C2.63888889,54.4381953 4.75726143,52.3198227 7.3704064,52.3198227 L34.6125731,52.3198227 L34.6125731,52.3198227 L34.8012496,52.3149038 C36.6755995,52.2169347 38.1652047,50.6678221 38.1652047,48.7711846 C38.1652047,46.8745471 36.6755995,45.3254345 34.8012496,45.2274654 L34.6125731,45.2225465 L15.6652047,45.2225465 C8.47096912,45.2225465 2.63888889,39.397022 2.63888889,32.2108733 C2.63888889,25.0247247 8.47096912,19.1992002 15.6652047,19.1992002 L20.6978889,19.1988889 L20.698043,7.07967836 C20.6980741,4.62708893 22.6862995,2.63888889 25.1388889,2.63888889 C27.5913523,2.63888889 29.5794667,4.62700328 29.5794667,7.07946666 C29.5794667,7.07953723 29.5794667,7.07960779 29.5794667,7.07967836 Z" id="路径" fill="#84C9AB"></path>
                <path d="M29.7183555,7.21856725 L29.7177778,19.3377778 L29.7177778,19.3377778 L43.0462603,19.3380075 C45.6594184,19.3380525 47.7777778,21.4564484 47.7777778,24.0696066 C47.7777778,26.6827515 45.6594052,28.8011241 43.0462603,28.8011241 L15.8040936,28.8011241 L15.8040936,28.8011241 C13.8420293,28.8011241 12.251462,30.3899035 12.251462,32.3497622 C12.251462,34.2463997 13.7410672,35.7955123 15.615417,35.8934815 L15.8040936,35.8984003 L34.751462,35.8984003 C41.9456975,35.8984003 47.7777778,41.7239248 47.7777778,48.9100735 C47.7777778,55.9935629 42.1111382,61.7550254 35.0589394,61.918193 L34.751462,61.9217466 L29.7177778,61.9207778 L29.7183593,74.3369883 C29.7184741,76.7894537 27.7304512,78.7776629 25.2779857,78.7777778 C25.2779164,78.7777778 25.2778471,78.7777778 25.2777778,78.7777778 C22.8251885,78.7777778 20.8369635,76.7895776 20.8369328,74.3369883 L20.8367778,61.9207778 L20.8367778,61.9207778 L7.50929528,61.9214928 C4.89629051,61.921633 2.77791797,59.8034877 2.77777778,57.190483 C2.77777778,57.1903984 2.77777778,57.1903138 2.77777778,57.1902291 C2.77777778,54.5770842 4.89615032,52.4587116 7.50929529,52.4587116 L34.751462,52.4587116 L34.751462,52.4587116 L34.9401385,52.4537927 C36.8144884,52.3558236 38.3040936,50.806711 38.3040936,48.9100735 C38.3040936,47.013436 36.8144884,45.4643234 34.9401385,45.3663543 L34.751462,45.3614354 L15.8040936,45.3614354 C8.60985801,45.3614354 2.77777778,39.5359109 2.77777778,32.3497622 C2.77777778,25.1636136 8.60985801,19.3380891 15.8040936,19.3380891 L20.8367778,19.3377778 L20.8369318,7.21856725 C20.836963,4.76597782 22.8251883,2.77777778 25.2777778,2.77777778 C27.7302412,2.77777778 29.7183555,4.76589217 29.7183555,7.21835555 C29.7183555,7.21842611 29.7183555,7.21849668 29.7183555,7.21856725 Z" id="路径" fill="#84C9AB"></path>
                <path d="M29.8572444,7.35745614 L29.8566667,19.4766667 L29.8566667,19.4766667 L43.1851492,19.4768964 C45.7983073,19.4769414 47.9166667,21.5953373 47.9166667,24.2084955 C47.9166667,26.8216404 45.7982941,28.940013 43.1851492,28.940013 L15.9429825,28.940013 L15.9429825,28.940013 C13.9809182,28.940013 12.3903509,30.5287924 12.3903509,32.4886511 C12.3903509,34.3852886 13.8799561,35.9344012 15.7543059,36.0323703 L15.9429825,36.0372892 L34.8903509,36.0372892 C42.0845864,36.0372892 47.9166667,41.8628137 47.9166667,49.0489624 C47.9166667,56.1324518 42.2500271,61.8939143 35.1978283,62.0570819 L34.8903509,62.0606355 L29.8566667,62.0596667 L29.8572482,74.4758772 C29.857363,76.9283426 27.8693401,78.9165518 25.4168746,78.9166667 C25.4168053,78.9166667 25.416736,78.9166667 25.4166667,78.9166667 C22.9640774,78.9166667 20.9758524,76.9284665 20.9758217,74.4758772 L20.9756667,62.0596667 L20.9756667,62.0596667 L7.64818417,62.0603817 C5.0351794,62.0605219 2.91680686,59.9423766 2.91666667,57.3293719 C2.91666667,57.3292873 2.91666667,57.3292026 2.91666667,57.329118 C2.91666667,54.7159731 5.03503921,52.5976005 7.64818418,52.5976005 L34.8903509,52.5976005 L34.8903509,52.5976005 L35.0790274,52.5926816 C36.9533773,52.4947125 38.4429825,50.9455999 38.4429825,49.0489624 C38.4429825,47.1523249 36.9533773,45.6032123 35.0790274,45.5052431 L34.8903509,45.5003243 L15.9429825,45.5003243 C8.7487469,45.5003243 2.91666667,39.6747998 2.91666667,32.4886511 C2.91666667,25.3025025 8.7487469,19.476978 15.9429825,19.476978 L20.9756667,19.4766667 L20.9758207,7.35745614 C20.9758519,4.9048667 22.9640772,2.91666667 25.4166667,2.91666667 C27.86913,2.91666667 29.8572444,4.90478105 29.8572444,7.35724444 C29.8572444,7.357315 29.8572444,7.35738557 29.8572444,7.35745614 Z" id="路径" fill="#84C9AB"></path>
                <path d="M29.9961333,7.49634502 L29.9955556,19.6155556 L29.9955556,19.6155556 L43.324038,19.6157853 C45.9371962,19.6158303 48.0555556,21.7342262 48.0555556,24.3473843 C48.0555556,26.9605293 45.937183,29.0789019 43.324038,29.0789019 L16.0818713,29.0789019 L16.0818713,29.0789019 C14.1198071,29.0789019 12.5292398,30.6676813 12.5292398,32.62754 C12.5292398,34.5241775 14.018845,36.0732901 15.8931948,36.1712592 L16.0818713,36.1761781 L35.0292398,36.1761781 C42.2234753,36.1761781 48.0555556,42.0017026 48.0555556,49.1878513 C48.0555556,56.2713407 42.388916,62.0328032 35.3367171,62.1959708 L35.0292398,62.1995244 L29.9955556,62.1985556 L29.9961371,74.6147661 C29.9962519,77.0672315 28.008229,79.0554407 25.5557635,79.0555556 C25.5556942,79.0555556 25.5556249,79.0555556 25.5555556,79.0555556 C23.1029663,79.0555556 21.1147413,77.0673554 21.1147106,74.6147661 L21.1145556,62.1985556 L21.1145556,62.1985556 L7.78707306,62.1992706 C5.17406829,62.1994108 3.05569575,60.0812655 3.05555556,57.4682608 C3.05555556,57.4681761 3.05555556,57.4680915 3.05555556,57.4680069 C3.05555556,54.854862 5.1739281,52.7364894 7.78707307,52.7364894 L35.0292398,52.7364894 L35.0292398,52.7364894 L35.2179163,52.7315705 C37.0922661,52.6336014 38.5818713,51.0844887 38.5818713,49.1878513 C38.5818713,47.2912138 37.0922661,45.7421012 35.2179163,45.644132 L35.0292398,45.6392131 L16.0818713,45.6392131 C8.88763579,45.6392131 3.05555556,39.8136886 3.05555556,32.62754 C3.05555556,25.4413913 8.88763579,19.6158668 16.0818713,19.6158668 L21.1145556,19.6155556 L21.1147096,7.49634503 C21.1147408,5.04375559 23.1029661,3.05555556 25.5555556,3.05555556 C28.0080189,3.05555556 29.9961333,5.04366994 29.9961333,7.49613333 C29.9961333,7.49620389 29.9961333,7.49627446 29.9961333,7.49634502 Z" id="路径" fill="#84C9AB"></path>
                <path d="M30.1350222,7.63523391 L30.1344444,19.7544444 L30.1344444,19.7544444 L43.4629269,19.7546742 C46.0760851,19.7547192 48.1944444,21.8731151 48.1944444,24.4862732 C48.1944444,27.0994182 46.0760719,29.2177907 43.4629269,29.2177907 L16.2207602,29.2177907 L16.2207602,29.2177907 C14.258696,29.2177907 12.6681287,30.8065702 12.6681287,32.7664289 C12.6681287,34.6630664 14.1577339,36.212179 16.0320837,36.3101481 L16.2207602,36.315067 L35.1681287,36.315067 C42.3623642,36.315067 48.1944444,42.1405915 48.1944444,49.3267402 C48.1944444,56.4102295 42.5278049,62.1716921 35.475606,62.3348597 L35.1681287,62.3384133 L30.1344444,62.3374444 L30.1350259,74.753655 C30.1351408,77.2061204 28.1471179,79.1943296 25.6946524,79.1944444 C25.6945831,79.1944444 25.6945138,79.1944444 25.6944444,79.1944444 C23.2418552,79.1944444 21.2536301,77.2062442 21.2535995,74.753655 L21.2534444,62.3374444 L21.2534444,62.3374444 L7.92596195,62.3381595 C5.31295718,62.3382997 3.19458464,60.2201544 3.19444445,57.6071496 C3.19444445,57.607065 3.19444444,57.6069804 3.19444444,57.6068958 C3.19444444,54.9937508 5.31281699,52.8753783 7.92596195,52.8753783 L35.1681287,52.8753783 L35.1681287,52.8753783 L35.3568052,52.8704594 C37.231155,52.7724903 38.7207602,51.2233776 38.7207602,49.3267402 C38.7207602,47.4301027 37.231155,45.8809901 35.3568052,45.7830209 L35.1681287,45.778102 L16.2207602,45.778102 C9.02652468,45.778102 3.19444444,39.9525775 3.19444444,32.7664289 C3.19444444,25.5802802 9.02652468,19.7547557 16.2207602,19.7547557 L21.2534444,19.7544444 L21.2535985,7.63523392 C21.2536297,5.18264448 23.241855,3.19444444 25.6944444,3.19444444 C28.1469078,3.19444444 30.1350222,5.18255883 30.1350222,7.63502222 C30.1350222,7.63509278 30.1350222,7.63516335 30.1350222,7.63523391 Z" id="路径" fill="#84C9AB"></path>
                <path d="M30.2739111,7.7741228 L30.2733333,19.8933333 L30.2733333,19.8933333 L43.6018158,19.8935631 C46.214974,19.8936081 48.3333333,22.012004 48.3333333,24.6251621 C48.3333333,27.2383071 46.2149608,29.3566796 43.6018158,29.3566796 L16.3596491,29.3566796 L16.3596491,29.3566796 C14.3975849,29.3566796 12.8070175,30.945459 12.8070175,32.9053178 C12.8070175,34.8019552 14.2966227,36.3510679 16.1709726,36.449037 L16.3596491,36.4539559 L35.3070175,36.4539559 C42.5012531,36.4539559 48.3333333,42.2794804 48.3333333,49.4656291 C48.3333333,56.5491184 42.6666937,62.310581 35.6144949,62.4737486 L35.3070175,62.4773022 L30.2733333,62.4763333 L30.2739148,74.8925439 C30.2740297,77.3450093 28.2860067,79.3332185 25.8335413,79.3333333 C25.833472,79.3333333 25.8334027,79.3333333 25.8333333,79.3333333 C23.3807441,79.3333333 21.392519,77.3451331 21.3924884,74.8925439 L21.3923333,62.4763333 L21.3923333,62.4763333 L8.06485084,62.4770484 C5.45184607,62.4771885 3.33347353,60.3590433 3.33333334,57.7460385 C3.33333334,57.7459539 3.33333333,57.7458693 3.33333333,57.7457847 C3.33333333,55.1326397 5.45170588,53.0142672 8.06485084,53.0142672 L35.3070175,53.0142672 L35.3070175,53.0142672 L35.4956941,53.0093483 C37.3700439,52.9113791 38.8596491,51.3622665 38.8596491,49.4656291 C38.8596491,47.5689916 37.3700439,46.019879 35.4956941,45.9219098 L35.3070175,45.9169909 L16.3596491,45.9169909 C9.16541357,45.9169909 3.33333333,40.0914664 3.33333333,32.9053178 C3.33333333,25.7191691 9.16541357,19.8936446 16.3596491,19.8936446 L21.3923333,19.8933333 L21.3924874,7.77412281 C21.3925186,5.32153337 23.3807439,3.33333333 25.8333333,3.33333333 C28.2857967,3.33333333 30.2739111,5.32144772 30.2739111,7.7739111 C30.2739111,7.77398167 30.2739111,7.77405224 30.2739111,7.7741228 Z" id="路径" fill="#84C9AB"></path>
                <path d="M30.4128,7.91301169 L30.4122222,20.0322222 L30.4122222,20.0322222 L43.7407047,20.032452 C46.3538629,20.032497 48.4722222,22.1508929 48.4722222,24.764051 C48.4722222,27.377196 46.3538497,29.4955685 43.7407047,29.4955685 L16.498538,29.4955685 L16.498538,29.4955685 C14.5364738,29.4955685 12.9459064,31.0843479 12.9459064,33.0442067 C12.9459064,34.9408441 14.4355116,36.4899568 16.3098615,36.5879259 L16.498538,36.5928448 L35.4459064,36.5928448 C42.640142,36.5928448 48.4722222,42.4183693 48.4722222,49.6045179 C48.4722222,56.6880073 42.8055826,62.4494699 35.7533838,62.6126375 L35.4459064,62.6161911 L30.4122222,62.6152222 L30.4128037,75.0314328 C30.4129186,77.4838982 28.4248956,79.4721074 25.9724302,79.4722222 C25.9723609,79.4722222 25.9722915,79.4722222 25.9722222,79.4722222 C23.5196329,79.4722222 21.5314079,77.484022 21.5313773,75.0314327 L21.5312222,62.6152222 L21.5312222,62.6152222 L8.20373973,62.6159372 C5.59073496,62.6160774 3.47236242,60.4979322 3.47222223,57.8849274 C3.47222222,57.8848428 3.47222222,57.8847582 3.47222222,57.8846736 C3.47222222,55.2715286 5.59059477,53.1531561 8.20373973,53.1531561 L35.4459064,53.1531561 L35.4459064,53.1531561 L35.634583,53.1482372 C37.5089328,53.050268 38.998538,51.5011554 38.998538,49.6045179 C38.998538,47.7078805 37.5089328,46.1587678 35.634583,46.0607987 L35.4459064,46.0558798 L16.498538,46.0558798 C9.30430246,46.0558798 3.47222222,40.2303553 3.47222222,33.0442067 C3.47222222,25.858058 9.30430246,20.0325335 16.498538,20.0325335 L21.5312222,20.0322222 L21.5313763,7.9130117 C21.5314075,5.46042226 23.5196328,3.47222222 25.9722222,3.47222222 C28.4246856,3.47222222 30.4128,5.46033661 30.4128,7.91279999 C30.4128,7.91287056 30.4128,7.91294112 30.4128,7.91301169 Z" id="路径" fill="#84C9AB"></path>
                <path d="M30.5516889,8.05190058 L30.5511111,20.1711111 L30.5511111,20.1711111 L43.8795936,20.1713408 C46.4927518,20.1713859 48.6111111,22.2897817 48.6111111,24.9029399 C48.6111111,27.5160849 46.4927386,29.6344574 43.8795936,29.6344574 L16.6374269,29.6344574 L16.6374269,29.6344574 C14.6753627,29.6344574 13.0847953,31.2232368 13.0847953,33.1830955 C13.0847953,35.079733 14.5744005,36.6288456 16.4487504,36.7268148 L16.6374269,36.7317337 L35.5847953,36.7317337 C42.7790309,36.7317337 48.6111111,42.5572582 48.6111111,49.7434068 C48.6111111,56.8268962 42.9444715,62.5883587 35.8922727,62.7515264 L35.5847953,62.75508 L30.5511111,62.7541111 L30.5516926,75.1703216 C30.5518075,77.6227871 28.5637845,79.6109962 26.1113191,79.6111111 C26.1112498,79.6111111 26.1111804,79.6111111 26.1111111,79.6111111 C23.6585218,79.6111111 21.6702968,77.6229109 21.6702662,75.1703216 L21.6701111,62.7541111 L21.6701111,62.7541111 L8.34262861,62.7548261 C5.72962385,62.7549663 3.61125131,60.6368211 3.61111112,58.0238163 C3.61111111,58.0237317 3.61111111,58.0236471 3.61111111,58.0235625 C3.61111111,55.4104175 5.72948366,53.292045 8.34262862,53.292045 L35.5847953,53.292045 L35.5847953,53.292045 L35.7734719,53.2871261 C37.6478217,53.1891569 39.1374269,51.6400443 39.1374269,49.7434068 C39.1374269,47.8467694 37.6478217,46.2976567 35.7734719,46.1996876 L35.5847953,46.1947687 L16.6374269,46.1947687 C9.44319134,46.1947687 3.61111111,40.3692442 3.61111111,33.1830955 C3.61111111,25.9969469 9.44319134,20.1714224 16.6374269,20.1714224 L21.6701111,20.1711111 L21.6702652,8.05190058 C21.6702964,5.59931115 23.6585217,3.61111111 26.1111111,3.61111111 C28.5635745,3.61111111 30.5516889,5.5992255 30.5516889,8.05168888 C30.5516889,8.05175945 30.5516889,8.05183001 30.5516889,8.05190058 Z" id="路径" fill="#84C9AB"></path>
                <path d="M30.6905778,8.19078947 L30.69,20.31 L30.69,20.31 L44.0184825,20.3102297 C46.6316406,20.3102748 48.75,22.4286706 48.75,25.0418288 C48.75,27.6549738 46.6316275,29.7733463 44.0184825,29.7733463 L16.7763158,29.7733463 L16.7763158,29.7733463 C14.8142515,29.7733463 13.2236842,31.3621257 13.2236842,33.3219844 C13.2236842,35.2186219 14.7132894,36.7677345 16.5876392,36.8657037 L16.7763158,36.8706226 L35.7236842,36.8706226 C42.9179198,36.8706226 48.75,42.6961471 48.75,49.8822957 C48.75,56.9657851 43.0833604,62.7272476 36.0311616,62.8904152 L35.7236842,62.8939689 L30.69,62.893 L30.6905815,75.3092105 C30.6906964,77.761676 28.7026734,79.7498851 26.250208,79.75 C26.2501386,79.75 26.2500693,79.75 26.25,79.75 C23.7974107,79.75 21.8091857,77.7617998 21.8091551,75.3092105 L21.809,62.893 L21.809,62.893 L8.4815175,62.893715 C5.86851273,62.8938552 3.7501402,60.77571 3.75000001,58.1627052 C3.75,58.1626206 3.75,58.162536 3.75,58.1624514 C3.75,55.5493064 5.86837255,53.4309339 8.48151751,53.4309339 L35.7236842,53.4309339 L35.7236842,53.4309339 L35.9123608,53.426015 C37.7867106,53.3280458 39.2763158,51.7789332 39.2763158,49.8822957 C39.2763158,47.9856582 37.7867106,46.4365456 35.9123608,46.3385765 L35.7236842,46.3336576 L16.7763158,46.3336576 C9.58208023,46.3336576 3.75,40.5081331 3.75,33.3219844 C3.75,26.1358358 9.58208023,20.3103113 16.7763158,20.3103113 L21.809,20.31 L21.8091541,8.19078947 C21.8091853,5.73820004 23.7974106,3.75 26.25,3.75 C28.7024634,3.75 30.6905778,5.73811439 30.6905778,8.19057777 C30.6905778,8.19064834 30.6905778,8.1907189 30.6905778,8.19078947 Z" id="路径" fill="#84C9AB"></path>
                <path d="M30.8294667,8.32967836 L30.8288889,20.4488889 L30.8288889,20.4488889 L44.1573714,20.4491186 C46.7705295,20.4491637 48.8888889,22.5675595 48.8888889,25.1807177 C48.8888889,27.7938626 46.7705163,29.9122352 44.1573714,29.9122352 L16.9152047,29.9122352 L16.9152047,29.9122352 C14.9531404,29.9122352 13.3625731,31.5010146 13.3625731,33.4608733 C13.3625731,35.3575108 14.8521783,36.9066234 16.7265281,37.0045926 L16.9152047,37.0095115 L35.8625731,37.0095115 C43.0568087,37.0095115 48.8888889,42.835036 48.8888889,50.0211846 C48.8888889,57.104674 43.2222493,62.8661365 36.1700505,63.0293041 L35.8625731,63.0328578 L30.8288889,63.0318889 L30.8294704,75.4480994 C30.8295852,77.9005649 28.8415623,79.888774 26.3890969,79.8888889 C26.3890275,79.8888889 26.3889582,79.8888889 26.3888889,79.8888889 C23.9362996,79.8888889 21.9480746,77.9006887 21.948044,75.4480994 L21.9478889,63.0318889 L21.9478889,63.0318889 L8.62040639,63.0326039 C6.00740162,63.0327441 3.88902908,60.9145989 3.8888889,58.3015941 C3.88888889,58.3015095 3.88888889,58.3014249 3.88888889,58.3013403 C3.88888889,55.6881953 6.00726143,53.5698227 8.6204064,53.5698227 L35.8625731,53.5698227 L35.8625731,53.5698227 L36.0512496,53.5649038 C37.9255995,53.4669347 39.4152047,51.9178221 39.4152047,50.0211846 C39.4152047,48.1245471 37.9255995,46.5754345 36.0512496,46.4774654 L35.8625731,46.4725465 L16.9152047,46.4725465 C9.72096912,46.4725465 3.88888889,40.647022 3.88888889,33.4608733 C3.88888889,26.2747247 9.72096912,20.4492002 16.9152047,20.4492002 L21.9478889,20.4488889 L21.948043,8.32967836 C21.9480741,5.87708893 23.9362995,3.88888889 26.3888889,3.88888889 C28.8413523,3.88888889 30.8294667,5.87700328 30.8294667,8.32946666 C30.8294667,8.32953723 30.8294667,8.32960779 30.8294667,8.32967836 Z" id="路径" fill="#84C9AB"></path>
                <path d="M30.9683555,8.46856725 L30.9677778,20.5877778 L30.9677778,20.5877778 L44.2962603,20.5880075 C46.9094184,20.5880525 49.0277778,22.7064484 49.0277778,25.3196066 C49.0277778,27.9327515 46.9094052,30.0511241 44.2962603,30.0511241 L17.0540936,30.0511241 L17.0540936,30.0511241 C15.0920293,30.0511241 13.501462,31.6399035 13.501462,33.5997622 C13.501462,35.4963997 14.9910672,37.0455123 16.865417,37.1434815 L17.0540936,37.1484003 L36.001462,37.1484003 C43.1956975,37.1484003 49.0277778,42.9739248 49.0277778,50.1600735 C49.0277778,57.2435629 43.3611382,63.0050254 36.3089394,63.168193 L36.001462,63.1717466 L30.9677778,63.1707778 L30.9683593,75.5869883 C30.9684741,78.0394537 28.9804512,80.0276629 26.5279857,80.0277778 C26.5279164,80.0277778 26.5278471,80.0277778 26.5277778,80.0277778 C24.0751885,80.0277778 22.0869635,78.0395776 22.0869328,75.5869883 L22.0867778,63.1707778 L22.0867778,63.1707778 L8.75929528,63.1714928 C6.14629051,63.171633 4.02791797,61.0534877 4.02777778,58.440483 C4.02777778,58.4403984 4.02777778,58.4403138 4.02777778,58.4402291 C4.02777778,55.8270842 6.14615032,53.7087116 8.75929529,53.7087116 L36.001462,53.7087116 L36.001462,53.7087116 L36.1901385,53.7037927 C38.0644884,53.6058236 39.5540936,52.056711 39.5540936,50.1600735 C39.5540936,48.263436 38.0644884,46.7143234 36.1901385,46.6163543 L36.001462,46.6114354 L17.0540936,46.6114354 C9.85985801,46.6114354 4.02777778,40.7859109 4.02777778,33.5997622 C4.02777778,26.4136136 9.85985801,20.5880891 17.0540936,20.5880891 L22.0867778,20.5877778 L22.0869318,8.46856725 C22.086963,6.01597782 24.0751883,4.02777778 26.5277778,4.02777778 C28.9802412,4.02777778 30.9683555,6.01589217 30.9683555,8.46835555 C30.9683555,8.46842611 30.9683555,8.46849668 30.9683555,8.46856725 Z" id="路径" fill="#84C9AB"></path>
                <path d="M31.1072444,8.60745614 L31.1066667,20.7266667 L31.1066667,20.7266667 L44.4351492,20.7268964 C47.0483073,20.7269414 49.1666667,22.8453373 49.1666667,25.4584955 C49.1666667,28.0716404 47.0482941,30.190013 44.4351492,30.190013 L17.1929825,30.190013 L17.1929825,30.190013 C15.2309182,30.190013 13.6403509,31.7787924 13.6403509,33.7386511 C13.6403509,35.6352886 15.1299561,37.1844012 17.0043059,37.2823703 L17.1929825,37.2872892 L36.1403509,37.2872892 C43.3345864,37.2872892 49.1666667,43.1128137 49.1666667,50.2989624 C49.1666667,57.3824518 43.5000271,63.1439143 36.4478283,63.3070819 L36.1403509,63.3106355 L31.1066667,63.3096667 L31.1072482,75.7258772 C31.107363,78.1783426 29.1193401,80.1665518 26.6668746,80.1666667 C26.6668053,80.1666667 26.666736,80.1666667 26.6666667,80.1666667 C24.2140774,80.1666667 22.2258524,78.1784665 22.2258217,75.7258772 L22.2256667,63.3096667 L22.2256667,63.3096667 L8.89818417,63.3103817 C6.2851794,63.3105219 4.16680686,61.1923766 4.16666667,58.5793719 C4.16666667,58.5792873 4.16666667,58.5792026 4.16666667,58.579118 C4.16666667,55.9659731 6.28503921,53.8476005 8.89818418,53.8476005 L36.1403509,53.8476005 L36.1403509,53.8476005 L36.3290274,53.8426816 C38.2033773,53.7447125 39.6929825,52.1955999 39.6929825,50.2989624 C39.6929825,48.4023249 38.2033773,46.8532123 36.3290274,46.7552431 L36.1403509,46.7503243 L17.1929825,46.7503243 C9.9987469,46.7503243 4.16666667,40.9247998 4.16666667,33.7386511 C4.16666667,26.5525025 9.9987469,20.726978 17.1929825,20.726978 L22.2256667,20.7266667 L22.2258207,8.60745614 C22.2258519,6.1548667 24.2140772,4.16666667 26.6666667,4.16666667 C29.11913,4.16666667 31.1072444,6.15478105 31.1072444,8.60724444 C31.1072444,8.607315 31.1072444,8.60738557 31.1072444,8.60745614 Z" id="路径" fill="#84C9AB"></path>
                <path d="M31.2461333,8.74634502 L31.2455556,20.8655556 L31.2455556,20.8655556 L44.574038,20.8657853 C47.1871962,20.8658303 49.3055556,22.9842262 49.3055556,25.5973843 C49.3055556,28.2105293 47.187183,30.3289019 44.574038,30.3289019 L17.3318713,30.3289019 L17.3318713,30.3289019 C15.3698071,30.3289019 13.7792398,31.9176813 13.7792398,33.87754 C13.7792398,35.7741775 15.268845,37.3232901 17.1431948,37.4212592 L17.3318713,37.4261781 L36.2792398,37.4261781 C43.4734753,37.4261781 49.3055556,43.2517026 49.3055556,50.4378513 C49.3055556,57.5213407 43.638916,63.2828032 36.5867171,63.4459708 L36.2792398,63.4495244 L31.2455556,63.4485556 L31.2461371,75.8647661 C31.2462519,78.3172315 29.258229,80.3054407 26.8057635,80.3055556 C26.8056942,80.3055556 26.8056249,80.3055556 26.8055556,80.3055556 C24.3529663,80.3055556 22.3647413,78.3173554 22.3647106,75.8647661 L22.3645556,63.4485556 L22.3645556,63.4485556 L9.03707306,63.4492706 C6.42406829,63.4494108 4.30569575,61.3312655 4.30555556,58.7182608 C4.30555556,58.7181761 4.30555556,58.7180915 4.30555556,58.7180069 C4.30555556,56.104862 6.4239281,53.9864894 9.03707307,53.9864894 L36.2792398,53.9864894 L36.2792398,53.9864894 L36.4679163,53.9815705 C38.3422661,53.8836014 39.8318713,52.3344887 39.8318713,50.4378513 C39.8318713,48.5412138 38.3422661,46.9921012 36.4679163,46.894132 L36.2792398,46.8892131 L17.3318713,46.8892131 C10.1376358,46.8892131 4.30555556,41.0636886 4.30555556,33.87754 C4.30555556,26.6913913 10.1376358,20.8658668 17.3318713,20.8658668 L22.3645556,20.8655556 L22.3647096,8.74634503 C22.3647408,6.29375559 24.3529661,4.30555556 26.8055556,4.30555556 C29.2580189,4.30555556 31.2461333,6.29366994 31.2461333,8.74613333 C31.2461333,8.74620389 31.2461333,8.74627446 31.2461333,8.74634502 Z" id="路径" fill="#84C9AB"></path>
                <path d="M31.3850222,8.88523391 L31.3844444,21.0044444 L31.3844444,21.0044444 L44.7129269,21.0046742 C47.3260851,21.0047192 49.4444444,23.1231151 49.4444444,25.7362732 C49.4444444,28.3494182 47.3260719,30.4677907 44.7129269,30.4677907 L17.4707602,30.4677907 L17.4707602,30.4677907 C15.508696,30.4677907 13.9181287,32.0565702 13.9181287,34.0164289 C13.9181287,35.9130664 15.4077339,37.462179 17.2820837,37.5601481 L17.4707602,37.565067 L36.4181287,37.565067 C43.6123642,37.565067 49.4444444,43.3905915 49.4444444,50.5767402 C49.4444444,57.6602295 43.7778049,63.4216921 36.725606,63.5848597 L36.4181287,63.5884133 L31.3844444,63.5874444 L31.3850259,76.003655 C31.3851408,78.4561204 29.3971179,80.4443296 26.9446524,80.4444444 C26.9445831,80.4444444 26.9445138,80.4444444 26.9444444,80.4444444 C24.4918552,80.4444444 22.5036301,78.4562442 22.5035995,76.003655 L22.5034444,63.5874444 L22.5034444,63.5874444 L9.17596195,63.5881595 C6.56295718,63.5882997 4.44458464,61.4701544 4.44444445,58.8571496 C4.44444445,58.857065 4.44444444,58.8569804 4.44444444,58.8568958 C4.44444444,56.2437508 6.56281699,54.1253783 9.17596195,54.1253783 L36.4181287,54.1253783 L36.4181287,54.1253783 L36.6068052,54.1204594 C38.481155,54.0224903 39.9707602,52.4733776 39.9707602,50.5767402 C39.9707602,48.6801027 38.481155,47.1309901 36.6068052,47.0330209 L36.4181287,47.028102 L17.4707602,47.028102 C10.2765247,47.028102 4.44444444,41.2025775 4.44444444,34.0164289 C4.44444444,26.8302802 10.2765247,21.0047557 17.4707602,21.0047557 L22.5034444,21.0044444 L22.5035985,8.88523392 C22.5036297,6.43264448 24.491855,4.44444444 26.9444444,4.44444444 C29.3969078,4.44444444 31.3850222,6.43255883 31.3850222,8.88502222 C31.3850222,8.88509278 31.3850222,8.88516335 31.3850222,8.88523391 Z" id="路径" fill="#84C9AB"></path>
                <path d="M31.5239111,9.0241228 L31.5233333,21.1433333 L31.5233333,21.1433333 L44.8518158,21.1435631 C47.464974,21.1436081 49.5833333,23.262004 49.5833333,25.8751621 C49.5833333,28.4883071 47.4649608,30.6066796 44.8518158,30.6066796 L17.6096491,30.6066796 L17.6096491,30.6066796 C15.6475849,30.6066796 14.0570175,32.195459 14.0570175,34.1553178 C14.0570175,36.0519552 15.5466227,37.6010679 17.4209726,37.699037 L17.6096491,37.7039559 L36.5570175,37.7039559 C43.7512531,37.7039559 49.5833333,43.5294804 49.5833333,50.7156291 C49.5833333,57.7991184 43.9166937,63.560581 36.8644949,63.7237486 L36.5570175,63.7273022 L31.5233333,63.7263333 L31.5239148,76.1425439 C31.5240297,78.5950093 29.5360067,80.5832185 27.0835413,80.5833333 C27.083472,80.5833333 27.0834027,80.5833333 27.0833333,80.5833333 C24.6307441,80.5833333 22.642519,78.5951331 22.6424884,76.1425439 L22.6423333,63.7263333 L22.6423333,63.7263333 L9.31485084,63.7270484 C6.70184607,63.7271885 4.58347353,61.6090433 4.58333334,58.9960385 C4.58333334,58.9959539 4.58333333,58.9958693 4.58333333,58.9957847 C4.58333333,56.3826397 6.70170588,54.2642672 9.31485084,54.2642672 L36.5570175,54.2642672 L36.5570175,54.2642672 L36.7456941,54.2593483 C38.6200439,54.1613791 40.1096491,52.6122665 40.1096491,50.7156291 C40.1096491,48.8189916 38.6200439,47.269879 36.7456941,47.1719098 L36.5570175,47.1669909 L17.6096491,47.1669909 C10.4154136,47.1669909 4.58333333,41.3414664 4.58333333,34.1553178 C4.58333333,26.9691691 10.4154136,21.1436446 17.6096491,21.1436446 L22.6423333,21.1433333 L22.6424874,9.02412281 C22.6425186,6.57153337 24.6307439,4.58333333 27.0833333,4.58333333 C29.5357967,4.58333333 31.5239111,6.57144772 31.5239111,9.0239111 C31.5239111,9.02398167 31.5239111,9.02405224 31.5239111,9.0241228 Z" id="路径" fill="#84C9AB"></path>
                <path d="M31.6628,9.16301169 L31.6622222,21.2822222 L31.6622222,21.2822222 L44.9907047,21.282452 C47.6038629,21.282497 49.7222222,23.4008929 49.7222222,26.014051 C49.7222222,28.627196 47.6038497,30.7455685 44.9907047,30.7455685 L17.748538,30.7455685 L17.748538,30.7455685 C15.7864738,30.7455685 14.1959064,32.3343479 14.1959064,34.2942067 C14.1959064,36.1908441 15.6855116,37.7399568 17.5598615,37.8379259 L17.748538,37.8428448 L36.6959064,37.8428448 C43.890142,37.8428448 49.7222222,43.6683693 49.7222222,50.8545179 C49.7222222,57.9380073 44.0555826,63.6994699 37.0033838,63.8626375 L36.6959064,63.8661911 L31.6622222,63.8652222 L31.6628037,76.2814328 C31.6629186,78.7338982 29.6748956,80.7221074 27.2224302,80.7222222 C27.2223609,80.7222222 27.2222915,80.7222222 27.2222222,80.7222222 C24.7696329,80.7222222 22.7814079,78.734022 22.7813773,76.2814327 L22.7812222,63.8652222 L22.7812222,63.8652222 L9.45373973,63.8659372 C6.84073496,63.8660774 4.72236242,61.7479322 4.72222223,59.1349274 C4.72222222,59.1348428 4.72222222,59.1347582 4.72222222,59.1346736 C4.72222222,56.5215286 6.84059477,54.4031561 9.45373973,54.4031561 L36.6959064,54.4031561 L36.6959064,54.4031561 L36.884583,54.3982372 C38.7589328,54.300268 40.248538,52.7511554 40.248538,50.8545179 C40.248538,48.9578805 38.7589328,47.4087678 36.884583,47.3107987 L36.6959064,47.3058798 L17.748538,47.3058798 C10.5543025,47.3058798 4.72222222,41.4803553 4.72222222,34.2942067 C4.72222222,27.108058 10.5543025,21.2825335 17.748538,21.2825335 L22.7812222,21.2822222 L22.7813763,9.1630117 C22.7814075,6.71042226 24.7696328,4.72222222 27.2222222,4.72222222 C29.6746856,4.72222222 31.6628,6.71033661 31.6628,9.16279999 C31.6628,9.16287056 31.6628,9.16294112 31.6628,9.16301169 Z" id="路径" fill="#84C9AB"></path>
                <path d="M31.8016889,9.30190058 L31.8011111,21.4211111 L31.8011111,21.4211111 L45.1295936,21.4213408 C47.7427518,21.4213859 49.8611111,23.5397817 49.8611111,26.1529399 C49.8611111,28.7660849 47.7427386,30.8844574 45.1295936,30.8844574 L17.8874269,30.8844574 L17.8874269,30.8844574 C15.9253627,30.8844574 14.3347953,32.4732368 14.3347953,34.4330955 C14.3347953,36.329733 15.8244005,37.8788456 17.6987504,37.9768148 L17.8874269,37.9817337 L36.8347953,37.9817337 C44.0290309,37.9817337 49.8611111,43.8072582 49.8611111,50.9934068 C49.8611111,58.0768962 44.1944715,63.8383587 37.1422727,64.0015264 L36.8347953,64.00508 L31.8011111,64.0041111 L31.8016926,76.4203216 C31.8018075,78.8727871 29.8137845,80.8609962 27.3613191,80.8611111 C27.3612498,80.8611111 27.3611804,80.8611111 27.3611111,80.8611111 C24.9085218,80.8611111 22.9202968,78.8729109 22.9202662,76.4203216 L22.9201111,64.0041111 L22.9201111,64.0041111 L9.59262861,64.0048261 C6.97962385,64.0049663 4.86125131,61.8868211 4.86111112,59.2738163 C4.86111111,59.2737317 4.86111111,59.2736471 4.86111111,59.2735625 C4.86111111,56.6604175 6.97948366,54.542045 9.59262862,54.542045 L36.8347953,54.542045 L36.8347953,54.542045 L37.0234719,54.5371261 C38.8978217,54.4391569 40.3874269,52.8900443 40.3874269,50.9934068 C40.3874269,49.0967694 38.8978217,47.5476567 37.0234719,47.4496876 L36.8347953,47.4447687 L17.8874269,47.4447687 C10.6931913,47.4447687 4.86111111,41.6192442 4.86111111,34.4330955 C4.86111111,27.2469469 10.6931913,21.4214224 17.8874269,21.4214224 L22.9201111,21.4211111 L22.9202652,9.30190058 C22.9202964,6.84931115 24.9085217,4.86111111 27.3611111,4.86111111 C29.8135745,4.86111111 31.8016889,6.8492255 31.8016889,9.30168888 C31.8016889,9.30175945 31.8016889,9.30183001 31.8016889,9.30190058 Z" id="路径" fill="#84C9AB"></path>
                <path d="M31.9405778,9.44078947 L31.94,21.56 L31.94,21.56 L45.2684825,21.5602297 C47.8816406,21.5602748 50,23.6786706 50,26.2918288 C50,28.9049738 47.8816275,31.0233463 45.2684825,31.0233463 L18.0263158,31.0233463 L18.0263158,31.0233463 C16.0642515,31.0233463 14.4736842,32.6121257 14.4736842,34.5719844 C14.4736842,36.4686219 15.9632894,38.0177345 17.8376392,38.1157037 L18.0263158,38.1206226 L36.9736842,38.1206226 C44.1679198,38.1206226 50,43.9461471 50,51.1322957 C50,58.2157851 44.3333604,63.9772476 37.2811616,64.1404152 L36.9736842,64.1439689 L31.94,64.143 L31.9405815,76.5592105 C31.9406964,79.011676 29.9526734,80.9998851 27.500208,81 C27.5001386,81 27.5000693,81 27.5,81 C25.0474107,81 23.0591857,79.0117998 23.0591551,76.5592105 L23.059,64.143 L23.059,64.143 L9.7315175,64.143715 C7.11851273,64.1438552 5.0001402,62.02571 5.00000001,59.4127052 C5,59.4126206 5,59.412536 5,59.4124514 C5,56.7993064 7.11837255,54.6809339 9.73151751,54.6809339 L36.9736842,54.6809339 L36.9736842,54.6809339 L37.1623608,54.676015 C39.0367106,54.5780458 40.5263158,53.0289332 40.5263158,51.1322957 C40.5263158,49.2356582 39.0367106,47.6865456 37.1623608,47.5885765 L36.9736842,47.5836576 L18.0263158,47.5836576 C10.8320802,47.5836576 5,41.7581331 5,34.5719844 C5,27.3858358 10.8320802,21.5603113 18.0263158,21.5603113 L23.059,21.56 L23.0591541,9.44078947 C23.0591853,6.98820004 25.0474106,5 27.5,5 C29.9524634,5 31.9405778,6.98811439 31.9405778,9.44057777 C31.9405778,9.44064834 31.9405778,9.4407189 31.9405778,9.44078947 Z" id="路径" fill="#84C9AB"></path>
                <path d="M26.9405778,4.44078947 L26.94,16.56 L26.94,16.56 L40.2684825,16.5602297 C42.8816406,16.5602748 45,18.6786706 45,21.2918288 C45,23.9049738 42.8816275,26.0233463 40.2684825,26.0233463 L13.0263158,26.0233463 L13.0263158,26.0233463 C11.0642515,26.0233463 9.47368421,27.6121257 9.47368421,29.5719844 C9.47368421,31.4686219 10.9632894,33.0177345 12.8376392,33.1157037 L13.0263158,33.1206226 L31.9736842,33.1206226 C39.1679198,33.1206226 45,38.9461471 45,46.1322957 C45,53.2157851 39.3333604,58.9772476 32.2811616,59.1404152 L31.9736842,59.1439689 L26.94,59.143 L26.9405815,71.5592105 C26.9406964,74.011676 24.9526734,75.9998851 22.500208,76 C22.5001386,76 22.5000693,76 22.5,76 C20.0474107,76 18.0591857,74.0117998 18.0591551,71.5592105 L18.059,59.143 L18.059,59.143 L4.7315175,59.143715 C2.11851273,59.1438552 0.000140195419,57.02571 6.80913903e-09,54.4127052 C2.26971269e-09,54.4126206 1.60661787e-19,54.412536 0,54.4124514 C-3.20017962e-16,51.7993064 2.11837255,49.6809339 4.73151751,49.6809339 L31.9736842,49.6809339 L31.9736842,49.6809339 L32.1623608,49.676015 C34.0367106,49.5780458 35.5263158,48.0289332 35.5263158,46.1322957 C35.5263158,44.2356582 34.0367106,42.6865456 32.1623608,42.5885765 L31.9736842,42.5836576 L13.0263158,42.5836576 C5.83208023,42.5836576 0,36.7581331 0,29.5719844 C0,22.3858358 5.83208023,16.5603113 13.0263158,16.5603113 L18.059,16.56 L18.0591541,4.44078947 C18.0591853,1.98820004 20.0474106,4.5053337e-16 22.5,0 C24.9524634,-4.50510215e-16 26.9405778,1.98811439 26.9405778,4.44057777 C26.9405778,4.44064834 26.9405778,4.4407189 26.9405778,4.44078947 Z" id="路径" fill="#1BA160"></path>
            </g>
        </g>
    </g>
</svg>