<?xml version="1.0" encoding="utf-8"?>
<!-- Generator: Adobe Illustrator 25.2.3, SVG Export Plug-In . SVG Version: 6.00 Build 0)  -->
<svg version="1.1" id="Layer_1" xmlns="http://www.w3.org/2000/svg" xmlns:xlink="http://www.w3.org/1999/xlink" x="0px" y="0px"
	 viewBox="0 0 422.6 422.6" style="enable-background:new 0 0 422.6 422.6;" xml:space="preserve">
<style type="text/css">
	.st0{fill:url(#SVGID_1_);}
	.st1{fill:#161E42;}
	.st2{fill:url(#SVGID_2_);}
	.st3{fill:url(#SVGID_3_);}
	.st4{fill:url(#SVGID_4_);}
</style>
<linearGradient id="SVGID_1_" gradientUnits="userSpaceOnUse" x1="91.9888" y1="52.2193" x2="384.4304" y2="442.1414">
	<stop  offset="5.536529e-02" style="stop-color:#4189C8"/>
	<stop  offset="0.1306" style="stop-color:#386CAC"/>
	<stop  offset="0.2172" style="stop-color:#305193"/>
	<stop  offset="0.3058" style="stop-color:#2B3E80"/>
	<stop  offset="0.3968" style="stop-color:#273376"/>
	<stop  offset="0.4938" style="stop-color:#262F72"/>
	<stop  offset="1" style="stop-color:#FFFFFF"/>
</linearGradient>
<circle class="st0" cx="211.3" cy="211.3" r="211.3"/>
<circle class="st1" cx="211.3" cy="211.3" r="183.9"/>
<g>
	<linearGradient id="SVGID_2_" gradientUnits="userSpaceOnUse" x1="204.562" y1="150.2884" x2="324.538" y2="202.778">
		<stop  offset="5.536529e-02" style="stop-color:#4189C8"/>
		<stop  offset="0.1306" style="stop-color:#386CAC"/>
		<stop  offset="0.2172" style="stop-color:#305193"/>
		<stop  offset="0.3058" style="stop-color:#2B3E80"/>
		<stop  offset="0.3968" style="stop-color:#273376"/>
		<stop  offset="0.4938" style="stop-color:#262F72"/>
		<stop  offset="1" style="stop-color:#FFFFFF"/>
	</linearGradient>
	<path class="st2" d="M272,200c-2.4,0-4.8-0.7-6.9-2.2L202,154.2c-5.5-3.8-6.9-11.4-3.1-16.9c3.8-5.5,11.4-6.9,16.9-3.1l63.1,43.6
		c5.5,3.8,6.9,11.4,3.1,16.9C279.6,198.1,275.8,200,272,200z"/>
	<linearGradient id="SVGID_3_" gradientUnits="userSpaceOnUse" x1="183.2446" y1="199.0138" x2="303.2207" y2="251.5033">
		<stop  offset="5.536529e-02" style="stop-color:#4189C8"/>
		<stop  offset="0.1306" style="stop-color:#386CAC"/>
		<stop  offset="0.2172" style="stop-color:#305193"/>
		<stop  offset="0.3058" style="stop-color:#2B3E80"/>
		<stop  offset="0.3968" style="stop-color:#273376"/>
		<stop  offset="0.4938" style="stop-color:#262F72"/>
		<stop  offset="1" style="stop-color:#FFFFFF"/>
	</linearGradient>
	<path class="st3" d="M261.6,213.4c-14.8-10.2-32-15.2-49.9-14.3c-0.3,0-0.6,0-0.9,0.1c-0.3,0-0.6,0-1,0
		c-12.5,0.6-24.6-2.9-34.9-10.1c-12.5-8.7-20.9-21.7-23.6-36.6c-2.7-15,0.5-30.1,9.2-42.6c8.7-12.5,21.7-20.9,36.6-23.6
		c15-2.7,30.1,0.5,42.6,9.2c10.3,7.1,17.9,17.2,21.7,29.1c2.1,6.4,8.9,9.9,15.3,7.8c6.4-2.1,9.9-8.9,7.8-15.3
		c-5.5-17-16.3-31.4-31-41.6c-17.9-12.3-39.5-17-60.8-13.1c-21.4,3.9-39.9,15.9-52.3,33.7c-12.3,17.9-17,39.5-13.1,60.8
		c3.9,21.4,15.9,39.9,33.7,52.3c13.7,9.5,29.6,14.4,46.1,14.4c1.3,0,2.5,0,3.8-0.1c0.3,0,0.6,0,0.9-0.1c0.1,0,0.3,0,0.4,0
		c0.2,0,0.4,0,0.6,0c12.5-0.6,24.6,2.9,34.9,10.1c12.5,8.7,20.9,21.7,23.6,36.6c2.7,15-0.5,30.1-9.2,42.6
		c-8.7,12.5-21.7,20.9-36.6,23.6c-15,2.7-30.1-0.5-42.6-9.2c-10.3-7.1-17.9-17.2-21.7-29.1c-2.1-6.4-8.9-9.9-15.3-7.8
		c-6.4,2.1-9.9,8.9-7.8,15.3c5.5,17,16.3,31.4,31,41.6c13.7,9.5,29.7,14.4,46,14.4c4.9,0,9.8-0.4,14.8-1.3
		c21.4-3.9,39.9-15.9,52.3-33.7C307.7,289.7,298.5,238.9,261.6,213.4z"/>
	<linearGradient id="SVGID_4_" gradientUnits="userSpaceOnUse" x1="161.0384" y1="249.771" x2="281.0144" y2="302.2605">
		<stop  offset="5.536529e-02" style="stop-color:#4189C8"/>
		<stop  offset="0.1306" style="stop-color:#386CAC"/>
		<stop  offset="0.2172" style="stop-color:#305193"/>
		<stop  offset="0.3058" style="stop-color:#2B3E80"/>
		<stop  offset="0.3968" style="stop-color:#273376"/>
		<stop  offset="0.4938" style="stop-color:#262F72"/>
		<stop  offset="1" style="stop-color:#FFFFFF"/>
	</linearGradient>
	<path class="st4" d="M209,291c-2.4,0-4.8-0.7-6.9-2.2l-63.1-43.6c-5.5-3.8-6.9-11.4-3.1-16.9c3.8-5.5,11.4-6.9,16.9-3.1l63.1,43.6
		c5.5,3.8,6.9,11.4,3.1,16.9C216.7,289.1,212.9,291,209,291z"/>
</g>
</svg>
