<?xml version="1.0" encoding="utf-8"?>
<!-- Generator: Adobe Illustrator 24.0.3, SVG Export Plug-In . SVG Version: 6.00 Build 0)  -->
<svg version="1.1" id="_x37C_" xmlns="http://www.w3.org/2000/svg" xmlns:xlink="http://www.w3.org/1999/xlink" x="0px" y="0px"
	 viewBox="0 0 640 640" style="enable-background:new 0 0 640 640;" xml:space="preserve">
<style type="text/css">
	.st0{fill-rule:evenodd;clip-rule:evenodd;fill:url(#SVGID_1_);}
	.st1{fill-rule:evenodd;clip-rule:evenodd;fill:url(#SVGID_2_);}
	.st2{fill:url(#SVGID_3_);}
</style>
<g>
	<linearGradient id="SVGID_1_" gradientUnits="userSpaceOnUse" x1="167.9966" y1="478.6792" x2="447.9391" y2="187.772">
		<stop  offset="0" style="stop-color:#B4B4B5"/>
		<stop  offset="0.2683" style="stop-color:#B4B4B5"/>
		<stop  offset="0.9383" style="stop-color:#B4B4B5;stop-opacity:0"/>
	</linearGradient>
	<path class="st0" d="M241.56,369.5l42.96,25.23c-31.97,44.45-84.41,63.89-131.86,52.85c-54.2-12.61-90.68-62.46-77.52-101.32
		c8.65-25.54,40.02-45.44,123.09-13.92c69.86,26.51,164.43,114.61,238.57,124.22c56.39,7.31,89.94-25.57,119.44-98.22
		c-18.84,23.54-61.34,32.19-132.85-19.04c-61.2-43.85-128.83-130.85-209.92-153.21c-43.48-11.99-86.38,4.13-119.39,60.82
		c-12.2,20.95-14.22,22.02-3.25-1.19c22.83-48.26,60.65-79.84,120.31-67.5c57.34,11.87,120.27,67.17,164.25,109
		c32.87,31.26,57.52,52.55,90.41,67.99c56.34,26.44,80.86,5.43,87.73-12.41c6.87-17.84-2.45-47.54-45.84-58.73
		c-23.28-6.01-55.88-5.18-95.97,28.76l-34.44-32.89c42.41-36.8,68.07-49.94,114.34-39.82c52.73,11.53,85.5,63.89,73.42,101.77
		c-0.69,2.78-1.62,6.32-2.78,10.66C545.9,413.35,514,471.89,447.98,466.41c-65.47-5.43-122.36-56.19-174.53-86.26
		c-30.52-17.6-59.62-35.39-95.61-45.45c-58.65-16.38-83.85-6.13-92.31,13.52c-8.46,19.65,9.3,55.99,50.24,62.2
		C166.14,415.01,201.34,415.63,241.56,369.5"/>
	<linearGradient id="SVGID_2_" gradientUnits="userSpaceOnUse" x1="79.2779" y1="276.4986" x2="538.8115" y2="399.5218">
		<stop  offset="0" style="stop-color:#3074EE"/>
		<stop  offset="0.8726" style="stop-color:#3074EE"/>
		<stop  offset="1" style="stop-color:#3074EE;stop-opacity:0.2"/>
	</linearGradient>
	<path class="st1" d="M241.56,367.2l42.96,25.23c-31.97,44.45-84.41,63.89-131.86,52.85c-54.2-12.62-90.68-62.46-77.52-101.32
		c8.65-25.54,40.02-45.44,123.09-13.92c69.86,26.51,164.43,114.61,238.57,124.22c56.39,7.31,89.94-25.57,119.44-98.22
		c-18.84,23.54-61.34,32.19-132.85-19.04c-61.2-43.85-128.83-130.85-209.92-153.21c-43.48-11.99-86.38,4.13-119.39,60.82
		c-12.2,20.95-14.22,22.02-3.25-1.19c22.83-48.26,60.65-79.84,120.31-67.5c57.34,11.87,120.27,67.17,164.25,109
		c32.87,31.26,57.52,52.55,90.41,67.99c56.34,26.44,80.86,5.43,87.73-12.41c6.87-17.84-2.45-47.54-45.84-58.73
		c-23.28-6.01-55.88-5.18-95.97,28.76l-34.44-32.89c42.41-36.8,68.07-49.94,114.34-39.82c52.73,11.53,85.5,63.89,73.42,101.77
		c-0.69,2.78-1.62,6.32-2.78,10.66C545.9,411.05,514,469.59,447.98,464.11c-65.47-5.43-122.36-56.19-174.53-86.26
		c-30.52-17.6-59.62-35.39-95.61-45.45c-58.65-16.38-83.85-6.13-92.31,13.52c-8.46,19.65,9.3,55.99,50.24,62.2
		C166.14,412.71,201.34,413.33,241.56,367.2"/>
	<linearGradient id="SVGID_3_" gradientUnits="userSpaceOnUse" x1="129.8349" y1="330.2787" x2="507.2121" y2="330.2787">
		<stop  offset="0" style="stop-color:#00995D"/>
		<stop  offset="0.5" style="stop-color:#E52129"/>
		<stop  offset="0.99" style="stop-color:#FFEF00"/>
		<stop  offset="1" style="stop-color:#FFFFFF"/>
	</linearGradient>
	<path class="st2" d="M492.32,395.13l13.06-2.38l1.84-12.79l-38.39,7l-1.84,12.79l12.41-2.26l-6.09,42.35l12.93-2.36L492.32,395.13z
		 M459.98,383.8l-12.75-2.48l-7.93,55.14l12.75,2.48L459.98,383.8z M388.57,370.6l0.36,0.17l5.24,47.87l10.21,4.97l17.3-36.89
		l0.41,0.2l-7.27,41.78l11.8,5.75l7.93-55.14l-19.18-9.34l-13.01,30.72l-0.41-0.2l-3.46-38.74l-18.71-9.11l-7.93,55.14l11.8,5.74
		L388.57,370.6z M369.37,344.55l-11.09-7.29l-7.93,55.14l11.08,7.29L369.37,344.55z M332.95,320.05l-10.89-7.65l-7.93,55.14
		l27.93,19.63l1.84-12.79l-17.04-11.98L332.95,320.05z M288.14,335.67c-1.42-0.99-2.59-1.91-3.53-2.76
		c-0.94-0.85-1.66-1.79-2.17-2.82c-0.51-1.03-0.82-2.25-0.92-3.64c-0.1-1.39-0.02-3.13,0.24-5.22l1.79-12.43
		c0.33-2.03,0.72-3.54,1.16-4.53c0.44-0.99,1.01-1.57,1.69-1.77c0.69-0.19,1.53-0.04,2.51,0.47c0.99,0.5,2.19,1.25,3.61,2.25
		c1.42,0.99,2.6,1.92,3.56,2.78c0.96,0.86,1.69,1.81,2.2,2.84c0.51,1.03,0.82,2.23,0.92,3.6c0.1,1.37,0.01,3.08-0.29,5.14
		l-1.79,12.43c-0.3,2.06-0.67,3.59-1.11,4.6c-0.45,1.01-1.01,1.61-1.7,1.8c-0.69,0.19-1.53,0.03-2.54-0.48
		C290.77,337.42,289.56,336.67,288.14,335.67z M286.3,348.47c2.76,1.94,5.34,3.46,7.74,4.58c2.4,1.12,4.54,1.53,6.42,1.23
		c1.88-0.3,3.47-1.43,4.78-3.41c1.3-1.97,2.26-5.09,2.88-9.36l2.24-15.59c0.61-4.27,0.65-8.03,0.1-11.31
		c-0.55-3.27-1.55-6.23-3.01-8.87c-1.46-2.64-3.31-5.04-5.56-7.18c-2.25-2.15-4.75-4.19-7.51-6.12c-2.76-1.94-5.34-3.46-7.74-4.58
		c-2.4-1.12-4.54-1.52-6.42-1.23c-1.88,0.3-3.47,1.43-4.78,3.41c-1.3,1.97-2.26,5.09-2.87,9.35l-2.24,15.59
		c-0.61,4.26-0.65,8.03-0.1,11.31c0.55,3.27,1.55,6.23,3.01,8.87c1.46,2.64,3.31,5.04,5.56,7.18
		C281.04,344.49,283.54,346.53,286.3,348.47z M222.98,307.32l11.36,6.74l2.1-14.63l8.81,5.23c1.7,1.01,2.83,2.37,3.39,4.09
		c0.56,1.71,0.65,3.57,0.27,5.59l-1.11,7.72l11.36,6.74l1.6-11.1c0.45-3.14,0.1-5.94-1.04-8.4c-1.15-2.46-2.89-4.44-5.22-5.93
		l0.08-0.59c2.09,0.6,3.76,0.74,5,0.41c1.24-0.33,2.21-1.04,2.93-2.13c0.71-1.09,1.24-2.54,1.58-4.33c0.34-1.79,0.68-3.84,1.01-6.15
		c0.49-3.43,0.59-6.4,0.3-8.92c-0.3-2.52-0.96-4.74-2-6.66c-1.04-1.92-2.44-3.66-4.21-5.21c-1.77-1.56-3.88-3.09-6.34-4.6
		l-21.93-13.02L222.98,307.32z M238.28,286.64l2.15-14.93l8.81,5.23c1.85,1.1,3.04,2.28,3.56,3.55c0.52,1.26,0.6,3.12,0.25,5.57
		c-0.23,1.57-0.43,2.88-0.63,3.94c-0.19,1.06-0.48,1.84-0.86,2.36c-0.38,0.52-0.92,0.74-1.61,0.68c-0.69-0.06-1.64-0.45-2.85-1.18
		L238.28,286.64z M196.83,249.36l20.55,8.67l1.73-12.06l-32.61-13.75l-7.93,55.14l33.03,13.93l1.73-12.06l-20.97-8.84l1.54-10.73
		l19.29,8.13l1.47-10.22l-19.29-8.13L196.83,249.36z M176.79,228.24l-37.56-7.52l-1.84,12.79l21.07,4.22l-0.06,0.44l-26.78,24.97
		l-1.79,12.43l39.03,7.82l1.84-12.79l-22.86-4.58l0.06-0.44l27.11-24.98L176.79,228.24z"/>
</g>
</svg>
