<svg xmlns="http://www.w3.org/2000/svg" width="48" height="48" viewBox="0 0 48 48">
    <defs>
        <linearGradient id="prefix__a" x1="100%" x2="0%" y1="0%" y2="100%">
            <stop offset="0%" stop-color="#5F6BFB"/>
            <stop offset="100%" stop-color="#724DE4"/>
        </linearGradient>
    </defs>
    <g fill="none" fill-rule="evenodd">
        <circle cx="24" cy="24" r="24" fill="url(#prefix__a)"/>
        <path fill="#FFF" d="M11.094 21.529c-1.563 1.562-2.196 3.819-1.658 5.918.536 2.1 2.16 3.724 4.26 4.26 2.099.537 4.355-.096 5.918-1.659l10.434-10.434c1.474-1.474 3.83-1.504 5.265-.07 1.435 1.435 1.404 3.791-.07 5.265l-3.362 3.363-1.904-1.904-1.288 6.758 6.758-1.289-1.904-1.903 3.363-3.363c1.563-1.562 2.196-3.819 1.658-5.918-.536-2.1-2.16-3.724-4.26-4.26-2.099-.537-4.355.096-5.918 1.659L17.952 28.386c-1.474 1.474-3.83 1.504-5.265.07-1.435-1.435-1.404-3.791.07-5.265l3.083-3.083 1.903 1.903 1.286-6.755-6.755 1.286 1.904 1.903-3.084 3.084z"/>
    </g>
</svg>
