<?xml version="1.0" encoding="UTF-8"?>
<svg width="40px" height="40px" viewBox="0 0 40 40" version="1.1" xmlns="http://www.w3.org/2000/svg" xmlns:xlink="http://www.w3.org/1999/xlink">
    <title>CYC</title>
    <g id="页面-1" stroke="none" stroke-width="1" fill="none" fill-rule="evenodd">
        <g id="Apple-TV" transform="translate(-624.000000, -426.000000)">
            <g id="编组-11" transform="translate(624.000000, 426.000000)">
                <g id="编组-2" fill="#4A8AF4">
                    <path d="M20,0 C8.953,0 0,8.955 0,20 C0,31.045 8.953,40 20,40 C31.045,40 40,31.045 40,20 C40,8.955 31.045,0 20,0" id="Fill-1"></path>
                </g>
                <path d="M16.001206,8 L11,8 L16.9139387,19.5729008 L11,19.5738121 L11,24.037519 L17.3267335,24.0360483 L17.207808,24.3313321 C17.1126827,24.5361436 16.9762357,24.7824402 16.7824658,25.0879217 C15.5368489,26.938405 13.914012,27.6948866 11.9950077,27.5130502 L11.0117606,27.4079017 L11.0117606,28.4280073 L11.0074599,31.9182002 L12.1584937,31.994001 C15.5088372,32.1092557 18.4683571,30.5617999 20.5131568,27.5218564 C20.9416783,26.847844 21.225782,26.3036582 21.4675347,25.7002221 L21.6943713,25.0858083 L22.0359822,24.0360483 L29,24.0375169 L29,19.5738211 L23.4936917,19.5729008 L27.2735709,8 L22.5862647,8 L20.0201527,15.8616096 L16.001206,8 Z" id="形状结合" fill="#FFFFFF" fill-rule="nonzero"></path>
            </g>
        </g>
    </g>
</svg>