<?xml version="1.0" encoding="utf-8"?>
<!-- Generator: Adobe Illustrator 22.0.0, SVG Export Plug-In . SVG Version: 6.00 Build 0)  -->
<svg version="1.1" id="图层_1" xmlns="http://www.w3.org/2000/svg" xmlns:xlink="http://www.w3.org/1999/xlink" x="0px" y="0px"
	 viewBox="0 0 500 500" style="enable-background:new 0 0 500 500;" xml:space="preserve">
<style type="text/css">
	.st0{fill:#3079D7;}
</style>
<g>
	<g>
		<path class="st0" d="M480.4,152c-12.6-29.7-30.6-56.5-53.5-79.4c-22.9-22.9-49.7-40.9-79.4-53.5c-30.8-13-63.5-19.6-97.2-19.6
			c-33.7,0-66.4,6.6-97.2,19.6c-29.8,12.6-56.5,30.6-79.4,53.5C50.7,95.6,32.7,122.3,20.1,152c-13,30.8-19.6,63.5-19.6,97.2
			c0,33.7,6.6,66.4,19.6,97.2c12.6,29.8,30.6,56.5,53.5,79.4c22.9,22.9,49.7,40.9,79.4,53.5c30.8,13,63.5,19.6,97.2,19.6
			c33.7,0,66.4-6.6,97.2-19.6c29.7-12.6,56.5-30.6,79.4-53.5c22.9-22.9,40.9-49.7,53.5-79.4c13-30.8,19.6-63.5,19.6-97.2
			C500,215.6,493.4,182.8,480.4,152z M250.2,19.1c13.9,0,27.4,1.2,40.6,3.6c-31.1,4.3-70.2,26.7-113.6,89.8l-0.5,0.8
			c-87.6,14.2-129.1,48.8-147.7,72.1C56.8,89.4,145.5,19.1,250.2,19.1z M20.1,249.2c0-17.3,1.9-34.2,5.6-50.4
			c45.2-36.7,114.6-41.5,128.5-42.1c-30.6,63.9-71.6,169.6-69.4,252.3C44.7,367.6,20.1,311.3,20.1,249.2z M250.2,479.4
			c-62.6,0-119.5-25.1-161-65.9c16.9-52.6,54.1-172.7,112-261c135.3-6.2,201.8,41.2,201.8,41.1c-33.2-90.3-148.1-89-165.7-88.3
			c36.1-39.3,78.4-63.4,126.9-56.1C433.6,89,480.4,163.8,480.4,249.2C480.4,376.2,377.2,479.4,250.2,479.4z M279,261.4
			c-27.5,0-49.9,22.2-49.9,49.6s22.3,49.6,49.9,49.6c27.5,0,49.9-22.2,49.9-49.6C328.9,283.6,306.5,261.4,279,261.4z"/>
	</g>
</g>
</svg>
