<?xml version="1.0" encoding="utf-8"?>
<!-- Generator: Adobe Illustrator 22.0.0, SVG Export Plug-In . SVG Version: 6.00 Build 0)  -->
<svg id="Capa_1" enable-background="new 0 0 512 512" height="512" viewBox="0 0 512 512" width="512" xmlns="http://www.w3.org/2000/svg"><g id="XMLID_980_">
<style type="text/css">
	.st0{fill:#E1902E;}
</style>
<g>
	<g>
		<path class="st0" d="M324.8,178.3l-1.8-1.1l15.6-26.5l-22.3-13.1L300.8,164l-22.3-13.2l18.3-31.2l-22.3-13.1l-18.3,31.1l-1.9-1.1
			l-8.4-5v0l-29.6-17.4l-15.6,26.5l29.4,17.4l-68.1,114.6l-29-17l-15.6,26.5l51.3,30.2L148,347.5l22.3,13.1l20.8-35.4l19.3,11.4
			l-18.1,30.8l22.3,13.1l18-30.7c42.6,24.6,73.3,21,92.2-10.8c9.9-18.2,8.3-37.3-4.6-57.5c18.1,0.6,31.7-6.7,40.6-21.8
			C375.5,230.6,363.4,203.4,324.8,178.3z M289,317.7c-9.7,14.7-25.9,15.7-48.8,2.8l-43-25.6l28.4-47.7l39.9,23.7
			C289.8,286.1,297.7,301.7,289,317.7z M324.6,239.4c-9,13.6-23.9,14.6-44.7,2.9l-37.9-22.5l24-40.4l37.9,22.5
			C323.3,214.2,330.2,226.7,324.6,239.4z M480.1,153.4c-12.6-29.7-30.6-56.4-53.5-79.3c-22.9-22.9-49.6-40.9-79.3-53.5
			c-30.8-13-63.4-19.6-97.1-19.6c-33.7,0-66.3,6.6-97.1,19.6c-29.7,12.6-56.4,30.6-79.3,53.5C50.9,97,32.9,123.7,20.4,153.4
			c-13,30.8-19.6,63.4-19.6,97.1c0,33.7,6.6,66.3,19.6,97.1c12.6,29.7,30.6,56.4,53.5,79.3c22.9,22.9,49.6,40.9,79.3,53.5
			c30.8,13,63.4,19.6,97.1,19.6c33.7,0,66.3-6.6,97.1-19.6c29.7-12.6,56.4-30.6,79.3-53.5c22.9-22.9,40.9-49.6,53.5-79.3
			c13-30.8,19.6-63.4,19.6-97.1C499.7,216.9,493.1,184.2,480.1,153.4z M250.2,480.4c-126.8,0-229.9-103.1-229.9-229.9
			c0-126.8,103.1-229.9,229.9-229.9c126.8,0,229.9,103.1,229.9,229.9C480.1,377.3,377,480.4,250.2,480.4z"/>
	</g>
</g>
</svg>
