<?xml version="1.0" encoding="utf-8"?>
<!-- Generator: Adobe Illustrator 22.0.0, SVG Export Plug-In . SVG Version: 6.00 Build 0)  -->
<svg version="1.1" id="图层_1" xmlns="http://www.w3.org/2000/svg" xmlns:xlink="http://www.w3.org/1999/xlink" x="0px" y="0px"
	 viewBox="0 0 87.9 97" style="enable-background:new 0 0 87.9 97;" xml:space="preserve">
<style type="text/css">
	.st0{fill:#E46677;}
	.st1{fill:#5F7095;}
</style>
<g>
	<g>
		<path class="st0" d="M0,30.7v15.9l8-23.2L0,30.7z M16.7,20L1.8,63l36.6-6.7L16.7,20z M40.5,97V63L4.8,69.5L40.5,97z M47.5,63v34
			l35.7-27.5L47.5,63z"/>
	</g>
</g>
<path class="st1" d="M71.3,20L49.6,56.3L86.2,63L71.3,20z M44,0L29.3,8.2h29.4L44,0z M22,15.2L44,52l22-36.8
	C66,15.2,22,15.2,22,15.2z M79.9,23.4l8,23.2V30.7L79.9,23.4z"/>
</svg>
